<?xml version="1.0" standalone="no"?>
<!DOCTYPE svg PUBLIC "-//W3C//DTD SVG 1.1//EN" "http://www.w3.org/Graphics/SVG/1.1/DTD/svg11.dtd" >
<svg xmlns="http://www.w3.org/2000/svg">
<metadata></metadata>
<defs>
<font id="loved_by_the_kingregular" horiz-adv-x="731" >
<font-face units-per-em="2048" ascent="1638" descent="-410" />
<missing-glyph horiz-adv-x="1049" />
<glyph horiz-adv-x="0" />
<glyph unicode="&#xd;" horiz-adv-x="682" />
<glyph unicode=" "  horiz-adv-x="1049" />
<glyph unicode="&#x09;" horiz-adv-x="1049" />
<glyph unicode="&#xa0;" horiz-adv-x="1049" />
<glyph unicode="!" horiz-adv-x="524" d="M150 109q0 55 81 110q88 -37 97 -92v-53q-27 -74 -68 -74q-84 0 -110 109zM190 1118v789l97 -56v-1265l-15 -19h-26q-56 39 -56 551z" />
<glyph unicode="&#x22;" horiz-adv-x="670" d="M131 1579v43q8 82 43 82q74 0 94 -55q-39 -359 -67 -359h-27q-43 0 -43 289zM340 1358q27 264 111 264q55 -20 55 -43q-72 -147 -84 -373l-14 -14h-13q-55 0 -55 166z" />
<glyph unicode="#" horiz-adv-x="1317" d="M47 872l55 41l140 -14h123q153 0 153 84l12 82l-26 209q20 55 41 55h28q27 0 27 -43l14 -332h56q137 19 137 56v28l-27 359l56 28l55 -41l-14 -124l28 -236l166 14l55 -41v-55l-221 -29v-125l13 -233h43q116 0 178 27l55 -41l-276 -97l-13 -110l13 -111q-19 -98 -56 -98 h-26l-15 14l-14 41h-12l26 236l-26 28l-99 -14h-67v-84q0 -72 -43 -82h-41q-27 0 -41 166l-96 -14h-166q-68 0 -111 69q0 37 68 70q104 -43 305 -43l26 111v180l-26 28q-92 -28 -402 -43q-55 15 -55 84zM614 748q0 -222 41 -222h140l26 29v27l-14 305h-12q-181 -21 -181 -70 v-69z" />
<glyph unicode="$" horiz-adv-x="901" d="M121 635q35 250 84 250h14l12 -43q-26 -54 -26 -152v-110q57 -193 180 -193v12q-45 762 -166 762l-98 152v41q0 69 127 151l-58 281l41 29q70 -19 70 -41v-56q-14 -198 84 -198q387 -93 387 -359l-14 -43h-41q0 191 -291 320h-55l-13 -15v-14q0 -350 205 -483 q238 -244 238 -457q0 -111 -209 -207l-68 -14v-82q13 -94 39 -98q-24 -62 -55 -68h-12q-64 0 -82 248q-293 147 -293 387zM219 1327l68 -84h16l-29 139h-26l-29 -28v-27zM426 885q45 -527 82 -527h29q153 33 153 140v41q0 168 -237 372h-27v-26z" />
<glyph unicode="%" horiz-adv-x="752" d="M137 31v75q219 558 361 1493q0 134 75 191h31v-37q-104 -792 -317 -1532q-29 0 -29 -172l-47 -39zM137 1651l56 55h43l55 -55q0 -37 -70 -70q-57 21 -84 70zM453 147l55 56h41l55 -56q0 -36 -67 -67q-58 18 -84 67z" />
<glyph unicode="&#x26;" horiz-adv-x="1061" d="M129 328q248 250 248 415l-111 691v67q37 166 152 166q166 -61 166 -248q0 -295 -111 -692q0 -76 84 -332h41q88 0 96 361q0 49 -123 82v55l111 29l123 -13h84l96 13l14 -13v-55l-221 -55v-154q0 -399 -387 -399h-139q-123 0 -123 82zM322 356h124v111l-14 68h-26 q-37 0 -84 -166v-13zM362 1419q33 -454 84 -454q31 39 56 331q0 195 -70 248q-51 0 -70 -125z" />
<glyph unicode="'" horiz-adv-x="358" d="M74 1219q0 57 32 110q50 303 87 303q53 -26 53 -82q-101 -344 -129 -374h-11z" />
<glyph unicode="(" horiz-adv-x="629" d="M45 1153v195q0 430 221 579h29v-12q0 -39 -123 -248l-43 -332v-182q0 -487 291 -1034l12 -17l43 -26l111 69l12 -14v-12q-18 -127 -111 -127q-286 0 -442 1161z" />
<glyph unicode=")" horiz-adv-x="569" d="M74 1724q0 60 55 97q80 0 96 -207q303 -653 303 -1077q-106 -527 -276 -527l-41 15v41q221 163 221 497v55q0 369 -317 1051z" />
<glyph unicode="*" horiz-adv-x="895" d="M68 530l221 527v41l-68 125q2 71 55 110l13 -14q33 0 69 -96h15q51 0 180 235h68q30 -8 55 -69q-55 -162 -55 -250v-27q0 -29 165 -41l43 -55v-29q0 -31 -221 -82l-14 -69v-222l41 -180q-8 -69 -82 -69h-14q-29 8 -56 69l15 96q-43 70 -56 209l-14 13h-14 q-23 0 -277 -289q-69 12 -69 67zM289 807q84 0 84 84v27h-29q-35 0 -55 -111zM428 1028q8 -82 41 -82h29l12 70l-41 26h-41v-14zM483 1182l27 -29h14v55h-14z" />
<glyph unicode="+" horiz-adv-x="1032" d="M82 741v41q0 27 166 27h84l67 14v140l-12 81q19 74 68 111l55 -27l-12 -165v-111q0 -29 41 -29l276 29l27 -43v-12q0 -39 -318 -70v-14l56 -387q-19 -70 -41 -70h-29q-96 66 -85 268.5t-26 202.5l-288 -29z" />
<glyph unicode="," horiz-adv-x="524" d="M139 -377q97 397 97 570l-13 149l41 43v12q25 0 82 -67q-76 -746 -166 -746h-12q-29 0 -29 39z" />
<glyph unicode="-" horiz-adv-x="827" d="M100 760v69l596 68h13l43 -41v-41q-371 -41 -596 -96z" />
<glyph unicode="." horiz-adv-x="524" d="M182 96l60 78h43l57 -78q0 -51 -74 -96q-57 27 -86 96z" />
<glyph unicode="/" horiz-adv-x="713" d="M121 20v56q201 401 375 1272q0 96 67 137h29v-27q-139 -766 -332 -1300q-29 0 -29 -125l-38 -27z" />
<glyph unicode="0" horiz-adv-x="690" d="M39 616v72q-37 737 227 811q266 57 352 -563q0 -823 -276 -954h-12q-246 0 -291 634zM121 756q0 -514 153 -664h29q199 0 234 746q0 465 -152 540l-55 29q-172 -39 -209 -541v-110z" />
<glyph unicode="1" horiz-adv-x="451" d="M63 1575l39 29h43l56 -56l-27 -84v-82q0 -165 166 -1175l39 -41v-14q0 -117 -82 -152q-49 0 -84 41l16 82q0 217 -166 1452z" />
<glyph unicode="2" horiz-adv-x="651" d="M35 1073q41 213 114.5 353.5t135.5 144.5q110 -35 110 -320q-69 -727 -166 -1118q146 17 303 193h15l41 -41q0 -166 -373 -291l-111 29v12q277 1339 152 1370q-80 0 -96 -387l-41 -29q-37 0 -84 84z" />
<glyph unicode="3" horiz-adv-x="709" d="M55 1018q103 428 303 428q70 -21 70 -96q0 -84 -96 -443h67q236 0 236 -250q0 -315 -457 -634q-67 8 -67 69h-15q27 64 56 68l41 -13q346 259 346 539q0 51 -97 125q-178 0 -249 -221l-41 -43h-29q-27 8 -55 69q249 426 249 609v55l-14 14v15q-98 0 -125 -250l15 -15 q0 -40 -82 -81q-43 10 -56 55z" />
<glyph unicode="4" horiz-adv-x="594" d="M55 1432q23 69 68 69q37 0 70 -69l-27 -82l12 -719l43 -43h68l43 43q0 1022 82 1022q32 0 41 -70l-27 -276v-621h14q111 -29 -28 -166v-153l-15 -222l43 -67q-28 -84 -55 -84h-29q-55 29 -55 84l19 420l-199 -21l-55 43q14 838 -13 912z" />
<glyph unicode="5" horiz-adv-x="633" d="M62 984q-1 380 59 380q0 98 110 98q109 0 431 166l28 -29v-14q-74 -119 -485 -250q-68 -133 -68 -454l13 -125h14l151 26h15q221 0 262 -331v-13q-164 -336 -309.5 -389t-216.5 98v27l16 16v13q27 0 111 -103q194 43 303 351v28q-25 209 -166 209q-49 0 -221 -84 q-46 0 -47 380z" />
<glyph unicode="6" horiz-adv-x="633" d="M68 985v98q0 471 96 471h29q30 0 40 -71q-81 -117 -81 -260v-250q0 -228 41 -541h26q41 442 291 442q70 -34 70 -110v-193q0 -446 -207 -565l-70 -29q-235 0 -235 1008zM303 227q10 -71 41 -71h41q84 0 111 403v111q0 71 -41 82h-15q-94 0 -137 -359l14 -71z" />
<glyph unicode="7" horiz-adv-x="741" d="M23 1171v29l55 55q55 -28 151 -28h29q188 0 317 96h41l41 -41v-14q-55 -109 -82 -774h15l-15 -13v-28l15 -41l-15 -70v-192l56 -56q-27 -110 -111 -110q-37 0 -69 67q36 258 69 1106h-14l-248 -41l-43 14l-111 -14q-81 29 -81 55z" />
<glyph unicode="8" horiz-adv-x="621" d="M68 1194q0 219 401 344l14 16l41 27q56 -14 56 -82v-72q-222 -645 -222 -731q111 -198 152 -374q-64 -316 -262 -316q-111 0 -111 166l111 510q-129 231 -180 512zM178 1167q0 -217 98 -319h27l139 469v98h-14q-250 -61 -250 -235v-13zM233 143l29 -26q121 0 137 178v55 q0 99 -82 209q-65 -49 -84 -416z" />
<glyph unicode="9" horiz-adv-x="713" d="M33 1018q139 428 430 428l67 -14l70 41h29q41 0 41 -56q-70 -168 -70 -635h14l-14 -14v-553l41 -166l-55 -55q-56 0 -97 84l15 96v41l14 442l-14 84l14 166v27h-29q-116 -152 -262 -152q-194 0 -194 236zM143 948q43 -69 99 -69q174 0 276 372v29q-14 41 -84 41h-82 q-125 -45 -209 -248v-125z" />
<glyph unicode=":" horiz-adv-x="524" d="M137 961q4 43 99 81q67 -18 67 -94v-16l-39 -39h-16q-66 0 -111 68zM193 532q0 78 71 97q68 -17 68 -41v-43l-68 -56q-71 19 -71 43z" />
<glyph unicode=";" horiz-adv-x="524" d="M49 -608q221 151 221 706l-26 178l41 43v13l69 -41l-14 -55l14 -236q-51 -637 -250 -637v-12q-55 20 -55 41zM145 745q0 37 70 72q84 -31 84 -110l-43 -43q-111 43 -111 81z" />
<glyph unicode="&#x3c;" horiz-adv-x="821" d="M119 590q0 67 137 110q80 119 387 344q55 -12 55 -55q0 -24 -358 -303l-14 -70l372 -247v-43l-41 -41q-39 0 -331 207q-39 28 -181 43z" />
<glyph unicode="=" horiz-adv-x="1102" d="M188 518v68l594 69h15l41 -41v-41q-371 -43 -594 -98zM211 289v69l594 70h14l41 -43v-41q-371 -41 -594 -96z" />
<glyph unicode="&#x3e;" horiz-adv-x="1102" d="M78 1133v55q0 37 55 43v12q41 0 234 -205q319 -139 319 -264q0 -67 -319 -317q0 -31 -97 -70l-96 27v55q0 47 180 98q207 150 207 234z" />
<glyph unicode="?" horiz-adv-x="668" d="M178 961q0 55 166 165q139 263 139 347v96l-43 43q-39 0 -96 -221l-41 -29l-55 41q100 375 192 375h29q125 0 125 -209q0 -109 -209 -553l-41 -152v-137q8 -192 41 -209q-18 -57 -68 -84h-14q-29 8 -55 72l14 82q0 274 -84 373zM274 131v14l70 68h41q55 -27 55 -82 t-82 -55v-13q-57 19 -84 68z" />
<glyph unicode="@" horiz-adv-x="1061" d="M45 504v67q0 719 477 832q142 0 142 27q229 0 378 -613q0 -813 -475 -942h-22q-520 -29 -500 629zM188 754q-106 -744 263 -764h47q176 0 280 200q-24 -14 -55 -24h-55q-56 0 -56 102q-401 -268 -373.5 255.5t246.5 609.5q0 28 66 26h41l43 -26l-8 -125q37 -732 123 -732 l71 21q58 168 80 430q0 459 -356 557q-297 -37 -357 -530zM397 836q-153 -652 148 -449l10 422q-35 365 -158 27z" />
<glyph unicode="A" horiz-adv-x="788" d="M20 35q68 526 222 1161q102 505 285 505q7 0 14 -1q149 -4 155 -1376l43 -443l-69 -12h-29l-41 41v512l-14 207h-13q-331 -41 -362 -140q-53 -503 -80 -509h-55zM256 725l68 -53q276 61 276 94v250l14 180l-34 139q-39 166 -82 166q-88 0 -242 -776z" />
<glyph unicode="B" horiz-adv-x="735" d="M12 -23q80 220 80 803v56l-41 38v17l41 110q6 807 76 807h41q70 -43 70 -110h12q127 80 235 96q119 0 152 -180q0 -113 -211 -447v-16l123 16q102 0 153 -221q0 -284 -288 -637q-176 -231 -359 -413h-41q-43 12 -43 81zM178 184h15q176 0 411 541l29 111q0 221 -111 221 q-332 -121 -332 -250v-43zM190 1057h39q332 334 338 557q-24 63 -55 69q-139 0 -303 -206l-19 -353v-67z" />
<glyph unicode="C" d="M37 459q0 598 325 1061q181 221 291 221q84 -29 84 -55v-29q0 -27 -125 -27q-235 -123 -321 -401q-158 -314 -158 -701v-14q27 -414 193 -414l43 -14h82q79 35 180 332h41v-15q-72 -428 -248 -428q-234 0 -375 347z" />
<glyph unicode="D" d="M8 -6l82 346q29 424 57 1098v151q0 180 111 180q100 -139 193 -139q276 -151 276 -456q2 -28 2 -56q0 -446 -571 -1055q-21 -137 -82 -137q-56 0 -56 68h-12zM174 244h12q240 143 418 653l29 236v84q-53 344 -305 344q-99 0 -99 -193z" />
<glyph unicode="E" horiz-adv-x="735" d="M43 242l68 594l-41 69q55 105 55 166l-14 350q0 138 -29 138q0 110 387 182q70 -19 70 -43v-41q0 -43 -320 -103l-10 -483v-70q0 -28 39 -28l264 28l12 -14v-14q0 -55 -315 -111l-55 -608v-27q0 -151 110 -151l371 151l24 -84q1 -1 1 -2q0 -24 -439 -176q-135 0 -178 277 z" />
<glyph unicode="F" horiz-adv-x="549" d="M8 -29q152 523 152 969q-97 31 -97 70q0 32 97 84l14 55v260l14 221l-43 72q0 39 99 94l12 -12h139q215 67 291 67l41 -55v-12q0 -37 -262 -70q-195 -61 -195 -250l-14 -303l14 -41l277 68l28 -27v-28q0 -31 -208 -68q0 -27 -82 -43q-37 0 -111 -813l-14 -98v-140 l-82 -55z" />
<glyph unicode="G" horiz-adv-x="784" d="M35 471v111q0 589 282 1003q168 152 359 152q69 -17 69 -41v-43q-421 0 -503 -391q-111 -353 -111 -541v-277q55 -399 236 -399q165 277 165 647v72q0 160 -165 221l-15 39q0 98 277 111q37 0 69 -68l-98 -111l29 -180q-68 -842 -277 -842q-317 146 -317 537z" />
<glyph unicode="H" horiz-adv-x="770" d="M-10 -43l82 733l-27 84q66 0 98 647q62 277 111 277h12l56 -56v-28q-74 0 -140 -785l43 -14q332 25 332 55q31 744 84 744l41 16q70 -18 70 -43q-82 -143 -113 -882q-18 -760 -96 -760h-15l-41 41l41 401h-14l14 12v140l15 206l-15 15q-372 -27 -372 -111l-56 -622v-82 l-55 -43q-41 0 -41 55h-14z" />
<glyph unicode="I" horiz-adv-x="336" d="M47 82q29 33 87.5 775t98.5 742h29v15q14 8 25 8q33 0 33 -77q0 -36 -8 -89q-28 -203 -84 -549t-56 -757l27 -84v-27l-68 -55q-59 0 -84 98z" />
<glyph unicode="J" horiz-adv-x="592" d="M29 193l14 55h41q33 -152 84 -152h82q164 0 194 844v12l5 670q26 152 69 152h27l-15 -152l-4 -725q-32 -870 -235 -870q0 -27 -123 -27q-139 25 -139 193z" />
<glyph unicode="K" horiz-adv-x="696" d="M31 -84q49 0 98 967l-14 762l69 41q45 -15 56 -56l-29 -207v-718h41q332 581 332 800q59 56 110 56l56 -70q-97 -133 -443 -885v-41q119 -512 320 -512v-55l-70 -12q-166 0 -332 483h-14l-70 -594l-12 -14h-55q-35 0 -43 55z" />
<glyph unicode="L" horiz-adv-x="711" d="M70 35q110 287 110 844l-6 796q14 56 70 56l55 -43l-43 -193l8 -410v-206q0 -326 -55 -734v-12l27 -29h249l138 41l28 -41q0 -124 -514 -124q-55 0 -55 55h-12z" />
<glyph unicode="M" horiz-adv-x="983" d="M47 4l55 567h-14l14 13v180q0 659 -41 747q27 64 56 68h41q69 -4 166 -414q69 -131 151 -471h43l178 844v41l-12 84q0 55 68 55v15q84 -33 84 -99l96 -1437v-97q0 -71 -41 -82h-29l-41 27l15 207v43q0 598 -84 1063h-13q-84 -260 -180 -912l-84 -40q-76 0 -96 358 q-152 461 -193 498h-14l14 -207v-250q0 -871 -84 -871h-41z" />
<glyph unicode="N" horiz-adv-x="950" d="M53 109l29 401l-14 14l14 70v580q0 165 55 249v27l-55 70v41q27 55 82 55q61 0 235 -442q84 -162 250 -705l111 -221h12v151l-76 1043l13 192l-13 70q11 41 56 55q67 0 67 -137l-26 -84l8 -225l69 -1065l-14 -55l27 -166q-27 -64 -56 -70h-41q-51 0 -165 416 q-338 938 -402 966q-37 0 -55 -469l14 -194l-14 -125l29 -428l-41 -55h-15q-74 0 -84 41z" />
<glyph unicode="O" horiz-adv-x="809" d="M43 455v166q96 774 207 774q0 43 125 153h14q76 0 111 -125q262 -204 262 -718q0 -519 -277 -693l-139 -12q-227 0 -303 455zM113 524q41 -442 247 -442q318 0 318 649v55q-72 596 -289 596q-182 0 -276 -788l12 -14v-15z" />
<glyph unicode="P" horiz-adv-x="627" d="M59 1495q41 72 41 152l82 55l56 -41l180 12q291 -28 291 -248q0 -258 -498 -663q-29 -72 -29 -250v-317l15 -82q-19 -86 -70 -125l-41 41h-14l43 1175v180q0 62 -56 111zM197 887h41q331 264 374 497q0 207 -209 207q-206 0 -206 -207v-497z" />
<glyph unicode="Q" horiz-adv-x="922" d="M39 565v29q0 651 319 1077l138 43h28l39 -43q0 -22 -82 -55v-12q303 -265 303 -678v-29q0 -238 -67 -510q53 -137 166 -221l-56 -70q-36 0 -153 152q-160 -217 -221 -221l-123 -27q-209 0 -277 373zM109 442q47 -360 262 -360q235 125 235 291q0 67 -264 469v43l29 26h26 q31 0 250 -387h15q40 74 55 428q-99 541 -221 541h-15q-32 0 -41 -55h-26l-17 67l17 70h-17q-141 0 -276 -830z" />
<glyph unicode="R" horiz-adv-x="692" d="M20 74l43 137l27 995q-70 0 -70 56q56 84 56 124v111l43 41h12l98 -27l248 56h55q123 0 123 -195q-116 -397 -387 -579v-43q254 -754 375 -830l55 -12v-55l-69 -56q-86 0 -277 510l-151 346h-43v-14l16 -233q0 -402 -72 -402h-39q-32 0 -43 70zM174 889l27 -29h28 q316 279 316 498v69l-56 56h-12q-155 0 -291 -125l-12 -373v-96z" />
<glyph unicode="S" horiz-adv-x="809" d="M66 -49q16 67 40 67h29q45 -178 96 -178q318 0 361 387v68q-326 750 -326 1115q0 302 223 341l97 12q49 0 166 -96v-55h-27v-15q-111 70 -180 70h-70q-104 -58 -104 -261q0 -346 303 -1111l14 -68q0 -276 -317 -458l-99 -27q-206 59 -206 209z" />
<glyph unicode="T" horiz-adv-x="715" d="M-6 1475v41l41 40l166 -26q166 12 221 55l84 -29l373 56l41 -15v-41q0 -40 -56 -40v-15l-55 15q-313 -41 -332 -70l15 -414l4 -618l12 -82l-12 -70v-151q0 -66 -70 -111q-64 27 -68 55v41q56 74 56 125v55l12 248l-12 70l8 340q-31 512 -68 512h-69l-222 -14 q-69 18 -69 43z" />
<glyph unicode="U" horiz-adv-x="739" d="M49 963q33 665 96 665h41l27 -29v-12q-80 -538 -80 -723v-82l12 -14l-12 -14v-68q45 -582 123 -582h14q199 0 305 775l13 165l-43 500l43 55q110 0 110 -165l-12 -375q-141 -1079 -430 -1079q-207 0 -207 983z" />
<glyph unicode="V" horiz-adv-x="745" d="M45 1556l55 56q82 0 238 -1243q74 -179 96 -179q166 584 166 912v123l10 456l70 41q84 -28 84 -55q0 -47 -43 -96q-25 -789 -246 -1534l-67 -41q-66 0 -84 207q-97 252 -279 1353z" />
<glyph unicode="W" horiz-adv-x="1087" d="M72 635v166q2 897 71 897h13q47 -15 55 -56q-55 -462 -55 -690v-428l14 -192l-14 -43q10 -152 41 -152q139 203 317 926v98l-27 41q35 96 82 96q80 0 99 -96l-15 -96q60 -858 181 -858q73 0 96 497v236q0 199 -41 666l55 96q55 -14 55 -82l27 -860q-51 -705 -192 -705 q-164 0 -250 801q-37 -23 -181 -498q-157 -462 -233 -469h-29q-35 0 -41 56h-14z" />
<glyph unicode="X" horiz-adv-x="782" d="M-23 -195q302 453 388 885v70l-207 635l41 41h14q45 0 166 -455l14 -14q0 -41 27 -41h29q167 682 276 774q45 -14 55 -55q-110 -150 -305 -914v-14q146 -309 264 -498q-20 -55 -43 -55h-12q-31 4 -250 416q-39 -33 -221 -553l-137 -250l-70 -13z" />
<glyph unicode="Y" horiz-adv-x="758" d="M53 66v14h29v14l125 -84q311 0 399 1272h-12l-195 -332q-151 -192 -192 -192h-43q-60 0 -68 192v125q8 572 137 664l41 -15v-41q-81 -227 -81 -692q14 -96 40 -96q248 231 408 803h55l56 -56q-68 -129 -131 -884q-107 -830 -347 -830v-14q-192 0 -221 152z" />
<glyph unicode="Z" horiz-adv-x="922" d="M39 55q524 883 582 1594l-41 14l-402 -139q-61 28 -67 55v14q0 41 221 56q0 28 332 125h41l40 -41v-15q2 -30 2 -61q0 -494 -542 -1491v-43h55l541 153q82 0 82 -98v-12q-27 -55 -82 -55l-99 26l-581 -137q-39 0 -82 55z" />
<glyph unicode="[" horiz-adv-x="647" d="M33 8q55 170 78 1497q0 56 82 56v14l430 -96v-29q-15 -41 -82 -41l-305 27q-56 0 -93 -1399q33 -166 209 -166h68q65 0 139 82h41v-12q0 -136 -221 -166q-346 67 -346 233z" />
<glyph unicode="\" horiz-adv-x="637" d="M-2 1378l55 43h43q37 0 111 -331q184 -531 414 -996q-21 -55 -41 -55h-29q-49 0 -358 829q-78 267 -195 510z" />
<glyph unicode="]" horiz-adv-x="608" d="M20 1552v27l56 43l221 -43h82l151 14l70 -55q-137 -123 -137 -788l-33 -672q0 -135 111 -262q-23 -70 -99 -70q-372 61 -372 96v41l12 15l43 14v14q113 -43 207 -43v140q47 1122 88 1433q-400 41 -400 96z" />
<glyph unicode="^" horiz-adv-x="885" d="M123 670v67q293 733 346 733h27q57 0 264 -512l55 -67v-55l-55 -17q-139 0 -139 238q-107 241 -138 248h-14q-84 -86 -276 -596l-56 -39h-14z" />
<glyph unicode="_" horiz-adv-x="1245" d="M27 63v41l28 29l248 -29h209l608 70q58 -18 84 -70v-14l-28 -41l-166 14h-15l-553 -55h-288q-109 0 -127 55z" />
<glyph unicode="`" horiz-adv-x="709" d="M111 1409l24 78q70 49 500 -168l-111 -88z" />
<glyph unicode="a" horiz-adv-x="700" d="M76 137v150q0 637 233 719q39 0 111 84h43l41 -29l-15 -205q39 -735 125 -735h27v-12q0 -76 -55 -99h-56q-55 0 -96 305h-14q-80 -471 -248 -471q-96 0 -96 293zM172 137q0 -153 41 -153q90 0 180 718v15q-10 194 -41 194h-43q-137 0 -137 -581v-193z" />
<glyph unicode="b" horiz-adv-x="680" d="M45 1585q0 37 68 70l69 -43l-14 -123l55 -690h15q120 166 206 166h43q166 -142 166 -293q-94 -459 -331 -690l-17 -13q-55 13 -55 68h-27q-102 0 -110 43v12l26 111q0 944 -94 1382zM266 92l13 -12q129 76 235 426l29 110q0 238 -127 238q-131 0 -150 -762z" />
<glyph unicode="c" horiz-adv-x="647" d="M18 406v96q0 403 209 635l138 69l41 -14v-27q-277 -186 -277 -512l-12 -125v-178q0 -213 205 -276q165 0 208 137h41l15 -41q0 -150 -221 -195q-224 0 -304 222q-43 112 -43 209z" />
<glyph unicode="d" horiz-adv-x="651" d="M57 324q0 241 236 471q194 45 194 151v193l-28 319q26 62 55 68q78 0 96 -68l-28 -98q33 -1371 62 -1371q1 0 1 1l-45 -33q-57 25 -61 25l-13 577l-12 14h-14q-84 -581 -250 -581h-27q-166 0 -166 332zM168 242q0 -107 70 -140h12q82 0 194 609l-12 14h-55 q-209 -127 -209 -346v-137z" />
<glyph unicode="e" horiz-adv-x="647" d="M18 616q56 43 99 359q106 180 205 180q221 -65 221 -221v-41q0 -309 -277 -428h-94v-29q0 -248 123 -346h43q78 0 221 221l12 -12h15q-99 -319 -277 -319q-162 0 -264 567q-22 0 -27 69zM156 643q12 -68 43 -68h84q166 78 166 318v14q-21 137 -127 137q-166 0 -166 -401z " />
<glyph unicode="f" horiz-adv-x="524" d="M-59 709q28 84 55 84h29l110 -29h12q27 0 27 162v45q53 567 375 567q221 -8 221 -55v-27l-14 -14l-41 -15v-14l-15 14h-165q-222 0 -263 -401v-262h13q149 24 305 96l14 -12v-29q-14 -63 -332 -151l13 -443v-125q0 -104 -56 -125h-12l-43 56l29 139l-13 442l-16 41h-27 q-170 0 -206 56z" />
<glyph unicode="g" horiz-adv-x="696" d="M25 229q0 416 260 734l209 81q0 70 96 70h26l43 -41v-69q-98 -185 -98 -457l17 -815q0 -623 -195 -623q0 -27 -70 -27q-166 35 -166 152v14h27q92 -69 154 -69q151 0 151 456v676l-12 99h-29q-104 -387 -303 -387h-16q-47 6 -94 206zM135 174q0 -41 55 -41q113 0 277 664 v123q-236 0 -320 -414l-12 -111v-221z" />
<glyph unicode="h" horiz-adv-x="719" d="M8 1550q23 62 84 97h41l41 -41v-15l-27 -110v-97l27 -692l14 -41h27q92 346 277 346q133 0 153 -761l27 -152l-41 -70q-72 0 -84 140v96q0 622 -111 622q-170 -65 -207 -663q9 -195 29 -195q-29 -61 -55 -67h-43q-68 39 -68 110l27 68q-58 1425 -111 1425z" />
<glyph unicode="i" horiz-adv-x="285" d="M53 641q0 289 84 289h27l43 -56q-55 -55 -55 -303q6 -262 81 -510v-28l-40 -43h-41q-66 0 -99 651zM96 1206q27 76 68 84q53 0 98 -55q0 -41 -98 -96q-37 0 -68 67z" />
<glyph unicode="j" horiz-adv-x="418" d="M-162 -719h27l98 -194l12 -13h29q221 0 221 719q-41 680 -139 1106q20 68 98 68l41 -39l-14 -183q96 -743 96 -978v-72q0 -719 -317 -719q-152 80 -152 221v84zM45 1120l55 68q90 -35 97 -68v-43l-41 -39h-70q-41 13 -41 82z" />
<glyph unicode="k" d="M10 1407q0 25 70 82q61 -25 70 -55l-29 -152l29 -580h12q98 74 250 373l14 15h27l55 -56v-28q-318 -426 -318 -484v-14q0 -168 414 -442h14l84 28v-55q-26 -49 -84 -70q-124 27 -428 332l-14 -14v-82q6 -103 41 -139q-27 -82 -55 -82h-27l-69 67l14 99v110q0 234 -29 234 l15 55l-41 858h-15z" />
<glyph unicode="l" horiz-adv-x="289" d="M70 31q28 71 28 291v26l21 1221q24 45 31 45l47 12l-11 -252l-4 -225l11 -647l-13 -277l29 -166q0 -26 -72 -84z" />
<glyph unicode="m" horiz-adv-x="905" d="M66 940q0 78 71 96q56 -14 56 -84l-29 -82v-28h12q109 209 166 209q74 0 154 -154q28 0 96 236l82 41q129 0 182 -842v-277l-43 -43q-59 0 -84 56l29 290q-31 619 -96 637h-27q-127 -344 -127 -884l-39 -29h-55q-25 0 -43 70q55 96 55 483q-18 262 -68 262h-16 q-111 0 -111 -621v-110l17 -84q-31 -82 -111 -82l-55 68l27 180v69z" />
<glyph unicode="n" horiz-adv-x="637" d="M37 981v82l55 55q55 -20 55 -41l-14 -207l14 -14h27q0 203 195 358h12q164 0 194 -620v-250l15 -151l-15 -56l15 -125l-43 -26q-68 18 -68 96v457q0 483 -98 524h-12q-148 -76 -181 -608v-387l15 -56q-29 -82 -56 -82q-69 0 -84 56l15 372z" />
<glyph unicode="o" horiz-adv-x="553" d="M47 487q0 592 291 592q129 0 180 -370l-14 -17v-82q-35 -637 -221 -637l-15 -12h-14q-207 47 -207 526zM131 555q31 -483 123 -483h14q117 0 152 497v195q0 186 -123 205q-166 -49 -166 -414z" />
<glyph unicode="p" horiz-adv-x="573" d="M29 29l16 84v290l12 166h-12q72 361 248 361q143 0 178 -320q0 -221 -303 -565v-16q0 -314 43 -719l-43 -27h-12q-84 0 -84 154l-15 123l15 14v12zM156 182h12q209 199 209 471q-55 166 -98 166h-13q-110 -90 -110 -387v-250z" />
<glyph unicode="q" horiz-adv-x="686" d="M53 365v84q0 358 277 608q69 0 69 26q127 0 166 -82l-14 -55q70 -643 84 -1272q0 -344 -84 -387q-55 0 -55 70h-13q56 70 56 498q0 376 -43 663h-27q-107 -457 -250 -457q-166 0 -166 304zM152 297q0 -107 55 -125h26q107 0 207 553l15 41q-15 207 -56 207 q-206 0 -247 -565v-111z" />
<glyph unicode="r" horiz-adv-x="580" d="M31 860q28 84 55 84h14q56 -22 56 -98v-152h14q137 299 276 402h41l56 -56v-28l-29 -27l-68 14q-221 -292 -221 -553v-221l13 -153q0 -56 -68 -56v-12q-55 21 -55 41v152q-52 663 -84 663z" />
<glyph unicode="s" horiz-adv-x="532" d="M-61 72l165 -15h56q194 47 194 166v15q0 34 -194 317l-41 154q0 254 332 442h26l15 -16v-27q-263 -186 -263 -387v-29q0 -147 236 -413l12 -56q-100 -262 -387 -262q-151 0 -151 111z" />
<glyph unicode="t" horiz-adv-x="393" d="M-51 1075l4 33l24 6h27q131 19 131 92l-29 414l15 12l47 17l31 2l6 -99v-14q0 -317 41 -317l135 45q14 -29 27 -60q-25 -22 -11 -28l-166 -82l29 -719v-55q-4 -203 -29 -326l-65 4l-4 215v342v152q0 358 -41 358l-127 -10z" />
<glyph unicode="u" horiz-adv-x="580" d="M35 690v82q0 105 55 123h29l41 -27l-15 -96v-137q0 -275 125 -541h29q96 39 123 524v140q0 98 -27 153q0 88 125 111l27 -29l-27 -110v-43l12 -111q-55 -745 -233 -745q-182 0 -264 706z" />
<glyph unicode="v" horiz-adv-x="543" d="M61 940q19 82 82 82l41 -55l-12 -111q6 -647 68 -647q180 549 180 702l-14 111q51 43 98 43q26 -6 55 -70q-43 -84 -250 -897q-53 -110 -110 -127q-82 0 -82 387z" />
<glyph unicode="w" horiz-adv-x="956" d="M39 580v41q14 374 82 374h16l39 -43q-39 -123 -39 -262q27 -524 94 -524q99 0 209 719l-14 166l82 26l55 -41v-69q0 -619 99 -830h12q88 0 127 649l-43 277v14q0 84 82 84q43 -53 43 -125v-235q-35 -801 -209 -801q-125 0 -178 553h-27q-129 -512 -209 -512h-29v-14 q-149 0 -192 553z" />
<glyph unicode="x" horiz-adv-x="662" d="M-4 -293q74 90 276 787q-137 454 -178 497v43l41 41h41q41 0 111 -360l14 -41h41q180 663 250 663l67 -55q-237 -465 -276 -774l180 -457q-18 -67 -41 -67h-69q0 122 -97 358h-28q-209 -633 -262 -678l-15 -12q-55 12 -55 55z" />
<glyph unicode="y" horiz-adv-x="686" d="M43 469q0 330 123 401l43 -14v-55q-72 -86 -72 -262v-84q0 -248 56 -248h16q260 442 260 731l55 84h43l56 -55q-27 -56 -27 -152v-98l-16 -359l16 -14v-14l-16 -137q0 -1010 -95 -1010h-55l-55 69q82 64 82 263q41 379 41 1065h-13q-20 -7 -194 -457q-60 -55 -125 -70 q-123 0 -123 416z" />
<glyph unicode="z" horiz-adv-x="770" d="M37 1067q0 33 207 123q94 80 207 84h14q55 -19 55 -123v-29q0 -239 -317 -983v-26l26 -29h41q52 0 361 139h41l41 -41v-26l-68 -72l-14 16h-41l-346 -139q-195 33 -195 96q361 744 361 955v139h-29q-39 0 -262 -139h-41z" />
<glyph unicode="{" horiz-adv-x="631" d="M31 1004q0 350 387 679q108 68 180 68v-29q-356 -262 -401 -442q-56 -86 -56 -166v-94q0 -139 181 -166l180 39q41 -12 41 -82v-12l-207 -140q-111 -124 -111 -180v-12h15l206 55h15l41 -43v-41q-180 -202 -180 -524q51 -43 96 -43q33 0 153 111h13l43 -29 q-95 -137 -250 -178q-125 0 -152 194l82 359l-12 12h-14l-181 -12l-55 41v69q236 281 236 318q-144 0 -236 192z" />
<glyph unicode="|" horiz-adv-x="489" d="M70 31q28 71 28 291v26l2 1450q27 47 33 47l47 10l4 -339l-4 -228l13 -786l-13 -277l29 -166q0 -26 -72 -84z" />
<glyph unicode="}" horiz-adv-x="631" d="M27 702v43q233 170 233 234q158 178 193 414v71q0 123 -222 123l-38 55q30 82 55 82h82q221 -96 221 -233v-70q-53 -295 -277 -581v-27q9 -41 111 -41l55 -14l41 -68q-12 -53 -96 -139v-55h123q43 0 43 -56h12q-168 -331 -399 -553h-43l-39 41v27q301 254 315 387v43h-12 l-209 -27l-55 82l153 140l41 55q0 27 -41 27l-208 -15z" />
<glyph unicode="~" horiz-adv-x="1251" d="M131 1487q39 235 248 262l41 -23q168 -247 280 -280l21 -4q151 -43 326 133l20 -6l10 -13l-6 -24q-182 -234 -375 -178l-110 65q-187 217 -211 226l-13 4q-88 22 -149 -125l-6 -45z" />
<glyph unicode="&#xa1;" horiz-adv-x="524" d="M201 1453q0 -49 78 -97q84 32 93 81v47q-26 65 -66 65q-80 0 -105 -96zM239 -136l93 50v1117l-14 17h-25q-54 -34 -54 -487v-697z" />
<glyph unicode="&#xa2;" horiz-adv-x="647" d="M18 406v96q0 403 209 635l52 26v357q24 45 32 45l47 12l11 -61l-4 -228v-82l202 17l-30 -80q-97 -15 -170 -58l10 -583l-12 -277l18 -145q113 20 147 131h41l15 -41q0 -141 -193 -168l13 -92q0 -27 -68 -84l-72 55q4 60 6 119q-149 25 -211 197q-43 112 -43 209zM117 350 q0 -190 159 -262q7 117 7 234v26l-2 672q-125 -127 -152 -367l-12 -125v-178z" />
<glyph unicode="&#xa3;" horiz-adv-x="1096" d="M-35 563v70l209 18l-24 746q-130 493 765 -144l7 -120l-516 274l-132 61q2 -507 11 -809l258 17h14l41 -41v-41q-236 -16 -322 -31q-28 -319 -86 -493l314 159l432 -129l-43 -110q-385 168 -389 129q-469 -260 -434 -84q75 194 98 514q-105 -17 -148 -27z" />
<glyph unicode="&#xa4;" horiz-adv-x="971" d="M119 90q33 -37 141 291q-53 133 -49 227t37 232q-98 254 -125 280v43l41 41h43q24 0 98 -217q72 107 211 92q33 -8 62 -35q86 259 131 259l67 -56q-80 -153 -137 -291q70 -151 70 -300.5t-56 -280.5l113 -246q-18 -68 -41 -68h-70q0 107 -51 238q-65 -72 -176 -63h-14 q-60 12 -103 61q-90 -219 -123 -250l-14 -12q-55 12 -55 55zM342 768q-61 -188 64 -352q176 -156 206 221v65q-28 203 -151 222q-103 -58 -119 -156z" />
<glyph unicode="&#xa5;" horiz-adv-x="707" d="M-10 545v69l327 23l5 37l-154 618q47 86 113 86l26 -166q15 -133 88 -395q125 273 125 518q51 41 125 -37q-65 -266 -209 -624l-2 -27l156 10h14l41 -41v-41q-113 -6 -213 -14v-78l184 23h15l41 -43v-41q-129 -14 -244 -31l-16 -457l-140 -26q9 190 25 461 q-123 -21 -219 -45l-55 43v67l280 35q2 39 6 80q-151 -19 -264 -45z" />
<glyph unicode="&#xa6;" horiz-adv-x="309" d="M90 31q29 71 29 897l88 2l6 -428l16 -443q0 -26 -71 -84zM111 1024l10 774q26 47 33 47l47 10l4 -339l-4 -228l-11 -264h-79z" />
<glyph unicode="&#xa7;" horiz-adv-x="770" d="M67.5 610q-102.5 213 208.5 398q-24 34 -88 196q-32 359 428 119l-14 -57v-27q-274 174 -307 8v-26q0 -148 182 -310q494 -379 -155 -436q-41 0 -72 10q473 -151 395 -300.5t-379 -102.5q-151 0 -151 111l166 -15h55q379 -28 49 170q-215 49 -317.5 262zM242 580l96 -9 l176 19q131 39 64 137l-269 231q-233 -176 -67 -378z" />
<glyph unicode="&#xa8;" horiz-adv-x="1573" d="M336 1577l59 78h41l60 -78q0 -51 -74 -96q-60 26 -86 96zM647 1587l60 78h41l59 -78q0 -51 -74 -96q-59 27 -86 96z" />
<glyph unicode="&#xa9;" horiz-adv-x="1018" d="M68 672q125 448 207.5 524t195.5 55q551 -121 445.5 -716.5t-547.5 -505.5q-338 57 -301 643zM115 635q51 -518 260 -518q456 -41 477.5 491.5t-416.5 579.5q-182 0 -321 -553zM266 647v96q72 523 408 -14l-23 -90q-227 295 -274 256l-15 -125v-178q0 -215 207 -277 q109 47 154 187h41l14 -43q-18 -154 -166 -242q-223 0 -305 221q-41 113 -41 209z" />
<glyph unicode="&#xaa;" horiz-adv-x="424" d="M29 379v71q0 299 160 337q27 0 77 40h29l28 -14l-10 -96q27 -345 86 -345h19v-6q0 -36 -38 -46h-39q-38 0 -66 143h-9q-55 -221 -171 -221q-66 0 -66 137zM95 379q0 -72 28 -72q62 0 124 338v7q-7 91 -28 91h-30q-94 0 -94 -273v-91z" />
<glyph unicode="&#xab;" horiz-adv-x="1114" d="M119 590q0 67 137 110q80 119 387 344q55 -12 55 -55q0 -24 -358 -303l-14 -70l372 -247v-43l-41 -41q-39 0 -331 207q-39 28 -181 43zM461 637q0 70 137 111q80 118 387 346q55 -15 55 -56q0 -26 -358 -305l-12 -67l370 -250v-41l-39 -41q-38 0 -331 207q-39 26 -183 41 z" />
<glyph unicode="&#xac;" horiz-adv-x="1079" d="M88 618q10 74 49 91l285 -13q352 -24 555 23q22 45 -23 -438l-88 6l19 321h-11q-260 -45 -786 10z" />
<glyph unicode="&#xad;" horiz-adv-x="827" d="M100 760v69l596 68h13l43 -41v-41q-371 -41 -596 -96z" />
<glyph unicode="&#xae;" horiz-adv-x="809" d="M43 455v166q96 774 207 774q504 311 512 -690q0 -519 -277 -693l-139 -12q-227 0 -303 455zM113 524q41 -442 247 -442q125 0 199 98q-47 51 -127 269l-84 190h-22v-6l8 -131q0 -223 -41 -223h-21q-18 0 -24 38l31 791l24 22h6l180 41q111 -26 111 -133 q-12 -213 -199 -329q123 -428 193 -476q84 162 84 498l-37 369q-35 282 -252 282q-182 0 -276 -788v-70zM334 770l14 -16q193 155 193 276v39l-33 29h-6q-86 0 -162 -68l-6 -207v-53z" />
<glyph unicode="&#xaf;" horiz-adv-x="618" d="M102 1280l7 94l411 -16l41 6l2 -104q-186 34 -461 20z" />
<glyph unicode="&#xb0;" horiz-adv-x="348" d="M13 414q0 162 199 162q88 0 122 -101l-9 -5v-22q-24 -174 -151 -174l-10 -4h-10q-141 13 -141 144zM70 433q22 -132 84 -132h10q80 0 104 136v53q0 51 -84 56q-114 -13 -114 -113z" />
<glyph unicode="&#xb1;" horiz-adv-x="1032" d="M82 741v41q0 27 166 27h84l67 14v140l-12 81q19 74 68 111l55 -27l-12 -165v-111q0 -29 41 -29l276 29l27 -43v-12q0 -39 -318 -70v-14l51 -357l285 27h14l41 -41v-41q-204 -18 -362 -37q-8 -8 -14 -8h-29l-4 2q-207 -29 -330 -57l-55 41v69l325 31q-28 72 -20 182 q10 203 -27 203l-288 -29z" />
<glyph unicode="&#xb2;" horiz-adv-x="510" d="M32 897q31 100 86.5 166.5t102.5 68.5q83 -17 83 -151q-52 -343 -125 -527q110 8 228 91h11l31 -20q0 -78 -281 -137l-84 14v5q209 632 115 646q-60 0 -72 -182l-31 -14q-28 0 -64 40z" />
<glyph unicode="&#xb3;" horiz-adv-x="489" d="M49 872q70 215 207 215q48 -10 48 -48q0 -42 -66 -222h46q161 0 161 -126q0 -158 -312 -318q-46 4 -46 34h-10q18 32 38 34l28 -6q237 130 237 271q0 25 -67 62q-121 0 -170 -111l-28 -21h-20q-18 4 -37 34q170 214 170 306v28l-10 7v7q-67 0 -85 -125l10 -8 q0 -20 -56 -40q-29 5 -38 27z" />
<glyph unicode="&#xb4;" horiz-adv-x="686" d="M111 1438q286 248 309 258l51 -51l-295 -267z" />
<glyph unicode="&#xb6;" horiz-adv-x="950" d="M68 684q139 428 430 428l137 27h29q215 10 188 -41l-23 -590l15 -442q0 -25 -70 -82l-41 53q0 72 33 1003q-29 -4 -68 -6q-63 -119 -98 -819l41 -166l-55 -55q-56 0 -97 84l15 96v41l49 358v27h-29q-116 -151 -262 -151q-194 0 -194 235z" />
<glyph unicode="&#xb7;" horiz-adv-x="354" d="M96 545q0 35 45 69q72 13 90 -73q-22 -97 -75 -84q-45 22 -60 88z" />
<glyph unicode="&#xb8;" horiz-adv-x="1106" d="M225 -608l166 -13h55q193 46 193 166v13q0 36 -193 319l-43 150l111 16v-29q0 -149 236 -413l14 -56q-100 -264 -387 -264q-152 0 -152 111z" />
<glyph unicode="&#xb9;" horiz-adv-x="317" d="M57 1218l26 15h30l38 -29l-18 -43v-43q0 -86 113 -610l26 -22v-7q0 -61 -56 -79q-33 0 -57 21l11 43q0 113 -113 754z" />
<glyph unicode="&#xba;" horiz-adv-x="348" d="M31 611q0 285 176 285q79 0 110 -178l-9 -8v-40q-21 -306 -134 -306l-9 -6h-9q-125 23 -125 253zM82 644q18 -232 74 -232h9q71 0 92 238v94q0 90 -74 99q-101 -24 -101 -199z" />
<glyph unicode="&#xbb;" horiz-adv-x="1102" d="M78 1133v55q0 37 55 43l25 -4q528 -328 528 -453q0 -67 -485 -457l-82 70q18 51 230 190.5t212 223.5zM471 1143v55q0 35 55 55q41 0 297 -173t256 -298q0 -69 -194.5 -243t-288.5 -213l-74 47q39 41 235.5 196.5t196.5 241.5z" />
<glyph unicode="&#xbc;" horiz-adv-x="1280" d="M61 1341l34 18h37l49 -34l-24 -51v-50q0 -101 144 -717l33 -25v-8q0 -72 -70 -93q-43 0 -73 25l14 50q0 132 -144 885zM254 67v56q201 401 375 1272q0 96 67 137h29v-27q-139 -766 -332 -1300q-29 0 -29 -125l-38 -27zM676 866q22 40 66 40q36 0 68 -40l-26 -47l11 -411 l42 -25h67l41 25q0 585 80 585q31 0 40 -40l-26 -158v-355h14q108 -17 -28 -95v-88l-14 -127l42 -38q-28 -48 -54 -48h-28q-54 16 -54 48l19 240l-194 -12l-54 25q14 479 -12 521z" />
<glyph unicode="&#xbd;" horiz-adv-x="1204" d="M61 1327l34 18h37l49 -34l-24 -50v-49q0 -99 144 -702l33 -25v-8q0 -70 -70 -91q-43 0 -73 25l14 49q0 129 -144 867zM205 28v56q201 401 375 1272q0 96 67 137h29v-27q-139 -766 -332 -1300q-29 0 -29 -125l-38 -27zM554 546q42 100 117.5 165.5t139.5 67.5 q113 -16 113 -150q-71 -340 -171 -523q151 8 312 91h15l43 -20q0 -77 -384 -136l-114 14v5q285 627 156 641q-82 0 -98 -181l-43 -13q-38 0 -86 39z" />
<glyph unicode="&#xbe;" horiz-adv-x="1376" d="M54 866q98 212 288 212q66 -11 66 -48q0 -41 -91 -219h64q224 0 224 -124q0 -156 -434 -315q-64 4 -64 35h-14q26 31 53 33l39 -6q329 128 329 267q0 25 -92 62q-169 0 -237 -109l-39 -22h-27q-26 4 -52 34q236 212 236 302v28l-13 7v7q-93 0 -119 -124l14 -7 q0 -20 -78 -41q-40 5 -53 28zM395 38v56q201 401 375 1272q0 96 67 137h29v-27q-139 -766 -332 -1300q-29 0 -29 -125l-38 -27zM751 786q20 36 61 36q33 0 62 -36l-24 -43l11 -378l38 -23h60l39 23q0 537 73 537q28 0 36 -37l-24 -145v-326h13q99 -16 -25 -88v-80l-14 -117 l39 -35q-25 -44 -49 -44h-26q-49 15 -49 44l17 221l-177 -11l-49 22q12 441 -12 480z" />
<glyph unicode="&#xbf;" horiz-adv-x="512" d="M60 248q0 113 229 574l45 158v142q-8 199 -45 217q20 59 75 87h15q32 -9 61 -75l-16 -85q0 -284 93 -387q0 -57 -183 -171q-152 -273 -152 -360v-100l47 -45q43 0 105 230l45 30l61 -43q-110 -389 -211 -389h-32q-137 0 -137 217zM229 1740q0 57 90 57v14q63 -20 92 -71 v-14l-77 -71h-45q-60 28 -60 85z" />
<glyph unicode="&#xc0;" horiz-adv-x="788" d="M20 35q68 526 222 1161q106 524 299 504q149 -4 155 -1376l43 -443l-69 -12h-29l-41 41v512l-14 207h-13q-331 -41 -362 -140q-53 -503 -80 -509h-55zM234 1903l24 78q70 49 500 -168l-111 -88zM256 725l68 -53q276 61 276 94v250l14 180l-34 139q-39 166 -82 166 q-88 0 -242 -776z" />
<glyph unicode="&#xc1;" horiz-adv-x="788" d="M20 35q68 526 222 1161q106 524 299 504q149 -4 155 -1376l43 -443l-69 -12h-29l-41 41v512l-14 207h-13q-331 -41 -362 -140q-53 -503 -80 -509h-55zM238 1694q286 248 309 258l51 -51l-295 -267zM256 725l68 -53q276 61 276 94v250l14 180l-34 139q-39 166 -82 166 q-88 0 -242 -776z" />
<glyph unicode="&#xc2;" horiz-adv-x="788" d="M20 35q68 526 222 1161q106 524 299 504q149 -4 155 -1376l43 -443l-69 -12h-29l-41 41v512l-14 207h-13q-331 -41 -362 -140q-53 -503 -80 -509h-55zM239 1622v67q205 320 258 320h27q57 0 254 -387q-119 -51 -137 94q-99 123 -129 127h-15q-84 -86 -190 -182l-56 -39 h-12zM256 725l68 -53q276 61 276 94v250l14 180l-34 139q-39 166 -82 166q-88 0 -242 -776z" />
<glyph unicode="&#xc3;" horiz-adv-x="788" d="M20 35q68 526 222 1161q106 524 299 504q149 -4 155 -1376l43 -443l-69 -12h-29l-41 41v512l-14 207h-13q-331 -41 -362 -140q-53 -503 -80 -509h-55zM215 1741q39 235 248 262l41 -23q168 -247 280 -280l21 -4q151 -43 326 133l20 -6l10 -13l-6 -24q-182 -234 -375 -178 l-110 65q-187 217 -211 226l-13 4q-88 22 -149 -125l-6 -45zM256 725l68 -53q276 61 276 94v250l14 180l-34 139q-39 166 -82 166q-88 0 -242 -776z" />
<glyph unicode="&#xc4;" horiz-adv-x="788" d="M20 35q68 526 222 1161q106 524 299 504q149 -4 155 -1376l43 -443l-69 -12h-29l-41 41v512l-14 207h-13q-331 -41 -362 -140q-53 -503 -80 -509h-55zM256 725l68 -53q276 61 276 94v250l14 180l-34 139q-39 166 -82 166q-88 0 -242 -776zM267 1786l59 78h41l60 -78 q0 -51 -74 -96q-60 26 -86 96zM578 1796l60 78h41l59 -78q0 -51 -74 -96q-59 27 -86 96z" />
<glyph unicode="&#xc5;" horiz-adv-x="788" d="M20 35q68 526 222 1161q106 524 299 504q149 -4 155 -1376l43 -443l-69 -12h-29l-41 41v512l-14 207h-13q-331 -41 -362 -140q-53 -503 -80 -509h-55zM248 1812v19q0 184 218 215q65 0 65 6q105 0 174 -160q0 -209 -219 -244h-10q-193 0 -228 164zM256 725l68 -53 q276 61 276 94v250l14 180l-34 139q-39 166 -82 166q-88 0 -242 -776zM314 1847q0 -131 119 -170h20q158 0 185 190q0 119 -117 140l-45 8q-135 -12 -162 -139v-29z" />
<glyph unicode="&#xc6;" horiz-adv-x="1309" d="M20 35q68 526 222 1161q106 524 299 504q149 -4 155 -1376l43 -443l-69 -12h-29l-41 41v512l-14 207h-13q-331 -41 -362 -140q-53 -503 -80 -509h-55zM256 725l68 -53q276 61 276 94v250l14 180l-34 139q-39 166 -82 166q-88 0 -242 -776zM598 250l68 594l-41 69 q55 105 55 166l-14 350q0 138 -29 138q0 110 387 182q70 -19 70 -43v-41q0 -43 -320 -103l-10 -483v-70q0 -28 39 -28l264 28l12 -14v-14q0 -55 -315 -111l-55 -608v-27q0 -151 110 -151l371 151l24 -84q19 -20 -438 -178q-135 0 -178 277z" />
<glyph unicode="&#xc7;" d="M37 459q0 598 325 1061q181 221 291 221q84 -29 84 -55v-29q0 -27 -125 -27q-235 -123 -321 -401q-158 -314 -158 -701v-14q27 -414 193 -414l43 -14h82q79 35 180 332h41v-15q-72 -428 -248 -428q-234 0 -375 347zM99 -608l166 -13h55q193 46 193 166v13q0 36 -193 319 l-43 150l111 16v-29q0 -149 236 -413l14 -56q-100 -264 -387 -264q-152 0 -152 111z" />
<glyph unicode="&#xc8;" d="M38 242l68 594l-41 69q55 105 55 166l-14 350q0 138 -29 138q0 110 387 182q70 -19 70 -43v-41q0 -43 -320 -103l-10 -483v-70q0 -28 39 -28l264 28l12 -14v-14q0 -55 -315 -111l-55 -608v-27q0 -151 110 -151l371 151l24 -84q19 -20 -438 -178q-135 0 -178 277zM53 1972 l24 78q70 49 500 -168l-111 -88z" />
<glyph unicode="&#xc9;" d="M38 242l68 594l-41 69q55 105 55 166l-14 350q0 138 -29 138q0 110 387 182q70 -19 70 -43v-41q0 -43 -320 -103l-10 -483v-70q0 -28 39 -28l264 28l12 -14v-14q0 -55 -315 -111l-55 -608v-27q0 -151 110 -151l371 151l24 -84q19 -20 -438 -178q-135 0 -178 277z M102 1760q286 248 309 258l51 -51l-295 -267z" />
<glyph unicode="&#xca;" d="M38 242l68 594l-41 69q55 105 55 166l-14 350q0 138 -29 138q0 110 387 182q70 -19 70 -43v-41q0 -43 -320 -103l-10 -483v-70q0 -28 39 -28l264 28l12 -14v-14q0 -55 -315 -111l-55 -608v-27q0 -151 110 -151l371 151l24 -84q19 -20 -438 -178q-135 0 -178 277zM75 1757 v67q205 320 258 320h27q57 0 254 -387q-119 -51 -137 94q-99 123 -129 127h-15q-84 -86 -190 -182l-56 -39h-12z" />
<glyph unicode="&#xcb;" d="M38 242l68 594l-41 69q55 105 55 166l-14 350q0 138 -29 138q0 110 387 182q70 -19 70 -43v-41q0 -43 -320 -103l-10 -483v-70q0 -28 39 -28l264 28l12 -14v-14q0 -55 -315 -111l-55 -608v-27q0 -151 110 -151l371 151l24 -84q19 -20 -438 -178q-135 0 -178 277z M118 1876l59 78h41l60 -78q0 -51 -74 -96q-60 26 -86 96zM429 1886l60 78h41l59 -78q0 -51 -74 -96q-59 27 -86 96z" />
<glyph unicode="&#xcc;" horiz-adv-x="336" d="M24 1825l24 78q70 49 500 -168l-111 -88zM47 82q29 33 87.5 775t98.5 742h29v15q78 45 50.5 -158t-84 -549t-56.5 -757l27 -84v-27l-68 -55q-59 0 -84 98z" />
<glyph unicode="&#xcd;" horiz-adv-x="336" d="M47 82q29 33 87.5 775t98.5 742h29v15q78 45 50.5 -158t-84 -549t-56.5 -757l27 -84v-27l-68 -55q-59 0 -84 98zM49 1622q286 248 309 258l51 -51l-295 -267z" />
<glyph unicode="&#xce;" horiz-adv-x="336" d="M19 1553v67q205 320 258 320h27q57 0 254 -387q-119 -51 -137 94q-99 123 -129 127h-15q-84 -86 -190 -182l-56 -39h-12zM47 82q29 33 87.5 775t98.5 742h29v15q78 45 50.5 -158t-84 -549t-56.5 -757l27 -84v-27l-68 -55q-59 0 -84 98z" />
<glyph unicode="&#xcf;" horiz-adv-x="336" d="M26 1782l59 78h41l60 -78q0 -51 -74 -96q-60 26 -86 96zM47 82q29 33 87.5 775t98.5 742h29v15q78 45 50.5 -158t-84 -549t-56.5 -757l27 -84v-27l-68 -55q-59 0 -84 98zM337 1792l60 78h41l59 -78q0 -51 -74 -96q-59 27 -86 96z" />
<glyph unicode="&#xd0;" d="M-76 1118v70l238 -68q14 211 24 436v152q0 180 111 180q98 -137 192 -137q277 -154 277 -457q0 -583 -608 -1231q-21 -137 -82 -137q-56 0 -56 68h-12l82 346q41 326 66 696l-176 41zM174 244h12q240 143 457 774l29 235v82q4 314 -305 346q-99 0 -99 -194l-28 -389 l186 -54h12l43 -40v-41l-250 57z" />
<glyph unicode="&#xd1;" horiz-adv-x="950" d="M-155 1813q39 235 248 262l41 -23q168 -247 280 -280l21 -4q151 -43 326 133l20 -6l10 -13l-6 -24q-182 -234 -375 -178l-110 65q-187 217 -211 226l-13 4q-88 22 -149 -125l-6 -45zM53 109l29 401l-14 14l14 70v580q0 165 55 249v27l-55 70v41q27 55 82 55 q61 0 235 -442q84 -162 250 -705l111 -221h12v151l-76 1043l13 192l-13 70q11 41 56 55q67 0 67 -137l-26 -84l8 -225l69 -1065l-14 -55l27 -166q-27 -64 -56 -70h-41q-51 0 -165 416q-338 938 -402 966q-37 0 -55 -469l14 -194l-14 -125l29 -428l-41 -55h-15q-74 0 -84 41z " />
<glyph unicode="&#xd2;" horiz-adv-x="809" d="M43 455v166q96 774 207 774q0 43 125 153h14q76 0 111 -125q262 -204 262 -718q0 -519 -277 -693l-139 -12q-227 0 -303 455zM113 524q41 -442 247 -442q318 0 318 649v55q-72 596 -289 596q-182 0 -276 -788l12 -14v-15zM144 1731l24 78q70 49 500 -168l-111 -88z" />
<glyph unicode="&#xd3;" horiz-adv-x="809" d="M43 455v166q96 774 207 774q0 43 125 153h14q76 0 111 -125q262 -204 262 -718q0 -519 -277 -693l-139 -12q-227 0 -303 455zM113 524q41 -442 247 -442q318 0 318 649v55q-72 596 -289 596q-182 0 -276 -788l12 -14v-15zM140 1585q286 248 309 258l51 -51l-295 -267z " />
<glyph unicode="&#xd4;" horiz-adv-x="809" d="M43 455v166q96 774 207 774q0 43 125 153h14q76 0 111 -125q262 -204 262 -718q0 -519 -277 -693l-139 -12q-227 0 -303 455zM113 524q41 -442 247 -442q318 0 318 649v55q-72 596 -289 596q-182 0 -276 -788l12 -14v-15zM151 1452v67q205 320 258 320h27q57 0 254 -387 q-119 -51 -137 94q-99 123 -129 127h-15q-84 -86 -190 -182l-56 -39h-12z" />
<glyph unicode="&#xd5;" horiz-adv-x="809" d="M1 1669q39 235 248 262l41 -23q168 -247 280 -280l21 -4q151 -43 326 133l20 -6l10 -13l-6 -24q-182 -234 -375 -178l-110 65q-187 217 -211 226l-13 4q-88 22 -149 -125l-6 -45zM43 455v166q96 774 207 774q0 43 125 153h14q76 0 111 -125q262 -204 262 -718 q0 -519 -277 -693l-139 -12q-227 0 -303 455zM113 524q41 -442 247 -442q318 0 318 649v55q-72 596 -289 596q-182 0 -276 -788l12 -14v-15z" />
<glyph unicode="&#xd6;" horiz-adv-x="809" d="M43 455v166q96 774 207 774q0 43 125 153h14q76 0 111 -125q262 -204 262 -718q0 -519 -277 -693l-139 -12q-227 0 -303 455zM113 524q41 -442 247 -442q318 0 318 649v55q-72 596 -289 596q-182 0 -276 -788l12 -14v-15zM161 1778l59 78h41l60 -78q0 -51 -74 -96 q-60 26 -86 96zM472 1788l60 78h41l59 -78q0 -51 -74 -96q-59 27 -86 96z" />
<glyph unicode="&#xd7;" horiz-adv-x="659" d="M23 156q73 90 249 338q-137 356 -178 399v43l41 41h41q41 0 111 -262l41 -99l172 328l100 -92q-154 -172 -217 -344l166 -297q-19 -70 -43 -70q-53 -35 -197 246q-166 -231 -217 -274l-14 -13q-55 13 -55 56z" />
<glyph unicode="&#xd8;" horiz-adv-x="809" d="M43 455v166q96 774 207 774q0 43 125 153h14q76 0 111 -125q262 -204 262 -718q0 -519 -277 -693l-139 -12q-227 0 -303 455zM113 524q41 -442 247 -442q318 0 318 649v55q-72 596 -289 596q-182 0 -276 -788l12 -14v-15zM166 20v56q201 401 375 1272q0 96 67 137h29v-27 q-139 -766 -332 -1300q-29 0 -29 -125l-38 -27z" />
<glyph unicode="&#xd9;" horiz-adv-x="739" d="M49 963q33 665 96 665h41l27 -29v-12q-80 -538 -80 -723v-82l12 -14l-12 -14v-68q45 -582 123 -582h14q199 0 305 775l13 165l-43 500l43 55q110 0 110 -165l-12 -375q-141 -1079 -430 -1079q-207 0 -207 983zM87 1831l24 78q70 49 500 -168l-111 -88z" />
<glyph unicode="&#xda;" horiz-adv-x="739" d="M49 963q33 665 96 665h41l27 -29v-12q-80 -538 -80 -723v-82l12 -14l-12 -14v-68q45 -582 123 -582h14q199 0 305 775l13 165l-43 500l43 55q110 0 110 -165l-12 -375q-141 -1079 -430 -1079q-207 0 -207 983zM277 1678q286 248 309 258l51 -51l-295 -267z" />
<glyph unicode="&#xdb;" horiz-adv-x="739" d="M49 963q33 665 96 665h41l27 -29v-12q-80 -538 -80 -723v-82l12 -14l-12 -14v-68q45 -582 123 -582h14q199 0 305 775l13 165l-43 500l43 55q110 0 110 -165l-12 -375q-141 -1079 -430 -1079q-207 0 -207 983zM128 1739v67q205 320 258 320h27q57 0 254 -387 q-119 -51 -137 94q-99 123 -129 127h-15q-84 -86 -190 -182l-56 -39h-12z" />
<glyph unicode="&#xdc;" horiz-adv-x="739" d="M49 963q33 665 96 665h41l27 -29v-12q-80 -538 -80 -723v-82l12 -14l-12 -14v-68q45 -582 123 -582h14q199 0 305 775l13 165l-43 500l43 55q110 0 110 -165l-12 -375q-141 -1079 -430 -1079q-207 0 -207 983zM173 1788l59 78h41l60 -78q0 -51 -74 -96q-60 26 -86 96z M484 1798l60 78h41l59 -78q0 -51 -74 -96q-59 27 -86 96z" />
<glyph unicode="&#xdd;" horiz-adv-x="758" d="M53 66v14h29v14l125 -84q311 0 399 1272h-12l-195 -332q-151 -192 -192 -192h-43q-60 0 -68 192v125q8 572 137 664l41 -15v-41q-81 -227 -81 -692q14 -96 40 -96q248 231 408 803h55l56 -56q-68 -129 -131 -884q-107 -830 -347 -830v-14q-192 0 -221 152zM334 1768 q286 248 309 258l51 -51l-295 -267z" />
<glyph unicode="&#xde;" horiz-adv-x="590" d="M37 -55l43 596q0 942 -41 1015q0 37 67 72l70 -43l-14 -123v-327h14q121 165 207 165h43q192 -155 93 -528t-214 -413t-158 18l-8 -432h-102zM172 553q74 -264 244 106l65 304q0 235 -125 235q-209 -172 -184 -645z" />
<glyph unicode="&#xdf;" horiz-adv-x="758" d="M-33 -440q68 190 150 1988l159 119q127 80 236 96q119 0 152 -178q0 -112 -207 -526v-15l123 15q104 0 153 -221q-20 -545 -248 -756q-133 -109 -297 -35l2 152q304 -207 406 417q27 332 -84 332q-141 -51 -223 -104l-27 147q291 312 291 594q-27 64 -55 68 q-140 0 -305 -207l-13 -428q-14 -410 -82 -1372q-43 -148 -131 -86z" />
<glyph unicode="&#xe0;" horiz-adv-x="700" d="M8 1409l24 78q70 49 500 -168l-111 -88zM76 137v150q0 637 233 719q39 0 111 84h43l41 -29l-15 -205q39 -735 125 -735h27v-12q0 -76 -55 -99h-56q-55 0 -96 305h-14q-80 -471 -248 -471q-96 0 -96 293zM172 137q0 -153 41 -153q90 0 180 718v15q-10 194 -41 194h-43 q-137 0 -137 -581v-193z" />
<glyph unicode="&#xe1;" horiz-adv-x="700" d="M76 137v150q0 637 233 719q39 0 111 84h43l41 -29l-15 -205q39 -735 125 -735h27v-12q0 -76 -55 -99h-56q-55 0 -96 305h-14q-80 -471 -248 -471q-96 0 -96 293zM172 137q0 -153 41 -153q90 0 180 718v15q-10 194 -41 194h-43q-137 0 -137 -581v-193zM230 1438 q286 248 309 258l51 -51l-295 -267z" />
<glyph unicode="&#xe2;" horiz-adv-x="700" d="M76 137v150q0 637 233 719q39 0 111 84h43l41 -29l-15 -205q39 -735 125 -735h27v-12q0 -76 -55 -99h-56q-55 0 -96 305h-14q-80 -471 -248 -471q-96 0 -96 293zM132 1117v67q205 320 258 320h27q57 0 254 -387q-119 -51 -137 94q-99 123 -129 127h-15q-84 -86 -190 -182 l-56 -39h-12zM172 137q0 -153 41 -153q90 0 180 718v15q-10 194 -41 194h-43q-137 0 -137 -581v-193z" />
<glyph unicode="&#xe3;" horiz-adv-x="700" d="M-120 1487q39 235 248 262l41 -23q168 -247 280 -280l21 -4q151 -43 326 133l20 -6l10 -13l-6 -24q-182 -234 -375 -178l-110 65q-187 217 -211 226l-13 4q-88 22 -149 -125l-6 -45zM76 137v150q0 637 233 719q39 0 111 84h43l41 -29l-15 -205q39 -735 125 -735h27v-12 q0 -76 -55 -99h-56q-55 0 -96 305h-14q-80 -471 -248 -471q-96 0 -96 293zM172 137q0 -153 41 -153q90 0 180 718v15q-10 194 -41 194h-43q-137 0 -137 -581v-193z" />
<glyph unicode="&#xe4;" horiz-adv-x="700" d="M76 137v150q0 637 233 719q39 0 111 84h43l41 -29l-15 -205q39 -735 125 -735h27v-12q0 -76 -55 -99h-56q-55 0 -96 305h-14q-80 -471 -248 -471q-96 0 -96 293zM106 1299l59 78h41l60 -78q0 -51 -74 -96q-60 26 -86 96zM172 137q0 -153 41 -153q90 0 180 718v15 q-10 194 -41 194h-43q-137 0 -137 -581v-193zM417 1309l60 78h41l59 -78q0 -51 -74 -96q-59 27 -86 96z" />
<glyph unicode="&#xe5;" horiz-adv-x="700" d="M76 137v150q0 637 233 719q39 0 111 84h43l41 -29l-15 -205q39 -735 125 -735h27v-12q0 -76 -55 -99h-56q-55 0 -96 305h-14q-80 -471 -248 -471q-96 0 -96 293zM103 1162v19q0 184 218 215q65 0 65 6q105 0 174 -160q0 -209 -219 -244h-10q-193 0 -228 164zM169 1197 q0 -131 119 -170h20q158 0 185 190q0 119 -117 140l-45 8q-135 -12 -162 -139v-29zM172 137q0 -153 41 -153q90 0 180 718v15q-10 194 -41 194h-43q-137 0 -137 -581v-193z" />
<glyph unicode="&#xe6;" horiz-adv-x="1087" d="M76 137v150q0 637 233 719q39 0 111 84h43l41 -29l-15 -205q39 -735 125 -735h27v-12q0 -76 -55 -99h-56q-55 0 -96 305h-14q-80 -471 -248 -471q-96 0 -96 293zM172 137q0 -153 41 -153q90 0 180 718v15q-10 194 -41 194h-43q-137 0 -137 -581v-193zM448 624 q56 43 99 359q106 180 205 180q221 -65 221 -221v-41q0 -309 -277 -428h-94v-29q0 -248 123 -346h43q78 0 221 221l12 -12h15q-99 -319 -277 -319q-162 0 -264 567q-22 0 -27 69zM586 651q12 -68 43 -68h84q166 78 166 318v14q-21 137 -127 137q-166 0 -166 -401z" />
<glyph unicode="&#xe7;" horiz-adv-x="647" d="M18 406v96q0 403 209 635l138 69l41 -14v-27q-277 -186 -277 -512l-12 -125v-178q0 -213 205 -276q165 0 208 137h41l15 -41q0 -150 -221 -195q-224 0 -304 222q-43 112 -43 209zM56 -608l166 -13h55q193 46 193 166v13q0 36 -193 319l-43 150l111 16v-29 q0 -149 236 -413l14 -56q-100 -264 -387 -264q-152 0 -152 111z" />
<glyph unicode="&#xe8;" horiz-adv-x="647" d="M-19 1409l24 78q70 49 500 -168l-111 -88zM18 616q56 43 99 359q106 180 205 180q221 -65 221 -221v-41q0 -309 -277 -428h-94v-29q0 -248 123 -346h43q78 0 221 221l12 -12h15q-99 -319 -277 -319q-162 0 -264 567q-22 0 -27 69zM156 643q12 -68 43 -68h84 q166 78 166 318v14q-21 137 -127 137q-166 0 -166 -401z" />
<glyph unicode="&#xe9;" horiz-adv-x="647" d="M18 616q56 43 99 359q106 180 205 180q221 -65 221 -221v-41q0 -309 -277 -428h-94v-29q0 -248 123 -346h43q78 0 221 221l12 -12h15q-99 -319 -277 -319q-162 0 -264 567q-22 0 -27 69zM156 643q12 -68 43 -68h84q166 78 166 318v14q-21 137 -127 137q-166 0 -166 -401z M203 1438q286 248 309 258l51 -51l-295 -267z" />
<glyph unicode="&#xea;" horiz-adv-x="647" d="M18 616q56 43 99 359q106 180 205 180q221 -65 221 -221v-41q0 -309 -277 -428h-94v-29q0 -248 123 -346h43q78 0 221 221l12 -12h15q-99 -319 -277 -319q-162 0 -264 567q-22 0 -27 69zM91 1085v67q205 320 258 320h27q57 0 254 -387q-119 -51 -137 94q-99 123 -129 127 h-15q-84 -86 -190 -182l-56 -39h-12zM156 643q12 -68 43 -68h84q166 78 166 318v14q-21 137 -127 137q-166 0 -166 -401z" />
<glyph unicode="&#xeb;" horiz-adv-x="647" d="M18 616q56 43 99 359q106 180 205 180q221 -65 221 -221v-41q0 -309 -277 -428h-94v-29q0 -248 123 -346h43q78 0 221 221l12 -12h15q-99 -319 -277 -319q-162 0 -264 567q-22 0 -27 69zM61 1338l59 78h41l60 -78q0 -51 -74 -96q-60 26 -86 96zM156 643q12 -68 43 -68h84 q166 78 166 318v14q-21 137 -127 137q-166 0 -166 -401zM372 1348l60 78h41l59 -78q0 -51 -74 -96q-59 27 -86 96z" />
<glyph unicode="&#xec;" horiz-adv-x="285" d="M-178 1487l22 16q47 33 504 -276l84 -25l33 -47q-105 -59 -307.5 79t-231.5 124zM53 641q0 289 84 289h27l43 -56q-55 -55 -55 -303q6 -262 81 -510v-28l-40 -43h-41q-66 0 -99 651zM53 641q0 289 84 289h27l43 -56q-55 -55 -55 -303q6 -262 81 -510v-28l-40 -43h-41 q-66 0 -99 651z" />
<glyph unicode="&#xed;" horiz-adv-x="285" d="M-195 1214l33 41l88 23q482 268 531 242l24 -17l-108 -112q-33 12 -246 -109t-322 -68zM53 641q0 289 84 289h27l43 -56q-55 -55 -55 -303q6 -262 81 -510v-28l-40 -43h-41q-66 0 -99 651z" />
<glyph unicode="&#xee;" horiz-adv-x="285" d="M-80 1096v71q199 443 250 443h27q57 0 264 -514l18 -49q-139 0 -157 147q-107 244 -138 250h-14q-84 -88 -180 -305l-56 -43h-14zM53 641q0 289 84 289h27l43 -56q-55 -55 -55 -303q6 -262 81 -510v-28l-40 -43h-41q-66 0 -99 651z" />
<glyph unicode="&#xef;" horiz-adv-x="285" d="M-94 1192l59 78h43l60 -78q0 -51 -74 -96q-60 26 -88 96zM53 641q0 289 84 289h27l43 -56q-55 -55 -55 -303q6 -262 81 -510v-28l-40 -43h-41q-66 0 -99 651zM217 1202l59 78h46l57 -78q0 -51 -74 -96q-59 27 -88 96z" />
<glyph unicode="&#xf0;" horiz-adv-x="733" d="M92 434v182q0 70 76 103q274 0 319 -416q224 391 -53 662l-61 -181l-80 35l53 223q-27 -10 -221 68q25 115 63 98l181 -69q43 69 120 215l86 -41l-96 -211q439 -475 -22 -1120q-322 -158 -365 452zM184 422q45 -359 121 -377h45q35 0 45 221q-47 336 -149 336h-17 q-45 -8 -45 -78v-102z" />
<glyph unicode="&#xf1;" horiz-adv-x="637" d="M-153 1487q39 235 248 262l41 -23q168 -247 280 -280l21 -4q151 -43 326 133l20 -6l10 -13l-6 -24q-182 -234 -375 -178l-110 65q-187 217 -211 226l-13 4q-88 22 -149 -125l-6 -45zM37 981v82l55 55q55 -20 55 -41l-14 -207l14 -14h27q0 203 195 358h12q164 0 194 -620 v-250l15 -151l-15 -56l15 -125l-43 -26q-68 18 -68 96v457q0 483 -98 524h-12q-148 -76 -181 -608v-387l15 -56q-29 -82 -56 -82q-69 0 -84 56l15 372z" />
<glyph unicode="&#xf2;" horiz-adv-x="553" d="M-66 1409l24 78q70 49 500 -168l-111 -88zM47 487q0 592 291 592q129 0 180 -370l-14 -17v-82q-35 -637 -221 -637l-15 -12h-14q-207 47 -207 526zM131 555q31 -483 123 -483h14q117 0 152 497v195q0 186 -123 205q-166 -49 -166 -414z" />
<glyph unicode="&#xf3;" horiz-adv-x="553" d="M47 487q0 592 291 592q129 0 180 -370l-14 -17v-82q-35 -637 -221 -637l-15 -12h-14q-207 47 -207 526zM131 555q31 -483 123 -483h14q117 0 152 497v195q0 186 -123 205q-166 -49 -166 -414zM156 1438q286 248 309 258l51 -51l-295 -267z" />
<glyph unicode="&#xf4;" horiz-adv-x="553" d="M47 487q0 592 291 592q129 0 180 -370l-14 -17v-82q-35 -637 -221 -637l-15 -12h-14q-207 47 -207 526zM52 1093v67q205 320 258 320h27q57 0 254 -387q-119 -51 -137 94q-99 123 -129 127h-15q-84 -86 -190 -182l-56 -39h-12zM131 555q31 -483 123 -483h14 q117 0 152 497v195q0 186 -123 205q-166 -49 -166 -414z" />
<glyph unicode="&#xf5;" horiz-adv-x="553" d="M-61 1275q39 235 248 262l41 -23q168 -247 280 -280l21 -4q151 -43 326 133l20 -6l10 -13l-6 -24q-182 -234 -375 -178l-110 65q-187 217 -211 226l-13 4q-88 22 -149 -125l-6 -45zM47 487q0 592 291 592q129 0 180 -370l-14 -17v-82q-35 -637 -221 -637l-15 -12h-14 q-207 47 -207 526zM131 555q31 -483 123 -483h14q117 0 152 497v195q0 186 -123 205q-166 -49 -166 -414z" />
<glyph unicode="&#xf6;" horiz-adv-x="553" d="M47 487q0 592 291 592q129 0 180 -370l-14 -17v-82q-35 -637 -221 -637l-15 -12h-14q-207 47 -207 526zM63 1252l59 78h41l60 -78q0 -51 -74 -96q-60 26 -86 96zM131 555q31 -483 123 -483h14q117 0 152 497v195q0 186 -123 205q-166 -49 -166 -414zM374 1262l60 78h41 l59 -78q0 -51 -74 -96q-59 27 -86 96z" />
<glyph unicode="&#xf7;" horiz-adv-x="524" d="M50 505l4 96l412 -16l41 6l4 -106q-188 35 -461 20zM190 724q4 43 95 81q64 -18 64 -95v-16l-38 -39h-15q-63 0 -106 69zM244 290q0 79 67 98q65 -17 65 -41v-44l-65 -56q-67 19 -67 43z" />
<glyph unicode="&#xf8;" horiz-adv-x="553" d="M22 -124q201 401 375 1272q0 96 67 137h29v-27q-139 -766 -332 -1300q-29 0 -29 -125l-38 -27l-72 14v56zM47 487q0 592 291 592q129 0 180 -370l-14 -17v-82q-35 -637 -221 -637l-15 -12h-14q-207 47 -207 526zM131 555q31 -483 123 -483h14q117 0 152 497v195 q0 186 -123 205q-166 -49 -166 -414z" />
<glyph unicode="&#xf9;" horiz-adv-x="580" d="M-52 1409l24 78q70 49 500 -168l-111 -88zM35 690v82q0 105 55 123h29l41 -27l-15 -96v-137q0 -275 125 -541h29q96 39 123 524v140q0 98 -27 153q0 88 125 111l27 -29l-27 -110v-43l12 -111q-55 -745 -233 -745q-182 0 -264 706z" />
<glyph unicode="&#xfa;" horiz-adv-x="580" d="M35 690v82q0 105 55 123h29l41 -27l-15 -96v-137q0 -275 125 -541h29q96 39 123 524v140q0 98 -27 153q0 88 125 111l27 -29l-27 -110v-43l12 -111q-55 -745 -233 -745q-182 0 -264 706zM170 1438q286 248 309 258l51 -51l-295 -267z" />
<glyph unicode="&#xfb;" horiz-adv-x="580" d="M15 1113v67q205 320 258 320h27q57 0 254 -387q-119 -51 -137 94q-99 123 -129 127h-15q-84 -86 -190 -182l-56 -39h-12zM35 690v82q0 105 55 123h29l41 -27l-15 -96v-137q0 -275 125 -541h29q96 39 123 524v140q0 98 -27 153q0 88 125 111l27 -29l-27 -110v-43l12 -111 q-55 -745 -233 -745q-182 0 -264 706z" />
<glyph unicode="&#xfc;" horiz-adv-x="580" d="M35 690v82q0 105 55 123h29l41 -27l-15 -96v-137q0 -275 125 -541h29q96 39 123 524v140q0 98 -27 153q0 88 125 111l27 -29l-27 -110v-43l12 -111q-55 -745 -233 -745q-182 0 -264 706zM75 1213l59 78h41l60 -78q0 -51 -74 -96q-60 26 -86 96zM386 1223l60 78h41l59 -78 q0 -51 -74 -96q-59 27 -86 96z" />
<glyph unicode="&#xfd;" horiz-adv-x="686" d="M43 469q0 330 123 401l43 -14v-55q-72 -86 -72 -262v-84q0 -248 56 -248h16q260 442 260 731l55 84h43l56 -55q-27 -56 -27 -152v-98l-16 -359l16 -14v-14l-16 -137q0 -1010 -95 -1010h-55l-55 69q82 64 82 263q41 379 41 1065h-13q-20 -7 -194 -457q-60 -55 -125 -70 q-123 0 -123 416zM160 1093q286 248 309 258l51 -51l-295 -267z" />
<glyph unicode="&#xfe;" horiz-adv-x="494" d="M16 1143l95 22q-17 -452 -21 -428q74 193 203 193q143 0 172 -418q0 -221 -297 -467v-16q0 -314 4 -287l-43 -29h-12q-84 0 -62 140zM156 182h12q201 103 190 365q2 260 -79 272h-13q-110 -90 -110 -387v-250z" />
<glyph unicode="&#xff;" horiz-adv-x="686" d="M43 469q0 330 123 401l43 -14v-55q-72 -86 -72 -262v-84q0 -248 56 -248h16q260 442 260 731l55 84h43l56 -55q-27 -56 -27 -152v-98l-16 -359l16 -14v-14l-16 -137q0 -1010 -95 -1010h-55l-55 69q82 64 82 263q41 379 41 1065h-13q-20 -7 -194 -457q-60 -55 -125 -70 q-123 0 -123 416zM167 1252l59 78h41l60 -78q0 -51 -74 -96q-60 26 -86 96zM478 1262l60 78h41l59 -78q0 -51 -74 -96q-59 27 -86 96z" />
<glyph unicode="&#x152;" horiz-adv-x="1348" d="M43 455v166q96 774 207 774q0 43 125 153h14q76 0 111 -125q262 -204 262 -718q0 -519 -277 -693l-139 -12q-227 0 -303 455zM113 524q41 -442 247 -442q318 0 318 649v55q-72 596 -289 596q-182 0 -276 -788l12 -14v-15zM655 165l68 594l-41 69q55 105 55 166l-14 350 q0 138 -29 138q0 110 387 182q70 -19 70 -43v-41q0 -43 -320 -103l-10 -483v-70q0 -28 39 -28l264 28l12 -14v-14q0 -55 -315 -111l-55 -608v-27q0 -151 110 -151l371 151l24 -84q19 -20 -438 -178q-135 0 -178 277z" />
<glyph unicode="&#x153;" horiz-adv-x="1096" d="M47 487q0 592 291 592q129 0 180 -370l-14 -17v-82q-35 -637 -221 -637l-15 -12h-14q-207 47 -207 526zM131 555q31 -483 123 -483h14q117 0 152 497v195q0 186 -123 205q-166 -49 -166 -414zM448 599q56 43 99 359q106 180 205 180q221 -65 221 -221v-41 q0 -309 -277 -428h-94v-29q0 -248 123 -346h43q78 0 221 221l12 -12h15q-99 -319 -277 -319q-162 0 -264 567q-22 0 -27 69zM586 626q12 -68 43 -68h84q166 78 166 318v14q-21 137 -127 137q-166 0 -166 -401z" />
<glyph unicode="&#x178;" horiz-adv-x="758" d="M53 66v14h29v14l125 -84q311 0 399 1272h-12l-195 -332q-151 -192 -192 -192h-43q-60 0 -68 192v125q8 572 137 664l41 -15v-41q-81 -227 -81 -692q14 -96 40 -96q248 231 408 803h55l56 -56q-68 -129 -131 -884q-107 -830 -347 -830v-14q-192 0 -221 152zM263 1917 l59 78h41l60 -78q0 -51 -74 -96q-60 26 -86 96zM574 1927l60 78h41l59 -78q0 -51 -74 -96q-59 27 -86 96z" />
<glyph unicode="&#x2c6;" horiz-adv-x="981" d="M135 1354v67q205 320 258 320h27q57 0 254 -387q-119 -51 -137 94q-99 123 -129 127h-15q-84 -86 -190 -182l-56 -39h-12z" />
<glyph unicode="&#x2dc;" horiz-adv-x="1251" d="M131 1487q39 235 248 262l41 -23q168 -247 280 -280l21 -4q151 -43 326 133l20 -6l10 -13l-6 -24q-182 -234 -375 -178l-110 65q-187 217 -211 226l-13 4q-88 22 -149 -125l-6 -45z" />
<glyph unicode="&#x2000;" horiz-adv-x="1072" />
<glyph unicode="&#x2001;" horiz-adv-x="2144" />
<glyph unicode="&#x2002;" horiz-adv-x="1072" />
<glyph unicode="&#x2003;" horiz-adv-x="2144" />
<glyph unicode="&#x2004;" horiz-adv-x="714" />
<glyph unicode="&#x2005;" horiz-adv-x="536" />
<glyph unicode="&#x2006;" horiz-adv-x="357" />
<glyph unicode="&#x2007;" horiz-adv-x="357" />
<glyph unicode="&#x2008;" horiz-adv-x="268" />
<glyph unicode="&#x2009;" horiz-adv-x="428" />
<glyph unicode="&#x200a;" horiz-adv-x="119" />
<glyph unicode="&#x2010;" horiz-adv-x="827" d="M100 760v69l596 68h13l43 -41v-41q-371 -41 -596 -96z" />
<glyph unicode="&#x2011;" horiz-adv-x="827" d="M100 760v69l596 68h13l43 -41v-41q-371 -41 -596 -96z" />
<glyph unicode="&#x2012;" horiz-adv-x="827" d="M100 760v69l596 68h13l43 -41v-41q-371 -41 -596 -96z" />
<glyph unicode="&#x2013;" horiz-adv-x="618" d="M96 733l4 96l412 -16l41 6l4 -106q-188 35 -461 20z" />
<glyph unicode="&#x2014;" horiz-adv-x="827" d="M90 719v69l729 -2h12l43 -41v-40q-524 8 -729 -27z" />
<glyph unicode="&#x2018;" horiz-adv-x="358" d="M74 1219q0 57 32 110q50 303 87 303q53 -26 53 -82q-101 -344 -129 -374h-11z" />
<glyph unicode="&#x2019;" horiz-adv-x="358" d="M74 1219q0 57 32 110q50 303 87 303q53 -26 53 -82q-101 -344 -129 -374h-11z" />
<glyph unicode="&#x201a;" horiz-adv-x="358" d="M109 -109q0 58 32 111q49 303 86 303q54 -26 54 -82q-101 -344 -129 -375h-11z" />
<glyph unicode="&#x201c;" horiz-adv-x="670" d="M131 1579v43q8 82 43 82q74 0 94 -55q-39 -359 -67 -359h-27q-43 0 -43 289zM340 1358q27 264 111 264q55 -20 55 -43q-72 -147 -84 -373l-14 -14h-13q-55 0 -55 166z" />
<glyph unicode="&#x201d;" horiz-adv-x="670" d="M131 1579v43q8 82 43 82q74 0 94 -55q-39 -359 -67 -359h-27q-43 0 -43 289zM340 1358q27 264 111 264q55 -20 55 -43q-72 -147 -84 -373l-14 -14h-13q-55 0 -55 166z" />
<glyph unicode="&#x201e;" horiz-adv-x="670" d="M131 250v41q6 84 41 84q76 0 96 -56q-41 -360 -69 -360h-27q-41 0 -41 291zM338 29q27 262 111 262q55 -21 55 -41q-70 -148 -84 -373l-12 -14h-15q-55 0 -55 166z" />
<glyph unicode="&#x2022;" horiz-adv-x="414" d="M115 586q0 55 82 110q129 23 163 -121q-43 -157 -135 -137q-84 37 -110 148z" />
<glyph unicode="&#x2026;" horiz-adv-x="1573" d="M182 96l60 78h43l57 -78q0 -51 -74 -96q-57 27 -86 96zM707 96l57 78h45l59 -78q0 -51 -73 -96q-62 27 -88 96zM1231 96l59 78h43l58 -78q0 -51 -74 -96q-57 27 -86 96z" />
<glyph unicode="&#x202f;" horiz-adv-x="428" />
<glyph unicode="&#x2039;" horiz-adv-x="821" d="M119 590q0 67 137 110q80 119 387 344q55 -12 55 -55q0 -24 -358 -303l-14 -70l372 -247v-43l-41 -41q-39 0 -331 207q-39 28 -181 43z" />
<glyph unicode="&#x203a;" horiz-adv-x="1102" d="M78 1133v55q0 37 55 43v12q41 0 234 -205q319 -139 319 -264q0 -67 -319 -317q0 -31 -97 -70l-96 27v55q0 47 180 98q207 150 207 234z" />
<glyph unicode="&#x205f;" horiz-adv-x="536" />
<glyph unicode="&#x20ac;" horiz-adv-x="1135" d="M57 958v68l594 70h15l41 -41v-41q-371 -43 -594 -99zM80 729v70l594 69h14l41 -43v-41q-371 -41 -594 -96zM238 459q0 598 346 1245q272 147 383 147q82 -26 82 -55v-27q0 -28 -125 -28q-336 -119 -422 -398q-166 -428 -166 -815v-14q24 -414 192 -414l41 -14l303 37 q78 35 114 -38t-361 -110q-234 0 -373 347z" />
<glyph unicode="&#x2122;" horiz-adv-x="1700" d="M-2 1217v40l41 41l166 -26q166 12 221 55l82 -29l295 43q-8 134 -25 170q25 64 56 68h40q70 -4 166 -414q70 -131 152 -471h41l180 844v41l-14 84q0 55 69 55v15q84 -33 84 -99l97 -1437v-97q0 -71 -41 -82h-29l-41 27l14 207v43q0 598 -84 1063h-14q-82 -260 -178 -912 l-84 -40q-78 0 -96 358q-152 461 -195 498q-6 -2 -12 -2l12 -205v-250q0 -871 -82 -871h-41l-14 70l55 567h-14l14 13v180q0 309 -10 493q-309 -40 -328 -69l15 -414v-360l12 -82l-12 -70v-151q0 -66 -70 -111q-64 27 -68 55v41q56 74 56 125v55l12 248l-12 70l12 82 q-31 512 -68 512h-71l-221 -14q-68 18 -68 43z" />
<glyph unicode="&#x25fc;" horiz-adv-x="1335" d="M0 0v1335h1335v-1335h-1335z" />
<glyph unicode="&#xfb01;" horiz-adv-x="811" d="M-59 709q28 84 55 84h29l110 -29h12q31 0 27 207q53 567 375 567q221 -8 221 -55v-27l-14 -14l-41 -15v-14l-15 14h-165q-222 0 -263 -401v-262h13q149 24 305 96l14 -12v-29q-14 -63 -332 -151l13 -443v-125q0 -104 -56 -125h-12l-43 56l29 139l-13 442l-16 41h-27 q-170 0 -206 56zM577 641q0 289 84 289h27l43 -56q-55 -55 -55 -303q6 -262 81 -510v-28l-40 -43h-41q-66 0 -99 651zM620 1206q27 76 68 84q53 0 98 -55q0 -41 -98 -96q-37 0 -68 67z" />
<glyph unicode="&#xfb02;" horiz-adv-x="815" d="M-59 709q28 84 55 84h29l110 -29h12q31 0 27 207q53 567 375 567q221 -8 221 -55v-27l-14 -14l-41 -15v-14l-15 14h-165q-222 0 -263 -401v-262h13q149 24 305 96l14 -12v-29q-14 -63 -332 -151l13 -443v-125q0 -104 -56 -125h-12l-43 56l29 139l-13 442l-16 41h-27 q-170 0 -206 56zM594 31q28 71 28 291v26l21 1221q24 45 31 45l47 12l-11 -252l-4 -225l11 -647l-13 -277l29 -166q0 -26 -72 -84z" />
</font>
</defs>
</svg>
