<?xml version="1.0" standalone="no"?>
<!DOCTYPE svg PUBLIC "-//W3C//DTD SVG 1.1//EN" "http://www.w3.org/Graphics/SVG/1.1/DTD/svg11.dtd" >
<svg xmlns="http://www.w3.org/2000/svg" xmlns:xlink="http://www.w3.org/1999/xlink" version="1.1">
<metadata>
Created by FontForge 20161116 at Wed Dec 27 00:21:06 2006
 By Jimmy Wärting
Copyright 2006 House Industries/Brand Design Co., Inc. All Rights Reserved.
</metadata>
<defs>
<font id="BurbankBigCondensed-Black" horiz-adv-x="464" >
  <font-face 
    font-family="Burbank Big Cd Bk"
    font-weight="700"
    font-stretch="normal"
    units-per-em="1000"
    panose-1="0 0 0 0 0 0 0 0 0 0"
    ascent="750"
    descent="-250"
    x-height="501"
    cap-height="695"
    bbox="-85 -263 987 966"
    underline-thickness="50"
    underline-position="-100"
    unicode-range="U+0020-FB04"
  />
<missing-glyph horiz-adv-x="190" 
 />
    <glyph glyph-name="fi" unicode="fi" horiz-adv-x="524" 
d="M305 311c0 0 -25 1 -69 2c-1 -153 0 -301 0 -301s-73 0 -172 -1c0 0 -2 134 -3 302c-27 1 -55 0 -55 0s2 44 -1 162c0 0 23 -1 57 -3v24c1 135 46 209 156 209c26 0 55 -4 88 -12c0 0 -6 -40 -10 -154c-42 6 -57 -10 -58 -50v-22c23 -1 44 -1 70 -1c0 0 -4 -59 -3 -155z
M337 -19c0 0 1 133 -3 500c0 0 58 -1 175 1c0 0 -1 -173 4 -500c0 0 -75 0 -176 -1zM426 534c-67 0 -98 38 -98 106c0 59 30 98 98 98c62 0 93 -42 93 -100c0 -74 -41 -104 -93 -104z" />
    <glyph glyph-name="fl" unicode="fl" horiz-adv-x="530" 
d="M300 302c0 0 -23 1 -64 2c-1 -148 0 -287 0 -287s-73 0 -172 -1c0 0 -2 124 -3 288h-55s2 47 -1 165c0 0 22 -1 57 -3v8c1 134 43 209 157 209c26 0 55 -4 88 -12c0 0 -6 -40 -10 -154c-42 6 -58 -8 -59 -50v-6c21 -1 41 -1 65 -1c0 0 -4 -62 -3 -158zM510 -2
c-115 4 -176 3 -176 3c3 457 -1 697 -1 697c116 -5 177 -5 177 -5c-4 -491 0 -695 0 -695z" />
    <glyph glyph-name="ff" unicode="ff" horiz-adv-x="606" 
d="M598 312c0 0 -24 1 -69 2c-1 -164 0 -332 0 -332s-73 0 -172 -1c0 0 -2 154 -3 333h-41s3 45 0 159c0 0 18 -1 42 -1v24c0 177 84 239 256 197c0 0 -6 -40 -10 -154c-48 7 -70 -9 -70 -50v-18c23 0 44 0 71 1c0 0 -5 -64 -4 -160zM287 298c0 0 -18 1 -51 1
c-1 -147 0 -287 0 -287s-73 0 -172 -1c0 0 -2 126 -3 289h-55s2 40 -1 158c0 0 23 -1 57 -2v22c0 150 80 237 266 191c0 0 -6 -40 -10 -154c-59 9 -79 -8 -80 -50v-12h52s-4 -59 -3 -155z" />
    <glyph glyph-name="ffi" unicode="ffi" horiz-adv-x="817" 
d="M598 312c0 0 -27 1 -79 2c-1 -162 0 -327 0 -327s-73 0 -172 -1c0 0 -2 151 -3 328h-31s3 45 0 159c0 0 14 -1 32 -2v25c0 176 85 238 254 197c0 0 -6 -40 -10 -154c-43 6 -68 -11 -68 -50v-23h80s-4 -58 -3 -154zM287 298c0 0 -18 1 -51 1c-1 -147 0 -287 0 -287
s-73 0 -172 -1c0 0 -2 126 -3 289c-28 1 -55 0 -55 0s2 40 -1 158c0 0 23 -1 57 -2v22c0 152 82 234 256 191c0 0 -6 -40 -10 -154c-56 9 -69 -10 -70 -50v-12h52s-4 -59 -3 -155zM630 4c0 0 1 110 -3 477c0 0 58 -1 175 1c0 0 -1 -150 4 -477c0 0 -75 0 -176 -1zM719 534
c-67 0 -98 38 -98 106c0 59 30 98 98 98c62 0 93 -42 93 -100c0 -74 -41 -104 -93 -104z" />
    <glyph glyph-name="ffl" unicode="ffl" horiz-adv-x="823" 
d="M598 312c0 0 -24 1 -69 2c-1 -164 0 -332 0 -332s-73 0 -172 -1c0 0 -2 155 -3 333h-41s3 45 0 159c0 0 18 -1 42 -1v34c0 164 64 241 245 197c0 0 -6 -40 -10 -154c-42 6 -59 -8 -59 -50v-28c23 0 44 0 71 1c0 0 -5 -64 -4 -160zM287 298c0 0 -18 1 -51 1
c-1 -150 0 -294 0 -294s-73 0 -172 -1c0 0 -2 130 -3 296h-55s2 40 -1 158c0 0 23 -1 57 -2v22c0 150 80 237 266 191c0 0 -6 -40 -10 -154c-59 9 -79 -8 -80 -50v-12h52s-4 -59 -3 -155zM803 -2c-115 4 -176 3 -176 3c3 457 -1 684 -1 684c116 -5 177 -5 177 -5
c-4 -491 0 -682 0 -682z" />
    <glyph glyph-name=".notdef" horiz-adv-x="190" 
 />
    <glyph glyph-name="Lslash" unicode="&#x141;" horiz-adv-x="360" 
d="M0 247c0 0 3 55 2 176l31 8l-3 258s59 -2 180 0c0 0 -1 -53 0 -209l50 15s-2 -41 1 -168c0 0 -19 -5 -50 -14l3 -145c81 -3 146 -3 146 -3c-2 -99 -1 -165 -1 -165c-82 3 -323 4 -323 4s0 94 -1 254z" />
    <glyph glyph-name="lslash" unicode="&#x142;" horiz-adv-x="240" 
d="M2 252c0 74 -2 150 -2 150c11 3 22 6 33 10c-1 172 -2 266 -2 266c116 -5 177 -5 177 -5l-2 -203c22 8 34 13 34 13c-5 -88 -4 -156 -4 -156l-30 -9c0 -219 2 -300 2 -300c-115 4 -176 3 -176 3l1 241c-20 -6 -31 -10 -31 -10z" />
    <glyph glyph-name="Scaron" unicode="&#x160;" horiz-adv-x="442" 
d="M222 -13c-172 0 -227 96 -216 262c0 0 74 -2 186 -2c-6 -80 3 -117 29 -117c19 0 27 13 27 56c0 37 -17 64 -86 99c-118 59 -154 125 -154 233c0 140 93 192 218 192c154 0 218 -93 201 -265c0 0 -92 8 -181 10c11 85 -4 113 -23 113c-18 0 -26 -21 -26 -58
c0 -38 19 -73 69 -95c136 -61 171 -116 171 -227c0 -143 -87 -201 -215 -201zM172 735c0 0 -27 28 -119 108c0 0 27 25 73 78c0 0 26 -26 98 -84c0 0 30 25 91 85c0 0 19 -20 74 -65c0 0 -33 -31 -108 -112c0 0 -25 0 -109 -10z" />
    <glyph glyph-name="scaron" unicode="&#x161;" horiz-adv-x="400" 
d="M205 -15c-126 0 -202 58 -200 201c0 0 56 0 168 -7c-1 -43 4 -68 32 -68c13 0 25 10 25 32c0 21 -13 37 -73 55c-109 32 -147 79 -147 159c0 89 70 156 194 156c126 0 191 -80 187 -203c0 0 -70 5 -160 4c2 41 -5 68 -29 68c-20 0 -28 -15 -28 -29c0 -24 20 -43 68 -58
c112 -34 153 -79 153 -153c0 -113 -88 -157 -190 -157zM151 529c0 0 -27 28 -119 108c0 0 27 25 73 78c0 0 26 -26 98 -84c0 0 30 25 91 85c0 0 19 -20 74 -65c0 0 -33 -31 -108 -112c0 0 -25 0 -109 -10z" />
    <glyph glyph-name="Yacute" unicode="&#xdd;" horiz-adv-x="480" 
d="M154 -15c0 0 3 20 -2 150c0 0 -32 139 -152 540c0 0 33 -1 197 6c0 0 11 -94 48 -300c0 0 27 159 49 320c0 0 50 -4 186 -3c0 0 -62 -219 -147 -559c0 0 -2 -13 3 -153c0 0 -36 3 -182 -1zM258 714c-54 42 -82 58 -82 58c79 115 107 163 107 163c73 -56 103 -76 103 -76
c-98 -108 -128 -145 -128 -145z" />
    <glyph glyph-name="yacute" unicode="&#xfd;" horiz-adv-x="452" 
d="M293 -219c-141 18 -174 21 -174 21c17 98 24 145 24 145c-87 337 -143 529 -143 529c118 0 193 8 193 8c19 -205 37 -308 37 -308c23 228 26 337 26 337c81 -5 196 -8 196 -8c-135 -588 -159 -724 -159 -724zM244 530c-54 42 -82 58 -82 58c79 115 107 163 107 163
c73 -56 103 -76 103 -76c-98 -108 -128 -145 -128 -145z" />
    <glyph glyph-name="Thorn" unicode="&#xde;" horiz-adv-x="445" 
d="M20 6c0 0 5 278 4 698c0 0 68 -6 174 -7c0 0 -1 -34 -1 -68c169 -11 243 -107 243 -275c0 -188 -98 -261 -238 -271l3 -76s-78 2 -185 -1zM197 494c0 -84 1 -172 3 -288c41 8 59 36 59 138c0 106 -16 143 -62 150z" />
    <glyph glyph-name="thorn" unicode="&#xfe;" horiz-adv-x="457" 
d="M20 -192c5 441 0 867 0 867c77 -2 170 1 170 1c-2 -58 -3 -183 -3 -251c21 51 58 84 115 84c99 0 145 -106 145 -264c0 -177 -66 -249 -148 -249c-49 0 -87 20 -105 55c4 -189 9 -242 9 -242c-130 4 -183 -1 -183 -1zM229 113c16 0 26 15 26 140c0 107 -8 133 -25 133
c-23 0 -28 -33 -28 -130c0 -126 6 -143 27 -143z" />
    <glyph glyph-name="Zcaron" unicode="&#x17d;" horiz-adv-x="384" 
d="M371 -5c-240 8 -361 8 -361 8c3 129 1 182 1 182c90 167 144 274 171 329c-99 -3 -169 -6 -169 -6c1 141 -1 182 -1 182c247 5 358 9 358 9c4 -105 3 -198 3 -198c-85 -163 -138 -274 -165 -331c78 -5 165 -5 165 -5c-4 -138 -2 -170 -2 -170zM143 727
c0 0 -27 28 -119 108c0 0 27 25 73 78c0 0 26 -26 98 -84c0 0 30 25 91 85c0 0 19 -20 74 -65c0 0 -33 -31 -108 -112c0 0 -25 0 -109 -10z" />
    <glyph glyph-name="zcaron" unicode="&#x17e;" horiz-adv-x="366" 
d="M354 2c-235 10 -344 8 -344 8c4 84 2 125 2 125c108 141 142 199 142 199c-100 0 -135 -4 -135 -4c-1 121 -5 163 -5 163c229 1 339 8 339 8c-1 -118 3 -140 3 -140c-113 -149 -146 -207 -146 -207c114 -4 146 -2 146 -2c-4 -133 -2 -150 -2 -150zM134 523
c0 0 -27 28 -119 108c0 0 27 25 73 78c0 0 26 -26 98 -84c0 0 30 25 91 85c0 0 19 -20 74 -65c0 0 -33 -31 -108 -112c0 0 -25 0 -109 -10z" />
    <glyph glyph-name="onehalf" unicode="&#xbd;" horiz-adv-x="688" 
d="M89 311c1 130 1 205 0 246c-31 -13 -54 -24 -54 -24c-18 63 -35 113 -35 113c67 30 137 63 137 63c37 -5 79 -8 79 -8c0 -201 4 -389 4 -389c-70 0 -131 -1 -131 -1zM172 -4c-46 5 -82 6 -82 6c273 449 409 693 409 693c52 -4 86 -3 86 -3c-372 -617 -413 -696 -413 -696
zM671 -3c-122 3 -273 3 -273 3c-4 69 -5 120 -5 120c85 30 166 86 166 153c0 28 -9 37 -21 37c-19 0 -29 -21 -23 -88c0 0 -54 0 -123 -2c-14 118 43 180 148 180c85 0 143 -45 143 -121c0 -77 -63 -142 -147 -181c79 3 136 8 136 8c0 -80 -1 -109 -1 -109z" />
    <glyph glyph-name="onequarter" unicode="&#xbc;" horiz-adv-x="687" 
d="M89 311c1 130 1 205 0 246c-31 -13 -54 -24 -54 -24c-18 63 -35 113 -35 113c67 30 137 63 137 63c37 -5 79 -8 79 -8c0 -201 4 -389 4 -389c-70 0 -131 -1 -131 -1zM172 -4c-46 5 -82 6 -82 6c273 449 409 693 409 693c52 -4 86 -3 86 -3c-372 -617 -413 -696 -413 -696
zM532 -3c0 24 0 46 1 68c-53 0 -114 -1 -170 -2c0 0 0 19 -3 98c71 160 102 236 102 236c120 -6 189 -5 189 -5c-1 -102 -1 -172 -1 -235c0 0 17 1 27 1c0 0 -1 -24 -1 -92h-25c0 -45 1 -69 1 -69c-83 -3 -120 0 -120 0zM534 320c-31 -75 -54 -138 -64 -163c0 0 25 -1 64 0
v163z" />
    <glyph glyph-name="onesuperior" unicode="&#xb9;" horiz-adv-x="250" 
d="M89 311c1 130 1 205 0 246c-31 -13 -54 -24 -54 -24c-18 63 -35 113 -35 113c67 30 137 63 137 63c37 -5 79 -8 79 -8c0 -201 4 -389 4 -389c-70 0 -131 -1 -131 -1z" />
    <glyph glyph-name="threequarters" unicode="&#xbe;" horiz-adv-x="721" 
d="M163 299c-120 0 -166 57 -157 160c0 0 53 -4 122 -8c-3 -40 9 -62 30 -62c14 0 28 9 28 36c0 17 -6 30 -17 36c-12 7 -40 10 -67 8c0 0 -1 27 -4 80c28 -3 56 1 68 8c10 6 17 15 17 35c0 28 -16 34 -27 34c-16 0 -32 -11 -27 -57c-60 -4 -123 -6 -123 -6
c-12 116 67 158 159 158c82 0 143 -45 143 -117c0 -45 -22 -75 -58 -87c41 -14 64 -51 64 -93c0 -82 -70 -125 -151 -125zM206 -4c-46 5 -82 6 -82 6c273 449 409 693 409 693c52 -4 86 -3 86 -3c-372 -617 -413 -696 -413 -696zM566 -3c0 24 0 46 1 68
c-53 0 -114 -1 -170 -2c0 0 0 19 -3 98c71 160 102 236 102 236c120 -6 189 -5 189 -5c-1 -102 -1 -172 -1 -235c0 0 17 1 27 1c0 0 -1 -24 -1 -92h-25c0 -45 1 -69 1 -69c-83 -3 -120 0 -120 0zM568 320c-31 -75 -54 -138 -64 -163c0 0 25 -1 64 0v163z" />
    <glyph glyph-name="threesuperior" unicode="&#xb3;" horiz-adv-x="324" 
d="M163 299c-120 0 -166 57 -157 160c0 0 53 -4 122 -8c-3 -40 9 -62 30 -62c14 0 28 9 28 36c0 17 -6 30 -17 36c-12 7 -40 10 -67 8c0 0 -1 27 -4 80c28 -3 56 1 68 8c10 6 17 15 17 35c0 28 -16 34 -27 34c-16 0 -32 -11 -27 -57c-60 -4 -123 -6 -123 -6
c-12 116 67 158 159 158c82 0 143 -45 143 -117c0 -45 -22 -75 -58 -87c41 -14 64 -51 64 -93c0 -82 -70 -125 -151 -125z" />
    <glyph glyph-name="twosuperior" unicode="&#xb2;" horiz-adv-x="303" 
d="M286 313c-122 3 -273 3 -273 3c-4 69 -5 120 -5 120c85 30 166 86 166 153c0 28 -9 37 -21 37c-19 0 -29 -21 -23 -88c0 0 -54 0 -123 -2c-14 118 43 180 148 180c85 0 143 -45 143 -121c0 -77 -63 -142 -147 -181c79 3 136 8 136 8c0 -80 -1 -109 -1 -109z" />
    <glyph glyph-name="minus" unicode="&#x2212;" horiz-adv-x="297" 
d="M286 388c-1 -96 1 -136 1 -136c-180 5 -277 2 -277 2c4 85 3 134 3 134c214 -4 273 0 273 0z" />
    <glyph glyph-name="multiply" unicode="&#xd7;" horiz-adv-x="379" 
d="M92 143c0 0 -17 24 -82 86c2 1 36 33 96 90c-53 55 -94 94 -94 94c90 84 89 86 89 86l92 -94l93 95s24 -26 82 -78c-3 -4 -42 -42 -96 -96c63 -62 96 -91 96 -91c-75 -75 -90 -93 -90 -93c-34 35 -64 67 -94 97z" />
    <glyph glyph-name="space" unicode=" " horiz-adv-x="190" 
 />
    <glyph glyph-name="exclam" unicode="!" horiz-adv-x="234" 
d="M120 -11c-71 0 -115 42 -115 111c0 61 40 107 113 107c77 0 111 -54 111 -110c0 -65 -45 -108 -109 -108zM42 240c0 0 -9 213 -25 458c0 0 78 -2 196 0c0 0 -10 -164 -20 -459c0 0 -62 3 -151 1z" />
    <glyph glyph-name="quotedbl" unicode="&#x22;" horiz-adv-x="313" 
d="M25 464c0 0 -7 99 -20 233c0 0 48 -1 137 3c0 0 -4 -78 -5 -230c0 0 -37 0 -112 -6zM175 462c0 0 0 62 -7 249c0 0 47 -4 140 -4c0 0 -12 -94 -22 -248c0 0 -44 3 -111 3z" />
    <glyph glyph-name="numbersign" unicode="#" horiz-adv-x="418" 
d="M232 194c0 0 0 36 1 88c-25 1 -45 0 -45 0c0 -26 1 -51 2 -76c0 0 -37 4 -124 3c0 0 1 28 1 71l-61 -1s4 35 -1 119c0 0 23 -1 62 -1c0 33 0 60 -1 99c-20 0 -35 0 -56 -1c0 0 2 31 -1 119c0 0 23 -1 56 -1c0 24 -1 49 -2 75c0 0 45 -2 123 1c0 0 -1 -30 -1 -76l46 1
l-2 85s42 -3 123 1c0 0 -1 -42 -1 -84l59 2s-3 -32 -2 -117h-57c0 -31 0 -72 1 -103l61 2s-2 -28 -1 -118c-39 1 -58 1 -58 1c0 -28 1 -58 2 -89c0 0 -36 3 -124 0zM185 499c-1 -66 0 -103 0 -103l48 1c0 34 0 62 -1 103z" />
    <glyph glyph-name="dollar" unicode="$" horiz-adv-x="425" 
d="M299 -32c-122 3 -166 2 -166 2l5 81c-105 26 -141 110 -138 231c0 0 60 -6 185 -11c-9 -62 1 -96 30 -96c21 0 30 15 30 42c0 33 -8 56 -115 92c-93 31 -125 97 -125 177c0 86 49 143 136 161c-2 59 -4 89 -4 89c118 0 162 3 162 3c-3 -39 -6 -71 -7 -95
c85 -22 129 -84 125 -225c0 0 -64 6 -179 8c6 56 -6 92 -28 92c-19 0 -25 -16 -25 -43c0 -38 20 -57 98 -81c112 -35 142 -86 142 -169c0 -101 -51 -153 -128 -173c0 -52 2 -85 2 -85z" />
    <glyph glyph-name="percent" unicode="%" horiz-adv-x="656" 
d="M160 343c-120 0 -155 86 -155 198c0 107 53 174 157 174c106 0 156 -71 156 -189c0 -136 -65 -183 -158 -183zM161 424c19 0 29 17 29 104c0 83 -8 101 -29 101c-20 0 -29 -25 -29 -98c0 -86 8 -107 29 -107zM159 -4c-46 5 -82 6 -82 6c273 449 409 693 409 693
c52 -4 86 -3 86 -3c-372 -617 -413 -696 -413 -696zM492 -12c-116 0 -156 79 -156 194c0 104 54 178 158 178c113 0 157 -79 157 -186c0 -136 -63 -186 -159 -186zM493 69c19 0 28 17 28 103c0 80 -7 102 -28 102c-20 0 -28 -22 -28 -96c0 -92 10 -109 28 -109z" />
    <glyph glyph-name="ampersand" unicode="&#x26;" horiz-adv-x="561" 
d="M223 -28c-133 0 -218 82 -218 199c0 85 47 135 102 173c-36 54 -58 109 -58 166c0 119 71 200 196 200c120 0 183 -89 183 -187c0 -106 -64 -157 -125 -200c19 -21 42 -42 66 -64c8 27 15 58 20 94c94 -19 159 -27 159 -27c-10 -72 -27 -131 -49 -179
c37 -31 62 -51 62 -51s-33 -35 -98 -111c0 0 -24 22 -51 46c-52 -41 -116 -59 -189 -59zM203 507c0 -28 8 -56 22 -83c25 24 43 51 43 88c0 34 -12 50 -32 50c-19 0 -33 -18 -33 -55zM250 121c15 0 31 5 46 16c-34 31 -64 61 -96 93c-6 -12 -9 -26 -9 -41
c0 -36 21 -68 59 -68z" />
    <glyph glyph-name="quotesingle" unicode="'" horiz-adv-x="150" 
d="M17 464c0 0 0 53 -12 240c0 0 47 -3 140 0c0 0 -10 -85 -17 -240c0 0 -44 2 -111 0z" />
    <glyph glyph-name="parenleft" unicode="(" horiz-adv-x="288" 
d="M131 -134c-79 123 -116 289 -116 432c0 168 37 338 126 449c97 -31 147 -45 147 -45c-59 -109 -87 -248 -87 -402c0 -110 24 -247 87 -392c-98 -23 -157 -42 -157 -42z" />
    <glyph glyph-name="parenright" unicode=")" horiz-adv-x="288" 
d="M159 -143c0 0 -61 20 -159 43c55 133 87 279 87 403c0 157 -26 295 -87 409c0 0 53 15 150 46c89 -115 123 -290 123 -450c0 -146 -34 -315 -114 -451z" />
    <glyph glyph-name="asterisk" unicode="*" horiz-adv-x="296" 
d="M118 376c-65 36 -106 53 -106 53c27 46 42 74 51 89c-44 6 -63 7 -63 7c13 67 18 115 18 115c33 -11 57 -18 73 -22c-7 67 -12 89 -12 89c69 0 130 5 130 5c-6 -43 -10 -74 -12 -94c52 14 79 25 79 25c9 -70 20 -120 20 -120c-27 -2 -48 -3 -63 -5c35 -66 50 -89 50 -89
c-68 -25 -107 -44 -107 -44c-11 37 -20 64 -27 83c-22 -60 -31 -92 -31 -92z" />
    <glyph glyph-name="plus" unicode="+" horiz-adv-x="322" 
d="M92 130c1 43 2 85 2 124c-53 0 -83 -1 -83 -1c3 101 -1 136 -1 136c30 -1 58 -2 85 -2c0 77 -1 130 -1 130c123 -4 134 -3 134 -3l-2 -128c53 0 86 1 86 1c-5 -118 -3 -134 -3 -134c-29 1 -57 1 -83 1c0 -80 2 -123 2 -123c-106 0 -136 -1 -136 -1z" />
    <glyph glyph-name="comma" unicode="," horiz-adv-x="209" 
d="M83 -126c-50 34 -73 53 -73 53c34 34 49 63 56 78c-34 13 -51 46 -51 79c0 58 39 94 92 94c54 0 92 -45 92 -107c0 -65 -43 -130 -116 -197z" />
    <glyph glyph-name="hyphen" unicode="-" horiz-adv-x="247" 
d="M11 248c0 106 -1 146 -1 146c155 -3 227 -2 227 -2c-4 -123 -3 -144 -3 -144c-129 2 -223 0 -223 0z" />
    <glyph glyph-name="period" unicode="." horiz-adv-x="203" 
d="M101 -5c-62 0 -91 48 -91 102c0 62 37 100 92 100c58 0 91 -44 91 -100c0 -74 -41 -102 -92 -102z" />
    <glyph glyph-name="slash" unicode="/" horiz-adv-x="372" 
d="M-5 -130c123 449 229 867 229 867c114 -2 153 0 153 0c-168 -617 -228 -867 -228 -867c-105 2 -154 0 -154 0z" />
    <glyph glyph-name="zero" unicode="0" horiz-adv-x="471" 
d="M234 -28c-155 0 -224 124 -224 369c0 253 73 361 224 361c160 0 227 -109 227 -358s-63 -372 -227 -372zM233 112c23 0 31 24 31 237c0 167 -9 211 -31 211c-25 0 -31 -34 -31 -223c0 -182 8 -225 31 -225z" />
    <glyph glyph-name="one" unicode="1" horiz-adv-x="366" 
d="M129 -3c3 260 2 400 1 460c-55 -24 -81 -38 -81 -38c-28 109 -49 175 -49 175c118 53 214 100 214 100c67 -7 96 -15 96 -15c0 -352 6 -681 6 -681c-119 -3 -187 -1 -187 -1z" />
    <glyph glyph-name="two" unicode="2" horiz-adv-x="435" 
d="M411 -1c-216 6 -393 6 -393 6c-6 119 -7 205 -7 205c125 63 237 164 237 279c0 44 -11 65 -28 65c-27 0 -41 -35 -32 -161c0 0 -52 0 -173 -4c-25 212 49 318 211 318c138 0 204 -82 204 -219c0 -124 -79 -247 -202 -313c123 0 180 2 180 2c1 -140 3 -178 3 -178z" />
    <glyph glyph-name="three" unicode="3" horiz-adv-x="445" 
d="M226 -23c-188 0 -238 114 -216 277c0 0 57 -6 179 -12c-10 -88 3 -117 30 -117c20 0 36 14 36 72c0 36 -10 55 -23 66c-14 11 -41 17 -89 13c0 0 -1 44 -6 137c48 -2 79 4 94 17c11 9 20 29 20 66c0 48 -11 71 -30 71c-29 0 -39 -37 -31 -119c-105 -6 -179 -10 -179 -10
c-23 203 64 276 226 276c130 0 197 -93 197 -206c0 -71 -32 -120 -85 -149c56 -23 96 -82 96 -166c0 -148 -103 -216 -219 -216z" />
    <glyph glyph-name="four" unicode="4" horiz-adv-x="463" 
d="M234 -1l1 118c-67 0 -144 -2 -225 -3c0 0 -2 34 -5 172c110 293 152 416 152 416c212 -6 255 -10 255 -10c-1 -169 -2 -305 -1 -412c15 0 31 0 47 1c0 0 -2 -41 -1 -162c0 0 -22 1 -45 0c1 -79 2 -119 2 -119c-143 -4 -180 -1 -180 -1zM237 517
c-32 -106 -57 -197 -68 -237c40 -1 67 0 67 0c1 137 1 192 1 237z" />
    <glyph glyph-name="five" unicode="5" horiz-adv-x="449" 
d="M227 -16c-179 0 -230 104 -215 255c101 -8 181 -9 181 -9c0 -82 9 -108 33 -108c20 0 30 26 30 101c0 86 -11 125 -31 125c-22 0 -30 -29 -31 -87c0 0 -86 6 -181 17c0 0 6 188 9 410c0 0 153 1 396 9c0 0 -3 -30 -3 -167c0 0 -80 1 -223 -3c-1 -25 -1 -60 -1 -105
c28 38 67 60 115 60c111 0 138 -117 138 -242c0 -167 -72 -256 -217 -256z" />
    <glyph glyph-name="six" unicode="6" horiz-adv-x="453" 
d="M235 -20c-165 0 -225 123 -225 358c0 202 39 372 231 372c156 0 208 -101 199 -239c-118 6 -178 5 -178 5c3 58 -5 91 -22 91c-24 0 -35 -27 -36 -182c28 34 66 58 109 58c100 0 135 -91 135 -208c0 -186 -95 -255 -213 -255zM230 304c-9 0 -18 -3 -26 -8
c1 -132 9 -167 32 -167c19 0 30 26 30 96c0 54 -10 79 -36 79z" />
    <glyph glyph-name="seven" unicode="7" horiz-adv-x="381" 
d="M75 -17c-12 247 43 439 130 534c-130 -2 -200 -5 -200 -5c4 107 4 179 4 179c316 4 364 8 364 8c-1 -154 3 -205 3 -205c-92 -124 -124 -279 -114 -518c-134 6 -187 7 -187 7z" />
    <glyph glyph-name="eight" unicode="8" horiz-adv-x="463" 
d="M238 -23c-181 0 -238 88 -238 205c0 75 39 126 97 153c-48 36 -84 100 -84 176c0 126 85 203 223 203c145 0 221 -79 221 -203c0 -79 -36 -131 -96 -167c66 -32 102 -84 102 -159c0 -155 -98 -208 -225 -208zM230 115c24 0 37 19 37 60c0 39 -16 75 -41 89
c-24 -15 -37 -51 -37 -82c0 -43 14 -67 41 -67zM237 410c17 17 30 54 30 92c0 46 -13 70 -36 70c-25 0 -36 -26 -36 -64c0 -42 15 -79 42 -98z" />
    <glyph glyph-name="nine" unicode="9" horiz-adv-x="455" 
d="M214 -22c-160 0 -219 113 -201 263c131 -15 179 -17 179 -17c-8 -71 6 -99 28 -99c25 0 33 27 34 164c-20 -22 -47 -33 -77 -33c-123 0 -172 90 -172 223c0 142 76 234 215 234c151 0 225 -101 225 -376c0 -267 -83 -359 -231 -359zM231 368c7 0 15 2 23 5
c-1 171 -10 203 -32 203c-20 0 -32 -33 -32 -102c0 -76 15 -106 41 -106z" />
    <glyph glyph-name="colon" unicode=":" horiz-adv-x="206" 
d="M103 -15c-57 0 -91 46 -91 102c0 59 39 102 93 102c52 0 91 -42 91 -102c0 -68 -38 -102 -93 -102zM101 251c-60 0 -91 48 -91 102c0 62 42 100 92 100c58 0 91 -44 91 -100c0 -74 -41 -102 -92 -102z" />
    <glyph glyph-name="semicolon" unicode=";" horiz-adv-x="211" 
d="M79 -131c-45 33 -74 51 -74 51c31 36 49 65 57 80c-26 14 -45 45 -45 83c0 54 33 94 94 94c59 0 90 -49 90 -104c0 -74 -56 -143 -122 -204zM108 246c-57 0 -91 46 -91 102c0 59 39 102 93 102c52 0 91 -42 91 -102c0 -68 -38 -102 -93 -102z" />
    <glyph glyph-name="less" unicode="&#x3c;" horiz-adv-x="284" 
d="M271 115c0 0 -113 66 -261 146c0 0 3 32 1 140c0 0 99 49 263 148c0 0 -4 -38 -3 -163c0 0 -52 -20 -138 -57c32 -14 78 -33 141 -57c0 0 -4 -44 -3 -157z" />
    <glyph glyph-name="equal" unicode="=" horiz-adv-x="302" 
d="M13 171c0 0 1 11 -3 134c0 0 127 -1 282 2c0 0 -1 -30 -1 -136c0 0 -149 2 -278 0zM292 343c-155 3 -282 2 -282 2c4 123 3 134 3 134c129 -2 278 0 278 0c0 -106 1 -136 1 -136z" />
    <glyph glyph-name="greater" unicode="&#x3e;" horiz-adv-x="283" 
d="M13 112c1 113 -3 163 -3 163c62 23 113 45 138 57c-67 33 -135 56 -135 56c2 125 -2 162 -2 162c171 -102 261 -148 261 -148c-2 -108 1 -135 1 -135c-150 -85 -260 -155 -260 -155z" />
    <glyph glyph-name="question" unicode="?" horiz-adv-x="439" 
d="M97 235c0 97 -3 164 -3 164c113 -2 146 21 146 96c0 46 -7 72 -25 72c-28 0 -29 -41 -27 -111c0 0 -75 -3 -180 -6c-20 182 56 259 223 259c138 0 203 -87 203 -194c0 -130 -62 -196 -159 -223c0 -35 1 -55 1 -55c-106 3 -179 -2 -179 -2zM188 -12
c-79 0 -116 49 -116 111c0 68 49 108 113 108c75 0 112 -44 112 -112c0 -63 -42 -107 -109 -107z" />
    <glyph glyph-name="at" unicode="@" horiz-adv-x="685" 
d="M436 -134c-281 -55 -426 97 -426 384c0 257 132 399 334 399c232 0 331 -154 331 -394c0 -203 -50 -265 -133 -265c-54 0 -84 27 -97 73c-29 -54 -87 -69 -136 -69c-109 0 -150 77 -150 149c0 96 63 148 206 149v14c0 38 -5 78 -23 78c-16 0 -24 -17 -21 -73
c0 0 -57 -1 -149 -7c-13 119 50 210 179 210c118 0 172 -91 177 -195c3 -58 2 -128 1 -167s6 -61 21 -61c18 0 30 26 30 162c0 206 -67 310 -235 310c-151 0 -240 -115 -240 -312c0 -227 89 -344 316 -295c0 0 7 -38 15 -90zM374 186c1 13 1 33 1 33c-50 -7 -68 -34 -68 -69
c0 -22 11 -38 31 -38c23 0 31 15 36 74z" />
    <glyph glyph-name="A" unicode="A" horiz-adv-x="468" 
d="M0 15c0 0 44 265 100 683c145 6 256 4 256 4s46 -336 112 -717c0 0 -74 2 -191 -1c0 0 -2 33 -8 112c-18 1 -49 1 -84 1l-6 -84s-55 3 -179 2zM226 550c-6 -54 -18 -163 -30 -307c32 -1 61 0 61 0c-16 169 -31 307 -31 307z" />
    <glyph glyph-name="B" unicode="B" horiz-adv-x="451" 
d="M29 3c0 0 -2 325 -9 691c70 13 129 19 181 19c162 0 239 -63 239 -197c0 -72 -38 -122 -93 -146c69 -28 104 -88 104 -172c0 -150 -107 -205 -275 -205c-45 0 -94 4 -147 10zM206 127c42 -1 66 16 66 79c0 54 -20 84 -70 84c1 -112 4 -163 4 -163zM202 574
c-1 -100 0 -154 0 -154c49 -1 70 26 70 76c0 57 -23 80 -70 78z" />
    <glyph glyph-name="C" unicode="C" 
d="M235 -17c-160 0 -225 102 -225 364c0 253 71 370 237 370c165 0 216 -134 210 -293c-116 0 -193 4 -193 4c1 111 -5 139 -26 139c-24 0 -32 -46 -30 -221c0 -184 8 -212 29 -212c19 0 28 25 26 158c103 4 196 3 196 3c2 -250 -97 -313 -224 -312z" />
    <glyph glyph-name="D" unicode="D" horiz-adv-x="463" 
d="M204 128c39 -3 54 11 54 209c0 169 -14 222 -60 217c1 -212 6 -426 6 -426zM20 -4c2 339 1 697 1 697c48 8 93 13 132 13c221 0 300 -116 300 -378c0 -250 -102 -344 -292 -344c-43 0 -89 4 -141 12z" />
    <glyph glyph-name="E" unicode="E" horiz-adv-x="358" 
d="M28 3c0 0 -2 289 -8 692c0 0 85 1 326 3c0 0 -1 -73 2 -177c0 0 -96 -1 -149 -3c-1 -52 0 -93 0 -93c8 0 45 -1 124 1c0 0 -1 -71 1 -169c0 0 -54 1 -121 1c0 0 0 -34 3 -88c0 0 56 -4 140 -7c0 0 -2 -56 -2 -167c0 0 -147 5 -316 7z" />
    <glyph glyph-name="F" unicode="F" horiz-adv-x="360" 
d="M28 3c0 0 0 287 -8 691c0 0 133 0 330 4c0 0 -2 -60 -2 -179c0 0 -44 2 -147 -1c0 0 -1 -51 0 -140c12 0 59 -1 136 2c0 0 -1 -72 1 -175c0 0 -41 2 -134 0c1 -60 2 -127 4 -201c-108 1 -180 -1 -180 -1z" />
    <glyph glyph-name="G" unicode="G" horiz-adv-x="470" 
d="M235 -18c-136 0 -225 76 -225 360c0 258 73 367 231 367c154 0 219 -128 210 -290c0 0 -149 1 -183 2c2 107 -10 140 -31 140c-26 0 -35 -39 -34 -221c1 -188 13 -224 41 -224c22 0 31 26 30 109c0 0 -17 -1 -42 -3c0 0 1 55 -1 148c0 0 140 -1 228 -1
c10 -323 -79 -387 -224 -387z" />
    <glyph glyph-name="H" unicode="H" horiz-adv-x="454" 
d="M252 -20v225c-13 0 -29 0 -50 -1l3 -182s-76 3 -181 -1c0 0 1 265 -4 656c0 0 42 -1 178 1c0 0 1 -128 3 -321c0 0 24 -1 50 -1c0 104 -2 225 -3 357c0 0 65 -1 183 1c0 0 0 -326 3 -735c0 0 -70 4 -182 1z" />
    <glyph glyph-name="I" unicode="I" horiz-adv-x="236" 
d="M29 -1c0 0 1 306 -4 695c0 0 62 0 181 1c0 0 2 -335 5 -696c0 0 -60 1 -182 0z" />
    <glyph glyph-name="J" unicode="J" horiz-adv-x="419" 
d="M202 -10c-140 0 -197 86 -197 233c0 41 4 85 12 122c0 0 51 -6 159 -13c-3 -25 -5 -52 -5 -76c0 -73 10 -98 27 -98c21 0 32 34 32 229c0 99 -7 192 -23 312c0 0 65 6 176 14c16 -111 26 -229 26 -336c0 -237 -41 -387 -207 -387z" />
    <glyph glyph-name="K" unicode="K" horiz-adv-x="475" 
d="M280 -26c-17 91 -30 156 -40 203c-18 -48 -30 -83 -37 -105c1 -37 2 -56 2 -56c-133 2 -185 -1 -185 -1c3 380 0 665 0 665c124 -2 184 -1 184 -1c-2 -135 -3 -246 -3 -340c60 257 83 376 83 376c122 -6 188 -6 188 -6c-46 -156 -82 -280 -103 -354
c62 -230 106 -370 106 -370c-105 -4 -195 -11 -195 -11z" />
    <glyph glyph-name="L" unicode="L" horiz-adv-x="350" 
d="M26 4c0 0 0 276 -6 685c0 0 59 -2 180 0c0 0 -3 -100 4 -521c81 -3 146 -3 146 -3c-2 -99 -1 -165 -1 -165c-82 3 -323 4 -323 4z" />
    <glyph glyph-name="M" unicode="M" horiz-adv-x="676" 
d="M10 12c0 0 17 284 26 665c0 0 115 -2 252 3c0 0 18 -164 44 -350c15 105 32 243 44 382c0 0 135 -5 261 -9c0 0 1 -279 29 -715c0 0 -96 -5 -186 -8c0 0 5 220 -6 526c-18 -113 -40 -272 -51 -410c0 0 -93 1 -178 5c0 0 -13 135 -49 368c0 -120 0 -285 4 -461
c0 0 -114 3 -190 4z" />
    <glyph glyph-name="N" unicode="N" horiz-adv-x="484" 
d="M23 18c0 0 4 245 -3 649c0 0 72 5 170 8c0 0 42 -127 119 -340c-4 81 -12 205 -26 379c0 0 62 -4 163 -3c0 0 5 -267 18 -713c0 0 -50 -8 -162 -17c0 0 -50 142 -125 343c2 -69 6 -167 15 -309c0 0 -66 3 -169 3z" />
    <glyph glyph-name="O" unicode="O" horiz-adv-x="474" 
d="M237 -19c-166 0 -226 124 -227 355c0 221 46 374 226 374c185 0 228 -139 228 -373c-2 -262 -73 -356 -227 -356zM239 118c20 0 28 23 28 227c0 195 -8 222 -30 222c-27 0 -30 -36 -30 -229c0 -195 9 -220 32 -220z" />
    <glyph glyph-name="P" unicode="P" horiz-adv-x="447" 
d="M20 6c0 0 5 266 4 686c40 4 77 7 110 7c218 0 308 -89 308 -279c0 -166 -88 -269 -241 -271c1 -45 2 -90 4 -142c0 0 -78 2 -185 -1zM198 537c0 0 -2 -83 0 -247c41 5 60 31 60 124c0 90 -21 126 -60 123z" />
    <glyph glyph-name="Q" unicode="Q" horiz-adv-x="474" 
d="M310 -140c-18 49 -37 93 -49 120c-10 -1 -20 -2 -30 -2c-142 0 -221 114 -221 346c0 276 66 383 220 383c166 0 234 -78 234 -394c0 -129 -27 -214 -70 -266c40 -64 68 -103 68 -103c-117 -62 -152 -84 -152 -84zM237 111c24 0 30 25 30 207c0 229 -10 250 -31 250
s-29 -28 -29 -247c0 -179 10 -210 30 -210z" />
    <glyph glyph-name="R" unicode="R" horiz-adv-x="458" 
d="M280 -22c0 0 -23 98 -65 252c0 0 -7 -1 -14 -1l4 -215s-78 1 -185 -1c0 0 5 265 4 686c60 11 113 17 160 17c184 0 268 -87 268 -252c0 -87 -32 -145 -84 -182c8 -26 39 -124 100 -292c0 0 -68 -5 -188 -12zM201 350c39 1 62 30 62 101c0 70 -20 115 -65 111
c1 -105 3 -212 3 -212z" />
    <glyph glyph-name="S" unicode="S" horiz-adv-x="442" 
d="M222 -13c-172 0 -227 96 -216 262c0 0 74 -2 186 -2c-6 -80 3 -117 29 -117c19 0 27 13 27 56c0 37 -17 64 -86 99c-118 59 -154 125 -154 233c0 140 93 192 218 192c154 0 218 -93 201 -265c0 0 -92 8 -181 10c11 85 -4 113 -23 113c-18 0 -26 -21 -26 -58
c0 -38 19 -73 69 -95c136 -61 171 -116 171 -227c0 -143 -87 -201 -215 -201z" />
    <glyph glyph-name="T" unicode="T" horiz-adv-x="404" 
d="M6 521c0 0 2 44 -1 173c0 0 135 -1 394 4c0 0 -4 -65 -3 -177c0 0 -40 1 -106 1c0 -113 1 -272 4 -527c0 0 -59 2 -180 -1c0 0 2 205 -1 528z" />
    <glyph glyph-name="U" unicode="U" 
d="M240 -14c-163 0 -230 127 -230 415c0 92 8 191 22 286c0 0 52 -9 173 -24c-11 -95 -16 -178 -16 -254c0 -191 16 -251 41 -251c23 0 36 27 36 208c0 104 -9 223 -23 334c0 0 68 2 180 15c19 -109 31 -244 31 -360c0 -253 -67 -369 -214 -369z" />
    <glyph glyph-name="V" unicode="V" horiz-adv-x="440" 
d="M80 -11c-45 423 -80 681 -80 681c102 0 181 3 181 3c12 -266 26 -450 33 -536c31 380 38 563 38 563c121 -1 188 2 188 2c-80 -575 -95 -717 -95 -717s-126 -1 -265 4z" />
    <glyph glyph-name="W" unicode="W" horiz-adv-x="678" 
d="M369 -30c-11 178 -21 319 -30 421c-37 -274 -48 -370 -48 -370c-181 10 -229 7 -229 7c-30 426 -57 651 -57 651c102 1 195 4 195 4c0 -179 3 -338 5 -448c51 365 60 412 60 412c98 2 157 -3 157 -3c25 -239 46 -401 58 -487c4 424 0 545 0 545c106 -5 193 -5 193 -5
c-39 -461 -54 -720 -54 -720c-186 -11 -250 -7 -250 -7z" />
    <glyph glyph-name="X" unicode="X" horiz-adv-x="499" 
d="M213 15c-137 8 -213 9 -213 9c45 137 79 243 98 307c-15 66 -43 181 -84 343c0 0 54 0 194 6c0 0 9 -74 37 -245c23 176 32 276 32 276c118 -5 206 -4 206 -4c-40 -163 -68 -283 -85 -360c68 -243 101 -349 101 -349c-161 -8 -213 -13 -213 -13c-11 110 -23 202 -32 262
c-25 -128 -41 -232 -41 -232z" />
    <glyph glyph-name="Y" unicode="Y" horiz-adv-x="480" 
d="M154 -15c0 0 3 20 -2 150c0 0 -32 139 -152 540c0 0 33 -1 197 6c0 0 11 -94 48 -300c0 0 27 159 49 320c0 0 50 -4 186 -3c0 0 -62 -219 -147 -559c0 0 -2 -13 3 -153c0 0 -36 3 -182 -1z" />
    <glyph glyph-name="Z" unicode="Z" horiz-adv-x="384" 
d="M371 -5c-240 8 -361 8 -361 8c3 129 1 182 1 182c90 167 144 274 171 329c-99 -3 -169 -6 -169 -6c1 141 -1 182 -1 182c247 5 358 9 358 9c4 -105 3 -198 3 -198c-85 -163 -138 -274 -165 -331c78 -5 165 -5 165 -5c-4 -138 -2 -170 -2 -170z" />
    <glyph glyph-name="bracketleft" unicode="[" horiz-adv-x="284" 
d="M269 -128c0 0 -99 4 -235 3c0 0 2 266 -4 857c0 0 58 -1 235 2c0 0 -1 -55 3 -150c0 0 -21 0 -58 -3c0 0 -4 -284 0 -547c0 0 22 -2 64 -2c0 0 -3 -48 -5 -160z" />
    <glyph glyph-name="backslash" unicode="\" horiz-adv-x="372" 
d="M377 -130c0 0 -49 2 -154 0c0 0 -60 250 -228 867c0 0 39 -2 153 0c0 0 106 -418 229 -867z" />
    <glyph glyph-name="bracketright" unicode="]" horiz-adv-x="284" 
d="M15 -124c-2 112 -5 161 -5 161c42 0 64 2 64 2c4 263 1 555 1 555c-37 1 -59 0 -59 0c2 92 1 150 1 150c177 -3 237 -2 237 -2c-9 -589 -6 -862 -6 -862c-83 1 -233 -4 -233 -4z" />
    <glyph glyph-name="asciicircum" unicode="^" horiz-adv-x="368" 
d="M368 289c0 0 -48 6 -143 5c0 0 -13 82 -41 227c-11 -51 -26 -129 -45 -236c0 0 -46 5 -139 7c0 0 39 117 119 397c0 0 45 -3 130 -2c0 0 28 -113 119 -398z" />
    <glyph glyph-name="underscore" unicode="_" horiz-adv-x="293" 
d="M6 -115c1 93 -1 136 -1 136c155 -3 283 -2 283 -2c-4 -95 -3 -134 -3 -134c-129 2 -279 0 -279 0z" />
    <glyph glyph-name="grave" unicode="`" horiz-adv-x="447" 
d="M246 520c0 0 -30 37 -128 145c0 0 30 20 103 76c0 0 28 -48 107 -163c0 0 -28 -16 -82 -58z" />
    <glyph glyph-name="a" unicode="a" horiz-adv-x="423" 
d="M149 -15c-82 0 -144 49 -144 136c0 121 87 178 229 175v14c-1 55 -9 71 -24 71c-17 0 -24 -22 -26 -68c0 0 -64 -3 -165 -1c-2 107 59 191 198 191c132 0 187 -79 190 -205c3 -149 0 -309 0 -309s-39 -1 -131 -2c0 0 3 30 4 70c-24 -55 -75 -72 -131 -72zM242 199
c0 11 -1 20 -1 20c-50 -7 -65 -39 -65 -71c0 -23 8 -41 30 -41s36 18 36 92z" />
    <glyph glyph-name="b" unicode="b" horiz-adv-x="456" 
d="M22 -15c0 0 1 216 -2 698c0 0 54 -2 183 -1c0 0 -7 -95 -9 -241c24 37 58 61 109 61c103 0 143 -99 143 -255c0 -167 -75 -243 -166 -243c-62 0 -102 26 -121 63c0 -25 1 -52 2 -81c0 0 -48 0 -139 -1zM227 110c17 0 27 41 27 140c0 96 -7 134 -27 134
c-18 0 -28 -35 -28 -130c0 -108 6 -144 28 -144z" />
    <glyph glyph-name="c" unicode="c" horiz-adv-x="435" 
d="M224 -12c-151 0 -214 97 -214 262c0 163 75 258 221 258c140 0 209 -110 198 -230c-127 5 -178 4 -178 4c2 68 -8 100 -28 100s-27 -34 -27 -138c0 -83 7 -119 29 -119c18 0 29 21 25 90c0 0 39 -2 180 3c4 -175 -92 -230 -206 -230z" />
    <glyph glyph-name="d" unicode="d" horiz-adv-x="457" 
d="M434 -17c0 0 -51 1 -141 1c0 0 1 34 2 86c-23 -51 -64 -75 -115 -75c-102 0 -170 75 -170 269c0 142 48 243 157 243c41 0 73 -22 95 -55c-2 53 -5 128 -11 232c0 0 36 -3 186 1c0 0 -5 -316 -3 -702zM230 109c14 0 27 17 27 145c0 87 -8 131 -30 131
c-17 0 -25 -29 -25 -141c0 -96 10 -135 28 -135z" />
    <glyph glyph-name="e" unicode="e" horiz-adv-x="445" 
d="M225 -10c-169 0 -215 117 -215 262c0 140 59 255 214 255c173 0 220 -130 208 -300c0 0 -95 0 -240 -2c3 -67 13 -91 34 -91c16 0 27 14 29 57c0 0 93 -1 180 -4c-15 -114 -96 -177 -210 -177zM223 392c-20 0 -29 -20 -31 -100c21 0 38 0 58 1c1 68 -9 99 -27 99z" />
    <glyph glyph-name="f" unicode="f" horiz-adv-x="313" 
d="M305 312c0 0 -25 1 -69 2c-1 -157 0 -312 0 -312s-73 0 -172 -1c0 0 -2 140 -3 313h-55s2 47 -1 165c0 0 23 -1 57 -3v10c1 132 42 210 158 210c28 0 61 -4 98 -13c0 0 -6 -40 -10 -154c-8 1 -16 2 -22 2c-36 0 -47 -20 -48 -52v-8c22 -1 44 -1 70 -1c0 0 -4 -62 -3 -158
z" />
    <glyph glyph-name="g" unicode="g" horiz-adv-x="418" 
d="M211 -261c-128 0 -206 44 -206 124c0 49 38 89 88 101c-33 20 -48 49 -48 78c0 30 20 62 59 86c-62 31 -94 92 -94 190c0 122 73 202 204 202c6 0 18 -1 18 -1c3 31 9 82 16 158c0 0 48 -14 157 -37c0 0 -26 -51 -73 -151c52 -33 80 -93 80 -171
c0 -145 -83 -213 -188 -213c-16 0 -30 1 -44 2c-3 -3 -5 -8 -5 -12c0 -11 10 -16 79 -24c133 -15 179 -71 179 -154c0 -124 -109 -178 -222 -178zM213 198c13 0 27 16 27 100c0 73 -11 106 -27 106c-17 0 -31 -24 -31 -105s13 -101 31 -101zM269 -115c0 25 -30 38 -80 39
c-14 -9 -23 -27 -23 -40c0 -23 19 -37 50 -37c32 0 53 13 53 38z" />
    <glyph glyph-name="h" unicode="h" horiz-adv-x="434" 
d="M20 20c0 0 6 288 2 655c0 0 51 -1 170 1c0 0 -4 -101 -4 -238c25 42 62 69 116 69c72 0 109 -63 112 -155c5 -160 3 -371 3 -371s-61 2 -177 2c0 0 2 174 0 332c0 25 -7 33 -21 33c-15 0 -22 -7 -22 -33c-2 -149 -1 -294 -1 -294s-55 1 -178 -1z" />
    <glyph glyph-name="i" unicode="i" horiz-adv-x="221" 
d="M26 1c0 0 1 138 -3 505c0 0 58 -1 175 1c0 0 -1 -178 4 -505c0 0 -75 0 -176 -1zM113 544c-72 0 -108 38 -108 106c0 62 40 98 108 98c67 0 103 -45 103 -100c0 -58 -34 -104 -103 -104z" />
    <glyph glyph-name="j" unicode="j" horiz-adv-x="222" 
d="M109 543c-76 0 -104 50 -104 103c0 61 32 102 106 102c66 0 106 -39 106 -98c0 -64 -40 -107 -108 -107zM-85 -229c0 0 4 61 4 164c8 -1 16 -1 23 -1c64 0 83 31 84 89c4 172 -1 481 -1 481c112 -1 171 1 171 1s8 -192 4 -505c-2 -136 -57 -230 -244 -230
c-13 0 -27 0 -41 1z" />
    <glyph glyph-name="k" unicode="k" horiz-adv-x="455" 
d="M266 -24c-15 68 -28 122 -37 161c-14 -25 -24 -45 -32 -61c0 -37 1 -60 1 -60c-118 3 -178 2 -178 2c3 461 0 661 0 661c126 -4 179 -2 179 -2c-2 -170 -2 -278 -2 -378c41 132 63 207 63 207c110 -6 195 -10 195 -10c-47 -94 -80 -166 -101 -210
c59 -188 101 -306 101 -306c-130 -1 -189 -4 -189 -4z" />
    <glyph glyph-name="l" unicode="l" horiz-adv-x="217" 
d="M197 18c-115 4 -176 3 -176 3c3 457 -1 657 -1 657c116 -5 177 -5 177 -5c-4 -491 0 -655 0 -655z" />
    <glyph glyph-name="m" unicode="m" horiz-adv-x="658" 
d="M23 17c0 0 0 201 -3 480c0 0 62 -2 144 -1c0 0 -1 -34 -2 -77c26 49 72 86 132 86c62 0 95 -38 108 -83c23 46 67 79 129 79c75 0 108 -54 110 -139c3 -174 2 -378 2 -378s-60 1 -176 0c0 0 -1 180 -3 327c0 26 -5 40 -20 40c-17 0 -23 -19 -23 -45
c-2 -136 0 -282 0 -282s-85 0 -180 -1c0 0 4 157 3 282c0 25 -6 43 -23 43c-18 0 -23 -21 -23 -48c-1 -121 3 -283 3 -283s-94 1 -178 0z" />
    <glyph glyph-name="n" unicode="n" horiz-adv-x="433" 
d="M240 -18c0 0 2 175 2 333c0 23 -6 33 -21 33c-17 0 -21 -11 -22 -33c-2 -73 -1 -299 -1 -299s-80 1 -178 0c0 0 4 187 2 471c0 0 58 -2 138 1c0 0 -2 -40 -1 -76c23 53 77 93 135 93c78 0 119 -54 122 -148c2 -54 2 -374 2 -374c-61 1 -178 -1 -178 -1z" />
    <glyph glyph-name="o" unicode="o" horiz-adv-x="447" 
d="M222 -8c-160 0 -212 107 -212 266c0 157 75 250 215 250c150 0 212 -102 212 -258c0 -189 -81 -258 -215 -258zM224 106c17 0 27 17 27 143c0 118 -8 140 -27 140c-21 0 -28 -22 -28 -133c0 -133 8 -150 28 -150z" />
    <glyph glyph-name="p" unicode="p" horiz-adv-x="457" 
d="M20 -192c5 312 0 679 0 679c77 -2 143 1 143 1c-2 -36 -3 -58 -3 -76c21 56 62 97 126 97c108 0 161 -112 161 -264c0 -177 -66 -249 -148 -249c-49 0 -87 20 -105 55c4 -189 9 -242 9 -242c-130 4 -183 -1 -183 -1zM229 113c16 0 26 15 26 140c0 107 -8 133 -25 133
c-23 0 -28 -33 -28 -130c0 -126 6 -143 27 -143z" />
    <glyph glyph-name="q" unicode="q" horiz-adv-x="457" 
d="M256 -213c4 122 6 208 7 261c-19 -35 -50 -52 -96 -52c-92 0 -157 70 -157 265c0 149 66 252 168 252c57 0 99 -38 116 -80c-1 52 -3 85 -3 85c117 -2 146 0 146 0c-4 -445 0 -730 0 -730c-120 1 -181 -1 -181 -1zM229 113c20 0 27 36 27 142c0 86 -8 131 -27 131
c-22 0 -28 -42 -28 -131c0 -101 8 -142 28 -142z" />
    <glyph glyph-name="r" unicode="r" horiz-adv-x="306" 
d="M22 -4c0 0 2 255 -2 505c0 0 26 -2 146 1c0 0 -3 -37 -4 -88c26 59 87 101 144 100c0 0 -5 -48 -7 -180c-75 -12 -99 -56 -101 -129c-2 -82 1 -208 1 -208s-45 1 -177 -1z" />
    <glyph glyph-name="s" unicode="s" horiz-adv-x="400" 
d="M205 -15c-126 0 -202 58 -200 201c0 0 56 0 168 -7c-1 -43 4 -68 32 -68c13 0 25 10 25 32c0 21 -13 37 -73 55c-109 32 -147 79 -147 159c0 89 70 156 194 156c126 0 191 -80 187 -203c0 0 -70 5 -160 4c2 41 -5 68 -29 68c-20 0 -28 -15 -28 -29c0 -24 20 -43 68 -58
c112 -34 153 -79 153 -153c0 -113 -88 -157 -190 -157z" />
    <glyph glyph-name="t" unicode="t" horiz-adv-x="321" 
d="M7 333c0 120 -2 152 -2 152c17 -1 33 -1 48 -1c1 81 2 134 2 134c126 -2 172 0 172 0s-1 -58 -2 -136h77c-2 -127 -1 -150 -1 -150l-77 1c0 -41 1 -82 2 -119c1 -30 17 -44 47 -44c8 0 18 1 29 3c5 -105 9 -160 9 -160c-35 -8 -68 -13 -97 -13c-97 0 -160 45 -161 163
c-1 60 -1 115 -1 170h-45z" />
    <glyph glyph-name="u" unicode="u" horiz-adv-x="434" 
d="M158 -10c-98 0 -143 74 -143 289c0 77 4 147 13 225c0 0 43 -7 165 -12c-5 -50 -6 -110 -6 -149c0 -176 13 -202 33 -202c14 0 21 14 21 44c2 177 -7 324 -7 324s48 -4 178 -3c0 0 -2 -197 2 -527c0 0 -42 3 -140 1c0 0 1 38 1 91c-22 -54 -69 -81 -117 -81z" />
    <glyph glyph-name="v" unicode="v" horiz-adv-x="415" 
d="M343 11c-167 -6 -268 -6 -268 -6c-45 298 -75 469 -75 469c102 0 181 5 181 5c15 -264 24 -353 24 -353c32 287 37 390 37 390c109 -7 173 -6 173 -6c-55 -360 -72 -499 -72 -499z" />
    <glyph glyph-name="w" unicode="w" horiz-adv-x="656" 
d="M356 -8c-14 179 -32 306 -32 306c-23 -194 -27 -285 -27 -285c-160 7 -230 4 -230 4c-41 312 -67 470 -67 470c81 1 179 3 179 3c8 -243 17 -328 17 -328c34 243 41 340 41 340c132 3 174 0 174 0c41 -326 49 -363 49 -363c14 302 11 379 11 379c122 -4 185 -3 185 -3
c-50 -352 -67 -522 -67 -522c-166 2 -233 -1 -233 -1z" />
    <glyph glyph-name="x" unicode="x" 
d="M0 12c49 115 80 193 95 232c-54 157 -87 241 -87 241c131 -5 183 -1 183 -1c16 -73 29 -122 38 -156c35 128 45 179 45 179c132 -5 182 -3 182 -3c-50 -129 -79 -214 -91 -253c63 -176 99 -265 99 -265c-121 4 -185 0 -185 0s-17 63 -48 174c-23 -87 -35 -146 -35 -146
c-126 3 -196 -2 -196 -2z" />
    <glyph glyph-name="y" unicode="y" horiz-adv-x="452" 
d="M293 -219c-141 18 -174 21 -174 21c17 98 24 145 24 145c-87 337 -143 529 -143 529c118 0 193 8 193 8c19 -205 37 -308 37 -308c23 228 26 337 26 337c81 -5 196 -8 196 -8c-135 -588 -159 -724 -159 -724z" />
    <glyph glyph-name="z" unicode="z" horiz-adv-x="366" 
d="M354 2c-235 10 -344 8 -344 8c4 84 2 125 2 125c108 141 142 199 142 199c-100 0 -135 -4 -135 -4c-1 121 -5 163 -5 163c229 1 339 8 339 8c-1 -118 3 -140 3 -140c-113 -149 -146 -207 -146 -207c114 -4 146 -2 146 -2c-4 -133 -2 -150 -2 -150z" />
    <glyph glyph-name="braceleft" unicode="{" horiz-adv-x="323" 
d="M309 -120c-40 -10 -74 -14 -104 -14c-100 0 -135 50 -135 155l3 131c0 64 -17 83 -68 83c0 0 3 54 2 156c50 -3 66 21 66 74c0 43 -6 97 -6 144c0 85 39 133 149 133c28 0 60 -4 93 -12c-1 -118 4 -148 4 -148c-57 5 -71 -3 -71 -44c0 -39 7 -85 7 -129
c0 -48 -23 -75 -69 -97c50 -22 67 -52 67 -109c0 -35 -4 -80 -4 -119c0 -49 12 -60 70 -56c-6 -103 -4 -148 -4 -148z" />
    <glyph glyph-name="bar" unicode="|" horiz-adv-x="221" 
d="M33 -129c0 0 2 446 -3 866c0 0 58 -4 161 -3c0 0 -5 -364 -3 -861c0 0 -46 3 -155 -2z" />
    <glyph glyph-name="braceright" unicode="}" horiz-adv-x="323" 
d="M14 -126c0 0 2 41 -4 144c51 -5 72 5 72 48c0 38 -7 95 -7 142c0 59 23 95 77 112c-48 15 -77 39 -77 96c0 46 8 85 8 126c0 40 -18 47 -73 44c0 0 5 33 4 151c30 7 59 10 85 10c117 0 157 -48 157 -129c0 -53 -8 -106 -8 -150c0 -53 16 -70 68 -70
c-1 -102 2 -152 2 -152c-55 3 -72 -18 -72 -76c0 -57 7 -112 7 -165c0 -92 -36 -147 -141 -145c-28 0 -61 5 -98 14z" />
    <glyph glyph-name="asciitilde" unicode="~" horiz-adv-x="385" 
d="M99 526c0 0 -40 1 -94 6c-1 133 49 178 115 178c64 0 102 -61 138 -61c19 0 26 14 29 63c0 0 26 -4 93 -7c1 -120 -39 -178 -111 -178c-63 0 -99 56 -137 56c-25 0 -34 -16 -33 -57z" />
    <glyph glyph-name="Adieresis" unicode="&#xc4;" horiz-adv-x="468" 
d="M0 15c0 0 44 265 100 683c145 6 256 4 256 4s46 -336 112 -717c0 0 -74 2 -191 -1c0 0 -2 33 -8 112c-18 1 -49 1 -84 1l-6 -84s-55 3 -179 2zM226 550c-6 -54 -18 -163 -30 -307c32 -1 61 0 61 0c-16 169 -31 307 -31 307zM137 749c-50 0 -73 40 -73 81
c0 47 30 80 74 80c51 0 72 -38 72 -80c0 -59 -35 -81 -73 -81zM315 753c-42 0 -70 32 -70 82c0 42 25 76 72 76s69 -37 69 -79c0 -51 -29 -79 -71 -79z" />
    <glyph glyph-name="Aring" unicode="&#xc5;" horiz-adv-x="468" 
d="M0 15c0 0 44 265 100 683c145 6 256 4 256 4s46 -336 112 -717c0 0 -74 2 -191 -1c0 0 -2 33 -8 112c-18 1 -49 1 -84 1l-6 -84s-55 3 -179 2zM226 550c-6 -54 -18 -163 -30 -307c32 -1 61 0 61 0c-16 169 -31 307 -31 307zM224 739c-70 0 -105 46 -105 103
c0 62 45 99 106 99c69 0 107 -46 107 -99c0 -76 -53 -103 -108 -103zM226 799c23 0 33 18 33 43c0 22 -12 43 -33 43c-23 0 -33 -21 -33 -44c0 -24 13 -42 33 -42z" />
    <glyph glyph-name="Ccedilla" unicode="&#xc7;" 
d="M459 295c2 -228 -80 -300 -191 -310c0 0 -1 -16 -1 -25c63 -2 100 -32 100 -77c0 -59 -52 -97 -131 -97c-29 0 -60 5 -85 14c0 0 5 32 10 76c24 -11 55 -17 80 -17c16 0 31 6 31 18c0 15 -23 23 -84 19c0 0 9 37 17 88c-138 13 -195 118 -195 363c0 253 71 370 237 370
c165 0 216 -134 210 -293c-116 0 -193 4 -193 4c1 111 -5 139 -26 139c-24 0 -32 -46 -30 -221c0 -184 8 -212 29 -212c19 0 28 25 26 158c103 4 196 3 196 3z" />
    <glyph glyph-name="Eacute" unicode="&#xc9;" horiz-adv-x="358" 
d="M28 3c0 0 -2 289 -8 692c0 0 85 1 326 3c0 0 -1 -73 2 -177c0 0 -96 -1 -149 -3c-1 -52 0 -93 0 -93c8 0 45 -1 124 1c0 0 -1 -71 1 -169c0 0 -54 1 -121 1c0 0 0 -34 3 -88c0 0 56 -4 140 -7c0 0 -2 -56 -2 -167c0 0 -147 5 -316 7zM202 730c-54 42 -82 58 -82 58
c79 115 107 163 107 163c73 -56 103 -76 103 -76c-98 -108 -128 -145 -128 -145z" />
    <glyph glyph-name="Ntilde" unicode="&#xd1;" horiz-adv-x="484" 
d="M23 18c0 0 4 245 -3 649c0 0 72 5 170 8c0 0 42 -127 119 -340c-4 81 -12 205 -26 379c0 0 62 -4 163 -3c0 0 5 -267 18 -713c0 0 -50 -8 -162 -17c0 0 -50 142 -125 343c2 -69 6 -167 15 -309c0 0 -66 3 -169 3zM175 756c0 0 -26 0 -93 -4c-5 90 26 159 98 159
c52 0 70 -49 106 -49c19 0 31 9 27 44c0 0 25 0 85 6c16 -102 -19 -159 -83 -159c-63 0 -77 43 -114 43c-19 0 -29 -16 -26 -40z" />
    <glyph glyph-name="Odieresis" unicode="&#xd6;" horiz-adv-x="474" 
d="M237 -19c-166 0 -226 124 -227 355c0 221 46 374 226 374c185 0 228 -139 228 -373c-2 -262 -73 -356 -227 -356zM239 118c20 0 28 23 28 227c0 195 -8 222 -30 222c-27 0 -30 -36 -30 -229c0 -195 9 -220 32 -220zM149 749c-50 0 -73 40 -73 81c0 47 30 80 74 80
c51 0 72 -38 72 -80c0 -59 -35 -81 -73 -81zM327 753c-42 0 -70 32 -70 82c0 42 25 76 72 76s69 -37 69 -79c0 -51 -29 -79 -71 -79z" />
    <glyph glyph-name="Udieresis" unicode="&#xdc;" 
d="M240 -14c-163 0 -230 127 -230 415c0 92 8 191 22 286c0 0 52 -9 173 -24c-11 -95 -16 -178 -16 -254c0 -191 16 -251 41 -251c23 0 36 27 36 208c0 104 -9 223 -23 334c0 0 68 2 180 15c19 -109 31 -244 31 -360c0 -253 -67 -369 -214 -369zM144 749
c-50 0 -73 40 -73 81c0 47 30 80 74 80c51 0 72 -38 72 -80c0 -59 -35 -81 -73 -81zM322 753c-42 0 -70 32 -70 82c0 42 25 76 72 76s69 -37 69 -79c0 -51 -29 -79 -71 -79z" />
    <glyph glyph-name="aacute" unicode="&#xe1;" horiz-adv-x="423" 
d="M149 -15c-82 0 -144 49 -144 136c0 121 87 178 229 175v14c-1 55 -9 71 -24 71c-17 0 -24 -22 -26 -68c0 0 -64 -3 -165 -1c-2 107 59 191 198 191c132 0 187 -79 190 -205c3 -149 0 -309 0 -309s-39 -1 -131 -2c0 0 3 30 4 70c-24 -55 -75 -72 -131 -72zM242 199
c0 11 -1 20 -1 20c-50 -7 -65 -39 -65 -71c0 -23 8 -41 30 -41s36 18 36 92zM224 520c-54 42 -82 58 -82 58c79 115 107 163 107 163c73 -56 103 -76 103 -76c-98 -108 -128 -145 -128 -145z" />
    <glyph glyph-name="agrave" unicode="&#xe0;" horiz-adv-x="423" 
d="M149 -15c-82 0 -144 49 -144 136c0 121 87 178 229 175v14c-1 55 -9 71 -24 71c-17 0 -24 -22 -26 -68c0 0 -64 -3 -165 -1c-2 107 59 191 198 191c132 0 187 -79 190 -205c3 -149 0 -309 0 -309s-39 -1 -131 -2c0 0 3 30 4 70c-24 -55 -75 -72 -131 -72zM242 199
c0 11 -1 20 -1 20c-50 -7 -65 -39 -65 -71c0 -23 8 -41 30 -41s36 18 36 92zM202 520c0 0 -30 37 -128 145c0 0 30 20 103 76c0 0 28 -48 107 -163c0 0 -28 -16 -82 -58z" />
    <glyph glyph-name="acircumflex" unicode="&#xe2;" horiz-adv-x="423" 
d="M149 -15c-82 0 -144 49 -144 136c0 121 87 178 229 175v14c-1 55 -9 71 -24 71c-17 0 -24 -22 -26 -68c0 0 -64 -3 -165 -1c-2 107 59 191 198 191c132 0 187 -79 190 -205c3 -149 0 -309 0 -309s-39 -1 -131 -2c0 0 3 30 4 70c-24 -55 -75 -72 -131 -72zM242 199
c0 11 -1 20 -1 20c-50 -7 -65 -39 -65 -71c0 -23 8 -41 30 -41s36 18 36 92zM113 515c0 0 -19 20 -74 65c0 0 33 31 108 112c0 0 25 0 109 10c0 0 27 -28 119 -108c0 0 -27 -25 -73 -78c0 0 -26 26 -98 84c0 0 -30 -25 -91 -85z" />
    <glyph glyph-name="adieresis" unicode="&#xe4;" horiz-adv-x="423" 
d="M149 -15c-82 0 -144 49 -144 136c0 121 87 178 229 175v14c-1 55 -9 71 -24 71c-17 0 -24 -22 -26 -68c0 0 -64 -3 -165 -1c-2 107 59 191 198 191c132 0 187 -79 190 -205c3 -149 0 -309 0 -309s-39 -1 -131 -2c0 0 3 30 4 70c-24 -55 -75 -72 -131 -72zM242 199
c0 11 -1 20 -1 20c-50 -7 -65 -39 -65 -71c0 -23 8 -41 30 -41s36 18 36 92zM119 533c-50 0 -73 40 -73 81c0 47 30 80 74 80c51 0 72 -38 72 -80c0 -59 -35 -81 -73 -81zM297 537c-42 0 -70 32 -70 82c0 42 25 76 72 76s69 -37 69 -79c0 -51 -29 -79 -71 -79z" />
    <glyph glyph-name="atilde" unicode="&#xe3;" horiz-adv-x="423" 
d="M149 -15c-82 0 -144 49 -144 136c0 121 87 178 229 175v14c-1 55 -9 71 -24 71c-17 0 -24 -22 -26 -68c0 0 -64 -3 -165 -1c-2 107 59 191 198 191c132 0 187 -79 190 -205c3 -149 0 -309 0 -309s-39 -1 -131 -2c0 0 3 30 4 70c-24 -55 -75 -72 -131 -72zM242 199
c0 11 -1 20 -1 20c-50 -7 -65 -39 -65 -71c0 -23 8 -41 30 -41s36 18 36 92zM140 536c0 0 -26 0 -93 -4c-5 90 26 159 98 159c52 0 70 -49 106 -49c19 0 31 9 27 44c0 0 25 0 85 6c16 -102 -19 -159 -83 -159c-63 0 -77 43 -114 43c-19 0 -29 -16 -26 -40z" />
    <glyph glyph-name="aring" unicode="&#xe5;" horiz-adv-x="423" 
d="M149 -15c-82 0 -144 49 -144 136c0 121 87 178 229 175v14c-1 55 -9 71 -24 71c-17 0 -24 -22 -26 -68c0 0 -64 -3 -165 -1c-2 107 59 191 198 191c132 0 187 -79 190 -205c3 -149 0 -309 0 -309s-39 -1 -131 -2c0 0 3 30 4 70c-24 -55 -75 -72 -131 -72zM242 199
c0 11 -1 20 -1 20c-50 -7 -65 -39 -65 -71c0 -23 8 -41 30 -41s36 18 36 92zM206 529c-70 0 -105 46 -105 103c0 62 45 99 106 99c69 0 107 -46 107 -99c0 -76 -53 -103 -108 -103zM208 589c23 0 33 18 33 43c0 22 -12 43 -33 43c-23 0 -33 -21 -33 -44c0 -24 13 -42 33 -42
z" />
    <glyph glyph-name="ccedilla" unicode="&#xe7;" horiz-adv-x="435" 
d="M430 218c3 -159 -75 -219 -175 -228c0 0 -1 -10 -2 -30c63 -2 100 -32 100 -77c0 -59 -52 -97 -131 -97c-29 0 -60 5 -85 14c0 0 5 32 10 76c24 -11 55 -17 80 -17c16 0 31 6 31 18c0 15 -23 23 -84 19c0 0 9 40 17 94c-127 13 -181 107 -181 260c0 163 75 258 221 258
c140 0 209 -110 198 -230c-127 5 -178 4 -178 4c2 68 -8 100 -28 100s-27 -34 -27 -138c0 -83 7 -119 29 -119c18 0 29 21 25 90c0 0 39 -2 180 3z" />
    <glyph glyph-name="eacute" unicode="&#xe9;" horiz-adv-x="445" 
d="M225 -10c-169 0 -215 117 -215 262c0 140 59 255 214 255c173 0 220 -130 208 -300c0 0 -95 0 -240 -2c3 -67 13 -91 34 -91c16 0 27 14 29 57c0 0 93 -1 180 -4c-15 -114 -96 -177 -210 -177zM223 392c-20 0 -29 -20 -31 -100c21 0 38 0 58 1c1 68 -9 99 -27 99z
M240 530c-54 42 -82 58 -82 58c79 115 107 163 107 163c73 -56 103 -76 103 -76c-98 -108 -128 -145 -128 -145z" />
    <glyph glyph-name="egrave" unicode="&#xe8;" horiz-adv-x="445" 
d="M225 -10c-169 0 -215 117 -215 262c0 140 59 255 214 255c173 0 220 -130 208 -300c0 0 -95 0 -240 -2c3 -67 13 -91 34 -91c16 0 27 14 29 57c0 0 93 -1 180 -4c-15 -114 -96 -177 -210 -177zM223 392c-20 0 -29 -20 -31 -100c21 0 38 0 58 1c1 68 -9 99 -27 99z
M217 530c0 0 -30 37 -128 145c0 0 30 20 103 76c0 0 28 -48 107 -163c0 0 -28 -16 -82 -58z" />
    <glyph glyph-name="ecircumflex" unicode="&#xea;" horiz-adv-x="445" 
d="M225 -10c-169 0 -215 117 -215 262c0 140 59 255 214 255c173 0 220 -130 208 -300c0 0 -95 0 -240 -2c3 -67 13 -91 34 -91c16 0 27 14 29 57c0 0 93 -1 180 -4c-15 -114 -96 -177 -210 -177zM223 392c-20 0 -29 -20 -31 -100c21 0 38 0 58 1c1 68 -9 99 -27 99z
M128 522c0 0 -19 20 -74 65c0 0 33 31 108 112c0 0 25 0 109 10c0 0 27 -28 119 -108c0 0 -27 -25 -73 -78c0 0 -26 26 -98 84c0 0 -30 -25 -91 -85z" />
    <glyph glyph-name="edieresis" unicode="&#xeb;" horiz-adv-x="445" 
d="M225 -10c-169 0 -215 117 -215 262c0 140 59 255 214 255c173 0 220 -130 208 -300c0 0 -95 0 -240 -2c3 -67 13 -91 34 -91c16 0 27 14 29 57c0 0 93 -1 180 -4c-15 -114 -96 -177 -210 -177zM223 392c-20 0 -29 -20 -31 -100c21 0 38 0 58 1c1 68 -9 99 -27 99z
M134 535c-50 0 -73 40 -73 81c0 47 30 80 74 80c51 0 72 -38 72 -80c0 -59 -35 -81 -73 -81zM312 539c-42 0 -70 32 -70 82c0 42 25 76 72 76s69 -37 69 -79c0 -51 -29 -79 -71 -79z" />
    <glyph glyph-name="iacute" unicode="&#xed;" horiz-adv-x="221" 
d="M26 1c0 0 1 138 -3 505c0 0 58 -1 175 1c0 0 -1 -178 4 -505c0 0 -75 0 -176 -1zM130 535c-54 42 -82 58 -82 58c79 115 107 163 107 163c73 -56 103 -76 103 -76c-98 -108 -128 -145 -128 -145z" />
    <glyph glyph-name="igrave" unicode="&#xec;" horiz-adv-x="221" 
d="M26 1c0 0 1 138 -3 505c0 0 58 -1 175 1c0 0 -1 -178 4 -505c0 0 -75 0 -176 -1zM107 535c0 0 -30 37 -128 145c0 0 30 20 103 76c0 0 28 -48 107 -163c0 0 -28 -16 -82 -58z" />
    <glyph glyph-name="icircumflex" unicode="&#xee;" horiz-adv-x="221" 
d="M26 1c0 0 1 138 -3 505c0 0 58 -1 175 1c0 0 -1 -178 4 -505c0 0 -75 0 -176 -1zM18 530c0 0 -19 20 -74 65c0 0 33 31 108 112c0 0 25 0 109 10c0 0 27 -28 119 -108c0 0 -27 -25 -73 -78c0 0 -26 26 -98 84c0 0 -30 -25 -91 -85z" />
    <glyph glyph-name="idieresis" unicode="&#xef;" horiz-adv-x="221" 
d="M26 1c0 0 1 138 -3 505c0 0 58 -1 175 1c0 0 -1 -178 4 -505c0 0 -75 0 -176 -1zM24 554c-50 0 -73 40 -73 81c0 47 30 80 74 80c51 0 72 -38 72 -80c0 -59 -35 -81 -73 -81zM202 558c-42 0 -70 32 -70 82c0 42 25 76 72 76s69 -37 69 -79c0 -51 -29 -79 -71 -79z" />
    <glyph glyph-name="ntilde" unicode="&#xf1;" horiz-adv-x="433" 
d="M240 -18c0 0 2 175 2 333c0 23 -6 33 -21 33c-17 0 -21 -11 -22 -33c-2 -73 -1 -299 -1 -299s-80 1 -178 0c0 0 4 187 2 471c0 0 58 -2 138 1c0 0 -2 -40 -1 -76c23 53 77 93 135 93c78 0 119 -54 122 -148c2 -54 2 -374 2 -374c-61 1 -178 -1 -178 -1zM162 536
c0 0 -26 0 -93 -4c-5 90 26 159 98 159c52 0 70 -49 106 -49c19 0 31 9 27 44c0 0 25 0 85 6c16 -102 -19 -159 -83 -159c-63 0 -77 43 -114 43c-19 0 -29 -16 -26 -40z" />
    <glyph glyph-name="oacute" unicode="&#xf3;" horiz-adv-x="447" 
d="M222 -8c-160 0 -212 107 -212 266c0 157 75 250 215 250c150 0 212 -102 212 -258c0 -189 -81 -258 -215 -258zM224 106c17 0 27 17 27 143c0 118 -8 140 -27 140c-21 0 -28 -22 -28 -133c0 -133 8 -150 28 -150zM241 525c-54 42 -82 58 -82 58c79 115 107 163 107 163
c73 -56 103 -76 103 -76c-98 -108 -128 -145 -128 -145z" />
    <glyph glyph-name="ograve" unicode="&#xf2;" horiz-adv-x="447" 
d="M222 -8c-160 0 -212 107 -212 266c0 157 75 250 215 250c150 0 212 -102 212 -258c0 -189 -81 -258 -215 -258zM224 106c17 0 27 17 27 143c0 118 -8 140 -27 140c-21 0 -28 -22 -28 -133c0 -133 8 -150 28 -150zM218 525c0 0 -30 37 -128 145c0 0 30 20 103 76
c0 0 28 -48 107 -163c0 0 -28 -16 -82 -58z" />
    <glyph glyph-name="ocircumflex" unicode="&#xf4;" horiz-adv-x="447" 
d="M222 -8c-160 0 -212 107 -212 266c0 157 75 250 215 250c150 0 212 -102 212 -258c0 -189 -81 -258 -215 -258zM224 106c17 0 27 17 27 143c0 118 -8 140 -27 140c-21 0 -28 -22 -28 -133c0 -133 8 -150 28 -150zM130 522c0 0 -19 20 -74 65c0 0 33 31 108 112
c0 0 25 0 109 10c0 0 27 -28 119 -108c0 0 -27 -25 -73 -78c0 0 -26 26 -98 84c0 0 -30 -25 -91 -85z" />
    <glyph glyph-name="odieresis" unicode="&#xf6;" horiz-adv-x="447" 
d="M222 -8c-160 0 -212 107 -212 266c0 157 75 250 215 250c150 0 212 -102 212 -258c0 -189 -81 -258 -215 -258zM224 106c17 0 27 17 27 143c0 118 -8 140 -27 140c-21 0 -28 -22 -28 -133c0 -133 8 -150 28 -150zM135 544c-50 0 -73 40 -73 81c0 47 30 80 74 80
c51 0 72 -38 72 -80c0 -59 -35 -81 -73 -81zM313 548c-42 0 -70 32 -70 82c0 42 25 76 72 76s69 -37 69 -79c0 -51 -29 -79 -71 -79z" />
    <glyph glyph-name="otilde" unicode="&#xf5;" horiz-adv-x="447" 
d="M222 -8c-160 0 -212 107 -212 266c0 157 75 250 215 250c150 0 212 -102 212 -258c0 -189 -81 -258 -215 -258zM224 106c17 0 27 17 27 143c0 118 -8 140 -27 140c-21 0 -28 -22 -28 -133c0 -133 8 -150 28 -150zM157 541c0 0 -26 0 -93 -4c-5 90 26 159 98 159
c52 0 70 -49 106 -49c19 0 31 9 27 44c0 0 25 0 85 6c16 -102 -19 -159 -83 -159c-63 0 -77 43 -114 43c-19 0 -29 -16 -26 -40z" />
    <glyph glyph-name="uacute" unicode="&#xfa;" horiz-adv-x="434" 
d="M158 -10c-98 0 -143 74 -143 289c0 77 4 147 13 225c0 0 43 -7 165 -12c-5 -50 -6 -110 -6 -149c0 -176 13 -202 33 -202c14 0 21 14 21 44c2 177 -7 324 -7 324s48 -4 178 -3c0 0 -2 -197 2 -527c0 0 -42 3 -140 1c0 0 1 38 1 91c-22 -54 -69 -81 -117 -81zM232 530
c-54 42 -82 58 -82 58c79 115 107 163 107 163c73 -56 103 -76 103 -76c-98 -108 -128 -145 -128 -145z" />
    <glyph glyph-name="ugrave" unicode="&#xf9;" horiz-adv-x="434" 
d="M158 -10c-98 0 -143 74 -143 289c0 77 4 147 13 225c0 0 43 -7 165 -12c-5 -50 -6 -110 -6 -149c0 -176 13 -202 33 -202c14 0 21 14 21 44c2 177 -7 324 -7 324s48 -4 178 -3c0 0 -2 -197 2 -527c0 0 -42 3 -140 1c0 0 1 38 1 91c-22 -54 -69 -81 -117 -81zM209 530
c0 0 -30 37 -128 145c0 0 30 20 103 76c0 0 28 -48 107 -163c0 0 -28 -16 -82 -58z" />
    <glyph glyph-name="ucircumflex" unicode="&#xfb;" horiz-adv-x="434" 
d="M158 -10c-98 0 -143 74 -143 289c0 77 4 147 13 225c0 0 43 -7 165 -12c-5 -50 -6 -110 -6 -149c0 -176 13 -202 33 -202c14 0 21 14 21 44c2 177 -7 324 -7 324s48 -4 178 -3c0 0 -2 -197 2 -527c0 0 -42 3 -140 1c0 0 1 38 1 91c-22 -54 -69 -81 -117 -81zM120 525
c0 0 -19 20 -74 65c0 0 33 31 108 112c0 0 25 0 109 10c0 0 27 -28 119 -108c0 0 -27 -25 -73 -78c0 0 -26 26 -98 84c0 0 -30 -25 -91 -85z" />
    <glyph glyph-name="udieresis" unicode="&#xfc;" horiz-adv-x="434" 
d="M158 -10c-98 0 -143 74 -143 289c0 77 4 147 13 225c0 0 43 -7 165 -12c-5 -50 -6 -110 -6 -149c0 -176 13 -202 33 -202c14 0 21 14 21 44c2 177 -7 324 -7 324s48 -4 178 -3c0 0 -2 -197 2 -527c0 0 -42 3 -140 1c0 0 1 38 1 91c-22 -54 -69 -81 -117 -81zM126 549
c-50 0 -73 40 -73 81c0 47 30 80 74 80c51 0 72 -38 72 -80c0 -59 -35 -81 -73 -81zM304 553c-42 0 -70 32 -70 82c0 42 25 76 72 76s69 -37 69 -79c0 -51 -29 -79 -71 -79z" />
    <glyph glyph-name="dagger" unicode="&#x2020;" horiz-adv-x="281" 
d="M5 500c0 0 2 33 2 119c0 0 28 -1 74 -2c0 0 1 32 0 87c0 0 36 -2 121 2c0 0 -1 -39 -1 -90c0 0 24 -1 74 0c0 0 -1 -47 1 -119c0 0 -31 1 -74 2c0 -66 1 -144 3 -230c0 0 -47 3 -128 2c0 0 2 87 3 229c-42 1 -75 0 -75 0z" />
    <glyph glyph-name="degree" unicode="&#xb0;" horiz-adv-x="270" 
d="M137 433c-68 0 -132 46 -132 142c0 73 43 133 129 133s131 -52 131 -133c0 -80 -46 -142 -128 -142zM136 500c29 0 52 23 52 71c0 44 -17 73 -53 73c-33 0 -52 -27 -52 -73c0 -41 19 -71 53 -71z" />
    <glyph glyph-name="cent" unicode="&#xa2;" horiz-adv-x="433" 
d="M140 -31c3 40 4 71 5 90c-87 30 -135 121 -135 294c0 169 35 267 139 293c-2 51 -4 89 -4 89c111 0 162 3 162 3c-3 -40 -5 -74 -6 -98c101 -33 129 -129 121 -250c-130 5 -176 3 -176 3c3 78 -2 126 -26 126c-28 0 -27 -47 -27 -153c0 -157 5 -184 30 -184
c21 0 31 33 24 130c0 0 58 -2 175 3c8 -153 -35 -230 -120 -256c2 -56 5 -90 5 -90c-110 2 -167 0 -167 0z" />
    <glyph glyph-name="sterling" unicode="&#xa3;" horiz-adv-x="462" 
d="M16 223c2 106 -1 167 -1 167l40 -1c-12 38 -24 74 -24 120c0 110 66 208 218 208c175 0 222 -134 204 -291c0 0 -71 -1 -182 3c9 101 -3 142 -24 142c-20 0 -29 -23 -29 -79c0 -42 7 -74 16 -103c110 1 160 3 160 3c0 -115 3 -168 3 -168c-59 1 -107 1 -155 1
c-6 -20 -16 -37 -27 -52c57 -1 147 -1 235 0c0 0 -4 -42 -3 -175c0 0 -146 4 -431 4c0 0 3 59 2 144c25 23 44 50 54 78c-30 0 -56 -1 -56 -1z" />
    <glyph glyph-name="section" unicode="&#xa7;" horiz-adv-x="437" 
d="M226 -124c-156 0 -227 92 -217 242c112 -15 184 -16 184 -16c-6 -50 2 -89 34 -89c19 0 31 17 31 43c0 40 -23 62 -106 81c-108 25 -147 63 -147 141c0 48 33 82 73 99c-48 30 -66 93 -66 152c0 111 78 180 196 180c152 0 215 -81 207 -235c-123 11 -171 12 -171 12
c9 60 -4 84 -26 84c-16 0 -28 -17 -28 -45c0 -37 24 -62 91 -77c124 -28 151 -72 151 -138c0 -50 -28 -92 -67 -115c44 -26 66 -67 66 -127c0 -108 -75 -192 -205 -192zM174 297c0 -27 20 -42 74 -52c9 9 14 21 14 33c0 28 -19 48 -67 56c-13 -11 -21 -24 -21 -37z" />
    <glyph glyph-name="bullet" unicode="&#x2022;" horiz-adv-x="267" 
d="M135 204c-81 0 -125 61 -125 139c0 83 48 136 123 136c86 0 124 -65 124 -134c0 -94 -51 -141 -122 -141z" />
    <glyph glyph-name="paragraph" unicode="&#xb6;" horiz-adv-x="489" 
d="M302 540c-17 -1 -33 -3 -48 -5c-2 -82 -6 -254 -6 -466c-143 14 -243 115 -243 312c0 216 124 315 335 315c38 0 78 -2 121 -8c0 0 -3 -253 8 -786c0 0 -50 5 -174 4c0 0 6 393 7 634z" />
    <glyph glyph-name="germandbls" unicode="&#xdf;" horiz-adv-x="447" 
d="M23 23c-5 153 -5 302 4 443c10 153 75 226 217 226c111 0 196 -72 196 -193c0 -76 -31 -128 -83 -156c57 -27 85 -87 85 -158c0 -160 -104 -199 -219 -189c0 0 3 29 4 136c24 2 37 17 37 61c0 50 -17 61 -41 63c0 0 2 37 -2 159c32 4 42 20 42 69c0 48 -11 67 -28 67
c-22 0 -32 -20 -36 -70c-10 -116 -10 -267 2 -460c-145 -1 -178 2 -178 2z" />
    <glyph glyph-name="registered" unicode="&#xae;" horiz-adv-x="373" 
d="M189 271c-133 0 -184 84 -184 223c0 132 50 222 178 222c139 0 185 -104 185 -228c0 -152 -68 -217 -179 -217zM190 316c84 0 131 50 131 168c0 120 -39 188 -140 188c-91 0 -129 -61 -129 -181c0 -113 28 -175 138 -175zM207 356c0 0 -6 30 -18 84c-4 -1 -14 -2 -14 -2
c0 -14 0 -34 2 -80c0 0 -26 1 -81 0c0 0 2 101 2 271c25 5 49 8 70 8c75 0 120 -33 120 -102c0 -32 -13 -55 -34 -71c4 -13 13 -40 32 -93c0 0 -32 -5 -79 -15zM175 490c18 -1 26 11 26 39c0 27 -6 44 -27 42c-1 -57 1 -81 1 -81z" />
    <glyph glyph-name="copyright" unicode="&#xa9;" horiz-adv-x="560" 
d="M281 81c-120 0 -170 71 -170 260c0 177 54 259 179 259c121 0 159 -95 153 -208c-85 4 -143 3 -143 3c1 72 -6 90 -19 90c-18 0 -24 -25 -24 -146c0 -131 8 -142 23 -142c13 0 23 13 19 101c94 -1 146 2 146 2c2 -176 -67 -219 -164 -219zM270 -18
c-164 0 -260 103 -260 365c0 238 90 360 282 360c201 0 258 -146 258 -360c0 -311 -124 -365 -280 -365zM276 30c135 0 223 51 223 315c0 194 -46 312 -209 312c-161 0 -229 -108 -229 -313c0 -207 55 -314 215 -314z" />
    <glyph glyph-name="trademark" unicode="&#x2122;" horiz-adv-x="557" 
d="M210 385c0 0 8 111 12 285c0 0 71 -1 135 2c0 0 7 -67 19 -149l17 173s71 -5 136 -5c0 0 4 -124 18 -324c0 0 -42 0 -99 -4c0 0 -1 104 -7 247c-6 -48 -14 -119 -19 -193c0 0 -48 0 -87 2c0 0 -7 66 -26 186c0 -46 0 -130 4 -222c0 0 -41 2 -103 2zM5 601c0 0 2 29 2 91
c0 0 78 0 198 3c0 0 -2 -40 -1 -94c0 0 -20 1 -45 1c0 -53 0 -116 3 -234c0 0 -36 2 -104 0c0 0 2 93 1 234c-18 0 -54 -1 -54 -1z" />
    <glyph glyph-name="acute" unicode="&#xb4;" horiz-adv-x="447" 
d="M201 520c-54 42 -82 58 -82 58c79 115 107 163 107 163c73 -56 103 -76 103 -76c-98 -108 -128 -145 -128 -145z" />
    <glyph glyph-name="dieresis" unicode="&#xa8;" horiz-adv-x="447" 
d="M136 539c-50 0 -73 40 -73 81c0 47 30 80 74 80c51 0 72 -38 72 -80c0 -59 -35 -81 -73 -81zM314 543c-42 0 -70 32 -70 82c0 42 25 76 72 76s69 -37 69 -79c0 -51 -29 -79 -71 -79z" />
    <glyph glyph-name="AE" unicode="&#xc6;" horiz-adv-x="599" 
d="M565 257c0 0 -65 1 -131 1c1 -30 2 -60 4 -95c0 0 61 -3 149 0c0 0 -2 -56 -2 -167c0 0 -116 -1 -301 -7c0 0 -2 40 -5 107c-22 0 -51 1 -88 1l-9 -84s-58 3 -182 2c0 0 48 254 110 672c263 2 477 15 477 15s-1 -77 2 -181c0 0 -105 -1 -158 -3c0 0 -1 -34 -1 -93
c19 0 62 -1 134 1c0 0 -1 -71 1 -169zM251 556c-9 -54 -23 -155 -42 -313c42 -1 61 0 61 0c-5 92 -12 199 -19 313z" />
    <glyph glyph-name="Oslash" unicode="&#xd8;" horiz-adv-x="487" 
d="M157 -108c0 0 -56 29 -147 67c0 0 17 28 58 105c-38 62 -58 155 -58 277c0 253 73 361 224 361c20 0 39 -2 57 -6c0 0 13 33 29 85c0 0 49 -25 157 -69c0 0 -27 -35 -68 -99c36 -59 52 -147 52 -269c0 -249 -63 -372 -227 -372c-18 0 -35 2 -50 6c0 0 -9 -24 -27 -86z
M233 111c25 0 31 38 31 237c0 164 -8 211 -31 211c-26 0 -31 -44 -31 -223c0 -170 7 -225 31 -225z" />
    <glyph glyph-name="yen" unicode="&#xa5;" horiz-adv-x="480" 
d="M37 194c0 0 1 30 -4 115c0 0 21 0 86 1c-19 64 -58 188 -119 365c0 0 33 -1 197 6c0 0 9 -73 48 -281c0 0 27 140 49 301c0 0 50 -4 186 -3c0 0 -41 -126 -110 -382c25 0 47 1 77 2c0 0 -3 -31 -1 -115c0 0 -32 0 -118 -2c-1 -20 0 -29 0 -29l121 3s-1 -23 1 -110
c0 0 -33 0 -121 -1c0 0 -1 -28 2 -78c0 0 -26 3 -172 -1c0 0 1 33 1 76l-128 -3s1 30 1 111c0 0 32 -1 126 0c0 10 -1 29 -1 29c-37 -1 -75 -3 -121 -4z" />
    <glyph glyph-name="ordfeminine" unicode="&#xaa;" horiz-adv-x="344" 
d="M118 317c-66 0 -113 40 -113 114c0 82 71 124 186 122v11c0 35 -3 49 -17 49c-13 0 -20 -16 -23 -50c0 0 -57 5 -133 6c1 89 66 137 160 137c109 0 147 -67 153 -158c7 -113 0 -221 0 -221s-40 -1 -111 -1c0 0 2 22 3 51c-16 -40 -54 -60 -105 -60zM197 471
c0 4 0 14 -1 24c-39 -5 -50 -28 -50 -52c0 -26 10 -38 24 -38c17 0 27 11 27 66z" />
    <glyph glyph-name="ordmasculine" unicode="&#xba;" horiz-adv-x="356" 
d="M177 310c-114 0 -172 68 -172 208c0 123 68 191 174 191c118 0 172 -73 172 -197c0 -146 -70 -202 -174 -202zM180 405c15 0 23 22 23 105c0 74 -7 104 -24 104c-19 0 -26 -27 -26 -98c0 -92 8 -111 27 -111z" />
    <glyph glyph-name="ae" unicode="&#xe6;" horiz-adv-x="677" 
d="M464 -14c-62 0 -117 18 -147 63c-27 -40 -79 -64 -144 -64c-99 0 -168 56 -168 149c0 103 72 158 229 155v21c-1 55 -9 71 -24 71c-17 0 -24 -22 -26 -68c0 0 -64 -3 -165 -1c-2 107 59 191 187 191c59 0 100 -20 125 -55c28 33 72 55 132 55c160 0 214 -105 201 -290
c0 0 -95 0 -240 -2c2 -75 12 -101 34 -101c16 0 27 14 29 57c0 0 93 -1 180 -4c-15 -114 -89 -177 -203 -177zM242 199v13c-49 -5 -66 -27 -66 -64c0 -23 8 -41 30 -41s36 18 36 92zM455 388c-20 0 -29 -19 -31 -96l58 1c1 68 -9 95 -27 95z" />
    <glyph glyph-name="oslash" unicode="&#xf8;" horiz-adv-x="468" 
d="M231 -5c-19 0 -35 2 -51 5c-8 -20 -17 -46 -30 -83c0 0 -61 33 -140 69c0 0 22 27 58 80c-34 45 -49 109 -49 187c0 189 81 258 215 258c17 0 33 -1 48 -4c8 20 18 47 31 84c0 0 54 -30 145 -73c0 0 -23 -29 -59 -80c34 -47 47 -113 47 -193c0 -157 -75 -250 -215 -250z
M232 109c21 0 28 22 28 133c0 133 -8 150 -28 150c-17 0 -27 -17 -27 -143c0 -118 8 -140 27 -140z" />
    <glyph glyph-name="questiondown" unicode="&#xbf;" horiz-adv-x="439" 
d="M208 -102c-138 0 -203 87 -203 194c0 130 62 196 159 223c0 35 -1 55 -1 55c106 -3 179 2 179 2c0 -97 3 -164 3 -164c-113 2 -146 -21 -146 -96c0 -46 7 -72 25 -72c28 0 29 41 27 111c0 0 75 3 180 6c20 -182 -56 -259 -223 -259zM254 400c-75 0 -112 44 -112 112
c0 63 42 107 109 107c79 0 116 -49 116 -111c0 -68 -49 -108 -113 -108z" />
    <glyph glyph-name="exclamdown" unicode="&#xa1;" horiz-adv-x="234" 
d="M21 -91c0 0 10 164 20 459c0 0 62 -3 151 -1c0 0 9 -213 25 -458c0 0 -78 2 -196 0zM116 400c-77 0 -111 54 -111 110c0 65 45 108 109 108c71 0 115 -42 115 -111c0 -61 -40 -107 -113 -107z" />
    <glyph glyph-name="florin" unicode="&#x192;" horiz-adv-x="460" 
d="M408 295l-83 2c-13 -84 -26 -172 -41 -254c-26 -141 -101 -195 -218 -195c-16 0 -33 0 -51 2c0 0 1 35 7 163c69 -4 87 21 97 76c14 73 24 143 34 211c-32 1 -58 0 -58 0c4 152 2 159 2 159l78 -2l9 55c21 123 75 184 186 184c23 0 48 -2 75 -7c-8 -111 -8 -156 -8 -156
c-46 6 -71 -8 -80 -52l-5 -26c28 -1 54 0 54 0c0 -136 2 -160 2 -160z" />
    <glyph glyph-name="guillemotleft" unicode="&#xab;" horiz-adv-x="364" 
d="M79 152c0 0 -31 80 -79 191c0 0 37 64 90 176c0 0 40 -3 124 -4c0 0 -45 -82 -90 -178c0 0 20 -60 76 -178c0 0 -27 0 -121 -7zM235 155c0 0 -25 66 -78 184c0 0 28 51 81 164c0 0 28 -4 121 -5c0 0 -39 -71 -82 -166c0 0 23 -57 80 -175c0 0 -30 2 -122 -2z" />
    <glyph glyph-name="guillemotright" unicode="&#xbb;" horiz-adv-x="375" 
d="M127 154c0 0 -38 3 -122 4c0 0 28 47 90 174c0 0 -32 83 -76 174c0 0 25 0 119 7c0 0 24 -67 79 -187c0 0 -41 -72 -90 -172zM294 163c0 0 -30 4 -123 5c0 0 27 48 82 162c0 0 -24 60 -80 171c0 0 32 -2 124 2c0 0 24 -61 78 -180c0 0 -31 -54 -81 -160z" />
    <glyph glyph-name="ellipsis" unicode="&#x2026;" horiz-adv-x="609" 
d="M101 8c-62 0 -91 47 -91 100c0 62 37 99 92 99c58 0 91 -43 91 -99c0 -72 -41 -100 -92 -100zM303 -13c-61 0 -90 49 -90 104c0 62 36 101 90 101c58 0 90 -45 90 -101c0 -76 -40 -104 -90 -104zM506 -2c-62 0 -91 47 -91 100c0 61 37 98 93 98c58 0 91 -43 91 -98
c0 -73 -41 -100 -93 -100z" />
    <glyph glyph-name="Agrave" unicode="&#xc0;" horiz-adv-x="468" 
d="M0 15c0 0 44 265 100 683c145 6 256 4 256 4s46 -336 112 -717c0 0 -74 2 -191 -1c0 0 -2 33 -8 112c-18 1 -49 1 -84 1l-6 -84s-55 3 -179 2zM226 550c-6 -54 -18 -163 -30 -307c32 -1 61 0 61 0c-16 169 -31 307 -31 307zM220 730c0 0 -30 37 -128 145
c0 0 30 20 103 76c0 0 28 -48 107 -163c0 0 -28 -16 -82 -58z" />
    <glyph glyph-name="Atilde" unicode="&#xc3;" horiz-adv-x="468" 
d="M0 15c0 0 44 265 100 683c145 6 256 4 256 4s46 -336 112 -717c0 0 -74 2 -191 -1c0 0 -2 33 -8 112c-18 1 -49 1 -84 1l-6 -84s-55 3 -179 2zM226 550c-6 -54 -18 -163 -30 -307c32 -1 61 0 61 0c-16 169 -31 307 -31 307zM158 746c0 0 -26 0 -93 -4
c-5 90 26 159 98 159c52 0 70 -49 106 -49c19 0 31 9 27 44c0 0 25 0 85 6c16 -102 -19 -159 -83 -159c-63 0 -77 43 -114 43c-19 0 -29 -16 -26 -40z" />
    <glyph glyph-name="Otilde" unicode="&#xd5;" horiz-adv-x="474" 
d="M237 -19c-166 0 -226 124 -227 355c0 221 46 374 226 374c185 0 228 -139 228 -373c-2 -262 -73 -356 -227 -356zM239 118c20 0 28 23 28 227c0 195 -8 222 -30 222c-27 0 -30 -36 -30 -229c0 -195 9 -220 32 -220zM170 746c0 0 -26 0 -93 -4c-5 90 26 159 98 159
c52 0 70 -49 106 -49c19 0 31 9 27 44c0 0 25 0 85 6c16 -102 -19 -159 -83 -159c-63 0 -77 43 -114 43c-19 0 -29 -16 -26 -40z" />
    <glyph glyph-name="OE" unicode="&#x152;" horiz-adv-x="608" 
d="M574 257c0 0 -58 1 -129 1c0 -29 0 -55 1 -88c0 0 66 -4 150 -7c0 0 -2 -56 -2 -167c0 0 -87 7 -273 12c-24 -17 -60 -27 -93 -27c-163 0 -218 141 -218 355c0 226 55 374 213 374c31 0 61 -9 85 -21c35 0 117 2 288 9c0 0 -1 -73 2 -177c0 0 -96 -1 -149 -3
c0 0 -1 -36 -2 -93c0 0 45 -1 126 1c0 0 -1 -71 1 -169zM238 119c20 0 28 26 28 226c0 193 -9 221 -30 221c-25 0 -30 -37 -30 -228c0 -187 8 -219 32 -219z" />
    <glyph glyph-name="oe" unicode="&#x153;" horiz-adv-x="694" 
d="M487 -14c-63 0 -114 19 -144 61c-28 -35 -73 -57 -127 -57c-148 0 -206 110 -206 268c0 166 77 250 204 250c59 0 102 -26 129 -60c29 35 75 56 136 56c152 0 215 -107 202 -301c0 0 -67 0 -240 -3c3 -66 13 -90 34 -90c16 0 27 14 29 57c0 0 93 -1 180 -4
c-15 -114 -83 -177 -197 -177zM224 106c17 0 27 17 27 143c0 118 -8 140 -27 140c-21 0 -28 -22 -28 -133c0 -133 8 -150 28 -150zM472 388c-22 0 -29 -23 -31 -100c15 0 34 0 58 1c1 71 -6 99 -27 99z" />
    <glyph glyph-name="endash" unicode="&#x2013;" horiz-adv-x="297" 
d="M287 248c-155 3 -277 2 -277 2c4 123 3 144 3 144c129 -2 273 0 273 0c0 -106 1 -146 1 -146z" />
    <glyph glyph-name="emdash" unicode="&#x2014;" horiz-adv-x="357" 
d="M13 248c0 0 1 21 -3 144c0 0 182 -1 337 2c0 0 -1 -40 -1 -146c0 0 -204 2 -333 0z" />
    <glyph glyph-name="quotedblleft" unicode="&#x201c;" horiz-adv-x="367" 
d="M91 444c-52 0 -81 45 -81 95c0 68 50 132 110 187c40 -30 67 -46 67 -46c-29 -34 -45 -60 -52 -74c23 -13 41 -41 41 -75c0 -51 -31 -87 -85 -87zM270 423c-48 0 -81 40 -81 97c0 58 37 116 103 176c45 -30 65 -47 65 -47c-30 -31 -44 -57 -50 -71c29 -12 45 -41 45 -70
c0 -52 -34 -85 -82 -85z" />
    <glyph glyph-name="quotedblright" unicode="&#x201d;" horiz-adv-x="364" 
d="M245 440c-39 30 -66 47 -66 47c28 33 44 60 51 74c-23 13 -40 41 -40 76c0 50 31 87 84 87c51 0 80 -46 80 -95c0 -69 -49 -133 -109 -189zM75 444c-45 30 -65 46 -65 46c30 30 44 55 50 69c-30 11 -45 41 -45 69c0 50 34 83 82 83s81 -39 81 -95
c0 -57 -36 -113 -103 -172z" />
    <glyph glyph-name="quoteleft" unicode="&#x2018;" horiz-adv-x="188" 
d="M91 444c-48 0 -81 39 -81 95c0 57 36 113 103 172c45 -30 65 -46 65 -46c-30 -30 -44 -56 -50 -69c29 -12 45 -41 45 -69c0 -50 -34 -83 -82 -83z" />
    <glyph glyph-name="quoteright" unicode="&#x2019;" horiz-adv-x="197" 
d="M77 444c-40 30 -67 46 -67 46c28 34 44 59 52 74c-24 12 -41 41 -41 75c0 51 31 87 85 87c52 0 81 -45 81 -95c0 -68 -50 -132 -110 -187z" />
    <glyph glyph-name="divide" unicode="&#xf7;" horiz-adv-x="317" 
d="M10 388c180 -5 297 -2 297 -2c-4 -85 -3 -134 -3 -134c-214 4 -293 0 -293 0c1 96 -1 136 -1 136zM158 569c49 0 73 -38 73 -77c0 -47 -34 -76 -75 -76c-38 0 -72 28 -72 76c0 50 27 77 74 77zM160 224c50 0 72 -27 72 -77c0 -47 -33 -75 -73 -75c-44 0 -73 30 -73 75
c0 47 24 77 74 77z" />
    <glyph glyph-name="ydieresis" unicode="&#xff;" horiz-adv-x="452" 
d="M293 -219c-141 18 -174 21 -174 21c17 98 24 145 24 145c-87 337 -143 529 -143 529c118 0 193 8 193 8c19 -205 37 -308 37 -308c23 228 26 337 26 337c81 -5 196 -8 196 -8c-135 -588 -159 -724 -159 -724zM138 549c-50 0 -73 40 -73 81c0 47 30 80 74 80
c51 0 72 -38 72 -80c0 -59 -35 -81 -73 -81zM316 553c-42 0 -70 32 -70 82c0 42 25 76 72 76s69 -37 69 -79c0 -51 -29 -79 -71 -79z" />
    <glyph glyph-name="Ydieresis" unicode="&#x178;" horiz-adv-x="480" 
d="M154 -15c0 0 3 20 -2 150c0 0 -32 139 -152 540c0 0 33 -1 197 6c0 0 11 -94 48 -300c0 0 27 159 49 320c0 0 50 -4 186 -3c0 0 -62 -219 -147 -559c0 0 -2 -13 3 -153c0 0 -36 3 -182 -1zM152 739c-50 0 -73 40 -73 81c0 47 30 80 74 80c51 0 72 -38 72 -80
c0 -59 -35 -81 -73 -81zM330 743c-42 0 -70 32 -70 82c0 42 25 76 72 76s69 -37 69 -79c0 -51 -29 -79 -71 -79z" />
    <glyph glyph-name="fraction" unicode="&#x2044;" horiz-adv-x="455" 
d="M62 -4c-46 5 -82 6 -82 6c273 449 409 693 409 693c52 -4 86 -3 86 -3c-372 -617 -413 -696 -413 -696z" />
    <glyph glyph-name="Euro" unicode="&#x20ac;" horiz-adv-x="507" 
d="M1 354c0 0 1 15 0 82c34 -1 54 0 54 0c17 188 92 281 237 281c143 0 211 -116 209 -248c-116 0 -195 1 -195 1c-1 74 -10 91 -25 91c-19 0 -28 -24 -30 -121l195 4s-2 -13 -2 -83c0 0 -46 0 -193 -2v-29l197 4s-3 -15 0 -82c0 0 -44 0 -196 -2c2 -97 9 -111 27 -111
s27 23 26 84c118 0 197 -3 197 -3c-7 -149 -89 -238 -222 -237c-141 0 -207 84 -224 263c-20 -1 -34 -1 -56 -1c0 0 1 11 1 83c30 -1 51 0 51 0v27c-16 0 -33 0 -51 -1z" />
    <glyph glyph-name="guilsinglleft" unicode="&#x2039;" horiz-adv-x="209" 
d="M78 158c0 0 -23 59 -78 180c0 0 30 53 81 160c0 0 30 -4 123 -5c0 0 -27 -49 -82 -162c0 0 21 -51 80 -171c0 0 -32 2 -124 -2z" />
    <glyph glyph-name="guilsinglright" unicode="&#x203a;" horiz-adv-x="207" 
d="M126 155c0 0 -28 4 -121 5c0 0 30 54 82 166c0 0 -22 54 -80 175c0 0 30 -2 122 2c0 0 22 -59 78 -184c0 0 -29 -54 -81 -164z" />
    <glyph glyph-name="daggerdbl" unicode="&#x2021;" horiz-adv-x="281" 
d="M7 536c0 86 -2 99 -2 99h72c0 23 0 45 -1 71c0 0 47 -3 128 -2c0 0 -1 -24 -2 -68c46 1 74 2 74 2c-2 -72 -1 -99 -1 -99h-74l-1 -94h76s-2 -13 -2 -99c0 0 -28 1 -74 2c-1 -47 0 -77 0 -77s-36 2 -121 -2c0 0 1 32 0 80c-37 1 -73 0 -73 0s1 27 -1 99c0 0 31 -1 74 -2
c0 28 0 58 -1 92c-46 -1 -71 -2 -71 -2z" />
    <glyph glyph-name="periodcentered" unicode="&#xb7;" horiz-adv-x="204" 
d="M101 250c-57 0 -91 46 -91 102c0 59 39 102 93 102c52 0 91 -42 91 -102c0 -68 -38 -102 -93 -102z" />
    <glyph glyph-name="quotesinglbase" unicode="&#x201a;" horiz-adv-x="197" 
d="M77 -123c-40 30 -67 46 -67 46c28 34 44 60 52 74c-24 12 -41 41 -41 75c0 51 31 87 85 87c52 0 81 -45 81 -95c0 -68 -50 -132 -110 -187z" />
    <glyph glyph-name="quotedblbase" unicode="&#x201e;" horiz-adv-x="364" 
d="M245 -117c-39 30 -66 47 -66 47c28 34 44 60 51 74c-23 13 -40 41 -40 76c0 50 31 87 84 87c51 0 80 -46 80 -95c0 -69 -49 -133 -109 -189zM75 -113c-45 30 -65 46 -65 46c30 30 44 56 50 69c-30 11 -45 41 -45 69c0 50 34 83 82 83s81 -39 81 -95
c0 -57 -36 -113 -103 -172z" />
    <glyph glyph-name="perthousand" unicode="&#x2030;" horiz-adv-x="992" 
d="M161 424c19 0 29 17 29 104c0 83 -8 101 -29 101c-20 0 -29 -25 -29 -98c0 -86 8 -107 29 -107zM160 343c-120 0 -155 86 -155 198c0 107 53 174 157 174c106 0 156 -71 156 -189c0 -136 -65 -183 -158 -183zM159 -4c-46 5 -82 6 -82 6c273 449 409 693 409 693
c52 -4 86 -3 86 -3c-372 -617 -413 -696 -413 -696zM493 69c19 0 28 17 28 103c0 80 -7 102 -28 102c-20 0 -28 -22 -28 -96c0 -92 10 -109 28 -109zM492 -12c-116 0 -156 79 -156 194c0 104 54 178 158 178c113 0 157 -79 157 -186c0 -136 -63 -186 -159 -186zM831 76
c21 0 29 21 29 107c0 73 -9 98 -29 98c-21 0 -29 -18 -29 -101c0 -87 10 -104 29 -104zM832 -5c-98 0 -158 53 -158 183c0 112 50 189 156 189c112 0 157 -72 157 -174c0 -124 -51 -198 -155 -198z" />
    <glyph glyph-name="Acircumflex" unicode="&#xc2;" horiz-adv-x="468" 
d="M0 15c0 0 44 265 100 683c145 6 256 4 256 4s46 -336 112 -717c0 0 -74 2 -191 -1c0 0 -2 33 -8 112c-18 1 -49 1 -84 1l-6 -84s-55 3 -179 2zM226 550c-6 -54 -18 -163 -30 -307c32 -1 61 0 61 0c-16 169 -31 307 -31 307zM131 725c0 0 -19 20 -74 65c0 0 33 31 108 112
c0 0 25 0 109 10c0 0 27 -28 119 -108c0 0 -27 -25 -73 -78c0 0 -26 26 -98 84c0 0 -30 -25 -91 -85z" />
    <glyph glyph-name="Ecircumflex" unicode="&#xca;" horiz-adv-x="358" 
d="M28 3c0 0 -2 289 -8 692c0 0 85 1 326 3c0 0 -1 -73 2 -177c0 0 -96 -1 -149 -3c-1 -52 0 -93 0 -93c8 0 45 -1 124 1c0 0 -1 -71 1 -169c0 0 -54 1 -121 1c0 0 0 -34 3 -88c0 0 56 -4 140 -7c0 0 -2 -56 -2 -167c0 0 -147 5 -316 7zM90 725c0 0 -19 20 -74 65
c0 0 33 31 108 112c0 0 25 0 109 10c0 0 27 -28 119 -108c0 0 -27 -25 -73 -78c0 0 -26 26 -98 84c0 0 -30 -25 -91 -85z" />
    <glyph glyph-name="Aacute" unicode="&#xc1;" horiz-adv-x="468" 
d="M0 15c0 0 44 265 100 683c145 6 256 4 256 4s46 -336 112 -717c0 0 -74 2 -191 -1c0 0 -2 33 -8 112c-18 1 -49 1 -84 1l-6 -84s-55 3 -179 2zM226 550c-6 -54 -18 -163 -30 -307c32 -1 61 0 61 0c-16 169 -31 307 -31 307zM243 730c-54 42 -82 58 -82 58
c79 115 107 163 107 163c73 -56 103 -76 103 -76c-98 -108 -128 -145 -128 -145z" />
    <glyph glyph-name="Edieresis" unicode="&#xcb;" horiz-adv-x="358" 
d="M28 3c0 0 -2 289 -8 692c0 0 85 1 326 3c0 0 -1 -73 2 -177c0 0 -96 -1 -149 -3c-1 -52 0 -93 0 -93c8 0 45 -1 124 1c0 0 -1 -71 1 -169c0 0 -54 1 -121 1c0 0 0 -34 3 -88c0 0 56 -4 140 -7c0 0 -2 -56 -2 -167c0 0 -147 5 -316 7zM96 749c-50 0 -73 40 -73 81
c0 47 30 80 74 80c51 0 72 -38 72 -80c0 -59 -35 -81 -73 -81zM274 753c-42 0 -70 32 -70 82c0 42 25 76 72 76s69 -37 69 -79c0 -51 -29 -79 -71 -79z" />
    <glyph glyph-name="Egrave" unicode="&#xc8;" horiz-adv-x="358" 
d="M28 3c0 0 -2 289 -8 692c0 0 85 1 326 3c0 0 -1 -73 2 -177c0 0 -96 -1 -149 -3c-1 -52 0 -93 0 -93c8 0 45 -1 124 1c0 0 -1 -71 1 -169c0 0 -54 1 -121 1c0 0 0 -34 3 -88c0 0 56 -4 140 -7c0 0 -2 -56 -2 -167c0 0 -147 5 -316 7zM179 730c0 0 -30 37 -128 145
c0 0 30 20 103 76c0 0 28 -48 107 -163c0 0 -28 -16 -82 -58z" />
    <glyph glyph-name="Iacute" unicode="&#xcd;" horiz-adv-x="236" 
d="M29 -1c0 0 1 306 -4 695c0 0 62 0 181 1c0 0 2 -335 5 -696c0 0 -60 1 -182 0zM136 730c-54 42 -82 58 -82 58c79 115 107 163 107 163c73 -56 103 -76 103 -76c-98 -108 -128 -145 -128 -145z" />
    <glyph glyph-name="Icircumflex" unicode="&#xce;" horiz-adv-x="236" 
d="M29 -1c0 0 1 306 -4 695c0 0 62 0 181 1c0 0 2 -335 5 -696c0 0 -60 1 -182 0zM24 725c0 0 -19 20 -74 65c0 0 33 31 108 112c0 0 25 0 109 10c0 0 27 -28 119 -108c0 0 -27 -25 -73 -78c0 0 -26 26 -98 84c0 0 -30 -25 -91 -85z" />
    <glyph glyph-name="Idieresis" unicode="&#xcf;" horiz-adv-x="236" 
d="M29 -1c0 0 1 306 -4 695c0 0 62 0 181 1c0 0 2 -335 5 -696c0 0 -60 1 -182 0zM30 749c-50 0 -73 40 -73 81c0 47 30 80 74 80c51 0 72 -38 72 -80c0 -59 -35 -81 -73 -81zM208 753c-42 0 -70 32 -70 82c0 42 25 76 72 76s69 -37 69 -79c0 -51 -29 -79 -71 -79z" />
    <glyph glyph-name="Igrave" unicode="&#xcc;" horiz-adv-x="236" 
d="M29 -1c0 0 1 306 -4 695c0 0 62 0 181 1c0 0 2 -335 5 -696c0 0 -60 1 -182 0zM113 730c0 0 -30 37 -128 145c0 0 30 20 103 76c0 0 28 -48 107 -163c0 0 -28 -16 -82 -58z" />
    <glyph glyph-name="Oacute" unicode="&#xd3;" horiz-adv-x="474" 
d="M237 -19c-166 0 -226 124 -227 355c0 221 46 374 226 374c185 0 228 -139 228 -373c-2 -262 -73 -356 -227 -356zM239 118c20 0 28 23 28 227c0 195 -8 222 -30 222c-27 0 -30 -36 -30 -229c0 -195 9 -220 32 -220zM255 730c-54 42 -82 58 -82 58c79 115 107 163 107 163
c73 -56 103 -76 103 -76c-98 -108 -128 -145 -128 -145z" />
    <glyph glyph-name="Ocircumflex" unicode="&#xd4;" horiz-adv-x="474" 
d="M237 -19c-166 0 -226 124 -227 355c0 221 46 374 226 374c185 0 228 -139 228 -373c-2 -262 -73 -356 -227 -356zM239 118c20 0 28 23 28 227c0 195 -8 222 -30 222c-27 0 -30 -36 -30 -229c0 -195 9 -220 32 -220zM143 725c0 0 -19 20 -74 65c0 0 33 31 108 112
c0 0 25 0 109 10c0 0 27 -28 119 -108c0 0 -27 -25 -73 -78c0 0 -26 26 -98 84c0 0 -30 -25 -91 -85z" />
    <glyph glyph-name="Ograve" unicode="&#xd2;" horiz-adv-x="474" 
d="M237 -19c-166 0 -226 124 -227 355c0 221 46 374 226 374c185 0 228 -139 228 -373c-2 -262 -73 -356 -227 -356zM239 118c20 0 28 23 28 227c0 195 -8 222 -30 222c-27 0 -30 -36 -30 -229c0 -195 9 -220 32 -220zM232 730c0 0 -30 37 -128 145c0 0 30 20 103 76
c0 0 28 -48 107 -163c0 0 -28 -16 -82 -58z" />
    <glyph glyph-name="Uacute" unicode="&#xda;" 
d="M240 -14c-163 0 -230 127 -230 415c0 92 8 191 22 286c0 0 52 -9 173 -24c-11 -95 -16 -178 -16 -254c0 -191 16 -251 41 -251c23 0 36 27 36 208c0 104 -9 223 -23 334c0 0 68 2 180 15c19 -109 31 -244 31 -360c0 -253 -67 -369 -214 -369zM250 726
c-54 42 -82 58 -82 58c79 115 107 163 107 163c73 -56 103 -76 103 -76c-98 -108 -128 -145 -128 -145z" />
    <glyph glyph-name="Ucircumflex" unicode="&#xdb;" 
d="M240 -14c-163 0 -230 127 -230 415c0 92 8 191 22 286c0 0 52 -9 173 -24c-11 -95 -16 -178 -16 -254c0 -191 16 -251 41 -251c23 0 36 27 36 208c0 104 -9 223 -23 334c0 0 68 2 180 15c19 -109 31 -244 31 -360c0 -253 -67 -369 -214 -369zM138 725c0 0 -19 20 -74 65
c0 0 33 31 108 112c0 0 25 0 109 10c0 0 27 -28 119 -108c0 0 -27 -25 -73 -78c0 0 -26 26 -98 84c0 0 -30 -25 -91 -85z" />
    <glyph glyph-name="Ugrave" unicode="&#xd9;" 
d="M240 -14c-163 0 -230 127 -230 415c0 92 8 191 22 286c0 0 52 -9 173 -24c-11 -95 -16 -178 -16 -254c0 -191 16 -251 41 -251c23 0 36 27 36 208c0 104 -9 223 -23 334c0 0 68 2 180 15c19 -109 31 -244 31 -360c0 -253 -67 -369 -214 -369zM227 726
c0 0 -30 37 -128 145c0 0 30 20 103 76c0 0 28 -48 107 -163c0 0 -28 -16 -82 -58z" />
    <glyph glyph-name="dotlessi" unicode="&#x131;" horiz-adv-x="221" 
d="M26 1c0 0 1 138 -3 505c0 0 58 -1 175 1c0 0 -1 -178 4 -505c0 0 -75 0 -176 -1z" />
    <glyph glyph-name="circumflex" unicode="&#x2c6;" horiz-adv-x="447" 
d="M130 515c0 0 -19 20 -74 65c0 0 33 31 108 112c0 0 25 0 109 10c0 0 27 -28 119 -108c0 0 -27 -25 -73 -78c0 0 -26 26 -98 84c0 0 -30 -25 -91 -85z" />
    <glyph glyph-name="tilde" unicode="&#x2dc;" horiz-adv-x="447" 
d="M157 536c0 0 -26 0 -93 -4c-5 90 26 159 98 159c52 0 70 -49 106 -49c19 0 31 9 27 44c0 0 25 0 85 6c16 -102 -19 -159 -83 -159c-63 0 -77 43 -114 43c-19 0 -29 -16 -26 -40z" />
    <glyph glyph-name="macron" unicode="&#xaf;" horiz-adv-x="447" 
d="M96 554c0 0 1 31 -2 111c0 0 64 -1 260 2c0 0 -2 -29 -2 -111c0 0 -68 1 -256 -2z" />
    <glyph glyph-name="breve" unicode="&#x2d8;" horiz-adv-x="447" 
d="M221 532c-111 0 -144 72 -139 139c0 0 30 0 107 5c-2 -28 11 -48 35 -48c18 0 37 14 30 57c0 0 31 -1 110 1c10 -109 -63 -154 -143 -154z" />
    <glyph glyph-name="dotaccent" unicode="&#x2d9;" horiz-adv-x="447" 
d="M224 537c-62 0 -89 47 -89 88c0 45 31 86 89 86c60 0 89 -45 89 -86c0 -60 -40 -88 -89 -88z" />
    <glyph glyph-name="ring" unicode="&#x2da;" horiz-adv-x="447" 
d="M222 529c-70 0 -105 46 -105 103c0 62 45 99 106 99c69 0 107 -46 107 -99c0 -76 -53 -103 -108 -103zM224 589c23 0 33 18 33 43c0 22 -12 43 -33 43c-23 0 -33 -21 -33 -44c0 -24 13 -42 33 -42z" />
    <glyph glyph-name="cedilla" unicode="&#xb8;" horiz-adv-x="447" 
d="M172 8l63 1s-2 -19 -4 -49c63 -3 100 -32 100 -77c0 -59 -52 -97 -131 -97c-29 0 -60 5 -85 14c0 0 5 32 10 76c24 -11 55 -17 80 -17c16 0 31 6 31 18c0 15 -23 23 -84 19c0 0 12 49 20 112z" />
    <glyph glyph-name="hungarumlaut" unicode="&#x2dd;" horiz-adv-x="447" 
d="M281 528c-58 36 -83 48 -83 48c70 116 97 169 97 169c78 -48 98 -59 98 -59c-86 -118 -112 -158 -112 -158zM136 531c-58 36 -82 45 -82 45c66 123 87 171 87 171c78 -48 99 -58 99 -58c-79 -118 -104 -158 -104 -158z" />
    <glyph glyph-name="ogonek" unicode="&#x2db;" horiz-adv-x="447" 
d="M289 -208c-100 -10 -159 28 -159 107c0 46 28 87 90 118l71 -5c-41 -21 -63 -50 -63 -72c0 -27 19 -43 69 -42c0 0 -5 -29 -8 -106z" />
    <glyph glyph-name="caron" unicode="&#x2c7;" horiz-adv-x="447" 
d="M175 515c0 0 -27 28 -119 108c0 0 27 25 73 78c0 0 26 -26 98 -84c0 0 30 25 91 85c0 0 19 -20 74 -65c0 0 -33 -31 -108 -112c0 0 -25 0 -109 -10z" />
    <glyph glyph-name="commaaccent" horiz-adv-x="447" 
d="M298 -95c0 -48 -34 -94 -95 -143c-33 27 -54 41 -54 41c24 23 35 41 40 51c-24 8 -39 29 -39 58c0 36 30 62 75 62c42 0 73 -24 73 -69z" />
    <glyph glyph-name="uni0237" unicode="&#x237;" horiz-adv-x="222" 
d="M-85 -229c0 0 4 61 4 164c7 -1 15 -1 21 -1c65 0 85 31 86 89c4 172 -1 481 -1 481c112 -1 171 1 171 1s8 -192 4 -505c-2 -136 -60 -230 -244 -230c-13 0 -27 0 -41 1z" />
    <glyph glyph-name="Dcroat" unicode="&#x110;" horiz-adv-x="488" 
d="M45 -4l1 258l-41 -1s3 55 2 176c0 0 13 -1 39 -2v266c47 8 92 13 130 13c222 0 302 -115 302 -378c0 -253 -101 -344 -299 -344c-41 0 -85 5 -134 12zM229 121c40 -4 54 26 54 213c0 167 -12 228 -60 223c0 -45 0 -89 1 -132h28s-2 -41 1 -168h-27c2 -81 3 -136 3 -136z
" />
    <glyph glyph-name="dcroat" unicode="&#x111;" horiz-adv-x="452" 
d="M486 503c0 0 -24 2 -51 3c-1 -129 -2 -315 -1 -523c0 0 -51 1 -141 1c0 0 1 34 2 86c-23 -51 -64 -75 -115 -75c-102 0 -170 75 -170 269c0 142 48 243 157 243c41 0 73 -22 95 -55c-2 53 -5 128 -11 232c0 0 36 -3 186 1c0 0 -1 -20 -1 -50c34 2 56 4 56 4
c-6 -87 -6 -136 -6 -136zM230 109c14 0 27 17 27 145c0 87 -8 131 -30 131c-17 0 -25 -29 -25 -141c0 -96 10 -135 28 -135z" />
    <glyph glyph-name="Abreve" unicode="&#x102;" horiz-adv-x="468" 
d="M0 15c0 0 44 265 100 683c145 6 256 4 256 4s46 -336 112 -717c0 0 -74 2 -191 -1c0 0 -2 33 -8 112c-18 1 -49 1 -84 1l-6 -84s-55 3 -179 2zM226 550c-6 -54 -18 -163 -30 -307c32 -1 61 0 61 0c-16 169 -31 307 -31 307zM222 742c-111 0 -144 72 -139 139
c0 0 30 0 107 5c-2 -28 11 -48 35 -48c18 0 37 14 30 57c0 0 31 -1 110 1c10 -109 -63 -154 -143 -154z" />
    <glyph glyph-name="Amacron" unicode="&#x100;" horiz-adv-x="468" 
d="M0 15c0 0 44 265 100 683c145 6 256 4 256 4s46 -336 112 -717c0 0 -74 2 -191 -1c0 0 -2 33 -8 112c-18 1 -49 1 -84 1l-6 -84s-55 3 -179 2zM226 550c-6 -54 -18 -163 -30 -307c32 -1 61 0 61 0c-16 169 -31 307 -31 307zM97 764c0 0 1 31 -2 111c0 0 64 -1 260 2
c0 0 -2 -29 -2 -111c0 0 -68 1 -256 -2z" />
    <glyph glyph-name="Aogonek" unicode="&#x104;" horiz-adv-x="468" 
d="M378 -208c-100 -10 -159 28 -159 107c0 37 18 71 57 99c0 0 -2 36 -7 98c-18 1 -49 1 -84 1l-6 -84s-55 3 -179 2c0 0 44 265 100 683c145 6 256 4 256 4s46 -336 112 -717c0 0 -49 2 -127 1c-16 -16 -24 -32 -24 -46c0 -27 19 -43 69 -42c0 0 -5 -29 -8 -106zM226 550
c-6 -54 -18 -163 -30 -307c32 -1 61 0 61 0c-16 169 -31 307 -31 307z" />
    <glyph glyph-name="Cacute" unicode="&#x106;" 
d="M235 -17c-160 0 -225 102 -225 364c0 253 71 370 237 370c165 0 216 -134 210 -293c-116 0 -193 4 -193 4c1 111 -5 139 -26 139c-24 0 -32 -46 -30 -221c0 -184 8 -212 29 -212c19 0 28 25 26 158c103 4 196 3 196 3c2 -250 -97 -313 -224 -312zM252 740
c-54 42 -82 58 -82 58c79 115 107 163 107 163c73 -56 103 -76 103 -76c-98 -108 -128 -145 -128 -145z" />
    <glyph glyph-name="Ccaron" unicode="&#x10c;" 
d="M235 -17c-160 0 -225 102 -225 364c0 253 71 370 237 370c165 0 216 -134 210 -293c-116 0 -193 4 -193 4c1 111 -5 139 -26 139c-24 0 -32 -46 -30 -221c0 -184 8 -212 29 -212c19 0 28 25 26 158c103 4 196 3 196 3c2 -250 -97 -313 -224 -312zM185 735
c0 0 -27 28 -119 108c0 0 27 25 73 78c0 0 26 -26 98 -84c0 0 30 25 91 85c0 0 19 -20 74 -65c0 0 -33 -31 -108 -112c0 0 -25 0 -109 -10z" />
    <glyph glyph-name="Ccircumflex" unicode="&#x108;" 
d="M235 -17c-160 0 -225 102 -225 364c0 253 71 370 237 370c165 0 216 -134 210 -293c-116 0 -193 4 -193 4c1 111 -5 139 -26 139c-24 0 -32 -46 -30 -221c0 -184 8 -212 29 -212c19 0 28 25 26 158c103 4 196 3 196 3c2 -250 -97 -313 -224 -312zM140 734
c0 0 -19 20 -74 65c0 0 33 31 108 112c0 0 25 0 109 10c0 0 27 -28 119 -108c0 0 -27 -25 -73 -78c0 0 -26 26 -98 84c0 0 -30 -25 -91 -85z" />
    <glyph glyph-name="Dcaron" unicode="&#x10e;" horiz-adv-x="463" 
d="M204 128c39 -3 54 11 54 209c0 169 -14 222 -60 217c1 -212 6 -426 6 -426zM20 -4c2 339 1 697 1 697c48 8 93 13 132 13c221 0 300 -116 300 -378c0 -250 -102 -344 -292 -344c-43 0 -89 4 -141 12zM147 735c0 0 -27 28 -119 108c0 0 27 25 73 78c0 0 26 -26 98 -84
c0 0 30 25 91 85c0 0 19 -20 74 -65c0 0 -33 -31 -108 -112c0 0 -25 0 -109 -10z" />
    <glyph glyph-name="Ecaron" unicode="&#x11a;" horiz-adv-x="358" 
d="M28 3c0 0 -2 289 -8 692c0 0 85 1 326 3c0 0 -1 -73 2 -177c0 0 -96 -1 -149 -3c-1 -52 0 -93 0 -93c8 0 45 -1 124 1c0 0 -1 -71 1 -169c0 0 -54 1 -121 1c0 0 0 -34 3 -88c0 0 56 -4 140 -7c0 0 -2 -56 -2 -167c0 0 -147 5 -316 7zM135 725c0 0 -27 28 -119 108
c0 0 27 25 73 78c0 0 26 -26 98 -84c0 0 30 25 91 85c0 0 19 -20 74 -65c0 0 -33 -31 -108 -112c0 0 -25 0 -109 -10z" />
    <glyph glyph-name="Edotaccent" unicode="&#x116;" horiz-adv-x="358" 
d="M28 3c0 0 -2 289 -8 692c0 0 85 1 326 3c0 0 -1 -73 2 -177c0 0 -96 -1 -149 -3c-1 -52 0 -93 0 -93c8 0 45 -1 124 1c0 0 -1 -71 1 -169c0 0 -54 1 -121 1c0 0 0 -34 3 -88c0 0 56 -4 140 -7c0 0 -2 -56 -2 -167c0 0 -147 5 -316 7zM184 747c-62 0 -89 47 -89 88
c0 45 31 86 89 86c60 0 89 -45 89 -86c0 -60 -40 -88 -89 -88z" />
    <glyph glyph-name="Emacron" unicode="&#x112;" horiz-adv-x="358" 
d="M28 3c0 0 -2 289 -8 692c0 0 85 1 326 3c0 0 -1 -73 2 -177c0 0 -96 -1 -149 -3c-1 -52 0 -93 0 -93c8 0 45 -1 124 1c0 0 -1 -71 1 -169c0 0 -54 1 -121 1c0 0 0 -34 3 -88c0 0 56 -4 140 -7c0 0 -2 -56 -2 -167c0 0 -147 5 -316 7zM56 764c0 0 1 31 -2 111
c0 0 64 -1 260 2c0 0 -2 -29 -2 -111c0 0 -68 1 -256 -2z" />
    <glyph glyph-name="Eogonek" unicode="&#x118;" horiz-adv-x="358" 
d="M340 -212c-95 -9 -159 30 -159 107c0 42 25 80 82 104c-59 1 -144 3 -235 4c0 0 -2 289 -8 692c0 0 85 1 326 3c0 0 -1 -73 2 -177c0 0 -96 -1 -149 -3c-1 -52 0 -93 0 -93c8 0 45 -1 124 1c0 0 -1 -71 1 -169c0 0 -54 1 -121 1c1 -56 3 -88 3 -88s56 -4 140 -7
c0 0 -2 -56 -2 -167c-49 -15 -65 -39 -65 -60c0 -27 19 -43 69 -42c0 0 -5 -29 -8 -106z" />
    <glyph glyph-name="Gbreve" unicode="&#x11e;" horiz-adv-x="470" 
d="M235 -18c-136 0 -225 76 -225 360c0 258 73 367 231 367c154 0 219 -128 210 -290c0 0 -149 1 -183 2c2 107 -10 140 -31 140c-26 0 -35 -39 -34 -221c1 -188 13 -224 41 -224c22 0 31 26 30 109c0 0 -17 -1 -42 -3c0 0 1 55 -1 148c0 0 140 -1 228 -1
c10 -323 -79 -387 -224 -387zM232 737c-111 0 -144 72 -139 139c0 0 30 0 107 5c-2 -28 11 -48 35 -48c18 0 37 14 30 57c0 0 31 -1 110 1c10 -109 -63 -154 -143 -154z" />
    <glyph glyph-name="Gcircumflex" unicode="&#x11c;" horiz-adv-x="470" 
d="M235 -18c-136 0 -225 76 -225 360c0 258 73 367 231 367c154 0 219 -128 210 -290c0 0 -149 1 -183 2c2 107 -10 140 -31 140c-26 0 -35 -39 -34 -221c1 -188 13 -224 41 -224c22 0 31 26 30 109c0 0 -17 -1 -42 -3c0 0 1 55 -1 148c0 0 140 -1 228 -1
c10 -323 -79 -387 -224 -387zM140 727c0 0 -19 20 -74 65c0 0 33 31 108 112c0 0 25 0 109 10c0 0 27 -28 119 -108c0 0 -27 -25 -73 -78c0 0 -26 26 -98 84c0 0 -30 -25 -91 -85z" />
    <glyph glyph-name="Gcommaaccent" unicode="&#x122;" horiz-adv-x="470" 
d="M235 -18c-136 0 -225 76 -225 360c0 258 73 367 231 367c154 0 219 -128 210 -290c0 0 -149 1 -183 2c2 107 -10 140 -31 140c-26 0 -35 -39 -34 -221c1 -188 13 -224 41 -224c22 0 31 26 30 109c0 0 -17 -1 -42 -3c0 0 1 55 -1 148c0 0 140 -1 228 -1
c10 -323 -79 -387 -224 -387zM309 -110c0 -48 -34 -94 -95 -143c-33 27 -54 41 -54 41c24 23 35 41 40 51c-24 8 -39 29 -39 58c0 36 30 62 75 62c42 0 73 -24 73 -69z" />
    <glyph glyph-name="Hcircumflex" unicode="&#x124;" horiz-adv-x="454" 
d="M252 -20v225c-13 0 -29 0 -50 -1l3 -182s-76 3 -181 -1c0 0 1 265 -4 656c0 0 42 -1 178 1c0 0 1 -128 3 -321c0 0 24 -1 50 -1c0 104 -2 225 -3 357c0 0 65 -1 183 1c0 0 0 -326 3 -735c0 0 -70 4 -182 1zM133 735c0 0 -19 20 -74 65c0 0 33 31 108 112c0 0 25 0 109 10
c0 0 27 -28 119 -108c0 0 -27 -25 -73 -78c0 0 -26 26 -98 84c0 0 -30 -25 -91 -85z" />
    <glyph glyph-name="Idotaccent" unicode="&#x130;" horiz-adv-x="236" 
d="M29 -1c0 0 1 306 -4 695c0 0 62 0 181 1c0 0 2 -335 5 -696c0 0 -60 1 -182 0zM118 747c-62 0 -89 47 -89 88c0 45 31 86 89 86c60 0 89 -45 89 -86c0 -60 -40 -88 -89 -88z" />
    <glyph glyph-name="Imacron" unicode="&#x12a;" horiz-adv-x="236" 
d="M29 -1c0 0 1 306 -4 695c0 0 62 0 181 1c0 0 2 -335 5 -696c0 0 -60 1 -182 0zM-10 759c0 0 1 31 -2 111c0 0 64 -1 260 2c0 0 -2 -29 -2 -111c0 0 -68 1 -256 -2z" />
    <glyph glyph-name="Iogonek" unicode="&#x12e;" horiz-adv-x="236" 
d="M176 -213c-100 -10 -159 28 -159 107c0 40 21 77 67 106l-55 -1s1 306 -4 695c0 0 62 0 181 1c0 0 2 -335 5 -696c0 0 -22 1 -47 1c-32 -20 -49 -45 -49 -65c0 -27 19 -43 69 -42c0 0 -5 -29 -8 -106z" />
    <glyph glyph-name="Jcircumflex" unicode="&#x134;" horiz-adv-x="419" 
d="M202 -10c-140 0 -197 86 -197 233c0 41 4 85 12 122c0 0 51 -6 159 -13c-3 -25 -5 -52 -5 -76c0 -73 10 -98 27 -98c21 0 32 34 32 229c0 99 -7 192 -23 312c0 0 65 6 176 14c16 -111 26 -229 26 -336c0 -237 -41 -387 -207 -387zM202 729c0 0 -19 20 -74 65
c0 0 33 31 108 112c0 0 25 0 109 10c0 0 27 -28 119 -108c0 0 -27 -25 -73 -78c0 0 -26 26 -98 84c0 0 -30 -25 -91 -85z" />
    <glyph glyph-name="Kcommaaccent" unicode="&#x136;" horiz-adv-x="475" 
d="M280 -26c-17 91 -30 156 -40 203c-18 -48 -30 -83 -37 -105c1 -37 2 -56 2 -56c-133 2 -185 -1 -185 -1c3 380 0 665 0 665c124 -2 184 -1 184 -1c-2 -135 -3 -246 -3 -340c60 257 83 376 83 376c122 -6 188 -6 188 -6c-46 -156 -82 -280 -103 -354
c62 -230 106 -370 106 -370c-105 -4 -195 -11 -195 -11zM322 -120c0 -48 -34 -94 -95 -143c-33 27 -54 41 -54 41c24 23 35 41 40 51c-24 8 -39 29 -39 58c0 36 30 62 75 62c42 0 73 -24 73 -69z" />
    <glyph glyph-name="Lacute" unicode="&#x139;" horiz-adv-x="350" 
d="M26 4c0 0 0 276 -6 685c0 0 59 -2 180 0c0 0 -3 -100 4 -521c81 -3 146 -3 146 -3c-2 -99 -1 -165 -1 -165c-82 3 -323 4 -323 4zM131 720c-54 42 -82 58 -82 58c79 115 107 163 107 163c73 -56 103 -76 103 -76c-98 -108 -128 -145 -128 -145z" />
    <glyph glyph-name="Lcaron" unicode="&#x13d;" horiz-adv-x="350" 
d="M26 4c0 0 0 276 -6 685c0 0 59 -2 180 0c0 0 -3 -100 4 -521c81 -3 146 -3 146 -3c-2 -99 -1 -165 -1 -165c-82 3 -323 4 -323 4zM389 666c0 -48 -34 -94 -95 -143c-33 27 -54 41 -54 41c24 23 35 41 40 51c-24 8 -39 29 -39 58c0 36 30 62 75 62c42 0 73 -24 73 -69z
" />
    <glyph glyph-name="Lcommaaccent" unicode="&#x13b;" horiz-adv-x="350" 
d="M26 4c0 0 0 276 -6 685c0 0 59 -2 180 0c0 0 -3 -100 4 -521c81 -3 146 -3 146 -3c-2 -99 -1 -165 -1 -165c-82 3 -323 4 -323 4zM260 -95c0 -48 -34 -94 -95 -143c-31 25 -51 39 -54 41c24 23 35 41 40 51c-24 8 -39 29 -39 58c0 36 30 62 75 62c42 0 73 -24 73 -69z
" />
    <glyph glyph-name="Nacute" unicode="&#x143;" horiz-adv-x="484" 
d="M23 18c0 0 4 245 -3 649c0 0 72 5 170 8c0 0 42 -127 119 -340c-4 81 -12 205 -26 379c0 0 62 -4 163 -3c0 0 5 -267 18 -713c0 0 -50 -8 -162 -17c0 0 -50 142 -125 343c2 -69 6 -167 15 -309c0 0 -66 3 -169 3zM260 732c-54 42 -82 58 -82 58c79 115 107 163 107 163
c73 -56 103 -76 103 -76c-98 -108 -128 -145 -128 -145z" />
    <glyph glyph-name="Ncaron" unicode="&#x147;" horiz-adv-x="484" 
d="M23 18c0 0 4 245 -3 649c0 0 72 5 170 8c0 0 42 -127 119 -340c-4 81 -12 205 -26 379c0 0 62 -4 163 -3c0 0 5 -267 18 -713c0 0 -50 -8 -162 -17c0 0 -50 142 -125 343c2 -69 6 -167 15 -309c0 0 -66 3 -169 3zM193 735c0 0 -27 28 -119 108c0 0 27 25 73 78
c0 0 26 -26 98 -84c0 0 30 25 91 85c0 0 19 -20 74 -65c0 0 -33 -31 -108 -112c0 0 -25 0 -109 -10z" />
    <glyph glyph-name="Ncommaaccent" unicode="&#x145;" horiz-adv-x="484" 
d="M23 18c0 0 4 245 -3 649c0 0 72 5 170 8c0 0 42 -127 119 -340c-4 81 -12 205 -26 379c0 0 62 -4 163 -3c0 0 5 -267 18 -713c0 0 -50 -8 -162 -17c0 0 -50 142 -125 343c2 -69 6 -167 15 -309c0 0 -66 3 -169 3zM317 -95c0 -48 -34 -94 -95 -143c-33 27 -54 41 -54 41
c24 23 35 41 40 51c-24 8 -39 29 -39 58c0 36 30 62 75 62c42 0 73 -24 73 -69z" />
    <glyph glyph-name="Ohungarumlaut" unicode="&#x150;" horiz-adv-x="474" 
d="M237 -19c-166 0 -226 124 -227 355c0 221 46 374 226 374c185 0 228 -139 228 -373c-2 -262 -73 -356 -227 -356zM239 118c20 0 28 23 28 227c0 195 -8 222 -30 222c-27 0 -30 -36 -30 -229c0 -195 9 -220 32 -220zM320 726c-58 36 -83 48 -83 48c70 116 97 169 97 169
c78 -48 98 -59 98 -59c-86 -118 -112 -158 -112 -158zM175 729c-58 36 -82 45 -82 45c66 123 87 171 87 171c78 -48 99 -58 99 -58c-79 -118 -104 -158 -104 -158z" />
    <glyph glyph-name="Omacron" unicode="&#x14c;" horiz-adv-x="474" 
d="M237 -19c-166 0 -226 124 -227 355c0 221 46 374 226 374c185 0 228 -139 228 -373c-2 -262 -73 -356 -227 -356zM239 118c20 0 28 23 28 227c0 195 -8 222 -30 222c-27 0 -30 -36 -30 -229c0 -195 9 -220 32 -220zM109 758c0 0 1 31 -2 111c0 0 64 -1 260 2
c0 0 -2 -29 -2 -111c0 0 -68 1 -256 -2z" />
    <glyph glyph-name="Racute" unicode="&#x154;" horiz-adv-x="458" 
d="M280 -22c0 0 -23 98 -65 252c0 0 -7 -1 -14 -1l4 -215s-78 1 -185 -1c0 0 5 265 4 686c60 11 113 17 160 17c184 0 268 -87 268 -252c0 -87 -32 -145 -84 -182c8 -26 39 -124 100 -292c0 0 -68 -5 -188 -12zM201 350c39 1 62 30 62 101c0 70 -20 115 -65 111
c1 -105 3 -212 3 -212zM233 745c-54 42 -82 58 -82 58c79 115 107 163 107 163c73 -56 103 -76 103 -76c-98 -108 -128 -145 -128 -145z" />
    <glyph glyph-name="Rcaron" unicode="&#x158;" horiz-adv-x="458" 
d="M280 -22c0 0 -23 98 -65 252c0 0 -7 -1 -14 -1l4 -215s-78 1 -185 -1c0 0 5 265 4 686c60 11 113 17 160 17c184 0 268 -87 268 -252c0 -87 -32 -145 -84 -182c8 -26 39 -124 100 -292c0 0 -68 -5 -188 -12zM201 350c39 1 62 30 62 101c0 70 -20 115 -65 111
c1 -105 3 -212 3 -212zM166 740c0 0 -27 28 -119 108c0 0 27 25 73 78c0 0 26 -26 98 -84c0 0 30 25 91 85c0 0 19 -20 74 -65c0 0 -33 -31 -108 -112c0 0 -25 0 -109 -10z" />
    <glyph glyph-name="Rcommaaccent" unicode="&#x156;" horiz-adv-x="458" 
d="M280 -22c0 0 -23 98 -65 252c0 0 -7 -1 -14 -1l4 -215s-78 1 -185 -1c0 0 5 265 4 686c60 11 113 17 160 17c184 0 268 -87 268 -252c0 -87 -32 -145 -84 -182c8 -26 39 -124 100 -292c0 0 -68 -5 -188 -12zM201 350c39 1 62 30 62 101c0 70 -20 115 -65 111
c1 -105 3 -212 3 -212zM290 -100c0 -48 -34 -94 -95 -143c-33 27 -54 41 -54 41c24 23 35 41 40 51c-24 8 -39 29 -39 58c0 36 30 62 75 62c42 0 73 -24 73 -69z" />
    <glyph glyph-name="Sacute" unicode="&#x15a;" horiz-adv-x="442" 
d="M222 -13c-172 0 -227 96 -216 262c0 0 74 -2 186 -2c-6 -80 3 -117 29 -117c19 0 27 13 27 56c0 37 -17 64 -86 99c-118 59 -154 125 -154 233c0 140 93 192 218 192c154 0 218 -93 201 -265c0 0 -92 8 -181 10c11 85 -4 113 -23 113c-18 0 -26 -21 -26 -58
c0 -38 19 -73 69 -95c136 -61 171 -116 171 -227c0 -143 -87 -201 -215 -201zM238 740c-54 42 -82 58 -82 58c79 115 107 163 107 163c73 -56 103 -76 103 -76c-98 -108 -128 -145 -128 -145z" />
    <glyph glyph-name="Scedilla" unicode="&#x15e;" horiz-adv-x="442" 
d="M197 510c0 -38 19 -73 69 -95c136 -61 171 -116 171 -227c0 -131 -73 -190 -182 -199c-2 -16 -2 -29 -2 -29c63 -3 100 -32 100 -77c0 -59 -52 -97 -131 -97c-29 0 -60 5 -85 14c0 0 5 32 10 76c24 -11 55 -17 80 -17c16 0 31 6 31 18c0 15 -23 23 -84 19
c0 0 10 39 17 92c-148 11 -195 105 -185 261c0 0 74 -2 186 -2c-6 -80 3 -117 29 -117c19 0 27 13 27 56c0 37 -17 64 -86 99c-118 59 -154 125 -154 233c0 140 93 192 218 192c154 0 218 -93 201 -265c0 0 -92 8 -181 10c11 85 -4 113 -23 113c-18 0 -26 -21 -26 -58z" />
    <glyph glyph-name="Scircumflex" unicode="&#x15c;" horiz-adv-x="442" 
d="M222 -13c-172 0 -227 96 -216 262c0 0 74 -2 186 -2c-6 -80 3 -117 29 -117c19 0 27 13 27 56c0 37 -17 64 -86 99c-118 59 -154 125 -154 233c0 140 93 192 218 192c154 0 218 -93 201 -265c0 0 -92 8 -181 10c11 85 -4 113 -23 113c-18 0 -26 -21 -26 -58
c0 -38 19 -73 69 -95c136 -61 171 -116 171 -227c0 -143 -87 -201 -215 -201zM127 730c0 0 -19 20 -74 65c0 0 33 31 108 112c0 0 25 0 109 10c0 0 27 -28 119 -108c0 0 -27 -25 -73 -78c0 0 -26 26 -98 84c0 0 -30 -25 -91 -85z" />
    <glyph glyph-name="Scommaaccent" unicode="&#x218;" horiz-adv-x="442" 
d="M222 -13c-172 0 -227 96 -216 262c0 0 74 -2 186 -2c-6 -80 3 -117 29 -117c19 0 27 13 27 56c0 37 -17 64 -86 99c-118 59 -154 125 -154 233c0 140 93 192 218 192c154 0 218 -93 201 -265c0 0 -92 8 -181 10c11 85 -4 113 -23 113c-18 0 -26 -21 -26 -58
c0 -38 19 -73 69 -95c136 -61 171 -116 171 -227c0 -143 -87 -201 -215 -201zM296 -103c0 -48 -34 -94 -95 -143c-33 27 -54 41 -54 41c24 23 35 41 40 51c-24 8 -39 29 -39 58c0 36 30 62 75 62c42 0 73 -24 73 -69z" />
    <glyph glyph-name="Tcaron" unicode="&#x164;" horiz-adv-x="404" 
d="M6 521c0 0 2 44 -1 173c0 0 135 -1 394 4c0 0 -4 -65 -3 -177c0 0 -40 1 -106 1c0 -113 1 -272 4 -527c0 0 -59 2 -180 -1c0 0 2 205 -1 528zM153 725c0 0 -27 28 -119 108c0 0 27 25 73 78c0 0 26 -26 98 -84c0 0 30 25 91 85c0 0 19 -20 74 -65c0 0 -33 -31 -108 -112
c0 0 -25 0 -109 -10z" />
    <glyph glyph-name="Tcommaaccent" unicode="&#x162;" horiz-adv-x="404" 
d="M6 521c0 0 2 44 -1 173c0 0 135 -1 394 4c0 0 -4 -65 -3 -177c0 0 -40 1 -106 1c0 -113 1 -272 4 -527c0 0 -59 2 -180 -1c0 0 2 205 -1 528zM277 -95c0 -48 -34 -94 -95 -143c-33 27 -54 41 -54 41c24 23 35 41 40 51c-24 8 -39 29 -39 58c0 36 30 62 75 62
c42 0 73 -24 73 -69z" />
    <glyph glyph-name="Ubreve" unicode="&#x16c;" 
d="M240 -14c-163 0 -230 127 -230 415c0 92 8 191 22 286c0 0 52 -9 173 -24c-11 -95 -16 -178 -16 -254c0 -191 16 -251 41 -251c23 0 36 27 36 208c0 104 -9 223 -23 334c0 0 68 2 180 15c19 -109 31 -244 31 -360c0 -253 -67 -369 -214 -369zM229 737
c-111 0 -144 72 -139 139c0 0 30 0 107 5c-2 -28 11 -48 35 -48c18 0 37 14 30 57c0 0 31 -1 110 1c10 -109 -63 -154 -143 -154z" />
    <glyph glyph-name="Uhungarumlaut" unicode="&#x170;" 
d="M240 -14c-163 0 -230 127 -230 415c0 92 8 191 22 286c0 0 52 -9 173 -24c-11 -95 -16 -178 -16 -254c0 -191 16 -251 41 -251c23 0 36 27 36 208c0 104 -9 223 -23 334c0 0 68 2 180 15c19 -109 31 -244 31 -360c0 -253 -67 -369 -214 -369zM315 732
c-58 36 -83 48 -83 48c70 116 97 169 97 169c78 -48 98 -59 98 -59c-86 -118 -112 -158 -112 -158zM170 735c-58 36 -82 45 -82 45c66 123 87 171 87 171c78 -48 99 -58 99 -58c-79 -118 -104 -158 -104 -158z" />
    <glyph glyph-name="Umacron" unicode="&#x16a;" 
d="M240 -14c-163 0 -230 127 -230 415c0 92 8 191 22 286c0 0 52 -9 173 -24c-11 -95 -16 -178 -16 -254c0 -191 16 -251 41 -251c23 0 36 27 36 208c0 104 -9 223 -23 334c0 0 68 2 180 15c19 -109 31 -244 31 -360c0 -253 -67 -369 -214 -369zM104 764c0 0 1 31 -2 111
c0 0 64 -1 260 2c0 0 -2 -29 -2 -111c0 0 -68 1 -256 -2z" />
    <glyph glyph-name="Uogonek" unicode="&#x172;" 
d="M308 -208c-100 -10 -159 28 -159 107c0 34 15 65 46 91c-131 22 -185 151 -185 411c0 92 8 191 22 286c0 0 52 -9 173 -24c-11 -95 -16 -178 -16 -254c0 -191 16 -251 41 -251c23 0 36 27 36 208c0 104 -9 223 -23 334c0 0 68 2 180 15c19 -109 31 -244 31 -360
c0 -232 -57 -349 -179 -366c-19 -17 -28 -34 -28 -49c0 -27 19 -43 69 -42c0 0 -5 -29 -8 -106z" />
    <glyph glyph-name="Uring" unicode="&#x16e;" 
d="M240 -14c-163 0 -230 127 -230 415c0 92 8 191 22 286c0 0 52 -9 173 -24c-11 -95 -16 -178 -16 -254c0 -191 16 -251 41 -251c23 0 36 27 36 208c0 104 -9 223 -23 334c0 0 68 2 180 15c19 -109 31 -244 31 -360c0 -253 -67 -369 -214 -369zM231 734
c-70 0 -105 46 -105 103c0 62 45 99 106 99c69 0 107 -46 107 -99c0 -76 -53 -103 -108 -103zM233 794c23 0 33 18 33 43c0 22 -12 43 -33 43c-23 0 -33 -21 -33 -44c0 -24 13 -42 33 -42z" />
    <glyph glyph-name="Zacute" unicode="&#x179;" horiz-adv-x="384" 
d="M371 -5c-240 8 -361 8 -361 8c3 129 1 182 1 182c90 167 144 274 171 329c-99 -3 -169 -6 -169 -6c1 141 -1 182 -1 182c247 5 358 9 358 9c4 -105 3 -198 3 -198c-85 -163 -138 -274 -165 -331c78 -5 165 -5 165 -5c-4 -138 -2 -170 -2 -170zM209 720
c-54 42 -82 58 -82 58c79 115 107 163 107 163c73 -56 103 -76 103 -76c-98 -108 -128 -145 -128 -145z" />
    <glyph glyph-name="Zdotaccent" unicode="&#x17b;" horiz-adv-x="384" 
d="M371 -5c-240 8 -361 8 -361 8c3 129 1 182 1 182c90 167 144 274 171 329c-99 -3 -169 -6 -169 -6c1 141 -1 182 -1 182c247 5 358 9 358 9c4 -105 3 -198 3 -198c-85 -163 -138 -274 -165 -331c78 -5 165 -5 165 -5c-4 -138 -2 -170 -2 -170zM192 737
c-62 0 -89 47 -89 88c0 45 31 86 89 86c60 0 89 -45 89 -86c0 -60 -40 -88 -89 -88z" />
    <glyph glyph-name="abreve" unicode="&#x103;" horiz-adv-x="423" 
d="M149 -15c-82 0 -144 49 -144 136c0 121 87 178 229 175v14c-1 55 -9 71 -24 71c-17 0 -24 -22 -26 -68c0 0 -64 -3 -165 -1c-2 107 59 191 198 191c132 0 187 -79 190 -205c3 -149 0 -309 0 -309s-39 -1 -131 -2c0 0 3 30 4 70c-24 -55 -75 -72 -131 -72zM242 199
c0 11 -1 20 -1 20c-50 -7 -65 -39 -65 -71c0 -23 8 -41 30 -41s36 18 36 92zM205 530c-111 0 -144 72 -139 139c0 0 30 0 107 5c-2 -28 11 -48 35 -48c18 0 37 14 30 57c0 0 31 -1 110 1c10 -109 -63 -154 -143 -154z" />
    <glyph glyph-name="amacron" unicode="&#x101;" horiz-adv-x="423" 
d="M149 -15c-82 0 -144 49 -144 136c0 121 87 178 229 175v14c-1 55 -9 71 -24 71c-17 0 -24 -22 -26 -68c0 0 -64 -3 -165 -1c-2 107 59 191 198 191c132 0 187 -79 190 -205c3 -149 0 -309 0 -309s-39 -1 -131 -2c0 0 3 30 4 70c-24 -55 -75 -72 -131 -72zM242 199
c0 11 -1 20 -1 20c-50 -7 -65 -39 -65 -71c0 -23 8 -41 30 -41s36 18 36 92zM79 546c0 0 1 31 -2 111c0 0 64 -1 260 2c0 0 -2 -29 -2 -111c0 0 -68 1 -256 -2z" />
    <glyph glyph-name="aogonek" unicode="&#x105;" horiz-adv-x="423" 
d="M149 -15c-82 0 -144 49 -144 136c0 121 87 178 229 175v14c-1 55 -9 71 -24 71c-17 0 -24 -22 -26 -68c0 0 -64 -3 -165 -1c-2 107 59 191 198 191c132 0 187 -79 190 -205c3 -149 0 -309 0 -309s-20 -1 -59 -1c-18 -16 -27 -33 -27 -48c0 -27 19 -43 69 -42
c0 0 -5 -29 -8 -106c-100 -10 -159 28 -159 107c0 36 17 69 54 96c1 10 2 32 3 62c-24 -55 -75 -72 -131 -72zM242 199c0 11 -1 20 -1 20c-50 -7 -65 -39 -65 -71c0 -23 8 -41 30 -41s36 18 36 92z" />
    <glyph glyph-name="cacute" unicode="&#x107;" horiz-adv-x="435" 
d="M224 -12c-151 0 -214 97 -214 262c0 163 75 258 221 258c140 0 209 -110 198 -230c-127 5 -178 4 -178 4c2 68 -8 100 -28 100s-27 -34 -27 -138c0 -83 7 -119 29 -119c18 0 29 21 25 90c0 0 39 -2 180 3c4 -175 -92 -230 -206 -230zM238 530c-54 42 -82 58 -82 58
c79 115 107 163 107 163c73 -56 103 -76 103 -76c-98 -108 -128 -145 -128 -145z" />
    <glyph glyph-name="ccaron" unicode="&#x10d;" horiz-adv-x="435" 
d="M224 -12c-151 0 -214 97 -214 262c0 163 75 258 221 258c140 0 209 -110 198 -230c-127 5 -178 4 -178 4c2 68 -8 100 -28 100s-27 -34 -27 -138c0 -83 7 -119 29 -119c18 0 29 21 25 90c0 0 39 -2 180 3c4 -175 -92 -230 -206 -230zM172 529c0 0 -27 28 -119 108
c0 0 27 25 73 78c0 0 26 -26 98 -84c0 0 30 25 91 85c0 0 19 -20 74 -65c0 0 -33 -31 -108 -112c0 0 -25 0 -109 -10z" />
    <glyph glyph-name="ccircumflex" unicode="&#x109;" horiz-adv-x="435" 
d="M224 -12c-151 0 -214 97 -214 262c0 163 75 258 221 258c140 0 209 -110 198 -230c-127 5 -178 4 -178 4c2 68 -8 100 -28 100s-27 -34 -27 -138c0 -83 7 -119 29 -119c18 0 29 21 25 90c0 0 39 -2 180 3c4 -175 -92 -230 -206 -230zM127 519c0 0 -19 20 -74 65
c0 0 33 31 108 112c0 0 25 0 109 10c0 0 27 -28 119 -108c0 0 -27 -25 -73 -78c0 0 -26 26 -98 84c0 0 -30 -25 -91 -85z" />
    <glyph glyph-name="dcaron" unicode="&#x10f;" horiz-adv-x="457" 
d="M434 -17c0 0 -51 1 -141 1c0 0 1 34 2 86c-23 -51 -64 -75 -115 -75c-102 0 -170 75 -170 269c0 142 48 243 157 243c41 0 73 -22 95 -55c-2 53 -5 128 -11 232c0 0 36 -3 186 1c0 0 -5 -316 -3 -702zM230 109c14 0 27 17 27 145c0 87 -8 131 -30 131
c-17 0 -25 -29 -25 -141c0 -96 10 -135 28 -135zM616 616c0 -48 -34 -94 -95 -143c-33 27 -54 41 -54 41c24 23 35 41 40 51c-24 8 -39 29 -39 58c0 36 30 62 75 62c42 0 73 -24 73 -69z" />
    <glyph glyph-name="ecaron" unicode="&#x11b;" horiz-adv-x="445" 
d="M225 -10c-169 0 -215 117 -215 262c0 140 59 255 214 255c173 0 220 -130 208 -300c0 0 -95 0 -240 -2c3 -67 13 -91 34 -91c16 0 27 14 29 57c0 0 93 -1 180 -4c-15 -114 -96 -177 -210 -177zM223 392c-20 0 -29 -20 -31 -100c21 0 38 0 58 1c1 68 -9 99 -27 99z
M173 528c0 0 -27 28 -119 108c0 0 27 25 73 78c0 0 26 -26 98 -84c0 0 30 25 91 85c0 0 19 -20 74 -65c0 0 -33 -31 -108 -112c0 0 -25 0 -109 -10z" />
    <glyph glyph-name="edotaccent" unicode="&#x117;" horiz-adv-x="445" 
d="M225 -10c-169 0 -215 117 -215 262c0 140 59 255 214 255c173 0 220 -130 208 -300c0 0 -95 0 -240 -2c3 -67 13 -91 34 -91c16 0 27 14 29 57c0 0 93 -1 180 -4c-15 -114 -96 -177 -210 -177zM223 392c-20 0 -29 -20 -31 -100c21 0 38 0 58 1c1 68 -9 99 -27 99z
M222 541c-62 0 -89 47 -89 88c0 45 31 86 89 86c60 0 89 -45 89 -86c0 -60 -40 -88 -89 -88z" />
    <glyph glyph-name="emacron" unicode="&#x113;" horiz-adv-x="445" 
d="M225 -10c-169 0 -215 117 -215 262c0 140 59 255 214 255c173 0 220 -130 208 -300c0 0 -95 0 -240 -2c3 -67 13 -91 34 -91c16 0 27 14 29 57c0 0 93 -1 180 -4c-15 -114 -96 -177 -210 -177zM223 392c-20 0 -29 -20 -31 -100c21 0 38 0 58 1c1 68 -9 99 -27 99zM94 554
c0 0 1 31 -2 111c0 0 64 -1 260 2c0 0 -2 -29 -2 -111c0 0 -68 1 -256 -2z" />
    <glyph glyph-name="eogonek" unicode="&#x119;" horiz-adv-x="445" 
d="M298 -208c-100 -10 -159 28 -159 107c0 35 16 66 50 93c-140 16 -179 126 -179 260c0 140 59 255 214 255c173 0 220 -130 208 -300c0 0 -95 0 -240 -2c3 -67 13 -91 34 -91c16 0 27 14 29 57c0 0 93 -1 180 -4c-13 -98 -75 -159 -164 -173c-22 -18 -34 -38 -34 -54
c0 -27 19 -43 69 -42c0 0 -5 -29 -8 -106zM223 392c-20 0 -29 -20 -31 -100c21 0 38 0 58 1c1 68 -9 99 -27 99z" />
    <glyph glyph-name="gbreve" unicode="&#x11f;" horiz-adv-x="418" 
d="M180 107c-3 -3 -5 -8 -5 -12c0 -11 10 -16 79 -24c133 -15 179 -71 179 -154c0 -124 -109 -178 -222 -178c-128 0 -206 44 -206 124c0 49 38 89 88 101c-33 20 -48 49 -48 78c0 30 20 62 59 86c-62 31 -94 92 -94 190c0 122 73 202 204 202c128 0 198 -77 198 -202
c0 -145 -83 -213 -188 -213c-16 0 -30 1 -44 2zM213 198c13 0 27 16 27 100c0 73 -11 106 -27 106c-17 0 -31 -24 -31 -105s13 -101 31 -101zM269 -115c0 25 -30 38 -80 39c-14 -9 -23 -27 -23 -40c0 -23 19 -37 50 -37c32 0 53 13 53 38zM216 547c-111 0 -144 72 -139 139
c0 0 30 0 107 5c-2 -28 11 -48 35 -48c18 0 37 14 30 57c0 0 31 -1 110 1c10 -109 -63 -154 -143 -154z" />
    <glyph glyph-name="gcircumflex" unicode="&#x11d;" horiz-adv-x="418" 
d="M180 107c-3 -3 -5 -8 -5 -12c0 -11 10 -16 79 -24c133 -15 179 -71 179 -154c0 -124 -109 -178 -222 -178c-128 0 -206 44 -206 124c0 49 38 89 88 101c-33 20 -48 49 -48 78c0 30 20 62 59 86c-62 31 -94 92 -94 190c0 122 73 202 204 202c128 0 198 -77 198 -202
c0 -145 -83 -213 -188 -213c-16 0 -30 1 -44 2zM213 198c13 0 27 16 27 100c0 73 -11 106 -27 106c-17 0 -31 -24 -31 -105s13 -101 31 -101zM269 -115c0 25 -30 38 -80 39c-14 -9 -23 -27 -23 -40c0 -23 19 -37 50 -37c32 0 53 13 53 38zM125 535c0 0 -19 20 -74 65
c0 0 33 31 108 112c0 0 25 0 109 10c0 0 27 -28 119 -108c0 0 -27 -25 -73 -78c0 0 -26 26 -98 84c0 0 -30 -25 -91 -85z" />
    <glyph glyph-name="gcommaaccent" unicode="&#x123;" horiz-adv-x="418" 
d="M180 107c-3 -3 -5 -8 -5 -12c0 -11 10 -16 79 -24c133 -15 179 -71 179 -154c0 -124 -109 -178 -222 -178c-128 0 -206 44 -206 124c0 49 38 89 88 101c-33 20 -48 49 -48 78c0 30 20 62 59 86c-62 31 -94 92 -94 190c0 122 73 202 204 202c128 0 198 -77 198 -202
c0 -145 -83 -213 -188 -213c-16 0 -30 1 -44 2zM145 618c0 48 34 94 95 143c30 -25 50 -39 53 -41c-24 -23 -34 -41 -39 -51c24 -8 39 -29 39 -58c0 -36 -30 -62 -75 -62c-42 0 -73 24 -73 69zM213 198c13 0 27 16 27 100c0 73 -11 106 -27 106c-17 0 -31 -24 -31 -105
s13 -101 31 -101zM269 -115c0 25 -30 38 -80 39c-14 -9 -23 -27 -23 -40c0 -23 19 -37 50 -37c32 0 53 13 53 38z" />
    <glyph glyph-name="hcircumflex" unicode="&#x125;" horiz-adv-x="434" 
d="M20 20c0 0 6 288 2 655c0 0 51 -1 170 1c0 0 -4 -101 -4 -238c25 42 62 69 116 69c72 0 109 -63 112 -155c5 -160 3 -371 3 -371s-61 2 -177 2c0 0 2 174 0 332c0 25 -7 33 -21 33c-15 0 -22 -7 -22 -33c-2 -149 -1 -294 -1 -294s-55 1 -178 -1zM12 690
c0 0 -19 20 -74 65c0 0 33 31 108 112c0 0 25 0 109 10c0 0 27 -28 119 -108c0 0 -27 -25 -73 -78c0 0 -26 26 -98 84c0 0 -30 -25 -91 -85z" />
    <glyph glyph-name="imacron" unicode="&#x12b;" horiz-adv-x="221" 
d="M26 1c0 0 1 138 -3 505c0 0 58 -1 175 1c0 0 -1 -178 4 -505c0 0 -75 0 -176 -1zM-16 569c0 0 1 31 -2 111c0 0 64 -1 260 2c0 0 -2 -29 -2 -111c0 0 -68 1 -256 -2z" />
    <glyph glyph-name="iogonek" unicode="&#x12f;" horiz-adv-x="221" 
d="M26 1c0 0 1 138 -3 505c0 0 58 -1 175 1c0 0 -1 -178 4 -505c0 0 -20 1 -47 0c-28 -18 -45 -43 -45 -62c0 -27 19 -43 69 -42c0 0 -5 -29 -8 -106c-100 -10 -159 28 -159 107c0 39 20 74 63 102c0 0 -20 1 -49 0zM113 544c-72 0 -108 38 -108 106c0 62 40 98 108 98
c67 0 103 -45 103 -100c0 -58 -34 -104 -103 -104z" />
    <glyph glyph-name="jcircumflex" unicode="&#x135;" horiz-adv-x="222" 
d="M-85 -229c0 0 4 61 4 164c7 -1 15 -1 21 -1c65 0 85 31 86 89c4 172 -1 481 -1 481c112 -1 171 1 171 1s8 -192 4 -505c-2 -136 -60 -230 -244 -230c-13 0 -27 0 -41 1zM19 530c0 0 -19 20 -74 65c0 0 33 31 108 112c0 0 25 0 109 10c0 0 27 -28 119 -108
c0 0 -27 -25 -73 -78c0 0 -26 26 -98 84c0 0 -30 -25 -91 -85z" />
    <glyph glyph-name="kcommaaccent" unicode="&#x137;" horiz-adv-x="455" 
d="M266 -24c-15 68 -28 122 -37 161c-14 -25 -24 -45 -32 -61c0 -37 1 -60 1 -60c-118 3 -178 2 -178 2c3 461 0 661 0 661c126 -4 179 -2 179 -2c-2 -170 -2 -278 -2 -378c41 132 63 207 63 207c110 -6 195 -10 195 -10c-47 -94 -80 -166 -101 -210
c59 -188 101 -306 101 -306c-130 -1 -189 -4 -189 -4zM312 -108c0 -48 -34 -94 -95 -143c-33 27 -54 41 -54 41c24 23 35 41 40 51c-24 8 -39 29 -39 58c0 36 30 62 75 62c42 0 73 -24 73 -69z" />
    <glyph glyph-name="lacute" unicode="&#x13a;" horiz-adv-x="217" 
d="M197 18c-115 4 -176 3 -176 3c3 457 -1 657 -1 657c116 -5 177 -5 177 -5c-4 -491 0 -655 0 -655zM121 694c-54 42 -82 58 -82 58c79 115 107 163 107 163c73 -56 103 -76 103 -76c-98 -108 -128 -145 -128 -145z" />
    <glyph glyph-name="lcaron" unicode="&#x13e;" horiz-adv-x="217" 
d="M197 18c-115 4 -176 3 -176 3c3 457 -1 657 -1 657c116 -5 177 -5 177 -5c-4 -491 0 -655 0 -655zM376 609c0 -48 -34 -94 -95 -143c-33 27 -54 41 -54 41c24 23 35 41 40 51c-24 8 -39 29 -39 58c0 36 30 62 75 62c42 0 73 -24 73 -69z" />
    <glyph glyph-name="lcommaaccent" unicode="&#x13c;" horiz-adv-x="217" 
d="M197 18c-115 4 -176 3 -176 3c3 457 -1 657 -1 657c116 -5 177 -5 177 -5c-4 -491 0 -655 0 -655zM183 -95c0 -48 -34 -94 -95 -143c-31 25 -51 39 -54 41c24 23 35 41 40 51c-24 8 -39 29 -39 58c0 36 30 62 75 62c42 0 73 -24 73 -69z" />
    <glyph glyph-name="nacute" unicode="&#x144;" horiz-adv-x="433" 
d="M240 -18c0 0 2 175 2 333c0 23 -6 33 -21 33c-17 0 -21 -11 -22 -33c-2 -73 -1 -299 -1 -299s-80 1 -178 0c0 0 4 187 2 471c0 0 58 -2 138 1c0 0 -2 -40 -1 -76c23 53 77 93 135 93c78 0 119 -54 122 -148c2 -54 2 -374 2 -374c-61 1 -178 -1 -178 -1zM247 520
c-54 42 -82 58 -82 58c79 115 107 163 107 163c73 -56 103 -76 103 -76c-98 -108 -128 -145 -128 -145z" />
    <glyph glyph-name="ncaron" unicode="&#x148;" horiz-adv-x="433" 
d="M240 -18c0 0 2 175 2 333c0 23 -6 33 -21 33c-17 0 -21 -11 -22 -33c-2 -73 -1 -299 -1 -299s-80 1 -178 0c0 0 4 187 2 471c0 0 58 -2 138 1c0 0 -2 -40 -1 -76c23 53 77 93 135 93c78 0 119 -54 122 -148c2 -54 2 -374 2 -374c-61 1 -178 -1 -178 -1zM180 525
c0 0 -27 28 -119 108c0 0 27 25 73 78c0 0 26 -26 98 -84c0 0 30 25 91 85c0 0 19 -20 74 -65c0 0 -33 -31 -108 -112c0 0 -25 0 -109 -10z" />
    <glyph glyph-name="ncommaaccent" unicode="&#x146;" horiz-adv-x="433" 
d="M240 -18c0 0 2 175 2 333c0 23 -6 33 -21 33c-17 0 -21 -11 -22 -33c-2 -73 -1 -299 -1 -299s-80 1 -178 0c0 0 4 187 2 471c0 0 58 -2 138 1c0 0 -2 -40 -1 -76c23 53 77 93 135 93c78 0 119 -54 122 -148c2 -54 2 -374 2 -374c-61 1 -178 -1 -178 -1zM304 -105
c0 -48 -34 -94 -95 -143c-33 27 -54 41 -54 41c24 23 35 41 40 51c-24 8 -39 29 -39 58c0 36 30 62 75 62c42 0 73 -24 73 -69z" />
    <glyph glyph-name="ohungarumlaut" unicode="&#x151;" horiz-adv-x="447" 
d="M222 -8c-160 0 -212 107 -212 266c0 157 75 250 215 250c150 0 212 -102 212 -258c0 -189 -81 -258 -215 -258zM224 106c17 0 27 17 27 143c0 118 -8 140 -27 140c-21 0 -28 -22 -28 -133c0 -133 8 -150 28 -150zM306 524c-58 36 -83 48 -83 48c70 116 97 169 97 169
c78 -48 98 -59 98 -59c-86 -118 -112 -158 -112 -158zM161 527c-58 36 -82 45 -82 45c66 123 87 171 87 171c78 -48 99 -58 99 -58c-79 -118 -104 -158 -104 -158z" />
    <glyph glyph-name="omacron" unicode="&#x14d;" horiz-adv-x="447" 
d="M222 -8c-160 0 -212 107 -212 266c0 157 75 250 215 250c150 0 212 -102 212 -258c0 -189 -81 -258 -215 -258zM224 106c17 0 27 17 27 143c0 118 -8 140 -27 140c-21 0 -28 -22 -28 -133c0 -133 8 -150 28 -150zM95 553c0 0 1 31 -2 111c0 0 64 -1 260 2
c0 0 -2 -29 -2 -111c0 0 -68 1 -256 -2z" />
    <glyph glyph-name="racute" unicode="&#x155;" horiz-adv-x="306" 
d="M22 -4c0 0 2 255 -2 505c0 0 26 -2 146 1c0 0 -3 -37 -4 -88c26 59 87 101 144 100c0 0 -5 -48 -7 -180c-75 -12 -99 -56 -101 -129c-2 -82 1 -208 1 -208s-45 1 -177 -1zM197 520c-54 42 -82 58 -82 58c79 115 107 163 107 163c73 -56 103 -76 103 -76
c-98 -108 -128 -145 -128 -145z" />
    <glyph glyph-name="rcaron" unicode="&#x159;" horiz-adv-x="306" 
d="M22 -4c0 0 2 255 -2 505c0 0 26 -2 146 1c0 0 -3 -37 -4 -88c26 59 87 101 144 100c0 0 -5 -48 -7 -180c-75 -12 -99 -56 -101 -129c-2 -82 1 -208 1 -208s-45 1 -177 -1zM130 532c0 0 -27 28 -119 108c0 0 27 25 73 78c0 0 26 -26 98 -84c0 0 30 25 91 85
c0 0 19 -20 74 -65c0 0 -33 -31 -108 -112c0 0 -25 0 -109 -10z" />
    <glyph glyph-name="rcommaaccent" unicode="&#x157;" horiz-adv-x="306" 
d="M22 -4c0 0 2 255 -2 505c0 0 26 -2 146 1c0 0 -3 -37 -4 -88c26 59 87 101 144 100c0 0 -5 -48 -7 -180c-75 -12 -99 -56 -101 -129c-2 -82 1 -208 1 -208s-45 1 -177 -1zM179 -95c0 -48 -34 -94 -95 -143c-31 25 -51 39 -54 41c24 23 35 41 40 51c-24 8 -39 29 -39 58
c0 36 30 62 75 62c42 0 73 -24 73 -69z" />
    <glyph glyph-name="sacute" unicode="&#x15b;" horiz-adv-x="400" 
d="M205 -15c-126 0 -202 58 -200 201c0 0 56 0 168 -7c-1 -43 4 -68 32 -68c13 0 25 10 25 32c0 21 -13 37 -73 55c-109 32 -147 79 -147 159c0 89 70 156 194 156c126 0 191 -80 187 -203c0 0 -70 5 -160 4c2 41 -5 68 -29 68c-20 0 -28 -15 -28 -29c0 -24 20 -43 68 -58
c112 -34 153 -79 153 -153c0 -113 -88 -157 -190 -157zM217 530c-54 42 -82 58 -82 58c79 115 107 163 107 163c73 -56 103 -76 103 -76c-98 -108 -128 -145 -128 -145z" />
    <glyph glyph-name="scedilla" unicode="&#x15f;" horiz-adv-x="400" 
d="M174 353c0 -24 20 -43 68 -58c112 -34 153 -79 153 -153c0 -102 -72 -147 -161 -155c-1 -8 -2 -16 -2 -27c63 -3 100 -32 100 -77c0 -59 -52 -97 -131 -97c-29 0 -60 5 -85 14c0 0 5 32 10 76c24 -11 55 -17 80 -17c16 0 31 6 31 18c0 15 -23 23 -84 19c0 0 10 39 17 91
c-105 10 -167 69 -165 199c0 0 56 0 168 -7c-1 -43 4 -68 32 -68c13 0 25 10 25 32c0 21 -13 37 -73 55c-109 32 -147 79 -147 159c0 89 70 156 194 156c126 0 191 -80 187 -203c0 0 -70 5 -160 4c2 41 -5 68 -29 68c-20 0 -28 -15 -28 -29z" />
    <glyph glyph-name="scircumflex" unicode="&#x15d;" horiz-adv-x="400" 
d="M205 -15c-126 0 -202 58 -200 201c0 0 56 0 168 -7c-1 -43 4 -68 32 -68c13 0 25 10 25 32c0 21 -13 37 -73 55c-109 32 -147 79 -147 159c0 89 70 156 194 156c126 0 191 -80 187 -203c0 0 -70 5 -160 4c2 41 -5 68 -29 68c-20 0 -28 -15 -28 -29c0 -24 20 -43 68 -58
c112 -34 153 -79 153 -153c0 -113 -88 -157 -190 -157zM106 520c0 0 -19 20 -74 65c0 0 33 31 108 112c0 0 25 0 109 10c0 0 27 -28 119 -108c0 0 -27 -25 -73 -78c0 0 -26 26 -98 84c0 0 -30 -25 -91 -85z" />
    <glyph glyph-name="scommaaccent" unicode="&#x219;" horiz-adv-x="400" 
d="M205 -15c-126 0 -202 58 -200 201c0 0 56 0 168 -7c-1 -43 4 -68 32 -68c13 0 25 10 25 32c0 21 -13 37 -73 55c-109 32 -147 79 -147 159c0 89 70 156 194 156c126 0 191 -80 187 -203c0 0 -70 5 -160 4c2 41 -5 68 -29 68c-20 0 -28 -15 -28 -29c0 -24 20 -43 68 -58
c112 -34 153 -79 153 -153c0 -113 -88 -157 -190 -157zM275 -104c0 -48 -34 -94 -95 -143c-31 25 -51 39 -54 41c24 23 35 41 40 51c-24 8 -39 29 -39 58c0 36 30 62 75 62c42 0 73 -24 73 -69z" />
    <glyph glyph-name="tcaron" unicode="&#x165;" horiz-adv-x="321" 
d="M7 333c0 120 -2 152 -2 152c17 -1 33 -1 48 -1c1 81 2 134 2 134c126 -2 172 0 172 0s-1 -58 -2 -136h77c-2 -127 -1 -150 -1 -150l-77 1c0 -41 1 -82 2 -119c1 -30 17 -44 47 -44c8 0 18 1 29 3c5 -105 9 -160 9 -160c-35 -8 -68 -13 -97 -13c-97 0 -160 45 -161 163
c-1 60 -1 115 -1 170h-45zM403 653c0 -48 -34 -94 -95 -143c-33 27 -54 41 -54 41c24 23 35 41 40 51c-24 8 -39 29 -39 58c0 36 30 62 75 62c42 0 73 -24 73 -69z" />
    <glyph glyph-name="tcommaaccent" unicode="&#x163;" horiz-adv-x="321" 
d="M7 333c0 120 -2 152 -2 152c17 -1 33 -1 48 -1c1 81 2 134 2 134c126 -2 172 0 172 0s-1 -58 -2 -136h77c-2 -127 -1 -150 -1 -150l-77 1c0 -41 1 -82 2 -119c1 -30 17 -44 47 -44c8 0 18 1 29 3c5 -105 9 -160 9 -160c-35 -8 -68 -13 -97 -13c-97 0 -160 45 -161 163
c-1 60 -1 115 -1 170h-45zM261 -95c0 -48 -34 -94 -95 -143c-31 25 -51 39 -54 41c24 23 35 41 40 51c-24 8 -39 29 -39 58c0 36 30 62 75 62c42 0 73 -24 73 -69z" />
    <glyph glyph-name="ubreve" unicode="&#x16d;" horiz-adv-x="434" 
d="M158 -10c-98 0 -143 74 -143 289c0 77 4 147 13 225c0 0 43 -7 165 -12c-5 -50 -6 -110 -6 -149c0 -176 13 -202 33 -202c14 0 21 14 21 44c2 177 -7 324 -7 324s48 -4 178 -3c0 0 -2 -197 2 -527c0 0 -42 3 -140 1c0 0 1 38 1 91c-22 -54 -69 -81 -117 -81zM212 542
c-111 0 -144 72 -139 139c0 0 30 0 107 5c-2 -28 11 -48 35 -48c18 0 37 14 30 57c0 0 31 -1 110 1c10 -109 -63 -154 -143 -154z" />
    <glyph glyph-name="uhungarumlaut" unicode="&#x171;" horiz-adv-x="434" 
d="M158 -10c-98 0 -143 74 -143 289c0 77 4 147 13 225c0 0 43 -7 165 -12c-5 -50 -6 -110 -6 -149c0 -176 13 -202 33 -202c14 0 21 14 21 44c2 177 -7 324 -7 324s48 -4 178 -3c0 0 -2 -197 2 -527c0 0 -42 3 -140 1c0 0 1 38 1 91c-22 -54 -69 -81 -117 -81zM297 531
c-58 36 -83 48 -83 48c70 116 97 169 97 169c78 -48 98 -59 98 -59c-86 -118 -112 -158 -112 -158zM152 534c-58 36 -82 45 -82 45c66 123 87 171 87 171c78 -48 99 -58 99 -58c-79 -118 -104 -158 -104 -158z" />
    <glyph glyph-name="umacron" unicode="&#x16b;" horiz-adv-x="434" 
d="M158 -10c-98 0 -143 74 -143 289c0 77 4 147 13 225c0 0 43 -7 165 -12c-5 -50 -6 -110 -6 -149c0 -176 13 -202 33 -202c14 0 21 14 21 44c2 177 -7 324 -7 324s48 -4 178 -3c0 0 -2 -197 2 -527c0 0 -42 3 -140 1c0 0 1 38 1 91c-22 -54 -69 -81 -117 -81zM86 564
c0 0 1 31 -2 111c0 0 64 -1 260 2c0 0 -2 -29 -2 -111c0 0 -68 1 -256 -2z" />
    <glyph glyph-name="uogonek" unicode="&#x173;" horiz-adv-x="434" 
d="M158 -10c-98 0 -143 74 -143 289c0 77 4 147 13 225c0 0 43 -7 165 -12c-5 -50 -6 -110 -6 -149c0 -176 13 -202 33 -202c14 0 21 14 21 44c2 177 -7 324 -7 324s48 -4 178 -3c0 0 -2 -197 2 -527c0 0 -26 1 -65 2c-13 -14 -19 -29 -19 -41c0 -27 19 -43 69 -42
c0 0 -5 -29 -8 -106c-100 -10 -159 28 -159 107c0 32 13 62 42 87c0 10 1 40 1 85c-22 -54 -69 -81 -117 -81z" />
    <glyph glyph-name="uring" unicode="&#x16f;" horiz-adv-x="434" 
d="M158 -10c-98 0 -143 74 -143 289c0 77 4 147 13 225c0 0 43 -7 165 -12c-5 -50 -6 -110 -6 -149c0 -176 13 -202 33 -202c14 0 21 14 21 44c2 177 -7 324 -7 324s48 -4 178 -3c0 0 -2 -197 2 -527c0 0 -42 3 -140 1c0 0 1 38 1 91c-22 -54 -69 -81 -117 -81zM213 539
c-70 0 -105 46 -105 103c0 62 45 99 106 99c69 0 107 -46 107 -99c0 -76 -53 -103 -108 -103zM215 599c23 0 33 18 33 43c0 22 -12 43 -33 43c-23 0 -33 -21 -33 -44c0 -24 13 -42 33 -42z" />
    <glyph glyph-name="zacute" unicode="&#x17a;" horiz-adv-x="366" 
d="M354 2c-235 10 -344 8 -344 8c4 84 2 125 2 125c108 141 142 199 142 199c-100 0 -135 -4 -135 -4c-1 121 -5 163 -5 163c229 1 339 8 339 8c-1 -118 3 -140 3 -140c-113 -149 -146 -207 -146 -207c114 -4 146 -2 146 -2c-4 -133 -2 -150 -2 -150zM201 520
c-54 42 -82 58 -82 58c79 115 107 163 107 163c73 -56 103 -76 103 -76c-98 -108 -128 -145 -128 -145z" />
    <glyph glyph-name="zdotaccent" unicode="&#x17c;" horiz-adv-x="366" 
d="M354 2c-235 10 -344 8 -344 8c4 84 2 125 2 125c108 141 142 199 142 199c-100 0 -135 -4 -135 -4c-1 121 -5 163 -5 163c229 1 339 8 339 8c-1 -118 3 -140 3 -140c-113 -149 -146 -207 -146 -207c114 -4 146 -2 146 -2c-4 -133 -2 -150 -2 -150zM183 537
c-62 0 -89 47 -89 88c0 45 31 86 89 86c60 0 89 -45 89 -86c0 -60 -40 -88 -89 -88z" />
    <glyph glyph-name="L_A" horiz-adv-x="778" 
d="M26 -5c0 0 0 276 -6 685c0 0 59 -2 180 0c0 0 -3 -100 4 -521c60 -2 104 -3 127 -3c18 117 46 308 79 551c145 6 256 4 256 4s46 -336 112 -717c0 0 -74 2 -191 -1c0 0 -2 33 -8 112c-19 1 -49 1 -84 1l-6 -84s-49 2 -140 2c-1 -19 0 -33 0 -33c-82 3 -323 4 -323 4z
M536 559c-6 -54 -18 -163 -30 -307c39 -1 61 0 61 0c-17 197 -31 307 -31 307z" />
    <glyph glyph-name="L_Aacute" horiz-adv-x="778" 
d="M26 -5c0 0 0 276 -6 685c0 0 59 -2 180 0c0 0 -3 -100 4 -521c60 -2 104 -3 127 -3c18 117 46 308 79 551c145 6 256 4 256 4s46 -336 112 -717c0 0 -74 2 -191 -1c0 0 -2 33 -8 112c-19 1 -49 1 -84 1l-6 -84s-49 2 -140 2c-1 -19 0 -33 0 -33c-82 3 -323 4 -323 4z
M536 559c-6 -54 -18 -163 -30 -307c39 -1 61 0 61 0c-17 197 -31 307 -31 307zM556 735c-54 42 -82 58 -82 58c79 115 107 163 107 163c73 -56 103 -76 103 -76c-98 -108 -128 -145 -128 -145z" />
    <glyph glyph-name="L_Abreve" horiz-adv-x="778" 
d="M26 -5c0 0 0 276 -6 685c0 0 59 -2 180 0c0 0 -3 -100 4 -521c60 -2 104 -3 127 -3c18 117 46 308 79 551c145 6 256 4 256 4s46 -336 112 -717c0 0 -74 2 -191 -1c0 0 -2 33 -8 112c-19 1 -49 1 -84 1l-6 -84s-49 2 -140 2c-1 -19 0 -33 0 -33c-82 3 -323 4 -323 4z
M536 559c-6 -54 -18 -163 -30 -307c39 -1 61 0 61 0c-17 197 -31 307 -31 307zM535 747c-111 0 -144 72 -139 139c0 0 30 0 107 5c-2 -28 11 -48 35 -48c18 0 37 14 30 57c0 0 31 -1 110 1c10 -109 -63 -154 -143 -154z" />
    <glyph glyph-name="L_Acircumflex" horiz-adv-x="778" 
d="M26 -5c0 0 0 276 -6 685c0 0 59 -2 180 0c0 0 -3 -100 4 -521c60 -2 104 -3 127 -3c18 117 46 308 79 551c145 6 256 4 256 4s46 -336 112 -717c0 0 -74 2 -191 -1c0 0 -2 33 -8 112c-19 1 -49 1 -84 1l-6 -84s-49 2 -140 2c-1 -19 0 -33 0 -33c-82 3 -323 4 -323 4z
M536 559c-6 -54 -18 -163 -30 -307c39 -1 61 0 61 0c-17 197 -31 307 -31 307zM444 730c0 0 -19 20 -74 65c0 0 33 31 108 112c0 0 25 0 109 10c0 0 27 -28 119 -108c0 0 -27 -25 -73 -78c0 0 -26 26 -98 84c0 0 -30 -25 -91 -85z" />
    <glyph glyph-name="L_Adieresis" horiz-adv-x="778" 
d="M26 -5c0 0 0 276 -6 685c0 0 59 -2 180 0c0 0 -3 -100 4 -521c60 -2 104 -3 127 -3c18 117 46 308 79 551c145 6 256 4 256 4s46 -336 112 -717c0 0 -74 2 -191 -1c0 0 -2 33 -8 112c-19 1 -49 1 -84 1l-6 -84s-49 2 -140 2c-1 -19 0 -33 0 -33c-82 3 -323 4 -323 4z
M536 559c-6 -54 -18 -163 -30 -307c39 -1 61 0 61 0c-17 197 -31 307 -31 307zM450 754c-50 0 -73 40 -73 81c0 47 30 80 74 80c51 0 72 -38 72 -80c0 -59 -35 -81 -73 -81zM628 758c-42 0 -70 32 -70 82c0 42 25 76 72 76s69 -37 69 -79c0 -51 -29 -79 -71 -79z" />
    <glyph glyph-name="L_Agrave" horiz-adv-x="778" 
d="M26 -5c0 0 0 276 -6 685c0 0 59 -2 180 0c0 0 -3 -100 4 -521c60 -2 104 -3 127 -3c18 117 46 308 79 551c145 6 256 4 256 4s46 -336 112 -717c0 0 -74 2 -191 -1c0 0 -2 33 -8 112c-19 1 -49 1 -84 1l-6 -84s-49 2 -140 2c-1 -19 0 -33 0 -33c-82 3 -323 4 -323 4z
M536 559c-6 -54 -18 -163 -30 -307c39 -1 61 0 61 0c-17 197 -31 307 -31 307zM533 735c0 0 -30 37 -128 145c0 0 30 20 103 76c0 0 28 -48 107 -163c0 0 -28 -16 -82 -58z" />
    <glyph glyph-name="L_Amacron" horiz-adv-x="778" 
d="M26 -5c0 0 0 276 -6 685c0 0 59 -2 180 0c0 0 -3 -100 4 -521c60 -2 104 -3 127 -3c18 117 46 308 79 551c145 6 256 4 256 4s46 -336 112 -717c0 0 -74 2 -191 -1c0 0 -2 33 -8 112c-19 1 -49 1 -84 1l-6 -84s-49 2 -140 2c-1 -19 0 -33 0 -33c-82 3 -323 4 -323 4z
M536 559c-6 -54 -18 -163 -30 -307c39 -1 61 0 61 0c-17 197 -31 307 -31 307zM410 769c0 0 1 31 -2 111c0 0 64 -1 260 2c0 0 -2 -29 -2 -111c0 0 -68 1 -256 -2z" />
    <glyph glyph-name="L_Aogonek" horiz-adv-x="778" 
d="M678 -208c-100 -10 -159 28 -159 107c0 40 21 77 67 105l-7 101c-19 1 -49 1 -84 1l-6 -84s-49 2 -140 2c-1 -19 0 -33 0 -33c-82 3 -323 4 -323 4s0 276 -6 685c0 0 59 -2 180 0c0 0 -3 -100 4 -521c60 -2 104 -3 127 -3c18 117 46 308 79 551c145 6 256 4 256 4
s46 -336 112 -717c0 0 -48 2 -126 1c-23 -18 -35 -38 -35 -55c0 -27 19 -43 69 -42c0 0 -5 -29 -8 -106zM536 559c-6 -54 -18 -163 -30 -307c39 -1 61 0 61 0c-17 197 -31 307 -31 307z" />
    <glyph glyph-name="L_Aring" horiz-adv-x="778" 
d="M26 -5c0 0 0 276 -6 685c0 0 59 -2 180 0c0 0 -3 -100 4 -521c60 -2 104 -3 127 -3c18 117 46 308 79 551c145 6 256 4 256 4s46 -336 112 -717c0 0 -74 2 -191 -1c0 0 -2 33 -8 112c-19 1 -49 1 -84 1l-6 -84s-49 2 -140 2c-1 -19 0 -33 0 -33c-82 3 -323 4 -323 4z
M536 559c-6 -54 -18 -163 -30 -307c39 -1 61 0 61 0c-17 197 -31 307 -31 307zM537 744c-70 0 -105 46 -105 103c0 62 45 99 106 99c69 0 107 -46 107 -99c0 -76 -53 -103 -108 -103zM539 804c23 0 33 18 33 43c0 22 -12 43 -33 43c-23 0 -33 -21 -33 -44
c0 -24 13 -42 33 -42z" />
    <glyph glyph-name="L_Atilde" horiz-adv-x="778" 
d="M26 -5c0 0 0 276 -6 685c0 0 59 -2 180 0c0 0 -3 -100 4 -521c60 -2 104 -3 127 -3c18 117 46 308 79 551c145 6 256 4 256 4s46 -336 112 -717c0 0 -74 2 -191 -1c0 0 -2 33 -8 112c-19 1 -49 1 -84 1l-6 -84s-49 2 -140 2c-1 -19 0 -33 0 -33c-82 3 -323 4 -323 4z
M536 559c-6 -54 -18 -163 -30 -307c39 -1 61 0 61 0c-17 197 -31 307 -31 307zM471 751c0 0 -26 0 -93 -4c-5 90 26 159 98 159c52 0 70 -49 106 -49c19 0 31 9 27 44c0 0 25 0 85 6c16 -102 -19 -159 -83 -159c-63 0 -77 43 -114 43c-19 0 -29 -16 -26 -40z" />
    <glyph glyph-name="T_h" horiz-adv-x="801" 
d="M557 698c0 0 -3 -118 -3 -260c25 42 62 69 116 69c72 0 109 -63 112 -155c5 -160 3 -371 3 -371s-61 2 -177 2c0 0 2 174 0 332c0 25 -7 33 -21 33c-15 0 -22 -7 -22 -33c-2 -149 -1 -294 -1 -294s-55 1 -178 -1c0 0 7 144 3 511c0 0 -34 0 -99 -1c0 -112 1 -271 4 -535
c0 0 -59 2 -180 -1c0 0 2 206 -1 531l-107 -4s2 44 -1 173c0 0 293 -1 552 4z" />
    <glyph glyph-name="Pcircle" unicode="&#x24c5;" horiz-adv-x="560" 
d="M290 707c164 0 260 -103 260 -365c0 -238 -83 -360 -275 -360c-201 0 -265 146 -265 360c0 311 124 365 280 365zM284 659c-135 0 -223 -51 -223 -315c0 -194 53 -312 216 -312c161 0 222 108 222 313c0 207 -55 314 -215 314zM139 103c0 0 5 161 4 486c40 6 75 9 106 9
c155 0 207 -70 207 -205c0 -128 -62 -189 -180 -190l3 -100s-57 2 -140 0zM274 481c0 0 -2 -56 0 -180c35 4 48 21 48 87c0 73 -11 97 -48 93z" />
    <glyph glyph-name="Pcircle" unicode="&#x24df;" horiz-adv-x="560" 
d="M290 707c164 0 260 -103 260 -365c0 -238 -83 -360 -275 -360c-201 0 -265 146 -265 360c0 311 124 365 280 365zM284 659c-135 0 -223 -51 -223 -315c0 -194 53 -312 216 -312c161 0 222 108 222 313c0 207 -55 314 -215 314zM139 103c0 0 5 161 4 486c40 6 75 9 106 9
c155 0 207 -70 207 -205c0 -128 -62 -189 -180 -190l3 -100s-57 2 -140 0zM274 481c0 0 -2 -56 0 -180c35 4 48 21 48 87c0 73 -11 97 -48 93z" />
    <glyph glyph-name="servicemark" unicode="&#x2120;" horiz-adv-x="587" 
d="M240 382c0 0 8 118 12 292c0 0 71 -1 135 2c0 0 8 -75 20 -161c5 49 10 113 16 184c0 0 71 -5 136 -5c0 0 4 -124 18 -324c0 0 -42 0 -99 -4c0 0 0 107 -6 257c-6 -49 -14 -128 -20 -209c0 0 -48 0 -87 2c0 0 -7 76 -27 202c0 -29 -1 -127 4 -240c0 0 -40 4 -102 4z
M122 360c-82 0 -119 40 -114 126c0 0 31 -2 91 -2c-3 -45 5 -56 19 -56c11 0 17 9 17 28c0 17 -6 29 -53 50c-48 21 -68 55 -68 103c0 66 39 96 110 96c84 0 112 -52 104 -126c0 0 -36 4 -84 5c7 39 -1 53 -15 53c-8 0 -19 -5 -19 -28c0 -20 11 -35 50 -50
c58 -23 72 -56 72 -97c0 -66 -43 -102 -110 -102z" />
    <glyph glyph-name="zero.numerator" horiz-adv-x="337" 
d="M168 297c-106 0 -158 64 -158 211c0 135 49 205 158 205s159 -59 159 -203c0 -155 -56 -213 -159 -213zM167 382c14 0 28 9 28 131c0 95 -15 115 -28 115c-14 0 -28 -14 -28 -123c0 -103 15 -123 28 -123z" />
    <glyph glyph-name="one.numerator" horiz-adv-x="250" 
d="M89 311c1 130 1 205 0 246c-31 -13 -54 -24 -54 -24c-18 63 -35 113 -35 113c67 30 137 63 137 63c37 -5 79 -8 79 -8c0 -201 4 -389 4 -389c-70 0 -131 -1 -131 -1z" />
    <glyph glyph-name="two.numerator" horiz-adv-x="303" 
d="M286 313c-122 3 -273 3 -273 3c-4 69 -5 120 -5 120c85 30 166 86 166 153c0 28 -9 37 -21 37c-19 0 -29 -21 -23 -88c0 0 -54 0 -123 -2c-14 118 43 180 148 180c85 0 143 -45 143 -121c0 -77 -63 -142 -147 -181c79 3 136 8 136 8c0 -80 -1 -109 -1 -109z" />
    <glyph glyph-name="three.numerator" horiz-adv-x="324" 
d="M163 299c-120 0 -166 57 -157 160c0 0 53 -4 122 -8c-3 -40 9 -62 30 -62c14 0 28 9 28 36c0 17 -6 30 -17 36c-12 7 -40 10 -67 8c0 0 -1 27 -4 80c28 -3 56 1 68 8c10 6 17 15 17 35c0 28 -16 34 -27 34c-16 0 -32 -11 -27 -57c-60 -4 -123 -6 -123 -6
c-12 116 67 158 159 158c82 0 143 -45 143 -117c0 -45 -22 -75 -58 -87c41 -14 64 -51 64 -93c0 -82 -70 -125 -151 -125z" />
    <glyph glyph-name="four.numerator" horiz-adv-x="332" 
d="M177 313c0 24 0 46 1 68c-53 0 -114 -1 -170 -2c0 0 0 19 -3 98c71 160 102 236 102 236c120 -6 189 -5 189 -5c-1 -102 -1 -172 -1 -235c0 0 17 1 27 1c0 0 -1 -24 -1 -92h-25c0 -45 1 -69 1 -69c-83 -3 -120 0 -120 0zM179 636c-31 -75 -54 -138 -64 -163
c0 0 25 -1 64 0v163z" />
    <glyph glyph-name="five.numerator" horiz-adv-x="331" 
d="M167 302c-116 0 -157 56 -152 148c57 -5 123 -6 123 -6c0 -43 11 -61 30 -61c16 0 26 15 26 58c0 53 -8 71 -28 71s-27 -22 -28 -50c0 0 -53 6 -123 10c0 0 4 107 6 234c0 0 147 1 285 4c0 0 -1 -20 -1 -98c0 0 -79 1 -167 -1c0 0 -1 -32 -1 -60c18 24 47 37 75 37
c76 0 109 -67 109 -138c0 -103 -66 -148 -154 -148z" />
    <glyph glyph-name="six.numerator" horiz-adv-x="334" 
d="M170 300c-106 0 -160 72 -160 206c0 126 45 212 161 212c100 0 149 -51 149 -136c-68 3 -122 3 -122 3c-1 27 -10 44 -24 44c-15 0 -31 -9 -34 -94c20 19 48 31 85 31c63 0 99 -48 99 -119c0 -104 -72 -147 -154 -147zM170 489c-11 0 -22 -5 -30 -11c3 -71 17 -91 36 -91
c13 0 25 12 25 55c0 31 -13 47 -31 47z" />
    <glyph glyph-name="seven.numerator" horiz-adv-x="270" 
d="M50 304c-6 130 30 230 81 289c-70 -1 -126 -3 -126 -3c2 62 2 118 2 118c180 1 257 4 257 4c-1 -88 1 -117 1 -117c-57 -71 -89 -159 -84 -295c-79 4 -131 4 -131 4z" />
    <glyph glyph-name="eight.numerator" horiz-adv-x="344" 
d="M176 300c-104 0 -166 44 -166 117c0 38 20 76 64 90c-38 21 -57 54 -57 98c0 71 63 116 158 116c100 0 156 -44 156 -116c0 -44 -23 -76 -61 -94c39 -16 64 -46 64 -92c0 -84 -73 -119 -158 -119zM176 542c15 10 27 31 27 52c0 25 -12 40 -31 40c-17 0 -31 -12 -31 -36
s13 -46 35 -56zM171 385c22 0 32 13 32 36c0 24 -14 39 -34 49c-19 -12 -31 -26 -31 -47c0 -27 15 -38 33 -38z" />
    <glyph glyph-name="nine.numerator" horiz-adv-x="331" 
d="M161 301c-98 0 -154 57 -147 150c75 -8 121 -9 121 -9c-2 -37 10 -54 28 -54c21 0 28 15 29 91c-18 -14 -46 -19 -65 -19c-84 0 -117 54 -117 127c0 78 51 131 150 131c118 0 161 -65 161 -213c0 -161 -66 -204 -160 -204zM170 522c7 0 15 1 22 4c-1 86 -9 112 -28 112
c-20 0 -30 -18 -30 -54c0 -41 15 -62 36 -62z" />
    <glyph glyph-name="zero.denominator" horiz-adv-x="337" 
d="M168 -19c-106 0 -158 64 -158 211c0 135 49 205 158 205s159 -59 159 -203c0 -155 -56 -213 -159 -213zM167 66c14 0 28 9 28 131c0 95 -15 115 -28 115c-14 0 -28 -14 -28 -123c0 -103 15 -123 28 -123z" />
    <glyph glyph-name="one.denominator" horiz-adv-x="250" 
d="M89 -5c1 130 1 205 0 246c-31 -13 -54 -24 -54 -24c-18 63 -35 113 -35 113c67 30 137 63 137 63c37 -5 79 -8 79 -8c0 -201 4 -389 4 -389c-70 0 -131 -1 -131 -1z" />
    <glyph glyph-name="two.denominator" horiz-adv-x="303" 
d="M286 -3c-122 3 -273 3 -273 3c-4 69 -5 120 -5 120c85 30 166 86 166 153c0 28 -9 37 -21 37c-19 0 -29 -21 -23 -88c0 0 -54 0 -123 -2c-14 118 43 180 148 180c85 0 143 -45 143 -121c0 -77 -63 -142 -147 -181c79 3 136 8 136 8c0 -80 -1 -109 -1 -109z" />
    <glyph glyph-name="three.denominator" horiz-adv-x="324" 
d="M163 -17c-120 0 -166 57 -157 160c0 0 53 -4 122 -8c-3 -40 9 -62 30 -62c14 0 28 9 28 36c0 17 -6 30 -17 36c-12 7 -40 10 -67 8c0 0 -1 27 -4 80c28 -3 56 1 68 8c10 6 17 15 17 35c0 28 -16 34 -27 34c-16 0 -32 -11 -27 -57c-60 -4 -123 -6 -123 -6
c-12 116 67 158 159 158c82 0 143 -45 143 -117c0 -45 -22 -75 -58 -87c41 -14 64 -51 64 -93c0 -82 -70 -125 -151 -125z" />
    <glyph glyph-name="four.denominator" horiz-adv-x="332" 
d="M177 -3c0 24 0 46 1 68c-53 0 -114 -1 -170 -2c0 0 0 19 -3 98c71 160 102 236 102 236c120 -6 189 -5 189 -5c-1 -102 -1 -172 -1 -235c0 0 17 1 27 1c0 0 -1 -24 -1 -92h-25c0 -45 1 -69 1 -69c-83 -3 -120 0 -120 0zM179 320c-31 -75 -54 -138 -64 -163
c0 0 25 -1 64 0v163z" />
    <glyph glyph-name="five.denominator" horiz-adv-x="331" 
d="M167 -14c-116 0 -157 56 -152 148c57 -5 123 -6 123 -6c0 -43 11 -61 30 -61c16 0 26 15 26 58c0 53 -8 71 -28 71s-27 -22 -28 -50c0 0 -53 6 -123 10c0 0 4 107 6 234c0 0 147 1 285 4c0 0 -1 -20 -1 -98c0 0 -79 1 -167 -1c0 0 -1 -32 -1 -60c18 24 47 37 75 37
c76 0 109 -67 109 -138c0 -103 -66 -148 -154 -148z" />
    <glyph glyph-name="six.denominator" horiz-adv-x="334" 
d="M170 -16c-106 0 -160 72 -160 206c0 126 45 212 161 212c100 0 149 -51 149 -136c-68 3 -122 3 -122 3c-1 27 -10 44 -24 44c-15 0 -31 -9 -34 -94c20 19 48 31 85 31c63 0 99 -48 99 -119c0 -104 -72 -147 -154 -147zM170 173c-11 0 -22 -5 -30 -11c3 -71 17 -91 36 -91
c13 0 25 12 25 55c0 31 -13 47 -31 47z" />
    <glyph glyph-name="seven.denominator" horiz-adv-x="270" 
d="M50 -12c-6 130 30 230 81 289c-70 -1 -126 -3 -126 -3c2 62 2 118 2 118c180 1 257 4 257 4c-1 -88 1 -117 1 -117c-57 -71 -89 -159 -84 -295c-79 4 -131 4 -131 4z" />
    <glyph glyph-name="eight.denominator" horiz-adv-x="344" 
d="M176 -16c-104 0 -166 44 -166 117c0 38 20 76 64 90c-38 21 -57 54 -57 98c0 71 63 116 158 116c100 0 156 -44 156 -116c0 -44 -23 -76 -61 -94c39 -16 64 -46 64 -92c0 -84 -73 -119 -158 -119zM176 226c15 10 27 31 27 52c0 25 -12 40 -31 40c-17 0 -31 -12 -31 -36
s13 -46 35 -56zM171 69c22 0 32 13 32 36c0 24 -14 39 -34 49c-19 -12 -31 -26 -31 -47c0 -27 15 -38 33 -38z" />
    <glyph glyph-name="nine.denominator" horiz-adv-x="331" 
d="M161 -15c-98 0 -154 57 -147 150c75 -8 121 -9 121 -9c-2 -37 10 -54 28 -54c21 0 28 15 29 91c-18 -14 -46 -19 -65 -19c-84 0 -117 54 -117 127c0 78 51 131 150 131c118 0 161 -65 161 -213c0 -161 -66 -204 -160 -204zM170 206c7 0 15 1 22 4c-1 86 -9 112 -28 112
c-20 0 -30 -18 -30 -54c0 -41 15 -62 36 -62z" />
    <glyph glyph-name="dollar.titling" horiz-adv-x="368" 
d="M255 149c-99 3 -134 2 -134 2c2 28 4 50 4 64c-78 17 -117 69 -114 165c0 0 48 -4 148 -8c-8 -46 5 -63 28 -63c17 0 27 11 27 31c0 23 -11 38 -70 55c-101 28 -129 72 -129 142c0 68 40 112 113 125c-2 46 -4 71 -4 71c94 0 131 2 131 2c-3 -31 -5 -57 -6 -77
c72 -18 106 -69 103 -161c0 0 -51 4 -143 6c5 42 -8 63 -26 63c-16 0 -24 -13 -24 -32c0 -24 15 -42 63 -53c108 -24 136 -62 136 -130c0 -82 -43 -120 -106 -134c0 -41 3 -68 3 -68z" />
    <glyph glyph-name="cent.titling" horiz-adv-x="374" 
d="M125 146c2 30 4 54 4 68c-73 22 -119 91 -119 224c0 124 38 202 123 222c-2 41 -4 75 -4 75c90 0 131 2 131 2c-3 -32 -4 -61 -5 -81c81 -24 115 -92 108 -190c-106 4 -149 2 -149 2c2 60 -5 97 -25 97c-22 0 -24 -37 -24 -117c0 -119 7 -140 28 -140c16 0 27 25 22 99
c0 0 53 -2 148 2c6 -117 -35 -176 -108 -195c2 -42 5 -68 5 -68c-89 2 -135 0 -135 0z" />
    <glyph glyph-name="Euro.titling" horiz-adv-x="407" 
d="M6 446c0 0 2 19 0 62h39c14 126 71 192 187 192c121 0 169 -76 167 -165c-90 2 -151 1 -151 1c-1 41 -8 54 -23 54s-24 -11 -27 -79l156 3s-1 -15 -1 -63c0 0 -38 0 -156 -2v-26l158 3s-2 -15 0 -62c0 0 -36 0 -157 -2c4 -62 12 -71 27 -71c14 0 23 16 22 50
c91 -3 153 -2 153 -2c-6 -102 -80 -158 -177 -157c-107 0 -162 56 -177 178l-41 -1s2 13 1 63h36v25z" />
    <glyph glyph-name="sterling.titling" horiz-adv-x="386" 
d="M16 357c2 75 -1 108 -1 108c12 0 34 -1 34 -1c-10 27 -20 52 -20 85c0 89 51 151 177 151c145 0 182 -94 166 -205c0 0 -56 2 -148 2c8 71 -3 100 -22 100c-15 0 -24 -13 -24 -49c0 -33 9 -59 17 -84c83 1 131 2 131 2c0 -81 3 -108 3 -108h-127c-5 -15 -13 -29 -23 -40
c46 -1 118 -2 192 -1c0 0 -3 -29 -2 -123c0 0 -117 3 -353 3c0 0 3 41 2 101c22 18 38 38 45 60c-30 -1 -47 -1 -47 -1z" />
    <glyph glyph-name="yen.titling" horiz-adv-x="386" 
d="M33 341c0 0 1 16 -2 77c0 0 18 -1 67 0c-14 44 -43 131 -93 264c0 0 29 0 155 5c0 0 7 -52 37 -201c0 0 20 100 38 215c0 0 41 -3 146 -2c0 0 -33 -92 -87 -277l61 2s-2 -17 0 -77c0 0 -27 0 -92 -1c-1 -17 0 -28 0 -28c28 0 58 1 94 2c0 0 -1 -11 1 -73
c0 0 -28 0 -94 -1l3 -56s-27 2 -139 -1c0 0 1 28 1 55c-30 0 -62 -1 -99 -2c0 0 2 16 1 74c0 0 28 -1 97 0c0 9 -1 27 -1 27c-29 0 -58 -1 -94 -2z" />
    <glyph glyph-name="zero.titling" horiz-adv-x="379" 
d="M188 186c-121 0 -178 83 -178 260c0 172 56 254 178 254c125 0 181 -75 181 -251c0 -185 -59 -263 -181 -263zM187 288c17 0 29 14 29 164c0 117 -13 145 -29 145c-17 0 -28 -20 -28 -154c0 -128 12 -155 28 -155z" />
    <glyph glyph-name="one.titling" horiz-adv-x="286" 
d="M101 204c2 176 2 267 1 312c-38 -16 -63 -28 -63 -28c-21 77 -39 132 -39 132c83 37 161 74 161 74c46 -5 84 -10 84 -10c0 -248 5 -479 5 -479c-85 -1 -149 -1 -149 -1z" />
    <glyph glyph-name="two.titling" horiz-adv-x="344" 
d="M325 206c-151 4 -310 4 -310 4c-5 84 -6 146 -6 146c97 40 188 110 188 192c0 33 -10 46 -23 46c-22 0 -33 -26 -26 -111c0 0 -53 0 -139 -3c-17 148 45 223 168 223c101 0 162 -56 162 -151c0 -92 -69 -175 -167 -222c96 1 153 6 153 6v-130z" />
    <glyph glyph-name="three.titling" horiz-adv-x="362" 
d="M183 189c-142 0 -189 75 -176 196c0 0 54 -4 140 -9c-5 -55 7 -79 30 -79c16 0 30 11 30 47c0 23 -7 38 -18 46c-13 8 -41 12 -74 9c0 0 -1 32 -5 98c34 -3 63 2 76 11c10 7 18 19 18 44c0 34 -14 46 -28 46c-20 0 -34 -19 -28 -77c-74 -4 -140 -7 -140 -7
c-16 143 66 195 179 195c97 0 160 -60 160 -145c0 -53 -25 -89 -67 -106c46 -17 75 -61 75 -116c0 -102 -81 -153 -172 -153z" />
    <glyph glyph-name="four.titling" horiz-adv-x="373" 
d="M195 206c0 29 0 56 1 83c-57 0 -123 -1 -187 -2c0 0 -1 24 -4 121c83 201 118 292 118 292c148 -6 209 -7 209 -7c-1 -126 -1 -213 -1 -290c0 0 21 1 33 1c0 0 -1 -29 -1 -114c0 0 -11 1 -31 0c0 -54 1 -84 1 -84c-102 -4 -138 0 -138 0zM197 591
c-31 -85 -55 -158 -65 -188h65v188z" />
    <glyph glyph-name="five.titling" horiz-adv-x="368" 
d="M186 193c-136 0 -180 71 -172 182c71 -6 141 -7 141 -7c0 -55 10 -76 31 -76c17 0 27 19 27 71c0 64 -9 88 -29 88s-28 -24 -29 -61c0 0 -63 6 -141 12c0 0 5 132 7 288c0 0 149 1 320 6c0 0 -2 -23 -2 -119c0 0 -79 1 -185 -1v-75c21 29 53 44 87 44
c87 0 118 -82 118 -170c0 -123 -68 -182 -173 -182z" />
    <glyph glyph-name="six.titling" horiz-adv-x="371" 
d="M190 191c-124 0 -180 88 -180 253c0 149 43 262 183 262c117 0 167 -67 164 -168c-83 4 -139 3 -139 3c0 37 -9 59 -24 59c-18 0 -32 -14 -34 -122c22 24 53 40 92 40c75 0 110 -61 110 -147c0 -129 -79 -180 -172 -180zM189 422c-11 0 -20 -5 -29 -10
c3 -90 14 -115 35 -115c14 0 26 16 26 68c0 38 -12 57 -32 57z" />
    <glyph glyph-name="seven.titling" horiz-adv-x="304" 
d="M58 194c-8 167 34 294 96 365c-87 -1 -149 -3 -149 -3c3 76 3 137 3 137c222 2 290 5 290 5c-1 -108 1 -144 1 -144c-67 -88 -99 -197 -93 -364c-96 4 -148 4 -148 4z" />
    <glyph glyph-name="eight.titling" horiz-adv-x="381" 
d="M195 190c-128 0 -188 58 -188 144c0 50 25 91 74 109c-41 26 -65 69 -65 123c0 88 70 143 178 143c114 0 176 -55 176 -143c0 -55 -28 -93 -72 -117c47 -20 76 -57 76 -113c0 -106 -81 -146 -179 -146zM195 491c16 12 28 38 28 64c0 32 -12 50 -33 50
c-19 0 -32 -17 -32 -45c0 -29 13 -56 37 -69zM189 291c23 0 34 15 34 44c0 28 -15 50 -36 61c-21 -13 -33 -34 -33 -58c0 -32 15 -47 35 -47z" />
    <glyph glyph-name="nine.titling" horiz-adv-x="369" 
d="M177 191c-117 0 -174 74 -163 185c92 -10 139 -12 139 -12c-4 -47 8 -68 28 -68c22 0 29 20 30 115c-19 -17 -46 -24 -68 -24c-97 0 -135 65 -135 157c0 97 59 162 171 162c128 0 180 -76 180 -263c0 -194 -71 -252 -182 -252zM189 464c7 0 15 2 22 5
c-1 112 -9 140 -29 140s-31 -23 -31 -69c0 -52 15 -76 38 -76z" />
    <glyph glyph-name="questiondown.cap" horiz-adv-x="439" 
d="M208 -22c-138 0 -203 87 -203 194c0 130 62 196 159 223c0 35 -1 55 -1 55c106 -3 179 2 179 2c0 -97 3 -164 3 -164c-113 2 -146 -21 -146 -96c0 -46 7 -72 25 -72c28 0 29 41 27 111c0 0 75 3 180 6c20 -182 -56 -259 -223 -259zM254 480c-75 0 -112 44 -112 112
c0 63 42 107 109 107c79 0 116 -49 116 -111c0 -68 -49 -108 -113 -108z" />
    <glyph glyph-name="exclamdown.cap" horiz-adv-x="234" 
d="M21 -11c0 0 10 164 20 459c0 0 62 -3 151 -1c0 0 9 -213 25 -458c0 0 -78 2 -196 0zM116 480c-77 0 -111 54 -111 110c0 65 45 108 109 108c71 0 115 -42 115 -111c0 -61 -40 -107 -113 -107z" />
    <glyph glyph-name="parenleft.cap" horiz-adv-x="288" 
d="M131 -54c-84 130 -116 270 -116 392c0 155 37 298 126 409c97 -31 147 -45 147 -45c-56 -104 -87 -215 -87 -362c0 -104 31 -224 87 -352c-98 -23 -157 -42 -157 -42z" />
    <glyph glyph-name="parenright.cap" horiz-adv-x="288" 
d="M159 -63c0 0 -61 20 -159 43c53 127 87 259 87 363c0 147 -31 265 -87 369c0 0 53 15 150 46c83 -108 123 -257 123 -410c0 -122 -32 -271 -114 -411z" />
    <glyph glyph-name="bracketleft.cap" horiz-adv-x="284" 
d="M269 -48c0 0 -99 4 -235 3c0 0 2 186 -4 777c0 0 58 -1 235 2c0 0 -1 -55 3 -150c0 0 -21 0 -58 -3c0 0 -4 -204 0 -467c0 0 22 -2 64 -2c0 0 -3 -48 -5 -160z" />
    <glyph glyph-name="bracketright.cap" horiz-adv-x="284" 
d="M15 -44c-2 112 -5 161 -5 161c42 0 64 2 64 2c4 263 1 475 1 475c-37 1 -59 0 -59 0c2 92 1 150 1 150c177 -3 237 -2 237 -2c-9 -589 -6 -782 -6 -782c-83 1 -233 -4 -233 -4z" />
    <glyph glyph-name="braceleft.cap" horiz-adv-x="323" 
d="M309 -40c-40 -10 -74 -14 -104 -14c-100 0 -135 50 -135 155c0 32 3 64 3 91c0 64 -17 83 -68 83c0 0 3 54 2 156c50 -3 66 21 66 74c-1 31 -6 68 -6 104c0 85 39 133 149 133c28 0 60 -4 93 -12c-1 -118 4 -148 4 -148c-57 5 -71 -3 -71 -44c0 -24 7 -59 7 -89
c0 -48 -23 -75 -69 -97c50 -22 67 -52 67 -109c0 -27 -4 -55 -4 -79c0 -49 12 -60 70 -56c-6 -103 -4 -148 -4 -148z" />
    <glyph glyph-name="braceright.cap" horiz-adv-x="323" 
d="M14 -46c0 0 2 41 -4 144c51 -5 72 5 72 48c0 28 -7 66 -7 102c0 59 23 95 77 112c-48 15 -77 39 -77 96c0 31 8 61 8 86c0 40 -18 47 -73 44c0 0 5 33 4 151c30 7 59 10 85 10c117 0 157 -48 157 -129c0 -38 -8 -77 -8 -110c0 -53 16 -70 68 -70c-1 -102 2 -152 2 -152
c-55 3 -72 -18 -72 -76l7 -125c0 -92 -36 -147 -141 -145c-28 0 -61 5 -98 14z" />
    <glyph glyph-name="slash.cap" horiz-adv-x="352" 
d="M-5 -50c123 449 209 787 209 787c114 -2 153 0 153 0c-168 -617 -208 -787 -208 -787c-105 2 -154 0 -154 0z" />
    <glyph glyph-name="backslash.cap" horiz-adv-x="352" 
d="M357 -50c0 0 -49 2 -154 0c0 0 -40 170 -208 787c0 0 39 -2 153 0c0 0 86 -338 209 -787z" />
    <glyph glyph-name="bar.cap" horiz-adv-x="221" 
d="M33 -49c0 0 2 366 -3 786c0 0 58 -4 161 -3c0 0 -5 -284 -3 -781c0 0 -46 3 -155 -2z" />
    <glyph glyph-name="at.cap" horiz-adv-x="659" 
d="M424 -13c-263 -51 -414 60 -414 356c0 236 128 367 321 367c221 0 318 -142 318 -362c0 -189 -50 -246 -130 -246c-48 0 -79 22 -93 71c-27 -51 -79 -68 -127 -68c-96 0 -144 63 -144 141c0 87 60 134 197 136v13c0 39 -7 71 -24 71c-14 0 -23 -15 -20 -67
c0 0 -53 -1 -141 -6c-12 109 48 193 171 193c111 0 163 -84 168 -180c3 -53 1 -116 0 -152c0 -36 7 -56 21 -56c16 0 28 24 28 148c0 189 -63 285 -223 285c-145 0 -229 -106 -229 -287c0 -224 81 -317 307 -275c0 0 5 -35 14 -82zM360 285v30c-48 -7 -65 -31 -65 -63
c0 -20 10 -35 30 -35c19 0 32 12 35 68z" />
    <glyph glyph-name="A.alt" horiz-adv-x="466" 
d="M0 2c0 0 45 259 104 685c145 6 254 4 254 4s42 -303 108 -684c0 0 -71 2 -188 -1c0 0 -1 26 -5 84c-22 0 -51 1 -87 1l-6 -91s-56 3 -180 2zM230 541c-6 -54 -19 -163 -32 -308c0 0 26 -1 62 0c-7 77 -16 174 -30 308z" />
    <glyph glyph-name="B.alt" horiz-adv-x="458" 
d="M29 -5c0 0 -2 325 -9 691c62 9 115 13 162 14c192 2 263 -64 263 -184c0 -74 -43 -127 -104 -155c82 -27 117 -91 117 -171c0 -139 -103 -199 -317 -199c-34 0 -72 1 -112 4zM206 119c52 -1 73 23 73 85c0 54 -22 80 -77 80c1 -115 4 -165 4 -165zM202 560
c-2 -95 0 -153 0 -153c47 -1 73 21 73 80c0 57 -19 75 -73 73z" />
    <glyph glyph-name="C.alt" horiz-adv-x="469" 
d="M239 -11c-133 0 -229 75 -229 359c0 238 67 360 239 360c153 0 218 -114 213 -282c-116 0 -193 -3 -193 -3c1 117 -11 135 -29 135c-25 0 -34 -53 -32 -211c0 -166 10 -204 31 -204c22 0 31 19 29 134c102 2 196 9 196 9c2 -205 -67 -298 -225 -297z" />
    <glyph glyph-name="D.alt" horiz-adv-x="466" 
d="M204 133c37 0 57 13 57 209c0 160 -20 198 -63 197c1 -212 6 -406 6 -406zM20 1c2 339 1 677 1 677c48 7 91 10 130 10c229 0 305 -116 305 -355c0 -246 -102 -340 -316 -340c-37 0 -77 3 -120 8z" />
    <glyph glyph-name="E.alt" horiz-adv-x="353" 
d="M28 13c0 0 -2 269 -8 672c0 0 84 0 321 6c0 0 -1 -73 2 -177c0 0 -80 -2 -144 -6c0 0 -1 -36 0 -95c7 0 40 -1 119 1c0 0 -1 -66 1 -164c0 0 -49 2 -116 1c0 0 0 -33 3 -77c0 0 52 0 135 2c0 0 -2 -56 -2 -167c0 0 -142 2 -311 4z" />
    <glyph glyph-name="F.alt" horiz-adv-x="356" 
d="M28 11c0 0 0 268 -8 672c0 0 129 0 326 4c0 0 -2 -60 -2 -179c0 0 -40 2 -143 -1c0 0 0 -51 1 -142c12 0 55 -1 131 2c0 0 -1 -67 1 -170c0 0 -38 2 -130 0c1 -55 2 -117 4 -185c-108 1 -180 -1 -180 -1z" />
    <glyph glyph-name="G.alt" horiz-adv-x="470" 
d="M238 -13c-136 0 -228 74 -228 355c0 231 65 357 234 357c153 0 213 -112 210 -263c0 0 -88 -3 -184 -9c2 91 -8 124 -32 124c-26 0 -36 -41 -35 -211c1 -188 14 -219 42 -219c19 0 32 25 31 119c0 0 -20 0 -44 -3c0 0 1 50 -1 143c0 0 128 0 230 3
c10 -307 -65 -396 -223 -396z" />
    <glyph glyph-name="H.alt" horiz-adv-x="454" 
d="M252 6v183c-13 0 -29 0 -50 -1l3 -195s-76 3 -181 -1c0 0 1 318 -4 709c0 0 42 -1 178 1c0 0 1 -152 3 -361c8 -1 24 -1 50 -1c0 99 -2 216 -3 351c0 0 65 -1 183 1c0 0 0 -278 3 -687c0 0 -70 4 -182 1z" />
    <glyph glyph-name="I.alt" horiz-adv-x="236" 
d="M29 15c0 0 1 264 -4 653c0 0 62 0 181 1c0 0 2 -293 5 -654c0 0 -60 1 -182 0z" />
    <glyph glyph-name="J.alt" horiz-adv-x="419" 
d="M202 0c-130 0 -197 77 -197 233c0 36 5 84 12 122c0 0 51 -4 160 -8c-4 -27 -6 -57 -6 -81c0 -85 10 -104 27 -104c21 0 32 17 32 235c0 99 -4 159 -18 280c0 0 65 6 176 14c14 -112 21 -197 21 -304c0 -300 -73 -387 -207 -387z" />
    <glyph glyph-name="K.alt" horiz-adv-x="466" 
d="M278 -17c-14 96 -24 163 -32 210c-21 -58 -35 -98 -43 -122c1 -44 2 -66 2 -66c-133 2 -185 -1 -185 -1c3 380 0 660 0 660c124 -2 184 -1 184 -1c-2 -128 -3 -234 -3 -325c60 254 80 356 80 356c122 -6 185 -6 185 -6c-40 -136 -70 -241 -90 -311
c51 -229 89 -373 89 -373c-111 -8 -187 -21 -187 -21z" />
    <glyph glyph-name="L.alt" horiz-adv-x="340" 
d="M26 16c0 0 0 254 -6 663c0 0 59 -2 180 0c0 0 -3 -82 4 -503c81 -3 136 -2 136 -2c-2 -99 -1 -165 -1 -165c-177 6 -313 7 -313 7z" />
    <glyph glyph-name="M.alt" horiz-adv-x="685" 
d="M10 6c0 0 17 321 26 702c0 0 115 -2 252 3c0 0 22 -181 49 -375c14 101 32 232 48 367c0 0 135 -5 261 -9c0 0 5 -255 29 -691c0 0 -96 -5 -186 -8c0 0 1 193 -7 490c-17 -110 -38 -259 -52 -389c0 0 -93 1 -178 5c0 0 -18 158 -56 401c0 -129 0 -318 4 -500
c0 0 -114 3 -190 4z" />
    <glyph glyph-name="N.alt" horiz-adv-x="488" 
d="M23 -10c0 0 4 295 -3 699c0 0 69 -3 173 0c0 0 41 -125 119 -333c-4 73 -12 179 -25 347c0 0 62 -4 163 -3c0 0 5 -241 18 -687c0 0 -55 -1 -166 -12c0 0 -51 148 -126 349c2 -82 6 -206 16 -363c0 0 -66 3 -169 3z" />
    <glyph glyph-name="O.alt" horiz-adv-x="476" 
d="M238 702c169 0 227 -122 228 -345c0 -263 -78 -363 -227 -363c-176 0 -229 120 -229 362c2 242 64 346 228 346zM236 560c-20 0 -29 -26 -29 -217c0 -192 11 -211 31 -211c22 0 31 13 31 218c0 186 -10 210 -33 210z" />
    <glyph glyph-name="P.alt" horiz-adv-x="450" 
d="M20 -11c0 0 5 263 4 683c40 4 76 6 109 6c224 0 312 -85 312 -263c0 -169 -95 -255 -245 -256c1 -52 3 -107 5 -169c0 0 -78 2 -185 -1zM198 522c0 0 -2 -77 0 -227c41 5 63 27 63 114c0 75 -18 114 -63 113z" />
    <glyph glyph-name="Q.alt" horiz-adv-x="474" 
d="M287 -144c-17 58 -33 109 -42 134h-14c-137 0 -221 102 -221 334c0 256 63 368 220 368c172 0 234 -87 234 -379c0 -136 -31 -221 -83 -270c38 -69 66 -112 66 -112c-122 -53 -160 -75 -160 -75zM236 553c-21 0 -29 -22 -29 -232c0 -176 12 -198 30 -198
c22 0 30 13 30 195c0 217 -10 235 -31 235z" />
    <glyph glyph-name="R.alt" 
d="M290 -29c0 0 -31 110 -76 262c0 0 -9 -1 -13 -1c0 -45 2 -125 4 -234c0 0 -78 1 -185 -1c0 0 5 266 4 687c55 8 103 13 146 13c209 0 282 -89 282 -238c0 -79 -28 -138 -86 -177c14 -35 51 -135 108 -290c0 0 -82 -6 -184 -21zM201 347c44 1 62 36 62 104
c0 62 -18 100 -65 96c1 -105 3 -200 3 -200z" />
    <glyph glyph-name="S.alt" horiz-adv-x="442" 
d="M222 -8c-153 0 -228 72 -216 252c0 0 71 -1 186 3c-6 -80 3 -112 29 -112c19 0 27 18 27 61c0 35 -14 59 -94 91c-105 42 -146 103 -146 210c0 124 70 203 218 203c155 0 213 -94 201 -255c0 0 -79 1 -181 -1c11 85 -4 114 -23 114c-18 0 -26 -26 -26 -63
c0 -39 19 -68 89 -95c122 -47 151 -109 151 -202c0 -140 -74 -206 -215 -206z" />
    <glyph glyph-name="T.alt" horiz-adv-x="394" 
d="M6 505c0 0 2 44 -1 173c0 0 125 -1 384 4c0 0 -4 -65 -3 -177c0 0 -37 1 -101 1c0 -106 1 -254 4 -493c0 0 -59 2 -180 -1c0 0 2 179 -1 494c-32 0 -70 0 -102 -1z" />
    <glyph glyph-name="U.alt" 
d="M240 6c-152 0 -230 107 -230 395c0 92 9 200 23 300c0 0 60 -6 181 -14c-11 -95 -19 -202 -19 -278c0 -203 16 -236 41 -236c26 0 36 20 36 193c0 104 -6 199 -16 309c0 0 58 2 175 9c15 -108 23 -213 23 -329c0 -253 -74 -349 -214 -349z" />
    <glyph glyph-name="V.alt" horiz-adv-x="441" 
d="M82 9c-45 423 -82 675 -82 675c100 -2 182 -1 182 -1c12 -266 26 -445 33 -529c31 380 39 544 39 544c117 -4 187 -4 187 -4c-80 -575 -94 -689 -94 -689s-126 -1 -265 4z" />
    <glyph glyph-name="W.alt" horiz-adv-x="690" 
d="M379 7c-12 165 -24 292 -33 383c-41 -290 -55 -401 -55 -401c-181 10 -229 7 -229 7c-30 426 -57 690 -57 690c102 1 195 4 195 4c0 -196 3 -379 5 -500c57 367 65 437 65 437c98 2 157 -3 157 -3c29 -237 51 -376 63 -446c4 386 2 519 2 519c106 -5 193 -5 193 -5
c-39 -461 -56 -678 -56 -678c-186 -11 -250 -7 -250 -7z" />
    <glyph glyph-name="X.alt" horiz-adv-x="504" 
d="M213 -6c-137 8 -213 9 -213 9c47 141 83 258 104 327c-17 71 -47 197 -90 366c0 0 54 0 194 6c0 0 13 -90 43 -267c22 173 30 259 30 259c118 -5 204 -5 204 -5c-39 -158 -64 -270 -80 -342c68 -240 99 -335 99 -335c-159 -10 -213 -17 -213 -17c-11 108 -23 195 -31 253
c-27 -133 -47 -254 -47 -254z" />
    <glyph glyph-name="Y.alt" horiz-adv-x="482" 
d="M157 -25c0 0 3 11 -2 141c0 0 -39 169 -155 570c0 0 33 -1 197 6c0 0 14 -124 51 -330c0 0 26 166 48 327c0 0 50 -4 186 -3c0 0 -61 -226 -146 -566c0 0 -2 -4 3 -144c0 0 -36 3 -182 -1z" />
    <glyph glyph-name="Z.alt" horiz-adv-x="379" 
d="M366 6c-240 8 -356 7 -356 7c3 129 1 182 1 182c87 160 138 257 164 308c-95 -1 -162 -4 -162 -4c1 141 -1 182 -1 182c247 2 353 5 353 5c4 -105 3 -198 3 -198c-84 -160 -134 -259 -160 -311c78 -3 160 -1 160 -1c-4 -138 -2 -170 -2 -170z" />
    <glyph glyph-name="a.alt" horiz-adv-x="423" 
d="M147 -23c-74 0 -142 49 -142 144c0 112 77 170 229 167v14c-1 55 -9 69 -24 69c-17 0 -24 -18 -26 -62c0 0 -64 4 -165 6c9 109 72 178 198 178c129 0 187 -75 190 -203c3 -149 0 -318 0 -318s-39 -1 -131 -2c0 0 3 37 4 81c-23 -51 -72 -74 -133 -74zM208 96
c22 0 34 23 34 103v11c-51 -6 -66 -34 -66 -72c0 -23 12 -42 32 -42z" />
    <glyph glyph-name="b.alt" horiz-adv-x="463" 
d="M22 12c0 0 1 210 -2 692c0 0 54 -2 183 -1c0 0 -7 -120 -9 -271c24 39 60 66 111 66c105 0 148 -96 148 -249s-70 -242 -171 -242c-49 0 -102 22 -123 77c0 -20 1 -43 2 -71c0 0 -48 0 -139 -1zM231 113c17 0 30 28 30 139c0 97 -9 128 -32 128c-21 0 -30 -30 -30 -124
c0 -122 9 -143 32 -143z" />
    <glyph glyph-name="c.alt" horiz-adv-x="439" 
d="M228 -16c-134 0 -218 68 -218 257c0 155 66 253 225 253c127 0 203 -72 199 -209c-128 -3 -179 -6 -179 -6c2 58 -8 92 -28 92s-31 -32 -31 -136c0 -83 11 -117 33 -117c18 0 29 24 25 93c0 0 56 2 180 9c4 -161 -72 -236 -206 -236z" />
    <glyph glyph-name="d.alt" horiz-adv-x="459" 
d="M436 9c0 0 -51 1 -141 1c0 0 1 23 2 64c-24 -52 -65 -80 -116 -80c-102 0 -171 68 -171 262c0 148 56 240 158 240c41 0 74 -24 96 -60c-1 60 -4 156 -11 272c0 0 36 -3 186 1c0 0 -5 -314 -3 -700zM231 113c19 0 28 22 28 133c0 81 -9 123 -31 123
c-17 0 -26 -31 -26 -133c0 -96 13 -123 29 -123z" />
    <glyph glyph-name="e.alt" horiz-adv-x="445" 
d="M225 -13c-134 0 -215 80 -215 258c0 141 64 249 214 249c162 0 221 -105 208 -290c0 0 -89 0 -240 -3c3 -73 13 -92 34 -92c18 0 28 22 30 62c0 0 80 -8 179 -11c-12 -95 -90 -173 -210 -173zM223 385c-20 0 -29 -15 -31 -97c18 0 37 1 58 2c1 74 -7 95 -27 95z" />
    <glyph glyph-name="f.alt" horiz-adv-x="307" 
d="M299 302c0 0 -24 1 -63 1c-1 -149 0 -290 0 -290s-73 0 -172 -1c0 0 -2 125 -3 288l-55 -1s2 42 -1 160c0 0 22 -1 57 -3v16c1 144 48 206 159 206c27 0 57 -3 91 -9c0 0 -6 -33 -10 -147c-52 3 -64 -15 -64 -53v-18c21 -1 41 -1 64 -1c0 0 -4 -52 -3 -148z" />
    <glyph glyph-name="g.alt" horiz-adv-x="415" 
d="M208 -246c-117 0 -201 35 -201 121c0 45 35 79 81 96c-26 20 -38 46 -38 73c0 29 22 67 58 88c-67 28 -103 87 -103 186c0 114 75 192 206 192c4 0 11 -1 11 -1c2 31 5 85 7 162c0 0 48 -12 158 -30c0 0 -25 -52 -68 -155c60 -31 92 -92 92 -168
c0 -134 -77 -205 -190 -205c-13 0 -25 0 -37 1c-8 -5 -12 -11 -12 -17c0 -11 15 -16 72 -21c148 -12 186 -73 186 -147c0 -114 -102 -175 -222 -175zM210 206c13 0 29 8 29 92c0 73 -13 96 -29 96c-17 0 -33 -14 -33 -95s15 -93 33 -93zM269 -104c0 20 -18 35 -73 40
c-21 -14 -29 -28 -29 -43c0 -21 18 -32 46 -32c31 0 56 12 56 35z" />
    <glyph glyph-name="h.alt" horiz-adv-x="434" 
d="M20 -3c0 0 6 329 2 696c0 0 51 -1 170 1c0 0 -4 -123 -4 -267c25 42 62 69 116 69c72 0 109 -63 112 -155c5 -160 3 -334 3 -334s-61 2 -177 2c0 0 2 137 0 295c0 25 -7 33 -21 33c-15 0 -22 -7 -22 -33c-2 -149 -1 -306 -1 -306s-55 1 -178 -1z" />
    <glyph glyph-name="i.alt" horiz-adv-x="217" 
d="M22 13c0 0 1 110 -3 477c0 0 58 -1 175 1c0 0 -1 -150 4 -477c0 0 -75 0 -176 -1zM109 527c-60 0 -104 34 -104 112c0 62 39 103 104 103c67 0 98 -53 98 -105c0 -72 -43 -110 -98 -110z" />
    <glyph glyph-name="j.alt" horiz-adv-x="217" 
d="M109 523c-64 0 -99 42 -99 108c0 59 30 107 101 107c66 0 101 -47 101 -103c0 -73 -50 -112 -103 -112zM-85 -216c0 0 4 61 4 164c8 -1 15 -1 22 -1c66 0 84 31 85 89c4 172 -1 443 -1 443c112 -1 171 1 171 1s8 -154 4 -467c-2 -138 -57 -230 -252 -230
c-11 0 -21 0 -33 1z" />
    <glyph glyph-name="k.alt" horiz-adv-x="460" 
d="M271 -9c-16 66 -28 117 -38 154c-22 -41 -36 -69 -36 -69c0 -43 1 -70 1 -70c-118 3 -178 2 -178 2c3 461 0 695 0 695c126 -4 179 -2 179 -2c-2 -177 -2 -293 -2 -400c41 135 58 203 58 203c105 -13 192 -25 192 -25c-41 -82 -69 -143 -88 -183
c60 -184 101 -301 101 -301c-130 -1 -189 -4 -189 -4z" />
    <glyph glyph-name="l.alt" horiz-adv-x="217" 
d="M197 2c-115 4 -176 3 -176 3c3 457 -1 688 -1 688c116 -5 177 -5 177 -5c-4 -491 0 -686 0 -686z" />
    <glyph glyph-name="m.alt" horiz-adv-x="658" 
d="M23 7c0 0 0 195 -3 474c0 0 62 -2 144 -1c0 0 -1 -29 -2 -68c26 50 72 86 132 86c64 0 97 -41 110 -89c23 45 66 77 127 77c75 0 108 -54 110 -139c3 -174 2 -340 2 -340s-60 1 -176 0c0 0 -1 142 -3 289c0 26 -5 40 -20 40c-17 0 -23 -19 -23 -45c-2 -136 0 -295 0 -295
s-85 0 -180 -1c0 0 4 178 3 303c0 25 -6 43 -23 43c-18 0 -23 -21 -23 -48c-1 -121 3 -286 3 -286s-94 1 -178 0z" />
    <glyph glyph-name="n.alt" horiz-adv-x="433" 
d="M240 5c0 0 2 138 2 296c0 23 -6 33 -21 33c-17 0 -21 -11 -22 -33c-2 -73 -1 -307 -1 -307s-80 1 -178 0c0 0 4 201 2 485c0 0 58 -2 138 1c0 0 -2 -45 -1 -82c23 53 77 93 135 93c78 0 119 -54 122 -148c2 -54 2 -337 2 -337c-61 1 -178 -1 -178 -1z" />
    <glyph glyph-name="o.alt" horiz-adv-x="451" 
d="M227 496c129 0 214 -81 214 -262c0 -138 -77 -246 -217 -246c-141 0 -214 108 -214 254c0 167 91 254 217 254zM225 379c-17 0 -29 -22 -29 -139c0 -106 10 -136 29 -136s30 27 30 129c0 120 -10 146 -30 146z" />
    <glyph glyph-name="p.alt" horiz-adv-x="461" 
d="M20 -179c5 312 0 678 0 678c77 -2 143 1 143 1c-2 -42 -3 -76 -3 -102c23 65 68 103 128 103c108 0 163 -100 163 -256c0 -172 -63 -244 -150 -244c-39 0 -86 20 -107 56c4 -183 9 -235 9 -235c-130 4 -183 -1 -183 -1zM231 118c16 0 28 14 28 135c0 109 -12 125 -27 125
c-21 0 -30 -23 -30 -122c0 -128 11 -138 29 -138z" />
    <glyph glyph-name="q.alt" horiz-adv-x="462" 
d="M261 -196c4 117 6 198 6 250c-20 -37 -54 -54 -97 -54c-87 0 -160 59 -160 258c0 136 56 245 171 245c57 0 97 -40 118 -85c-1 45 -3 68 -3 68c117 -2 146 0 146 0c-4 -445 0 -681 0 -681c-120 1 -181 -1 -181 -1zM232 117c20 0 29 35 29 141c0 86 -10 118 -29 118
c-22 0 -31 -35 -31 -124c0 -101 11 -135 31 -135z" />
    <glyph glyph-name="r.alt" horiz-adv-x="306" 
d="M22 19c0 0 2 217 -2 467c0 0 26 -2 146 1c0 0 -3 -29 -4 -74c26 64 87 110 144 109c0 0 -5 -48 -7 -180c-75 -12 -99 -56 -101 -129c-2 -82 1 -193 1 -193s-45 1 -177 -1z" />
    <glyph glyph-name="s.alt" horiz-adv-x="400" 
d="M205 -14c-118 0 -202 51 -200 189c0 0 63 -1 168 3c-1 -43 4 -66 32 -66c13 0 25 10 25 32c0 23 -17 38 -74 54c-100 28 -146 68 -146 151c0 89 70 155 194 155c131 0 191 -85 187 -189c0 0 -68 0 -160 -6c2 41 -5 64 -29 64c-20 0 -28 -13 -28 -27c0 -24 18 -40 69 -56
c117 -36 152 -74 152 -145c0 -113 -88 -159 -190 -159z" />
    <glyph glyph-name="t.alt" horiz-adv-x="316" 
d="M7 323c0 120 -2 147 -2 147c17 -1 33 -1 48 -1c0 79 2 130 2 130c126 -2 172 0 172 0s-1 -56 -2 -132h72c-2 -127 -1 -145 -1 -145l-72 1c0 -45 1 -90 2 -131c1 -33 27 -49 71 -41c5 -105 9 -153 9 -153c-145 -34 -252 -2 -253 150c-1 62 -1 119 -1 175c0 0 -15 1 -45 0z
" />
    <glyph glyph-name="u.alt" horiz-adv-x="434" 
d="M158 2c-98 0 -143 67 -143 277c0 77 2 129 11 207c0 0 43 -7 165 -12c-5 -50 -4 -92 -4 -131c0 -176 13 -190 33 -190c14 0 21 14 21 44c2 177 -5 294 -5 294s48 -4 178 -3c0 0 -4 -164 0 -494c0 0 -42 3 -140 1c0 0 1 36 1 88c-22 -54 -69 -81 -117 -81z" />
    <glyph glyph-name="v.alt" horiz-adv-x="415" 
d="M343 27c-167 -6 -268 -6 -268 -6c-45 298 -77 465 -77 465c102 0 181 5 181 5c15 -264 26 -349 26 -349c32 287 35 362 35 362c109 -7 173 -6 173 -6c-55 -360 -70 -471 -70 -471z" />
    <glyph glyph-name="w.alt" horiz-adv-x="656" 
d="M356 16c-18 184 -30 266 -30 266c-23 -194 -27 -281 -27 -281c-160 7 -228 4 -228 4c-41 312 -71 495 -71 495c81 1 179 3 179 3c8 -243 19 -353 19 -353c34 243 41 329 41 329c132 3 174 0 174 0c40 -279 49 -316 49 -316c14 302 9 347 9 347c122 -4 185 -3 185 -3
c-50 -352 -63 -490 -63 -490c-166 2 -237 -1 -237 -1z" />
    <glyph glyph-name="x.alt" horiz-adv-x="460" 
d="M450 491c-46 -128 -72 -204 -84 -240c62 -175 94 -259 94 -259c-121 4 -185 0 -185 0l-44 164c-23 -88 -35 -153 -35 -153c-126 3 -196 -2 -196 -2c50 117 82 201 97 242c-55 158 -89 244 -89 244c131 -5 183 -1 183 -1c16 -72 29 -122 38 -156c32 127 39 164 39 164
c132 -5 182 -3 182 -3z" />
    <glyph glyph-name="y.alt" horiz-adv-x="453" 
d="M294 -243c-141 18 -174 21 -174 21c17 98 26 164 26 164c-87 337 -146 541 -146 541c118 0 195 8 195 8c19 -205 38 -320 38 -320c23 228 24 328 24 328c81 -5 196 -8 196 -8c-135 -588 -159 -734 -159 -734z" />
    <glyph glyph-name="z.alt" horiz-adv-x="359" 
d="M347 11c-235 10 -337 8 -337 8c4 84 2 125 2 125c112 142 135 176 135 176c-88 3 -128 2 -128 2c-1 121 -5 163 -5 163c229 -1 332 2 332 2c-1 -118 3 -140 3 -140c-118 -143 -146 -184 -146 -184c114 -4 146 -2 146 -2c-4 -133 -2 -150 -2 -150z" />
    <glyph glyph-name="dotlessi.alt" horiz-adv-x="217" 
d="M22 13c0 0 1 110 -3 477c0 0 58 -1 175 1c0 0 -1 -150 4 -477c0 0 -75 0 -176 -1z" />
    <glyph glyph-name="Aacute.alt" horiz-adv-x="466" 
d="M0 2c0 0 45 259 104 685c145 6 254 4 254 4s42 -303 108 -684c0 0 -71 2 -188 -1c0 0 -1 26 -5 84c-22 0 -51 1 -87 1l-6 -91s-56 3 -180 2zM230 541c-6 -54 -19 -163 -32 -308c0 0 26 -1 62 0c-7 77 -16 174 -30 308zM251 721c-54 42 -82 58 -82 58
c79 115 107 163 107 163c73 -56 103 -76 103 -76c-98 -108 -128 -145 -128 -145z" />
    <glyph glyph-name="Abreve.alt" horiz-adv-x="466" 
d="M0 2c0 0 45 259 104 685c145 6 254 4 254 4s42 -303 108 -684c0 0 -71 2 -188 -1c0 0 -1 26 -5 84c-22 0 -51 1 -87 1l-6 -91s-56 3 -180 2zM230 541c-6 -54 -19 -163 -32 -308c0 0 26 -1 62 0c-7 77 -16 174 -30 308zM230 733c-111 0 -144 72 -139 139c0 0 30 0 107 5
c-2 -28 11 -48 35 -48c18 0 37 14 30 57c0 0 31 -1 110 1c10 -109 -63 -154 -143 -154z" />
    <glyph glyph-name="Acircumflex.alt" horiz-adv-x="466" 
d="M0 2c0 0 45 259 104 685c145 6 254 4 254 4s42 -303 108 -684c0 0 -71 2 -188 -1c0 0 -1 26 -5 84c-22 0 -51 1 -87 1l-6 -91s-56 3 -180 2zM230 541c-6 -54 -19 -163 -32 -308c0 0 26 -1 62 0c-7 77 -16 174 -30 308zM139 720c0 0 -19 20 -74 65c0 0 33 31 108 112
c0 0 25 0 109 10c0 0 27 -28 119 -108c0 0 -27 -25 -73 -78c0 0 -26 26 -98 84c0 0 -30 -25 -91 -85z" />
    <glyph glyph-name="Adieresis.alt" horiz-adv-x="466" 
d="M0 2c0 0 45 259 104 685c145 6 254 4 254 4s42 -303 108 -684c0 0 -71 2 -188 -1c0 0 -1 26 -5 84c-22 0 -51 1 -87 1l-6 -91s-56 3 -180 2zM230 541c-6 -54 -19 -163 -32 -308c0 0 26 -1 62 0c-7 77 -16 174 -30 308zM145 741c-50 0 -73 40 -73 81c0 47 30 80 74 80
c51 0 72 -38 72 -80c0 -59 -35 -81 -73 -81zM323 745c-42 0 -70 32 -70 82c0 42 25 76 72 76s69 -37 69 -79c0 -51 -29 -79 -71 -79z" />
    <glyph glyph-name="Agrave.alt" horiz-adv-x="466" 
d="M0 2c0 0 45 259 104 685c145 6 254 4 254 4s42 -303 108 -684c0 0 -71 2 -188 -1c0 0 -1 26 -5 84c-22 0 -51 1 -87 1l-6 -91s-56 3 -180 2zM230 541c-6 -54 -19 -163 -32 -308c0 0 26 -1 62 0c-7 77 -16 174 -30 308zM228 723c0 0 -30 37 -128 145c0 0 30 20 103 76
c0 0 28 -48 107 -163c0 0 -28 -16 -82 -58z" />
    <glyph glyph-name="Amacron.alt" horiz-adv-x="466" 
d="M0 2c0 0 45 259 104 685c145 6 254 4 254 4s42 -303 108 -684c0 0 -71 2 -188 -1c0 0 -1 26 -5 84c-22 0 -51 1 -87 1l-6 -91s-56 3 -180 2zM230 541c-6 -54 -19 -163 -32 -308c0 0 26 -1 62 0c-7 77 -16 174 -30 308zM105 759c0 0 1 31 -2 111c0 0 64 -1 260 2
c0 0 -2 -29 -2 -111c0 0 -68 1 -256 -2z" />
    <glyph glyph-name="Aogonek.alt" horiz-adv-x="466" 
d="M356 -208c-100 -10 -159 28 -159 107c0 44 25 83 81 113c-1 46 -5 78 -5 78c-22 0 -51 1 -87 1l-6 -91s-56 3 -180 2c0 0 45 259 104 685c145 6 254 4 254 4s42 -303 108 -684c0 0 -46 1 -117 0c-35 -20 -54 -46 -54 -67c0 -27 19 -43 69 -42c0 0 -5 -29 -8 -106z
M230 541c-6 -54 -19 -163 -32 -308c0 0 26 -1 62 0c-7 77 -16 174 -30 308z" />
    <glyph glyph-name="Aring.alt" horiz-adv-x="466" 
d="M0 2c0 0 45 259 104 685c145 6 254 4 254 4s42 -303 108 -684c0 0 -71 2 -188 -1c0 0 -1 26 -5 84c-22 0 -51 1 -87 1l-6 -91s-56 3 -180 2zM230 541c-6 -54 -19 -163 -32 -308c0 0 26 -1 62 0c-7 77 -16 174 -30 308zM232 732c-70 0 -105 46 -105 103c0 62 45 99 106 99
c69 0 107 -46 107 -99c0 -76 -53 -103 -108 -103zM234 792c23 0 33 18 33 43c0 22 -12 43 -33 43c-23 0 -33 -21 -33 -44c0 -24 13 -42 33 -42z" />
    <glyph glyph-name="Atilde.alt" horiz-adv-x="466" 
d="M0 2c0 0 45 259 104 685c145 6 254 4 254 4s42 -303 108 -684c0 0 -71 2 -188 -1c0 0 -1 26 -5 84c-22 0 -51 1 -87 1l-6 -91s-56 3 -180 2zM230 541c-6 -54 -19 -163 -32 -308c0 0 26 -1 62 0c-7 77 -16 174 -30 308zM166 740c0 0 -26 0 -93 -4c-5 90 26 159 98 159
c52 0 70 -49 106 -49c19 0 31 9 27 44c0 0 25 0 85 6c16 -102 -19 -159 -83 -159c-63 0 -77 43 -114 43c-19 0 -29 -16 -26 -40z" />
    <glyph glyph-name="Cacute.alt" horiz-adv-x="469" 
d="M239 -11c-133 0 -229 75 -229 359c0 238 67 360 239 360c153 0 218 -114 213 -282c-116 0 -193 -3 -193 -3c1 117 -11 135 -29 135c-25 0 -34 -53 -32 -211c0 -166 10 -204 31 -204c22 0 31 19 29 134c102 2 196 9 196 9c2 -205 -67 -298 -225 -297zM255 735
c-54 42 -82 58 -82 58c79 115 107 163 107 163c73 -56 103 -76 103 -76c-98 -108 -128 -145 -128 -145z" />
    <glyph glyph-name="Ccaron.alt" horiz-adv-x="469" 
d="M239 -11c-133 0 -229 75 -229 359c0 238 67 360 239 360c153 0 218 -114 213 -282c-116 0 -193 -3 -193 -3c1 117 -11 135 -29 135c-25 0 -34 -53 -32 -211c0 -166 10 -204 31 -204c22 0 31 19 29 134c102 2 196 9 196 9c2 -205 -67 -298 -225 -297zM188 730
c0 0 -27 28 -119 108c0 0 27 25 73 78c0 0 26 -26 98 -84c0 0 30 25 91 85c0 0 19 -20 74 -65c0 0 -33 -31 -108 -112c0 0 -25 0 -109 -10z" />
    <glyph glyph-name="Ccedilla.alt" horiz-adv-x="469" 
d="M464 286c2 -190 -58 -284 -192 -295c0 0 -2 -19 -2 -31c63 -3 100 -32 100 -77c0 -59 -52 -97 -131 -97c-29 0 -60 5 -85 14c0 0 5 32 10 76c24 -11 55 -17 80 -17c16 0 31 6 31 18c0 15 -23 23 -84 19c0 0 10 41 18 95c-118 11 -199 94 -199 357c0 238 67 360 239 360
c153 0 218 -114 213 -282c-116 0 -193 -3 -193 -3c1 117 -11 135 -29 135c-25 0 -32 -53 -32 -211c0 -166 10 -204 31 -204c22 0 31 19 29 134c102 2 196 9 196 9z" />
    <glyph glyph-name="Ccircumflex.alt" horiz-adv-x="469" 
d="M239 -11c-133 0 -229 75 -229 359c0 238 67 360 239 360c153 0 218 -114 213 -282c-116 0 -193 -3 -193 -3c1 117 -11 135 -29 135c-25 0 -34 -53 -32 -211c0 -166 10 -204 31 -204c22 0 31 19 29 134c102 2 196 9 196 9c2 -205 -67 -298 -225 -297zM143 730
c0 0 -19 20 -74 65c0 0 33 31 108 112c0 0 25 0 109 10c0 0 27 -28 119 -108c0 0 -27 -25 -73 -78c0 0 -26 26 -98 84c0 0 -30 -25 -91 -85z" />
    <glyph glyph-name="Dcaron.alt" horiz-adv-x="466" 
d="M204 133c37 0 57 13 57 209c0 160 -20 198 -63 197c1 -212 6 -406 6 -406zM20 1c2 339 1 677 1 677c48 7 91 10 130 10c229 0 305 -116 305 -355c0 -246 -102 -340 -316 -340c-37 0 -77 3 -120 8zM155 720c0 0 -27 28 -119 108c0 0 27 25 73 78c0 0 26 -26 98 -84
c0 0 30 25 91 85c0 0 19 -20 74 -65c0 0 -33 -31 -108 -112c0 0 -25 0 -109 -10z" />
    <glyph glyph-name="Eacute.alt" horiz-adv-x="353" 
d="M28 13c0 0 -2 269 -8 672c0 0 84 0 321 6c0 0 -1 -73 2 -177c0 0 -80 -2 -144 -6c0 0 -1 -36 0 -95c7 0 40 -1 119 1c0 0 -1 -66 1 -164c0 0 -49 2 -116 1c0 0 0 -33 3 -77c0 0 52 0 135 2c0 0 -2 -56 -2 -167c0 0 -142 2 -311 4zM199 725c-54 42 -82 58 -82 58
c79 115 107 163 107 163c73 -56 103 -76 103 -76c-98 -108 -128 -145 -128 -145z" />
    <glyph glyph-name="Ecaron.alt" horiz-adv-x="353" 
d="M28 13c0 0 -2 269 -8 672c0 0 84 0 321 6c0 0 -1 -73 2 -177c0 0 -80 -2 -144 -6c0 0 -1 -36 0 -95c7 0 40 -1 119 1c0 0 -1 -66 1 -164c0 0 -49 2 -116 1c0 0 0 -33 3 -77c0 0 52 0 135 2c0 0 -2 -56 -2 -167c0 0 -142 2 -311 4zM132 720c0 0 -27 28 -119 108
c0 0 27 25 73 78c0 0 26 -26 98 -84c0 0 30 25 91 85c0 0 19 -20 74 -65c0 0 -33 -31 -108 -112c0 0 -25 0 -109 -10z" />
    <glyph glyph-name="Ecircumflex.alt" horiz-adv-x="353" 
d="M28 13c0 0 -2 269 -8 672c0 0 84 0 321 6c0 0 -1 -73 2 -177c0 0 -80 -2 -144 -6c0 0 -1 -36 0 -95c7 0 40 -1 119 1c0 0 -1 -66 1 -164c0 0 -49 2 -116 1c0 0 0 -33 3 -77c0 0 52 0 135 2c0 0 -2 -56 -2 -167c0 0 -142 2 -311 4zM87 720c0 0 -19 20 -74 65
c0 0 33 31 108 112c0 0 25 0 109 10c0 0 27 -28 119 -108c0 0 -27 -25 -73 -78c0 0 -26 26 -98 84c0 0 -30 -25 -91 -85z" />
    <glyph glyph-name="Edieresis.alt" horiz-adv-x="353" 
d="M28 13c0 0 -2 269 -8 672c0 0 84 0 321 6c0 0 -1 -73 2 -177c0 0 -80 -2 -144 -6c0 0 -1 -36 0 -95c7 0 40 -1 119 1c0 0 -1 -66 1 -164c0 0 -49 2 -116 1c0 0 0 -33 3 -77c0 0 52 0 135 2c0 0 -2 -56 -2 -167c0 0 -142 2 -311 4zM93 744c-50 0 -73 40 -73 81
c0 47 30 80 74 80c51 0 72 -38 72 -80c0 -59 -35 -81 -73 -81zM271 748c-42 0 -70 32 -70 82c0 42 25 76 72 76s69 -37 69 -79c0 -51 -29 -79 -71 -79z" />
    <glyph glyph-name="Edotaccent.alt" horiz-adv-x="353" 
d="M28 13c0 0 -2 269 -8 672c0 0 84 0 321 6c0 0 -1 -73 2 -177c0 0 -80 -2 -144 -6c0 0 -1 -36 0 -95c7 0 40 -1 119 1c0 0 -1 -66 1 -164c0 0 -49 2 -116 1c0 0 0 -33 3 -77c0 0 52 0 135 2c0 0 -2 -56 -2 -167c0 0 -142 2 -311 4zM181 742c-62 0 -89 47 -89 88
c0 45 31 86 89 86c60 0 89 -45 89 -86c0 -60 -40 -88 -89 -88z" />
    <glyph glyph-name="Egrave.alt" horiz-adv-x="353" 
d="M28 13c0 0 -2 269 -8 672c0 0 84 0 321 6c0 0 -1 -73 2 -177c0 0 -80 -2 -144 -6c0 0 -1 -36 0 -95c7 0 40 -1 119 1c0 0 -1 -66 1 -164c0 0 -49 2 -116 1c0 0 0 -33 3 -77c0 0 52 0 135 2c0 0 -2 -56 -2 -167c0 0 -142 2 -311 4zM176 725c0 0 -30 37 -128 145
c0 0 30 20 103 76c0 0 28 -48 107 -163c0 0 -28 -16 -82 -58z" />
    <glyph glyph-name="Emacron.alt" horiz-adv-x="353" 
d="M28 13c0 0 -2 269 -8 672c0 0 84 0 321 6c0 0 -1 -73 2 -177c0 0 -80 -2 -144 -6c0 0 -1 -36 0 -95c7 0 40 -1 119 1c0 0 -1 -66 1 -164c0 0 -49 2 -116 1c0 0 0 -33 3 -77c0 0 52 0 135 2c0 0 -2 -56 -2 -167c0 0 -142 2 -311 4zM53 759c0 0 1 31 -2 111
c0 0 64 -1 260 2c0 0 -2 -29 -2 -111c0 0 -68 1 -256 -2z" />
    <glyph glyph-name="Eogonek.alt" horiz-adv-x="353" 
d="M337 -203c-94 -9 -159 25 -159 104c0 45 21 82 81 109l-231 3s-2 269 -8 672c0 0 84 0 321 6c0 0 -1 -73 2 -177c0 0 -80 -2 -144 -6c0 0 -1 -36 0 -95c7 0 40 -1 119 1c0 0 -1 -66 1 -164c0 0 -49 2 -116 1c0 0 1 -35 3 -77c0 0 52 0 135 2c0 0 -2 -56 -2 -167
c-46 -19 -63 -41 -63 -64c0 -27 19 -43 69 -42c0 0 -5 -29 -8 -106z" />
    <glyph glyph-name="Gbreve.alt" horiz-adv-x="470" 
d="M238 -13c-136 0 -228 74 -228 355c0 231 65 357 234 357c153 0 213 -112 210 -263c0 0 -88 -3 -184 -9c2 91 -8 124 -32 124c-26 0 -36 -41 -35 -211c1 -188 14 -219 42 -219c19 0 32 25 31 119c0 0 -20 0 -44 -3c0 0 1 50 -1 143c0 0 128 0 230 3
c10 -307 -65 -396 -223 -396zM233 725c-111 0 -144 72 -139 139c0 0 30 0 107 5c-2 -28 11 -48 35 -48c18 0 37 14 30 57c0 0 31 -1 110 1c10 -109 -63 -154 -143 -154z" />
    <glyph glyph-name="Gcircumflex.alt" horiz-adv-x="470" 
d="M238 -13c-136 0 -228 74 -228 355c0 231 65 357 234 357c153 0 213 -112 210 -263c0 0 -88 -3 -184 -9c2 91 -8 124 -32 124c-26 0 -36 -41 -35 -211c1 -188 14 -219 42 -219c19 0 32 25 31 119c0 0 -20 0 -44 -3c0 0 1 50 -1 143c0 0 128 0 230 3
c10 -307 -65 -396 -223 -396zM141 714c0 0 -19 20 -74 65c0 0 33 31 108 112c0 0 25 0 109 10c0 0 27 -28 119 -108c0 0 -27 -25 -73 -78c0 0 -26 26 -98 84c0 0 -30 -25 -91 -85z" />
    <glyph glyph-name="Gcommaaccent.alt" horiz-adv-x="470" 
d="M238 -13c-136 0 -228 74 -228 355c0 231 65 357 234 357c153 0 213 -112 210 -263c0 0 -88 -3 -184 -9c2 91 -8 124 -32 124c-26 0 -36 -41 -35 -211c1 -188 14 -219 42 -219c19 0 32 25 31 119c0 0 -20 0 -44 -3c0 0 1 50 -1 143c0 0 128 0 230 3
c10 -307 -65 -396 -223 -396zM310 -110c0 -48 -34 -94 -95 -143c-33 27 -54 41 -54 41c24 23 35 41 40 51c-24 8 -39 29 -39 58c0 36 30 62 75 62c42 0 73 -24 73 -69z" />
    <glyph glyph-name="Hcircumflex.alt" horiz-adv-x="454" 
d="M252 6v183c-13 0 -29 0 -50 -1l3 -195s-76 3 -181 -1c0 0 1 318 -4 709c0 0 42 -1 178 1c0 0 1 -152 3 -361c8 -1 24 -1 50 -1c0 99 -2 216 -3 351c0 0 65 -1 183 1c0 0 0 -278 3 -687c0 0 -70 4 -182 1zM133 730c0 0 -19 20 -74 65c0 0 33 31 108 112c0 0 25 0 109 10
c0 0 27 -28 119 -108c0 0 -27 -25 -73 -78c0 0 -26 26 -98 84c0 0 -30 -25 -91 -85z" />
    <glyph glyph-name="Iacute.alt" horiz-adv-x="236" 
d="M29 15c0 0 1 264 -4 653c0 0 62 0 181 1c0 0 2 -293 5 -654c0 0 -60 1 -182 0zM136 710c-54 42 -82 58 -82 58c79 115 107 163 107 163c73 -56 103 -76 103 -76c-98 -108 -128 -145 -128 -145z" />
    <glyph glyph-name="Icircumflex.alt" horiz-adv-x="236" 
d="M29 15c0 0 1 264 -4 653c0 0 62 0 181 1c0 0 2 -293 5 -654c0 0 -60 1 -182 0zM24 705c0 0 -19 20 -74 65c0 0 33 31 108 112c0 0 25 0 109 10c0 0 27 -28 119 -108c0 0 -27 -25 -73 -78c0 0 -26 26 -98 84c0 0 -30 -25 -91 -85z" />
    <glyph glyph-name="Idieresis.alt" horiz-adv-x="236" 
d="M29 15c0 0 1 264 -4 653c0 0 62 0 181 1c0 0 2 -293 5 -654c0 0 -60 1 -182 0zM30 729c-50 0 -73 40 -73 81c0 47 30 80 74 80c51 0 72 -38 72 -80c0 -59 -35 -81 -73 -81zM208 733c-42 0 -70 32 -70 82c0 42 25 76 72 76s69 -37 69 -79c0 -51 -29 -79 -71 -79z" />
    <glyph glyph-name="Idotaccent.alt" horiz-adv-x="236" 
d="M29 15c0 0 1 264 -4 653c0 0 62 0 181 1c0 0 2 -293 5 -654c0 0 -60 1 -182 0zM118 727c-62 0 -89 47 -89 88c0 45 31 86 89 86c60 0 89 -45 89 -86c0 -60 -40 -88 -89 -88z" />
    <glyph glyph-name="Igrave.alt" horiz-adv-x="236" 
d="M29 15c0 0 1 264 -4 653c0 0 62 0 181 1c0 0 2 -293 5 -654c0 0 -60 1 -182 0zM113 710c0 0 -30 37 -128 145c0 0 30 20 103 76c0 0 28 -48 107 -163c0 0 -28 -16 -82 -58z" />
    <glyph glyph-name="Imacron.alt" horiz-adv-x="236" 
d="M29 15c0 0 1 264 -4 653c0 0 62 0 181 1c0 0 2 -293 5 -654c0 0 -60 1 -182 0zM-10 739c0 0 1 31 -2 111c0 0 64 -1 260 2c0 0 -2 -29 -2 -111c0 0 -68 1 -256 -2z" />
    <glyph glyph-name="Iogonek.alt" horiz-adv-x="236" 
d="M173 -196c-100 -10 -159 28 -159 107c0 40 21 76 66 104c0 0 -16 1 -51 0c0 0 1 264 -4 653c0 0 62 0 181 1c0 0 2 -293 5 -654c0 0 -20 1 -52 0c-31 -19 -47 -44 -47 -63c0 -27 19 -43 69 -42c0 0 -5 -29 -8 -106z" />
    <glyph glyph-name="Jcircumflex.alt" horiz-adv-x="419" 
d="M202 0c-130 0 -197 77 -197 233c0 36 5 84 12 122c0 0 51 -4 160 -8c-4 -27 -6 -57 -6 -81c0 -85 10 -104 27 -104c21 0 32 17 32 235c0 99 -4 159 -18 280c0 0 65 6 176 14c14 -112 21 -197 21 -304c0 -300 -73 -387 -207 -387zM209 715c0 0 -19 20 -74 65
c0 0 33 31 108 112c0 0 25 0 109 10c0 0 27 -28 119 -108c0 0 -27 -25 -73 -78c0 0 -26 26 -98 84c0 0 -30 -25 -91 -85z" />
    <glyph glyph-name="Kcommaaccent.alt" horiz-adv-x="466" 
d="M278 -17c-14 96 -24 163 -32 210c-21 -58 -35 -98 -43 -122c1 -44 2 -66 2 -66c-133 2 -185 -1 -185 -1c3 380 0 660 0 660c124 -2 184 -1 184 -1c-2 -128 -3 -234 -3 -325c60 254 80 356 80 356c122 -6 185 -6 185 -6c-40 -136 -70 -241 -90 -311
c51 -229 89 -373 89 -373c-111 -8 -187 -21 -187 -21zM318 -105c0 -48 -34 -94 -95 -143c-33 27 -54 41 -54 41c24 23 35 41 40 51c-24 8 -39 29 -39 58c0 36 30 62 75 62c42 0 73 -24 73 -69z" />
    <glyph glyph-name="Lacute.alt" horiz-adv-x="340" 
d="M26 16c0 0 0 254 -6 663c0 0 59 -2 180 0c0 0 -3 -82 4 -503c81 -3 136 -2 136 -2c-2 -99 -1 -165 -1 -165c-177 6 -313 7 -313 7zM123 705c-54 42 -82 58 -82 58c79 115 107 163 107 163c73 -56 103 -76 103 -76c-98 -108 -128 -145 -128 -145z" />
    <glyph glyph-name="Lcaron.alt" horiz-adv-x="340" 
d="M26 16c0 0 0 254 -6 663c0 0 59 -2 180 0c0 0 -3 -82 4 -503c81 -3 136 -2 136 -2c-2 -99 -1 -165 -1 -165c-177 6 -313 7 -313 7zM382 655c0 -48 -34 -94 -95 -143c-31 25 -51 39 -54 41c24 23 35 41 40 51c-24 8 -39 29 -39 58c0 36 30 62 75 62c42 0 73 -24 73 -69z
" />
    <glyph glyph-name="Lcommaaccent.alt" horiz-adv-x="340" 
d="M26 16c0 0 0 254 -6 663c0 0 59 -2 180 0c0 0 -3 -82 4 -503c81 -3 136 -2 136 -2c-2 -99 -1 -165 -1 -165c-177 6 -313 7 -313 7zM255 -90c0 -48 -34 -94 -95 -143c-33 27 -54 41 -54 41c24 23 35 41 40 51c-24 8 -39 29 -39 58c0 36 30 62 75 62c42 0 73 -24 73 -69z
" />
    <glyph glyph-name="Nacute.alt" horiz-adv-x="488" 
d="M23 -10c0 0 4 295 -3 699c0 0 69 -3 173 0c0 0 41 -125 119 -333c-4 73 -12 179 -25 347c0 0 62 -4 163 -3c0 0 5 -241 18 -687c0 0 -55 -1 -166 -12c0 0 -51 148 -126 349c2 -82 6 -206 16 -363c0 0 -66 3 -169 3zM262 725c-54 42 -82 58 -82 58c79 115 107 163 107 163
c73 -56 103 -76 103 -76c-98 -108 -128 -145 -128 -145z" />
    <glyph glyph-name="Ncaron.alt" horiz-adv-x="488" 
d="M23 -10c0 0 4 295 -3 699c0 0 69 -3 173 0c0 0 41 -125 119 -333c-4 73 -12 179 -25 347c0 0 62 -4 163 -3c0 0 5 -241 18 -687c0 0 -55 -1 -166 -12c0 0 -51 148 -126 349c2 -82 6 -206 16 -363c0 0 -66 3 -169 3zM195 725c0 0 -27 28 -119 108c0 0 27 25 73 78
c0 0 26 -26 98 -84c0 0 30 25 91 85c0 0 19 -20 74 -65c0 0 -33 -31 -108 -112c0 0 -25 0 -109 -10z" />
    <glyph glyph-name="Ncommaaccent.alt" horiz-adv-x="488" 
d="M23 -10c0 0 4 295 -3 699c0 0 69 -3 173 0c0 0 41 -125 119 -333c-4 73 -12 179 -25 347c0 0 62 -4 163 -3c0 0 5 -241 18 -687c0 0 -55 -1 -166 -12c0 0 -51 148 -126 349c2 -82 6 -206 16 -363c0 0 -66 3 -169 3zM319 -95c0 -48 -34 -94 -95 -143c-33 27 -54 41 -54 41
c24 23 35 41 40 51c-24 8 -39 29 -39 58c0 36 30 62 75 62c42 0 73 -24 73 -69z" />
    <glyph glyph-name="Ntilde.alt" horiz-adv-x="488" 
d="M23 -10c0 0 4 295 -3 699c0 0 69 -3 173 0c0 0 41 -125 119 -333c-4 73 -12 179 -25 347c0 0 62 -4 163 -3c0 0 5 -241 18 -687c0 0 -55 -1 -166 -12c0 0 -51 148 -126 349c2 -82 6 -206 16 -363c0 0 -66 3 -169 3zM177 746c0 0 -26 0 -93 -4c-5 90 26 159 98 159
c52 0 70 -49 106 -49c19 0 31 9 27 44c0 0 25 0 85 6c16 -102 -19 -159 -83 -159c-63 0 -77 43 -114 43c-19 0 -29 -16 -26 -40z" />
    <glyph glyph-name="Oacute.alt" horiz-adv-x="476" 
d="M238 702c169 0 227 -122 228 -345c0 -263 -78 -363 -227 -363c-176 0 -229 120 -229 362c2 242 64 346 228 346zM236 560c-20 0 -29 -26 -29 -217c0 -192 11 -211 31 -211c22 0 31 13 31 218c0 186 -10 210 -33 210zM256 725c-54 42 -82 58 -82 58
c79 115 107 163 107 163c73 -56 103 -76 103 -76c-98 -108 -128 -145 -128 -145z" />
    <glyph glyph-name="Ocircumflex.alt" horiz-adv-x="476" 
d="M238 702c169 0 227 -122 228 -345c0 -263 -78 -363 -227 -363c-176 0 -229 120 -229 362c2 242 64 346 228 346zM236 560c-20 0 -29 -26 -29 -217c0 -192 11 -211 31 -211c22 0 31 13 31 218c0 186 -10 210 -33 210zM144 720c0 0 -19 20 -74 65c0 0 33 31 108 112
c0 0 25 0 109 10c0 0 27 -28 119 -108c0 0 -27 -25 -73 -78c0 0 -26 26 -98 84c0 0 -30 -25 -91 -85z" />
    <glyph glyph-name="Odieresis.alt" horiz-adv-x="476" 
d="M238 702c169 0 227 -122 228 -345c0 -263 -78 -363 -227 -363c-176 0 -229 120 -229 362c2 242 64 346 228 346zM236 560c-20 0 -29 -26 -29 -217c0 -192 11 -211 31 -211c22 0 31 13 31 218c0 186 -10 210 -33 210zM150 744c-50 0 -73 40 -73 81c0 47 30 80 74 80
c51 0 72 -38 72 -80c0 -59 -35 -81 -73 -81zM328 748c-42 0 -70 32 -70 82c0 42 25 76 72 76s69 -37 69 -79c0 -51 -29 -79 -71 -79z" />
    <glyph glyph-name="Ograve.alt" horiz-adv-x="476" 
d="M238 702c169 0 227 -122 228 -345c0 -263 -78 -363 -227 -363c-176 0 -229 120 -229 362c2 242 64 346 228 346zM236 560c-20 0 -29 -26 -29 -217c0 -192 11 -211 31 -211c22 0 31 13 31 218c0 186 -10 210 -33 210zM233 725c0 0 -30 37 -128 145c0 0 30 20 103 76
c0 0 28 -48 107 -163c0 0 -28 -16 -82 -58z" />
    <glyph glyph-name="Ohungarumlaut.alt" horiz-adv-x="476" 
d="M238 702c169 0 227 -122 228 -345c0 -263 -78 -363 -227 -363c-176 0 -229 120 -229 362c2 242 64 346 228 346zM236 560c-20 0 -29 -26 -29 -217c0 -192 11 -211 31 -211c22 0 31 13 31 218c0 186 -10 210 -33 210zM321 722c-58 36 -83 48 -83 48c70 116 97 169 97 169
c78 -48 98 -59 98 -59c-86 -118 -112 -158 -112 -158zM176 725c-58 36 -82 45 -82 45c66 123 87 171 87 171c78 -48 99 -58 99 -58c-79 -118 -104 -158 -104 -158z" />
    <glyph glyph-name="Omacron.alt" horiz-adv-x="476" 
d="M238 702c169 0 227 -122 228 -345c0 -263 -78 -363 -227 -363c-176 0 -229 120 -229 362c2 242 64 346 228 346zM236 560c-20 0 -29 -26 -29 -217c0 -192 11 -211 31 -211c22 0 31 13 31 218c0 186 -10 210 -33 210zM110 759c0 0 1 31 -2 111c0 0 64 -1 260 2
c0 0 -2 -29 -2 -111c0 0 -68 1 -256 -2z" />
    <glyph glyph-name="Otilde.alt" horiz-adv-x="476" 
d="M238 702c169 0 227 -122 228 -345c0 -263 -78 -363 -227 -363c-176 0 -229 120 -229 362c2 242 64 346 228 346zM236 560c-20 0 -29 -26 -29 -217c0 -192 11 -211 31 -211c22 0 31 13 31 218c0 186 -10 210 -33 210zM171 741c0 0 -26 0 -93 -4c-5 90 26 159 98 159
c52 0 70 -49 106 -49c19 0 31 9 27 44c0 0 25 0 85 6c16 -102 -19 -159 -83 -159c-63 0 -77 43 -114 43c-19 0 -29 -16 -26 -40z" />
    <glyph glyph-name="Racute.alt" 
d="M290 -29c0 0 -31 110 -76 262c0 0 -9 -1 -13 -1c0 -45 2 -125 4 -234c0 0 -78 1 -185 -1c0 0 5 266 4 687c55 8 103 13 146 13c209 0 282 -89 282 -238c0 -79 -28 -138 -86 -177c14 -35 51 -135 108 -290c0 0 -82 -6 -184 -21zM201 347c44 1 62 36 62 104
c0 62 -18 100 -65 96c1 -105 3 -200 3 -200zM238 717c-54 42 -82 58 -82 58c79 115 107 163 107 163c73 -56 103 -76 103 -76c-98 -108 -128 -145 -128 -145z" />
    <glyph glyph-name="Rcaron.alt" 
d="M290 -29c0 0 -31 110 -76 262c0 0 -9 -1 -13 -1c0 -45 2 -125 4 -234c0 0 -78 1 -185 -1c0 0 5 266 4 687c55 8 103 13 146 13c209 0 282 -89 282 -238c0 -79 -28 -138 -86 -177c14 -35 51 -135 108 -290c0 0 -82 -6 -184 -21zM201 347c44 1 62 36 62 104
c0 62 -18 100 -65 96c1 -105 3 -200 3 -200zM171 722c0 0 -27 28 -119 108c0 0 27 25 73 78c0 0 26 -26 98 -84c0 0 30 25 91 85c0 0 19 -20 74 -65c0 0 -33 -31 -108 -112c0 0 -25 0 -109 -10z" />
    <glyph glyph-name="Rcommaaccent.alt" 
d="M290 -29c0 0 -31 110 -76 262c0 0 -9 -1 -13 -1c0 -45 2 -125 4 -234c0 0 -78 1 -185 -1c0 0 5 266 4 687c55 8 103 13 146 13c209 0 282 -89 282 -238c0 -79 -28 -138 -86 -177c14 -35 51 -135 108 -290c0 0 -82 -6 -184 -21zM201 347c44 1 62 36 62 104
c0 62 -18 100 -65 96c1 -105 3 -200 3 -200zM295 -105c0 -48 -34 -94 -95 -143c-33 27 -54 41 -54 41c24 23 35 41 40 51c-24 8 -39 29 -39 58c0 36 30 62 75 62c42 0 73 -24 73 -69z" />
    <glyph glyph-name="Sacute.alt" horiz-adv-x="442" 
d="M222 -8c-153 0 -228 72 -216 252c0 0 71 -1 186 3c-6 -80 3 -112 29 -112c19 0 27 18 27 61c0 35 -14 59 -94 91c-105 42 -146 103 -146 210c0 124 70 203 218 203c155 0 213 -94 201 -255c0 0 -79 1 -181 -1c11 85 -4 114 -23 114c-18 0 -26 -26 -26 -63
c0 -39 19 -68 89 -95c122 -47 151 -109 151 -202c0 -140 -74 -206 -215 -206zM238 725c-54 42 -82 58 -82 58c79 115 107 163 107 163c73 -56 103 -76 103 -76c-98 -108 -128 -145 -128 -145z" />
    <glyph glyph-name="Scaron.alt" horiz-adv-x="442" 
d="M222 -8c-153 0 -228 72 -216 252c0 0 71 -1 186 3c-6 -80 3 -112 29 -112c19 0 27 18 27 61c0 35 -14 59 -94 91c-105 42 -146 103 -146 210c0 124 70 203 218 203c155 0 213 -94 201 -255c0 0 -79 1 -181 -1c11 85 -4 114 -23 114c-18 0 -26 -26 -26 -63
c0 -39 19 -68 89 -95c122 -47 151 -109 151 -202c0 -140 -74 -206 -215 -206zM172 725c0 0 -27 28 -119 108c0 0 27 25 73 78c0 0 26 -26 98 -84c0 0 30 25 91 85c0 0 19 -20 74 -65c0 0 -33 -31 -108 -112c0 0 -25 0 -109 -10z" />
    <glyph glyph-name="Scedilla.alt" horiz-adv-x="442" 
d="M197 495c0 -39 19 -68 89 -95c122 -47 151 -109 151 -202c0 -129 -63 -195 -182 -204l-2 -34c63 -3 100 -32 100 -77c0 -59 -52 -97 -131 -97c-29 0 -60 5 -85 14c0 0 5 32 10 76c24 -11 55 -17 80 -17c16 0 31 6 31 18c0 15 -23 23 -84 19c0 0 10 42 18 97
c-133 9 -197 83 -186 251c0 0 71 -1 186 3c-6 -80 3 -112 29 -112c19 0 27 18 27 61c0 35 -14 59 -94 91c-105 42 -146 103 -146 210c0 124 70 203 218 203c155 0 213 -94 201 -255c0 0 -79 1 -181 -1c11 85 -4 114 -23 114c-18 0 -26 -26 -26 -63z" />
    <glyph glyph-name="Scircumflex.alt" horiz-adv-x="442" 
d="M222 -8c-153 0 -228 72 -216 252c0 0 71 -1 186 3c-6 -80 3 -112 29 -112c19 0 27 18 27 61c0 35 -14 59 -94 91c-105 42 -146 103 -146 210c0 124 70 203 218 203c155 0 213 -94 201 -255c0 0 -79 1 -181 -1c11 85 -4 114 -23 114c-18 0 -26 -26 -26 -63
c0 -39 19 -68 89 -95c122 -47 151 -109 151 -202c0 -140 -74 -206 -215 -206zM127 712c0 0 -19 20 -74 65c0 0 33 31 108 112c0 0 25 0 109 10c0 0 27 -28 119 -108c0 0 -27 -25 -73 -78c0 0 -26 26 -98 84c0 0 -30 -25 -91 -85z" />
    <glyph glyph-name="Scommaaccent.alt" horiz-adv-x="442" 
d="M222 -8c-153 0 -228 72 -216 252c0 0 71 -1 186 3c-6 -80 3 -112 29 -112c19 0 27 18 27 61c0 35 -14 59 -94 91c-105 42 -146 103 -146 210c0 124 70 203 218 203c155 0 213 -94 201 -255c0 0 -79 1 -181 -1c11 85 -4 114 -23 114c-18 0 -26 -26 -26 -63
c0 -39 19 -68 89 -95c122 -47 151 -109 151 -202c0 -140 -74 -206 -215 -206zM296 -95c0 -48 -34 -94 -95 -143c-33 27 -54 41 -54 41c24 23 35 41 40 51c-24 8 -39 29 -39 58c0 36 30 62 75 62c42 0 73 -24 73 -69z" />
    <glyph glyph-name="Tcaron.alt" horiz-adv-x="394" 
d="M6 505c0 0 2 44 -1 173c0 0 125 -1 384 4c0 0 -4 -65 -3 -177c0 0 -37 1 -101 1c0 -106 1 -254 4 -493c0 0 -59 2 -180 -1c0 0 2 179 -1 494c-32 0 -70 0 -102 -1zM148 715c0 0 -27 28 -119 108c0 0 27 25 73 78c0 0 26 -26 98 -84c0 0 30 25 91 85c0 0 19 -20 74 -65
c0 0 -33 -31 -108 -112c0 0 -25 0 -109 -10z" />
    <glyph glyph-name="Tcommaaccent.alt" horiz-adv-x="394" 
d="M6 505c0 0 2 44 -1 173c0 0 125 -1 384 4c0 0 -4 -65 -3 -177c0 0 -37 1 -101 1c0 -106 1 -254 4 -493c0 0 -59 2 -180 -1c0 0 2 179 -1 494c-32 0 -70 0 -102 -1zM272 -85c0 -48 -34 -94 -95 -143c-33 27 -54 41 -54 41c24 23 35 41 40 51c-24 8 -39 29 -39 58
c0 36 30 62 75 62c42 0 73 -24 73 -69z" />
    <glyph glyph-name="Uacute.alt" 
d="M240 6c-152 0 -230 107 -230 395c0 92 9 200 23 300c0 0 60 -6 181 -14c-11 -95 -19 -202 -19 -278c0 -203 16 -236 41 -236c26 0 36 20 36 193c0 104 -6 199 -16 309c0 0 58 2 175 9c15 -108 23 -213 23 -329c0 -253 -74 -349 -214 -349zM256 708c-54 42 -82 58 -82 58
c79 115 107 163 107 163c73 -56 103 -76 103 -76c-98 -108 -128 -145 -128 -145z" />
    <glyph glyph-name="Ubreve.alt" 
d="M240 6c-152 0 -230 107 -230 395c0 92 9 200 23 300c0 0 60 -6 181 -14c-11 -95 -19 -202 -19 -278c0 -203 16 -236 41 -236c26 0 36 20 36 193c0 104 -6 199 -16 309c0 0 58 2 175 9c15 -108 23 -213 23 -329c0 -253 -74 -349 -214 -349zM235 727
c-111 0 -144 72 -139 139c0 0 30 0 107 5c-2 -28 11 -48 35 -48c18 0 37 14 30 57c0 0 31 -1 110 1c10 -109 -63 -154 -143 -154z" />
    <glyph glyph-name="Ucircumflex.alt" 
d="M240 6c-152 0 -230 107 -230 395c0 92 9 200 23 300c0 0 60 -6 181 -14c-11 -95 -19 -202 -19 -278c0 -203 16 -236 41 -236c26 0 36 20 36 193c0 104 -6 199 -16 309c0 0 58 2 175 9c15 -108 23 -213 23 -329c0 -253 -74 -349 -214 -349zM144 710c0 0 -19 20 -74 65
c0 0 33 31 108 112c0 0 25 0 109 10c0 0 27 -28 119 -108c0 0 -27 -25 -73 -78c0 0 -26 26 -98 84c0 0 -30 -25 -91 -85z" />
    <glyph glyph-name="Udieresis.alt" 
d="M240 6c-152 0 -230 107 -230 395c0 92 9 200 23 300c0 0 60 -6 181 -14c-11 -95 -19 -202 -19 -278c0 -203 16 -236 41 -236c26 0 36 20 36 193c0 104 -6 199 -16 309c0 0 58 2 175 9c15 -108 23 -213 23 -329c0 -253 -74 -349 -214 -349zM150 734c-50 0 -73 40 -73 81
c0 47 30 80 74 80c51 0 72 -38 72 -80c0 -59 -35 -81 -73 -81zM328 738c-42 0 -70 32 -70 82c0 42 25 76 72 76s69 -37 69 -79c0 -51 -29 -79 -71 -79z" />
    <glyph glyph-name="Ugrave.alt" 
d="M240 6c-152 0 -230 107 -230 395c0 92 9 200 23 300c0 0 60 -6 181 -14c-11 -95 -19 -202 -19 -278c0 -203 16 -236 41 -236c26 0 36 20 36 193c0 104 -6 199 -16 309c0 0 58 2 175 9c15 -108 23 -213 23 -329c0 -253 -74 -349 -214 -349zM233 710c0 0 -30 37 -128 145
c0 0 30 20 103 76c0 0 28 -48 107 -163c0 0 -28 -16 -82 -58z" />
    <glyph glyph-name="Uhungarumlaut.alt" 
d="M240 6c-152 0 -230 107 -230 395c0 92 9 200 23 300c0 0 60 -6 181 -14c-11 -95 -19 -202 -19 -278c0 -203 16 -236 41 -236c26 0 36 20 36 193c0 104 -6 199 -16 309c0 0 58 2 175 9c15 -108 23 -213 23 -329c0 -253 -74 -349 -214 -349zM321 723c-58 36 -83 48 -83 48
c70 116 97 169 97 169c78 -48 98 -59 98 -59c-86 -118 -112 -158 -112 -158zM176 726c-58 36 -82 45 -82 45c66 123 87 171 87 171c78 -48 99 -58 99 -58c-79 -118 -104 -158 -104 -158z" />
    <glyph glyph-name="Umacron.alt" 
d="M240 6c-152 0 -230 107 -230 395c0 92 9 200 23 300c0 0 60 -6 181 -14c-11 -95 -19 -202 -19 -278c0 -203 16 -236 41 -236c26 0 36 20 36 193c0 104 -6 199 -16 309c0 0 58 2 175 9c15 -108 23 -213 23 -329c0 -253 -74 -349 -214 -349zM110 749c0 0 1 31 -2 111
c0 0 64 -1 260 2c0 0 -2 -29 -2 -111c0 0 -68 1 -256 -2z" />
    <glyph glyph-name="Uogonek.alt" 
d="M292 -199c-100 -10 -159 28 -159 107c0 39 19 74 61 102c-122 21 -184 133 -184 391c0 92 9 200 23 300c0 0 60 -6 181 -14c-11 -95 -19 -202 -19 -278c0 -203 16 -236 41 -236c26 0 36 20 36 193c0 104 -6 199 -16 309c0 0 58 2 175 9c15 -108 23 -213 23 -329
c0 -234 -63 -334 -183 -348c-26 -18 -40 -40 -40 -58c0 -27 19 -43 69 -42c0 0 -5 -29 -8 -106z" />
    <glyph glyph-name="Uring.alt" 
d="M240 6c-152 0 -230 107 -230 395c0 92 9 200 23 300c0 0 60 -6 181 -14c-11 -95 -19 -202 -19 -278c0 -203 16 -236 41 -236c26 0 36 20 36 193c0 104 -6 199 -16 309c0 0 58 2 175 9c15 -108 23 -213 23 -329c0 -253 -74 -349 -214 -349zM237 719
c-70 0 -105 46 -105 103c0 62 45 99 106 99c69 0 107 -46 107 -99c0 -76 -53 -103 -108 -103zM239 779c23 0 33 18 33 43c0 22 -12 43 -33 43c-23 0 -33 -21 -33 -44c0 -24 13 -42 33 -42z" />
    <glyph glyph-name="Yacute.alt" horiz-adv-x="482" 
d="M157 -25c0 0 3 11 -2 141c0 0 -39 169 -155 570c0 0 33 -1 197 6c0 0 14 -124 51 -330c0 0 26 166 48 327c0 0 50 -4 186 -3c0 0 -61 -226 -146 -566c0 0 -2 -4 3 -144c0 0 -36 3 -182 -1zM259 709c-54 42 -82 58 -82 58c79 115 107 163 107 163c73 -56 103 -76 103 -76
c-98 -108 -128 -145 -128 -145z" />
    <glyph glyph-name="Ydieresis.alt" horiz-adv-x="482" 
d="M157 -25c0 0 3 11 -2 141c0 0 -39 169 -155 570c0 0 33 -1 197 6c0 0 14 -124 51 -330c0 0 26 166 48 327c0 0 50 -4 186 -3c0 0 -61 -226 -146 -566c0 0 -2 -4 3 -144c0 0 -36 3 -182 -1zM153 734c-50 0 -73 40 -73 81c0 47 30 80 74 80c51 0 72 -38 72 -80
c0 -59 -35 -81 -73 -81zM331 738c-42 0 -70 32 -70 82c0 42 25 76 72 76s69 -37 69 -79c0 -51 -29 -79 -71 -79z" />
    <glyph glyph-name="Zacute.alt" horiz-adv-x="379" 
d="M366 6c-240 8 -356 7 -356 7c3 129 1 182 1 182c87 160 138 257 164 308c-95 -1 -162 -4 -162 -4c1 141 -1 182 -1 182c247 2 353 5 353 5c4 -105 3 -198 3 -198c-84 -160 -134 -259 -160 -311c78 -3 160 -1 160 -1c-4 -138 -2 -170 -2 -170zM207 715
c-54 42 -82 58 -82 58c79 115 107 163 107 163c73 -56 103 -76 103 -76c-98 -108 -128 -145 -128 -145z" />
    <glyph glyph-name="Zcaron.alt" horiz-adv-x="379" 
d="M366 6c-240 8 -356 7 -356 7c3 129 1 182 1 182c87 160 138 257 164 308c-95 -1 -162 -4 -162 -4c1 141 -1 182 -1 182c247 2 353 5 353 5c4 -105 3 -198 3 -198c-84 -160 -134 -259 -160 -311c78 -3 160 -1 160 -1c-4 -138 -2 -170 -2 -170zM141 716
c0 0 -27 28 -119 108c0 0 27 25 73 78c0 0 26 -26 98 -84c0 0 30 25 91 85c0 0 19 -20 74 -65c0 0 -33 -31 -108 -112c0 0 -25 0 -109 -10z" />
    <glyph glyph-name="Zdotaccent.alt" horiz-adv-x="379" 
d="M366 6c-240 8 -356 7 -356 7c3 129 1 182 1 182c87 160 138 257 164 308c-95 -1 -162 -4 -162 -4c1 141 -1 182 -1 182c247 2 353 5 353 5c4 -105 3 -198 3 -198c-84 -160 -134 -259 -160 -311c78 -3 160 -1 160 -1c-4 -138 -2 -170 -2 -170zM190 732
c-62 0 -89 47 -89 88c0 45 31 86 89 86c60 0 89 -45 89 -86c0 -60 -40 -88 -89 -88z" />
    <glyph glyph-name="aacute.alt" horiz-adv-x="423" 
d="M147 -23c-74 0 -142 49 -142 144c0 112 77 170 229 167v14c-1 55 -9 69 -24 69c-17 0 -24 -18 -26 -62c0 0 -64 4 -165 6c9 109 72 178 198 178c129 0 187 -75 190 -203c3 -149 0 -318 0 -318s-39 -1 -131 -2c0 0 3 37 4 81c-23 -51 -72 -74 -133 -74zM208 96
c22 0 34 23 34 103v11c-51 -6 -66 -34 -66 -72c0 -23 12 -42 32 -42zM224 515c-54 42 -82 58 -82 58c79 115 107 163 107 163c73 -56 103 -76 103 -76c-98 -108 -128 -145 -128 -145z" />
    <glyph glyph-name="abreve.alt" horiz-adv-x="423" 
d="M147 -23c-74 0 -142 49 -142 144c0 112 77 170 229 167v14c-1 55 -9 69 -24 69c-17 0 -24 -18 -26 -62c0 0 -64 4 -165 6c9 109 72 178 198 178c129 0 187 -75 190 -203c3 -149 0 -318 0 -318s-39 -1 -131 -2c0 0 3 37 4 81c-23 -51 -72 -74 -133 -74zM208 96
c22 0 34 23 34 103v11c-51 -6 -66 -34 -66 -72c0 -23 12 -42 32 -42zM205 527c-111 0 -144 72 -139 139c0 0 30 0 107 5c-2 -28 11 -48 35 -48c18 0 37 14 30 57c0 0 31 -1 110 1c10 -109 -63 -154 -143 -154z" />
    <glyph glyph-name="acircumflex.alt" horiz-adv-x="423" 
d="M147 -23c-74 0 -142 49 -142 144c0 112 77 170 229 167v14c-1 55 -9 69 -24 69c-17 0 -24 -18 -26 -62c0 0 -64 4 -165 6c9 109 72 178 198 178c129 0 187 -75 190 -203c3 -149 0 -318 0 -318s-39 -1 -131 -2c0 0 3 37 4 81c-23 -51 -72 -74 -133 -74zM208 96
c22 0 34 23 34 103v11c-51 -6 -66 -34 -66 -72c0 -23 12 -42 32 -42zM113 510c0 0 -19 20 -74 65c0 0 33 31 108 112c0 0 25 0 109 10c0 0 27 -28 119 -108c0 0 -27 -25 -73 -78c0 0 -26 26 -98 84c0 0 -30 -25 -91 -85z" />
    <glyph glyph-name="adieresis.alt" horiz-adv-x="423" 
d="M147 -23c-74 0 -142 49 -142 144c0 112 77 170 229 167v14c-1 55 -9 69 -24 69c-17 0 -24 -18 -26 -62c0 0 -64 4 -165 6c9 109 72 178 198 178c129 0 187 -75 190 -203c3 -149 0 -318 0 -318s-39 -1 -131 -2c0 0 3 37 4 81c-23 -51 -72 -74 -133 -74zM208 96
c22 0 34 23 34 103v11c-51 -6 -66 -34 -66 -72c0 -23 12 -42 32 -42zM119 527c-50 0 -73 40 -73 81c0 47 30 80 74 80c51 0 72 -38 72 -80c0 -59 -35 -81 -73 -81zM297 531c-42 0 -70 32 -70 82c0 42 25 76 72 76s69 -37 69 -79c0 -51 -29 -79 -71 -79z" />
    <glyph glyph-name="agrave.alt" horiz-adv-x="423" 
d="M147 -23c-74 0 -142 49 -142 144c0 112 77 170 229 167v14c-1 55 -9 69 -24 69c-17 0 -24 -18 -26 -62c0 0 -64 4 -165 6c9 109 72 178 198 178c129 0 187 -75 190 -203c3 -149 0 -318 0 -318s-39 -1 -131 -2c0 0 3 37 4 81c-23 -51 -72 -74 -133 -74zM208 96
c22 0 34 23 34 103v11c-51 -6 -66 -34 -66 -72c0 -23 12 -42 32 -42zM202 515c0 0 -30 37 -128 145c0 0 30 20 103 76c0 0 28 -48 107 -163c0 0 -28 -16 -82 -58z" />
    <glyph glyph-name="amacron.alt" horiz-adv-x="423" 
d="M147 -23c-74 0 -142 49 -142 144c0 112 77 170 229 167v14c-1 55 -9 69 -24 69c-17 0 -24 -18 -26 -62c0 0 -64 4 -165 6c9 109 72 178 198 178c129 0 187 -75 190 -203c3 -149 0 -318 0 -318s-39 -1 -131 -2c0 0 3 37 4 81c-23 -51 -72 -74 -133 -74zM208 96
c22 0 34 23 34 103v11c-51 -6 -66 -34 -66 -72c0 -23 12 -42 32 -42zM79 542c0 0 1 31 -2 111c0 0 64 -1 260 2c0 0 -2 -29 -2 -111c0 0 -68 1 -256 -2z" />
    <glyph glyph-name="aogonek.alt" horiz-adv-x="423" 
d="M147 -23c-74 0 -142 49 -142 144c0 112 77 170 229 167v14c-1 55 -9 69 -24 69c-17 0 -24 -18 -26 -62c0 0 -64 4 -165 6c9 109 72 178 198 178c129 0 187 -75 190 -203c3 -149 0 -318 0 -318s-21 -1 -63 -1c-19 -17 -29 -35 -29 -50c0 -27 19 -43 69 -42
c0 0 -5 -29 -8 -106c-100 -10 -159 28 -159 107c0 38 19 72 60 101l3 70c-23 -51 -72 -74 -133 -74zM208 96c22 0 34 23 34 103v11c-51 -6 -66 -34 -66 -72c0 -23 12 -42 32 -42z" />
    <glyph glyph-name="aring.alt" horiz-adv-x="423" 
d="M147 -23c-74 0 -142 49 -142 144c0 112 77 170 229 167v14c-1 55 -9 69 -24 69c-17 0 -24 -18 -26 -62c0 0 -64 4 -165 6c9 109 72 178 198 178c129 0 187 -75 190 -203c3 -149 0 -318 0 -318s-39 -1 -131 -2c0 0 3 37 4 81c-23 -51 -72 -74 -133 -74zM208 96
c22 0 34 23 34 103v11c-51 -6 -66 -34 -66 -72c0 -23 12 -42 32 -42zM206 524c-70 0 -105 46 -105 103c0 62 45 99 106 99c69 0 107 -46 107 -99c0 -76 -53 -103 -108 -103zM208 584c23 0 33 18 33 43c0 22 -12 43 -33 43c-23 0 -33 -21 -33 -44c0 -24 13 -42 33 -42z" />
    <glyph glyph-name="atilde.alt" horiz-adv-x="423" 
d="M147 -23c-74 0 -142 49 -142 144c0 112 77 170 229 167v14c-1 55 -9 69 -24 69c-17 0 -24 -18 -26 -62c0 0 -64 4 -165 6c9 109 72 178 198 178c129 0 187 -75 190 -203c3 -149 0 -318 0 -318s-39 -1 -131 -2c0 0 3 37 4 81c-23 -51 -72 -74 -133 -74zM208 96
c22 0 34 23 34 103v11c-51 -6 -66 -34 -66 -72c0 -23 12 -42 32 -42zM140 531c0 0 -26 0 -93 -4c-5 90 26 159 98 159c52 0 70 -49 106 -49c19 0 31 9 27 44c0 0 25 0 85 6c16 -102 -19 -159 -83 -159c-63 0 -77 43 -114 43c-19 0 -29 -16 -26 -40z" />
    <glyph glyph-name="cacute.alt" horiz-adv-x="439" 
d="M228 -16c-134 0 -218 68 -218 257c0 155 66 253 225 253c127 0 203 -72 199 -209c-128 -3 -179 -6 -179 -6c2 58 -8 92 -28 92s-31 -32 -31 -136c0 -83 11 -117 33 -117c18 0 29 24 25 93c0 0 56 2 180 9c4 -161 -72 -236 -206 -236zM240 520c-54 42 -82 58 -82 58
c79 115 107 163 107 163c73 -56 103 -76 103 -76c-98 -108 -128 -145 -128 -145z" />
    <glyph glyph-name="ccaron.alt" horiz-adv-x="439" 
d="M228 -16c-134 0 -218 68 -218 257c0 155 66 253 225 253c127 0 203 -72 199 -209c-128 -3 -179 -6 -179 -6c2 58 -8 92 -28 92s-31 -32 -31 -136c0 -83 11 -117 33 -117c18 0 29 24 25 93c0 0 56 2 180 9c4 -161 -72 -236 -206 -236zM174 515c0 0 -27 28 -119 108
c0 0 27 25 73 78c0 0 26 -26 98 -84c0 0 30 25 91 85c0 0 19 -20 74 -65c0 0 -33 -31 -108 -112c0 0 -25 0 -109 -10z" />
    <glyph glyph-name="ccedilla.alt" horiz-adv-x="439" 
d="M434 220c3 -149 -61 -224 -177 -234l-2 -26c63 -3 100 -32 100 -77c0 -59 -52 -97 -131 -97c-29 0 -60 5 -85 14c0 0 5 32 10 76c24 -11 55 -17 80 -17c16 0 31 6 31 18c0 15 -23 23 -84 19c0 0 9 38 17 90c-114 11 -183 83 -183 255c0 155 66 253 225 253
c127 0 203 -72 199 -209c-128 -3 -179 -6 -179 -6c2 58 -8 92 -28 92s-31 -32 -31 -136c0 -83 11 -117 33 -117c18 0 29 24 25 93c0 0 56 2 180 9z" />
    <glyph glyph-name="ccircumflex.alt" horiz-adv-x="439" 
d="M228 -16c-134 0 -218 68 -218 257c0 155 66 253 225 253c127 0 203 -72 199 -209c-128 -3 -179 -6 -179 -6c2 58 -8 92 -28 92s-31 -32 -31 -136c0 -83 11 -117 33 -117c18 0 29 24 25 93c0 0 56 2 180 9c4 -161 -72 -236 -206 -236zM129 509c0 0 -19 20 -74 65
c0 0 33 31 108 112c0 0 25 0 109 10c0 0 27 -28 119 -108c0 0 -27 -25 -73 -78c0 0 -26 26 -98 84c0 0 -30 -25 -91 -85z" />
    <glyph glyph-name="dcaron.alt" horiz-adv-x="459" 
d="M436 9c0 0 -51 1 -141 1c0 0 1 23 2 64c-24 -52 -65 -80 -116 -80c-102 0 -171 68 -171 262c0 148 56 240 158 240c41 0 74 -24 96 -60c-1 60 -4 156 -11 272c0 0 36 -3 186 1c0 0 -5 -314 -3 -700zM231 113c19 0 28 22 28 133c0 81 -9 123 -31 123
c-17 0 -26 -31 -26 -133c0 -96 13 -123 29 -123zM623 640c0 -48 -34 -94 -95 -143c-33 27 -54 41 -54 41c24 23 35 41 40 51c-24 8 -39 29 -39 58c0 36 30 62 75 62c42 0 73 -24 73 -69z" />
    <glyph glyph-name="eacute.alt" horiz-adv-x="445" 
d="M225 -13c-134 0 -215 80 -215 258c0 141 64 249 214 249c162 0 221 -105 208 -290c0 0 -89 0 -240 -3c3 -73 13 -92 34 -92c18 0 28 22 30 62c0 0 80 -8 179 -11c-12 -95 -90 -173 -210 -173zM223 385c-20 0 -29 -15 -31 -97c18 0 37 1 58 2c1 74 -7 95 -27 95zM240 515
c-54 42 -82 58 -82 58c79 115 107 163 107 163c73 -56 103 -76 103 -76c-98 -108 -128 -145 -128 -145z" />
    <glyph glyph-name="ecaron.alt" horiz-adv-x="445" 
d="M225 -13c-134 0 -215 80 -215 258c0 141 64 249 214 249c162 0 221 -105 208 -290c0 0 -89 0 -240 -3c3 -73 13 -92 34 -92c18 0 28 22 30 62c0 0 80 -8 179 -11c-12 -95 -90 -173 -210 -173zM223 385c-20 0 -29 -15 -31 -97c18 0 37 1 58 2c1 74 -7 95 -27 95zM173 510
c0 0 -27 28 -119 108c0 0 27 25 73 78c0 0 26 -26 98 -84c0 0 30 25 91 85c0 0 19 -20 74 -65c0 0 -33 -31 -108 -112c0 0 -25 0 -109 -10z" />
    <glyph glyph-name="ecircumflex.alt" horiz-adv-x="445" 
d="M225 -13c-134 0 -215 80 -215 258c0 141 64 249 214 249c162 0 221 -105 208 -290c0 0 -89 0 -240 -3c3 -73 13 -92 34 -92c18 0 28 22 30 62c0 0 80 -8 179 -11c-12 -95 -90 -173 -210 -173zM223 385c-20 0 -29 -15 -31 -97c18 0 37 1 58 2c1 74 -7 95 -27 95zM128 506
c0 0 -19 20 -74 65c0 0 33 31 108 112c0 0 25 0 109 10c0 0 27 -28 119 -108c0 0 -27 -25 -73 -78c0 0 -26 26 -98 84c0 0 -30 -25 -91 -85z" />
    <glyph glyph-name="edieresis.alt" horiz-adv-x="445" 
d="M225 -13c-134 0 -215 80 -215 258c0 141 64 249 214 249c162 0 221 -105 208 -290c0 0 -89 0 -240 -3c3 -73 13 -92 34 -92c18 0 28 22 30 62c0 0 80 -8 179 -11c-12 -95 -90 -173 -210 -173zM223 385c-20 0 -29 -15 -31 -97c18 0 37 1 58 2c1 74 -7 95 -27 95zM134 519
c-50 0 -73 40 -73 81c0 47 30 80 74 80c51 0 72 -38 72 -80c0 -59 -35 -81 -73 -81zM312 523c-42 0 -70 32 -70 82c0 42 25 76 72 76s69 -37 69 -79c0 -51 -29 -79 -71 -79z" />
    <glyph glyph-name="edotaccent.alt" horiz-adv-x="445" 
d="M225 -13c-134 0 -215 80 -215 258c0 141 64 249 214 249c162 0 221 -105 208 -290c0 0 -89 0 -240 -3c3 -73 13 -92 34 -92c18 0 28 22 30 62c0 0 80 -8 179 -11c-12 -95 -90 -173 -210 -173zM223 385c-20 0 -29 -15 -31 -97c18 0 37 1 58 2c1 74 -7 95 -27 95zM222 529
c-62 0 -89 47 -89 88c0 45 31 86 89 86c60 0 89 -45 89 -86c0 -60 -40 -88 -89 -88z" />
    <glyph glyph-name="egrave.alt" horiz-adv-x="445" 
d="M225 -13c-134 0 -215 80 -215 258c0 141 64 249 214 249c162 0 221 -105 208 -290c0 0 -89 0 -240 -3c3 -73 13 -92 34 -92c18 0 28 22 30 62c0 0 80 -8 179 -11c-12 -95 -90 -173 -210 -173zM223 385c-20 0 -29 -15 -31 -97c18 0 37 1 58 2c1 74 -7 95 -27 95zM217 515
c0 0 -30 37 -128 145c0 0 30 20 103 76c0 0 28 -48 107 -163c0 0 -28 -16 -82 -58z" />
    <glyph glyph-name="emacron.alt" horiz-adv-x="445" 
d="M225 -13c-134 0 -215 80 -215 258c0 141 64 249 214 249c162 0 221 -105 208 -290c0 0 -89 0 -240 -3c3 -73 13 -92 34 -92c18 0 28 22 30 62c0 0 80 -8 179 -11c-12 -95 -90 -173 -210 -173zM223 385c-20 0 -29 -15 -31 -97c18 0 37 1 58 2c1 74 -7 95 -27 95zM94 544
c0 0 1 31 -2 111c0 0 64 -1 260 2c0 0 -2 -29 -2 -111c0 0 -68 1 -256 -2z" />
    <glyph glyph-name="eogonek.alt" horiz-adv-x="445" 
d="M298 -208c-100 -10 -159 28 -159 107c0 34 15 65 46 91c-110 14 -175 95 -175 255c0 141 64 249 214 249c162 0 221 -105 208 -290c0 0 -89 0 -240 -3c3 -73 13 -92 34 -92c18 0 28 22 30 62c0 0 80 -8 179 -11c-11 -84 -72 -154 -168 -169c-20 -17 -30 -36 -30 -51
c0 -27 19 -43 69 -42c0 0 -5 -29 -8 -106zM223 385c-20 0 -29 -15 -31 -97c18 0 37 1 58 2c1 74 -7 95 -27 95z" />
    <glyph glyph-name="gbreve.alt" horiz-adv-x="415" 
d="M210 206c13 0 29 8 29 92c0 73 -13 96 -29 96c-17 0 -33 -14 -33 -95s15 -93 33 -93zM269 -104c0 20 -18 35 -73 40c-21 -14 -29 -28 -29 -43c0 -21 18 -32 46 -32c31 0 56 12 56 35zM430 -71c0 -114 -102 -175 -222 -175c-117 0 -201 35 -201 121c0 45 35 79 81 96
c-26 20 -38 46 -38 73c0 29 22 67 58 88c-67 28 -103 87 -103 186c0 114 75 192 206 192s200 -79 200 -192c0 -134 -77 -205 -190 -205c-13 0 -25 0 -37 1c-8 -5 -12 -11 -12 -17c0 -11 15 -16 72 -21c148 -12 186 -73 186 -147zM215 541c-111 0 -144 72 -139 139
c0 0 30 0 107 5c-2 -28 11 -48 35 -48c18 0 37 14 30 57c0 0 31 -1 110 1c10 -109 -63 -154 -143 -154z" />
    <glyph glyph-name="gcircumflex.alt" horiz-adv-x="415" 
d="M210 206c13 0 29 8 29 92c0 73 -13 96 -29 96c-17 0 -33 -14 -33 -95s15 -93 33 -93zM269 -104c0 20 -18 35 -73 40c-21 -14 -29 -28 -29 -43c0 -21 18 -32 46 -32c31 0 56 12 56 35zM430 -71c0 -114 -102 -175 -222 -175c-117 0 -201 35 -201 121c0 45 35 79 81 96
c-26 20 -38 46 -38 73c0 29 22 67 58 88c-67 28 -103 87 -103 186c0 114 75 192 206 192s200 -79 200 -192c0 -134 -77 -205 -190 -205c-13 0 -25 0 -37 1c-8 -5 -12 -11 -12 -17c0 -11 15 -16 72 -21c148 -12 186 -73 186 -147zM123 526c0 0 -19 20 -74 65
c0 0 33 31 108 112c0 0 25 0 109 10c0 0 27 -28 119 -108c0 0 -27 -25 -73 -78c0 0 -26 26 -98 84c0 0 -30 -25 -91 -85z" />
    <glyph glyph-name="gcommaaccent.alt" horiz-adv-x="415" 
d="M430 -71c0 -114 -102 -175 -222 -175c-117 0 -201 35 -201 121c0 45 35 79 81 96c-26 20 -38 46 -38 73c0 29 22 67 58 88c-67 28 -103 87 -103 186c0 114 75 192 206 192s200 -79 200 -192c0 -134 -77 -205 -190 -205c-13 0 -25 0 -37 1c-8 -5 -12 -11 -12 -17
c0 -11 15 -16 72 -21c148 -12 186 -73 186 -147zM143 609c0 48 34 94 95 143c30 -25 50 -39 53 -41c-24 -23 -34 -41 -39 -51c24 -8 39 -29 39 -58c0 -36 -30 -62 -75 -62c-42 0 -73 24 -73 69zM210 206c13 0 29 8 29 92c0 73 -13 96 -29 96c-17 0 -33 -14 -33 -95
s15 -93 33 -93zM269 -104c0 20 -18 35 -73 40c-21 -14 -29 -28 -29 -43c0 -21 18 -32 46 -32c31 0 56 12 56 35z" />
    <glyph glyph-name="hcircumflex.alt" horiz-adv-x="434" 
d="M20 -3c0 0 6 329 2 696c0 0 51 -1 170 1c0 0 -4 -123 -4 -267c25 42 62 69 116 69c72 0 109 -63 112 -155c5 -160 3 -334 3 -334s-61 2 -177 2c0 0 2 137 0 295c0 25 -7 33 -21 33c-15 0 -22 -7 -22 -33c-2 -149 -1 -306 -1 -306s-55 1 -178 -1zM15 708
c0 0 -19 20 -74 65c0 0 33 31 108 112c0 0 25 0 109 10c0 0 27 -28 119 -108c0 0 -27 -25 -73 -78c0 0 -26 26 -98 84c0 0 -30 -25 -91 -85z" />
    <glyph glyph-name="iacute.alt" horiz-adv-x="217" 
d="M22 13c0 0 1 110 -3 477c0 0 58 -1 175 1c0 0 -1 -150 4 -477c0 0 -75 0 -176 -1zM123 520c-54 42 -82 58 -82 58c79 115 107 163 107 163c73 -56 103 -76 103 -76c-98 -108 -128 -145 -128 -145z" />
    <glyph glyph-name="icircumflex.alt" horiz-adv-x="217" 
d="M22 13c0 0 1 110 -3 477c0 0 58 -1 175 1c0 0 -1 -150 4 -477c0 0 -75 0 -176 -1zM11 515c0 0 -19 20 -74 65c0 0 33 31 108 112c0 0 25 0 109 10c0 0 27 -28 119 -108c0 0 -27 -25 -73 -78c0 0 -26 26 -98 84c0 0 -30 -25 -91 -85z" />
    <glyph glyph-name="idieresis.alt" horiz-adv-x="217" 
d="M22 13c0 0 1 110 -3 477c0 0 58 -1 175 1c0 0 -1 -150 4 -477c0 0 -75 0 -176 -1zM26 539c-50 0 -73 40 -73 81c0 47 30 80 74 80c51 0 72 -38 72 -80c0 -59 -35 -81 -73 -81zM204 543c-42 0 -70 32 -70 82c0 42 25 76 72 76s69 -37 69 -79c0 -51 -29 -79 -71 -79z" />
    <glyph glyph-name="igrave.alt" horiz-adv-x="217" 
d="M22 13c0 0 1 110 -3 477c0 0 58 -1 175 1c0 0 -1 -150 4 -477c0 0 -75 0 -176 -1zM117 520c0 0 -30 37 -128 145c0 0 30 20 103 76c0 0 28 -48 107 -163c0 0 -28 -16 -82 -58z" />
    <glyph glyph-name="imacron.alt" horiz-adv-x="217" 
d="M22 13c0 0 1 110 -3 477c0 0 58 -1 175 1c0 0 -1 -150 4 -477c0 0 -75 0 -176 -1zM-17 554c0 0 1 31 -2 111c0 0 64 -1 260 2c0 0 -2 -29 -2 -111c0 0 -68 1 -256 -2z" />
    <glyph glyph-name="iogonek.alt" horiz-adv-x="217" 
d="M22 13c0 0 1 110 -3 477c0 0 58 -1 175 1c0 0 -1 -150 4 -477c0 0 -20 1 -53 0c-33 -20 -50 -45 -50 -65c0 -27 19 -43 69 -42c0 0 -5 -29 -8 -106c-100 -10 -159 28 -159 107c0 40 21 77 68 105c0 0 -14 1 -43 0zM109 527c-60 0 -104 34 -104 112c0 62 39 103 104 103
c67 0 98 -53 98 -105c0 -72 -43 -110 -98 -110z" />
    <glyph glyph-name="jcircumflex.alt" horiz-adv-x="217" 
d="M-85 -216c0 0 4 61 4 164c8 -1 15 -1 22 -1c66 0 84 31 85 89c4 172 -1 443 -1 443c112 -1 171 1 171 1s8 -154 4 -467c-2 -138 -57 -230 -252 -230c-11 0 -21 0 -33 1zM14 515c0 0 -19 20 -74 65c0 0 33 31 108 112c0 0 25 0 109 10c0 0 27 -28 119 -108
c0 0 -27 -25 -73 -78c0 0 -26 26 -98 84c0 0 -30 -25 -91 -85z" />
    <glyph glyph-name="kcommaaccent.alt" horiz-adv-x="460" 
d="M271 -9c-16 66 -28 117 -38 154c-22 -41 -36 -69 -36 -69c0 -43 1 -70 1 -70c-118 3 -178 2 -178 2c3 461 0 695 0 695c126 -4 179 -2 179 -2c-2 -177 -2 -293 -2 -400c41 135 58 203 58 203c105 -13 192 -25 192 -25c-41 -82 -69 -143 -88 -183
c60 -184 101 -301 101 -301c-130 -1 -189 -4 -189 -4zM315 -95c0 -48 -34 -94 -95 -143c-33 27 -54 41 -54 41c24 23 35 41 40 51c-24 8 -39 29 -39 58c0 36 30 62 75 62c42 0 73 -24 73 -69z" />
    <glyph glyph-name="lacute.alt" horiz-adv-x="217" 
d="M197 2c-115 4 -176 3 -176 3c3 457 -1 688 -1 688c116 -5 177 -5 177 -5c-4 -491 0 -686 0 -686zM126 715c-54 42 -82 58 -82 58c79 115 107 163 107 163c73 -56 103 -76 103 -76c-98 -108 -128 -145 -128 -145z" />
    <glyph glyph-name="lcaron.alt" horiz-adv-x="217" 
d="M197 2c-115 4 -176 3 -176 3c3 457 -1 688 -1 688c116 -5 177 -5 177 -5c-4 -491 0 -686 0 -686zM381 624c0 -48 -34 -94 -95 -143c-33 27 -54 41 -54 41c24 23 35 41 40 51c-24 8 -39 29 -39 58c0 36 30 62 75 62c42 0 73 -24 73 -69z" />
    <glyph glyph-name="lcommaaccent.alt" horiz-adv-x="217" 
d="M197 2c-115 4 -176 3 -176 3c3 457 -1 688 -1 688c116 -5 177 -5 177 -5c-4 -491 0 -686 0 -686zM183 -95c0 -48 -34 -94 -95 -143c-31 25 -51 39 -54 41c24 23 35 41 40 51c-24 8 -39 29 -39 58c0 36 30 62 75 62c42 0 73 -24 73 -69z" />
    <glyph glyph-name="nacute.alt" horiz-adv-x="433" 
d="M240 5c0 0 2 138 2 296c0 23 -6 33 -21 33c-17 0 -21 -11 -22 -33c-2 -73 -1 -307 -1 -307s-80 1 -178 0c0 0 4 201 2 485c0 0 58 -2 138 1c0 0 -2 -45 -1 -82c23 53 77 93 135 93c78 0 119 -54 122 -148c2 -54 2 -337 2 -337c-61 1 -178 -1 -178 -1zM237 507
c-54 42 -82 58 -82 58c79 115 107 163 107 163c73 -56 103 -76 103 -76c-98 -108 -128 -145 -128 -145z" />
    <glyph glyph-name="ncaron.alt" horiz-adv-x="433" 
d="M240 5c0 0 2 138 2 296c0 23 -6 33 -21 33c-17 0 -21 -11 -22 -33c-2 -73 -1 -307 -1 -307s-80 1 -178 0c0 0 4 201 2 485c0 0 58 -2 138 1c0 0 -2 -45 -1 -82c23 53 77 93 135 93c78 0 119 -54 122 -148c2 -54 2 -337 2 -337c-61 1 -178 -1 -178 -1zM170 510
c0 0 -27 28 -119 108c0 0 27 25 73 78c0 0 26 -26 98 -84c0 0 30 25 91 85c0 0 19 -20 74 -65c0 0 -33 -31 -108 -112c0 0 -25 0 -109 -10z" />
    <glyph glyph-name="ncommaaccent.alt" horiz-adv-x="433" 
d="M240 5c0 0 2 138 2 296c0 23 -6 33 -21 33c-17 0 -21 -11 -22 -33c-2 -73 -1 -307 -1 -307s-80 1 -178 0c0 0 4 201 2 485c0 0 58 -2 138 1c0 0 -2 -45 -1 -82c23 53 77 93 135 93c78 0 119 -54 122 -148c2 -54 2 -337 2 -337c-61 1 -178 -1 -178 -1zM294 -95
c0 -48 -34 -94 -95 -143c-33 27 -54 41 -54 41c24 23 35 41 40 51c-24 8 -39 29 -39 58c0 36 30 62 75 62c42 0 73 -24 73 -69z" />
    </font>
</defs>
</svg>
